<svg width="52" height="47" viewBox="0 0 52 47" fill="none" xmlns="http://www.w3.org/2000/svg">
<path d="M45.0376 39.4097C44.7182 39.4097 44.3989 39.3458 44.2072 39.7924L44.7821 39.6008C44.846 39.7924 44.846 40.0474 44.7821 40.239C44.7182 40.3029 44.5266 40.3667 44.3989 40.4306V40.6856L43.9517 40.4945L43.8879 40.5584L44.2072 40.8133L43.313 41.0049L43.2491 40.8772L43.1213 41.1321L42.802 41.0049L42.6742 41.3238L42.4187 41.196L41.8438 41.8342L42.1632 41.8981L41.9716 42.4724C41.8438 42.3447 41.78 42.2169 41.7161 42.2169C41.6522 42.2169 41.3328 42.2808 41.3328 42.3447C41.2051 42.8551 40.758 42.919 40.3747 43.1106C40.247 43.1745 40.1831 43.2384 40.1192 43.3017C40.0553 43.3656 39.9915 43.4295 39.9915 43.4295C39.6082 43.3017 39.3527 43.685 38.9695 43.685C38.9056 43.685 38.8417 43.7488 38.7778 43.8122C38.7778 44.1315 38.5223 44.1315 38.2668 44.0677C38.0113 44.0038 37.8197 44.0677 37.692 44.3232C37.692 44.3865 37.6281 44.5143 37.5642 44.5143C37.1171 44.4504 36.7977 44.9608 36.3506 44.897C36.2228 44.897 36.0312 44.8336 35.9035 44.8336L36.159 44.5781L36.0951 44.5143L35.7118 44.7698L35.8396 44.3865L36.5422 44.3232L35.9035 44.0038L35.2008 44.7059L35.7757 44.7698C35.8396 44.9608 35.7757 45.0886 35.5841 45.2163C34.8815 45.6629 34.115 45.9817 33.3484 46.1095C33.2207 46.1734 33.0929 46.1734 32.9652 46.2372C32.7736 45.9817 32.7097 45.4713 32.1987 45.7268C32.4542 46.1734 32.3264 46.365 31.6238 46.4922L31.8793 45.9817L31.8154 45.9184C31.6877 46.0456 31.5599 46.1734 31.4322 46.3011C31.1767 46.62 30.7934 46.4922 30.4741 46.5561C30.1547 46.62 29.7714 46.62 29.5159 46.4922C29.3243 46.4289 29.1327 46.4289 28.9411 46.4289C28.7494 46.4289 28.5578 46.5561 28.3023 46.5561C27.9191 46.4922 27.5997 46.4289 27.2164 46.365C27.1526 46.365 27.1526 46.2372 27.1526 46.1734C27.0248 46.1095 26.8971 46.0456 26.7693 46.0456C26.8332 46.5561 26.6416 46.6838 26.1944 46.5561C26.0028 46.4922 25.8112 46.62 25.6834 46.5561C25.5557 46.4922 25.4918 46.4922 25.3641 46.365C25.3002 46.3011 25.1724 46.1734 25.1086 46.1734C25.0447 46.1734 24.9169 46.3011 24.7253 46.365L24.2143 46.0456L23.9588 46.3011V46.1734C23.8311 46.1734 23.7033 46.1734 23.5117 46.1734C23.32 46.1095 23.1284 46.0456 22.9368 45.9817C22.7452 45.8545 22.6174 45.7268 22.4258 45.6629C22.3619 45.6629 22.298 45.6629 22.2342 45.7268L21.4677 45.4713L21.3399 45.0247C20.765 45.7268 20.3185 45.3441 19.9352 44.897L20.063 44.4504C19.6158 44.897 19.4242 44.897 18.9132 44.5781C18.4661 44.3226 17.9551 44.1954 17.508 44.2593C17.508 44.2593 17.508 44.2593 17.4441 44.2593C17.2525 44.1315 16.9331 43.876 16.8053 43.9399C16.486 44.0677 16.3582 44.0677 16.1666 43.7488H16.4221L16.2304 43.4933C16.0388 43.4933 15.8472 43.6211 15.7833 43.5572C15.7194 43.4295 15.2084 43.2384 15.8472 42.9829L15.2084 42.8551L15.2723 42.5363L15.1446 42.4724L14.7613 43.2384L13.9309 42.919L14.3781 42.7913L13.9309 42.7274L14.3781 42.5363V42.4086L13.4199 42.0259L13.4838 42.2169C13.4838 42.2808 13.4838 42.4086 13.4838 42.4724C13.4199 42.4724 13.3561 42.4724 13.2283 42.4724C12.9089 42.3447 12.6534 42.1536 12.3979 41.962C12.2063 41.7704 12.0147 41.5793 11.8869 41.3238L11.5676 41.2599C11.5676 41.0688 12.0147 40.7494 11.5037 40.7494C11.2482 40.7494 10.9927 40.6856 10.7372 40.6217C10.3539 40.5584 10.0984 40.1751 10.1623 39.7924C10.1623 39.7285 10.1623 39.7285 10.1623 39.6647C10.0346 39.6647 9.90681 39.7285 9.84293 39.6647C9.77906 39.5369 9.71518 39.4097 9.65131 39.282C9.65131 39.1542 9.65131 38.9626 9.65131 38.9626C9.20418 38.7715 9.52356 38.6437 9.65131 38.3888C9.52356 38.3888 9.39581 38.3888 9.33193 38.4521C9.20418 38.7076 9.14031 38.9626 9.07643 39.2181C9.01256 39.4736 8.88481 39.6008 8.69318 39.4097C8.50155 39.2181 8.24605 39.2181 8.30993 38.8992C8.30993 38.7715 8.1183 38.6437 7.99055 38.516C7.99055 38.4521 8.30993 38.3249 7.99055 38.1972C7.8628 38.1333 7.79893 37.8783 7.67118 37.6867C7.54343 37.4951 7.41568 37.304 7.16018 37.4951C7.0963 37.4951 7.0963 37.4951 7.03243 37.4951C6.77692 37.304 6.5853 37.1124 6.39367 36.8569C6.3298 36.7297 6.45755 36.4742 6.39367 36.2825C6.3298 36.0915 6.26592 35.836 6.20205 35.6449C6.20205 35.7721 6.20205 35.9637 6.13817 36.0915C6.0743 36.1553 5.94655 36.2192 5.75492 36.2825C5.49942 35.8998 5.3078 35.4533 5.05229 35.0706C4.79679 34.6873 4.54129 34.4962 4.34967 34.1768C4.09417 33.9219 3.90254 33.6025 3.71092 33.2837C3.64704 33.0921 3.77479 32.8371 3.77479 32.5816L3.83867 32.1989H3.71092L3.96642 32.0073L3.90254 31.944L3.07216 32.2628C2.68891 31.8162 2.36954 31.3057 2.17791 30.7953C2.11404 30.6037 1.98629 30.4759 1.85854 30.2848C1.66691 29.9655 1.66691 29.5828 1.85854 29.2639L1.53916 28.8807C1.28366 28.8807 1.15591 28.6896 1.21978 28.3702C1.28366 28.1791 1.53916 27.8598 1.02816 27.6048L1.60304 27.4771V27.4132H1.09203L0.964284 27.2216L0.836534 27.2854C0.772658 27.0944 0.772658 26.8389 0.772658 26.6472C0.772658 26.52 1.02816 26.4561 1.15591 26.3284L1.28366 26.3923C1.28366 26.3284 1.21978 26.2645 1.21978 26.2006C0.708783 26.3284 0.708783 25.8818 0.644908 25.6263C0.581033 25.2436 0.453283 24.7332 0.772658 24.3504C0.836533 24.2866 0.836533 24.2227 0.772658 24.1588C0.581033 23.9672 0.772658 23.6484 0.708783 23.5206C0.644908 23.2018 0.836534 23.074 0.964284 22.8824C1.02816 22.8191 1.02816 22.6913 1.02816 22.6275L0.581033 22.8191L0.517158 21.6704L0.325532 20.7134C0.389407 20.6495 0.517158 20.5856 0.581033 20.5218C0.581033 20.394 0.644908 20.3301 0.644908 20.2024C0.517158 20.0752 0.389407 19.9474 0.325532 19.7558C0.261657 19.437 0.197782 19.0543 0.197782 18.671C0.197782 18.4799 0.133907 18.2883 0.0700316 18.0967C-0.121594 17.7779 0.133907 17.5862 0.197782 17.3313C0.197782 17.2674 0.261657 17.2035 0.261657 17.1397C0.133907 16.8208 0.261657 16.4376 0.581033 16.3104C0.644908 16.3104 0.644908 16.2465 0.708783 16.2465C0.900409 16.1826 1.02816 15.991 1.09203 15.8638L0.325532 16.1826L0.261657 16.1187C0.389407 15.991 0.517158 15.8638 0.581033 15.6722C0.581033 15.6083 0.581033 15.5444 0.581033 15.4167C0.453283 15.1617 0.644908 15.0978 0.836534 15.0978C0.964284 15.0978 1.09203 15.034 1.15591 14.9701C1.34753 14.9062 1.47529 14.779 1.66691 14.6512C1.73079 14.5874 1.79466 14.4596 1.85854 14.3957C1.85854 14.2685 1.85854 14.1408 1.85854 14.013L1.66691 14.2047L1.73079 13.1199V13.056C2.17791 12.7366 2.11404 12.1623 2.43341 11.7796C2.75279 11.3969 2.62504 11.1414 2.68891 10.7587C2.11404 10.376 2.75279 9.86552 2.49729 9.41894C2.43341 9.29119 2.68891 9.03569 2.75279 8.90849L2.88054 8.97182L3.19991 9.99327L3.58317 9.61002C3.32767 9.54615 3.51929 9.35507 3.64704 9.22732H3.26379L3.07216 8.71686H3.39154L3.32767 8.97182H3.39154C3.51929 8.84461 3.58317 8.71686 3.64704 8.58911L3.90254 8.33416C4.03029 8.20641 4.09417 7.95091 4.22192 7.88703C4.34967 7.8237 4.66904 7.88703 4.79679 7.8237C5.05229 7.5682 5.24392 7.37658 5.49942 7.05775C6.13817 6.48342 6.77692 5.84521 7.41568 5.27088C7.79893 5.71746 7.92668 5.71746 8.24605 5.27088L7.73505 5.14367C7.79893 5.0798 7.8628 4.88817 7.99055 4.88817C8.50155 4.76042 8.43768 4.31384 8.6293 3.99501C8.69318 3.93114 8.82093 3.93114 8.8848 3.93114C9.07643 3.99501 9.14031 3.93114 9.26806 3.67564C9.33193 3.48456 9.58743 3.35681 9.77906 3.35681C9.77906 3.35681 9.84293 3.35681 9.84293 3.42068L10.9927 2.7186L11.1204 2.9741C11.6953 2.14427 12.5896 1.88932 13.5477 1.63382L13.4199 1.88932L13.9309 2.20815L14.3142 1.63382C13.6754 1.95319 13.6754 1.95319 13.5477 1.63382L13.6116 1.56994C14.1864 1.56994 14.6336 1.12336 15.2084 1.05949C15.8472 0.99561 16.486 0.67678 17.1886 0.80453C17.3163 0.80453 17.6357 0.67678 17.8912 0.67678C17.9551 0.612905 18.0828 0.67678 18.1467 0.67678C18.0828 0.740655 18.0828 0.868406 18.019 0.931735C17.9551 0.99561 17.8912 1.12336 17.8273 1.18724C17.9551 1.18724 18.0828 1.18724 18.1467 1.12336C18.3383 0.931735 18.4661 0.740655 18.5938 0.54903C18.6577 0.485155 18.7216 0.485154 18.7855 0.485154C19.2326 0.485154 19.7436 0.485154 20.1907 0.421279C20.2546 0.421279 20.3185 0.357404 20.4462 0.357404C20.574 0.357404 20.7656 0.357404 20.8928 0.421279C20.9567 0.421279 21.0844 0.485154 21.1483 0.485154L21.2122 0.102449C21.6593 0.102449 22.1064 0.166325 22.6174 0.166325C23.1284 0.166325 23.3839 0.102449 23.8311 0.0385742C24.2782 0.0385742 24.6614 0.0385742 25.1086 0.0385742C25.2363 0.0385742 25.3641 0.166325 25.3641 0.2302C25.3641 0.54903 25.5557 0.421279 25.7473 0.485154L25.6834 0.102449C26.1944 0.102449 26.6416 0.102449 27.0887 0.102449C27.8552 0.166325 28.6217 0.166325 29.3882 0.294075C29.9631 0.357404 30.5379 0.485155 31.0489 0.612905C31.2406 0.67678 31.6238 0.612905 31.6238 0.99561C31.6877 0.99561 31.8154 0.99561 31.9432 0.99561L31.7516 0.740655L31.8154 0.67678L32.1987 0.931735C32.5181 0.740655 32.7097 0.80453 32.9013 1.05949C33.0929 0.99561 33.2207 0.931735 33.3484 0.99561C33.7956 1.12336 34.3066 1.31499 34.7537 1.44219C35.0092 1.50607 35.2008 1.56994 35.4563 1.69769C35.7118 1.82544 36.159 1.69769 36.2228 2.20815C36.2228 2.20815 36.3506 2.27202 36.4145 2.27202C36.67 2.27202 36.9255 2.20815 37.1171 2.46365C37.1171 2.52698 37.3087 2.52698 37.3726 2.52698L37.4365 2.9741L37.7558 2.7186L37.8197 2.78248L37.692 3.03743C38.0113 2.91023 38.0752 3.03743 38.1391 3.29293C38.4585 3.16518 38.7778 2.91023 39.0972 3.22906C39.3527 3.48456 39.6082 3.67564 39.9276 3.86726C39.9915 3.86726 40.0553 3.80339 40.0553 3.73951L40.1831 4.18609H40.247V3.93114L40.3747 4.31384C40.6941 4.05889 40.8218 4.31384 41.0135 4.50547C41.3328 4.76042 41.6522 4.95205 42.0355 5.14367C42.2271 5.27088 42.4187 5.33475 42.6103 5.4625C42.7381 5.59025 42.9297 5.78133 42.9936 5.97296L42.6103 6.16459L42.6742 6.29179C43.0575 6.16459 43.4407 5.97296 43.824 6.22846C44.2072 6.41954 44.5905 6.61117 44.9737 6.86612C45.2292 7.1855 45.4209 7.50433 45.5486 7.88703C45.8041 7.69595 45.868 8.01478 45.9957 8.20641C46.1235 8.39749 46.3151 8.46136 46.4429 8.58911C46.5706 8.78074 46.7622 8.97182 46.89 9.16344L46.5706 9.35507L46.7622 9.61002C46.4429 9.86552 46.8261 9.99327 46.89 10.2482L46.9539 9.86552C47.2094 9.73777 47.401 10.0566 47.5287 10.2482C47.8481 10.8864 48.1675 11.5246 48.5507 12.1623C48.8062 12.6094 49.0617 13.056 49.3811 13.5665C49.445 13.6303 49.445 13.7575 49.5089 13.8853C49.5727 14.013 49.6366 14.0769 49.7005 14.2047C49.8921 14.4596 49.956 14.779 49.8921 15.034C49.8282 15.1617 49.8282 15.2256 49.7644 15.3533L50.2754 15.2256L50.5947 15.991L50.3392 16.1187C50.7225 16.1826 50.7864 16.3104 50.7225 16.7569H51.0419L51.1057 17.5224C51.1057 17.5862 51.1696 17.6501 51.1696 17.5862C51.5529 17.3952 51.489 17.7779 51.489 17.9056C51.6167 18.3522 51.6806 18.7988 51.8084 19.3092V19.3731C51.5529 19.6919 51.8084 20.0752 51.6806 20.394C51.6167 20.5856 51.6167 20.8406 51.7445 21.0322C51.8722 21.4788 51.489 21.351 51.3612 21.5427C51.4251 21.6704 51.2974 21.9254 51.6167 21.9254C51.6806 21.9254 51.6806 22.117 51.6806 22.1809C51.6806 22.5636 51.4251 22.9463 51.0419 23.1379L51.3612 23.7761C51.3612 23.84 51.3612 23.9039 51.3612 23.9672C51.2335 24.2227 51.1057 24.4782 50.9141 24.6693C50.9141 24.7332 50.7864 24.7332 50.7864 24.797C50.8502 25.2436 51.1057 25.5624 51.489 25.7541L51.8722 26.3923L51.6806 27.4771H51.9361L52 27.6048L51.3612 28.0514L51.8722 28.1791L51.2974 29.1362L51.6806 29.0084C51.6806 29.0723 51.6806 29.1362 51.6806 29.2C51.6167 29.3911 51.6167 29.5189 51.5529 29.7105C51.489 29.9016 51.5529 30.0293 51.2974 29.9016C51.2974 29.9016 51.1696 30.0293 51.2335 30.0293C51.489 30.412 51.0419 30.4759 50.9141 30.6675C50.7864 30.8592 50.5947 30.7953 50.467 30.8592C50.7864 31.3696 50.7864 31.4968 50.467 31.7523C50.2754 31.6884 50.0837 31.6246 49.8921 31.6246C49.8282 31.6246 49.7644 31.7523 49.7005 31.8801L50.0837 32.0712L50.0199 31.8801H50.4031L50.0837 32.3267H49.8921L49.956 32.5816H49.445C49.5727 32.7732 49.7005 32.9649 49.8282 33.1559C49.8921 33.2837 49.8921 33.3476 49.8282 33.4753C49.8282 33.4753 49.7005 33.4753 49.5727 33.4753L49.5089 34.3685L49.1256 34.4962V34.1768L48.8701 34.1135L48.4869 34.8789C48.7424 35.2616 48.6785 35.3894 48.1675 35.5171L47.9759 35.1983C47.6565 35.6449 47.6565 35.6449 48.0397 36.0915L47.8481 36.2192L48.1675 36.4103L47.7204 36.9208C47.4649 36.8569 47.5926 36.4103 47.2094 36.6658L47.401 36.7935L47.3371 37.2401L46.5067 37.9417L46.8261 38.3888H46.1235L45.9319 39.0903C45.9319 39.1542 45.868 39.2181 45.868 39.1542C45.868 39.0903 45.7402 39.0903 45.7402 39.0903C45.6764 38.9626 45.6764 38.8354 45.6764 38.7076L45.0376 39.1542V39.4097ZM37.8836 36.7297L36.9255 36.4103L36.7977 36.8569C36.9893 36.6658 37.3087 36.6658 37.8836 36.7935L38.0113 36.9846L38.3307 36.6658L38.2668 36.6019H38.4585C38.203 36.4742 37.9475 36.3464 37.8836 36.7297ZM47.5287 13.8853L48.1036 13.4387C48.0397 13.3748 47.9759 13.3748 47.912 13.311C47.6565 13.1199 47.7204 13.6942 47.401 13.5026L47.3371 13.7575C47.401 13.8214 47.4649 13.8853 47.5287 13.8853C47.0816 14.3319 47.0816 14.3957 47.5926 14.6512L47.5287 13.8853ZM46.8261 37.1124L46.9539 36.6658C46.8261 36.6019 46.6984 36.6019 46.5706 36.6019C46.4429 36.6658 46.379 36.7935 46.3151 36.7935L46.8261 37.1124C46.3151 36.8569 46.4429 37.4951 46.1235 37.559L46.379 37.8783L46.8261 37.1124ZM14.5058 12.3539C14.4419 11.9712 14.3781 11.6518 14.3142 11.333C14.2503 11.1414 14.1226 10.9503 13.9309 11.1414C13.7393 11.3969 13.5477 11.5885 13.4199 11.9073L14.0587 11.7157L13.8671 11.9712L14.5058 12.3539ZM15.3362 22.7552L15.0168 23.1379C15.0168 23.2018 14.9529 23.2657 14.9529 23.2657L15.0807 23.3934C15.2723 23.2657 15.4639 23.5206 15.7194 23.3934C15.9749 23.2657 15.9111 22.9463 15.9749 22.8191C15.9749 22.8191 15.8472 22.5636 15.7194 22.4997C15.5917 22.4358 15.4639 22.5636 15.3362 22.5636L15.8472 22.8824L15.7833 23.0102L15.3362 22.7552ZM20.9567 12.1623C20.3823 11.7796 20.4462 12.3539 20.3185 12.6094C20.2546 12.6733 20.2546 12.8644 20.3185 12.8644C20.4462 12.9921 20.6378 13.056 20.7656 13.1199L20.8289 13.056C20.5101 12.6733 20.574 12.4178 20.9567 12.1623ZM26.2583 16.3104C26.1944 16.3742 26.1306 16.3742 26.0667 16.4381C25.8112 16.5653 25.3641 16.6292 25.8112 17.0758C25.8112 17.1397 25.7473 17.2674 25.7473 17.3313H26.0667V16.6292L26.3222 16.8208L26.2583 16.3104ZM31.5599 13.2471V13.7575L31.3044 13.5026L31.1767 13.5665L31.3683 14.013C31.4961 13.9492 31.6238 13.8853 31.6877 13.8214C32.0071 13.6303 31.9432 13.2471 31.5599 13.2471ZM11.1843 36.6019L10.7372 36.7935C10.9288 37.1124 10.7372 37.2401 10.4178 37.304L10.9288 37.559L11.1843 36.6019ZM9.45968 35.1983C9.26806 35.3894 9.14031 35.7088 9.39581 35.8998C9.58743 36.0276 9.84293 36.0276 10.0346 35.836C10.0984 35.7721 10.0984 35.7088 10.0984 35.6449L9.45968 35.836V35.1983ZM14.6974 40.1751L14.1864 40.3667L14.3142 39.984H13.8032L14.3781 40.7494L14.6974 40.1751ZM50.1476 29.455L50.6586 30.2848V29.3273L50.1476 29.455ZM32.4542 43.6211L32.5181 44.4504H32.6458L32.5181 44.0677L32.9652 43.6211L32.9013 43.4933L32.4542 43.6211ZM7.3518 32.9649L7.22405 32.5816C7.03242 32.5816 6.90467 32.6455 6.71305 32.7094C6.64917 32.7732 6.5853 32.901 6.5853 33.0287H6.64917L6.96855 32.7732L7.03243 32.8371L6.8408 32.9649V33.0287L7.3518 32.9649ZM46.8261 34.2407L46.379 34.3685L47.0816 34.624L47.0177 33.9858L46.5706 34.0496L46.8261 34.2407ZM8.3738 33.9858H8.24605L8.1183 34.2407C7.92668 34.4962 7.92668 34.4962 8.3738 34.6873V33.9858ZM12.3341 39.9202C12.5257 39.8563 12.6534 39.7924 12.7812 39.6647C13.0367 39.5369 12.9728 39.5369 12.8451 39.282C12.6534 39.4736 12.2063 39.4736 12.3341 39.9202ZM40.758 41.6426V41.7704L41.3328 41.6426C41.3967 41.8342 41.3967 42.1536 41.8438 41.962C41.3328 41.8342 41.5245 41.5793 41.5245 41.3876L40.758 41.6426ZM42.0993 34.0496L41.8438 34.624L42.4826 34.5601L42.0993 34.0496ZM41.8438 41.196H41.9077C41.9077 41.0049 41.9077 40.8772 41.8438 40.7494C41.78 40.6217 41.5883 40.5584 41.5245 40.5584C41.4606 40.5584 41.269 40.7494 41.1412 40.8772C41.2051 40.9411 41.3328 40.9411 41.3967 40.8772L41.6522 40.7494C41.7161 40.8133 41.7161 40.8772 41.78 41.0049C41.78 41.0049 41.78 41.0688 41.8438 41.196ZM42.2271 39.9202L42.0993 39.984C42.0993 40.1112 42.0993 40.3029 42.0993 40.4306C42.0993 40.4945 42.1632 40.6217 42.2271 40.6856C42.291 40.6217 42.4187 40.5584 42.4187 40.4945C42.3548 40.239 42.291 40.0474 42.2271 39.9202ZM50.4031 19.3092C50.5309 19.3092 50.5947 19.3092 50.7225 19.3092C50.7225 19.3092 50.7864 19.1815 50.7864 19.1181C50.7864 18.9265 50.7864 18.7988 50.7864 18.6071L50.467 18.671C50.4031 18.8626 50.8502 19.1181 50.4031 19.3092ZM47.8481 14.9701L47.5287 14.7151L47.3371 15.4805C47.7204 15.2256 47.912 14.9062 47.7842 14.6512L47.8481 14.9701ZM46.379 11.1414L46.2512 11.2053L46.5706 11.9712L46.9539 12.0351C46.8261 11.9073 46.6984 11.7796 46.6984 11.7796C46.9539 11.3969 46.379 11.4608 46.379 11.1414ZM39.4166 28.8168C39.2888 28.8807 39.2888 28.9445 39.1611 28.9445C38.7778 28.9445 38.9056 29.2 38.9695 29.3911C38.9695 29.455 39.0333 29.455 39.0972 29.5189C39.1611 29.5828 39.1611 29.5189 39.1611 29.455C39.2888 29.2639 39.3527 29.0723 39.4166 28.8168ZM47.0177 33.5392H47.2094C47.2732 33.2837 47.2732 33.0287 47.3371 32.7732C47.3371 32.7732 47.2732 32.7094 47.2094 32.7094C47.1455 32.7094 47.1455 32.7732 47.0816 32.7732L47.0177 33.5392ZM11.6953 38.3888L11.4398 38.3249C11.4398 38.4521 11.3759 38.5799 11.4398 38.5799C11.5037 38.6437 11.6314 38.6437 11.7592 38.6437C11.8231 38.6437 11.8869 38.5799 12.0147 38.516L11.8869 38.1972L11.6953 38.3888ZM27.3442 18.2244L27.1526 17.5224C26.7693 17.8417 26.8332 17.9695 27.3442 18.2244ZM48.8062 32.3905H48.7424L48.5507 32.7732C48.934 32.7094 48.4869 33.0921 48.8062 33.2198V32.3905ZM46.3151 13.4387C46.3151 13.5665 46.2512 13.7575 46.3151 13.8214C46.379 13.8853 46.5706 14.013 46.6984 14.0769L46.8261 13.9492L46.3151 13.4387ZM10.6733 3.67564C10.5456 3.67564 10.4178 3.67564 10.3539 3.73951C10.2901 3.73951 10.2262 3.80339 10.2262 3.86726C10.2262 3.93114 10.2901 3.93114 10.2901 3.99501C10.4817 4.05889 10.6733 4.12222 10.9927 4.12222L10.6733 3.67564ZM37.5003 37.4312V37.3673L36.7338 37.1763L36.67 37.4312H37.5003ZM42.6742 30.7953L42.8658 30.3487C42.6742 30.2848 42.4187 30.0932 42.291 30.3487L42.6742 30.7953ZM6.45755 7.44045C6.3298 7.31325 6.01042 7.1855 6.39367 6.99387C6.39367 6.99387 6.39367 6.86612 6.3298 6.73892L5.94655 7.12162L6.20205 7.50433L6.45755 7.44045ZM15.4639 39.4736H14.7613V39.6008L15.1446 39.7924L15.4639 39.4736ZM25.6834 23.9039C25.5557 23.84 25.4279 23.84 25.3002 23.84C25.2363 23.9039 25.1724 23.9672 25.1724 24.0949C25.1724 24.1588 25.2363 24.2227 25.3002 24.2866L25.6834 23.9039ZM7.79893 37.4951H7.92668L8.1183 36.538H7.99055L7.79893 37.4951ZM46.9539 12.1623L46.2512 12.4178C46.7622 12.5456 46.9539 12.4817 46.9539 12.1623ZM40.5025 7.69595C40.5663 7.44045 40.5025 7.1855 40.247 7.05775C40.1831 7.05775 40.1192 6.99387 40.0553 7.05775L40.5025 7.69595ZM45.0376 39.4736C45.1015 39.4097 45.1015 39.3458 45.1654 39.282C45.2292 39.2181 45.357 39.2181 45.4209 39.1542C45.4209 39.2181 45.4847 39.3458 45.4847 39.4097C45.357 39.6008 45.2292 39.7285 45.0376 39.9202H44.9737L45.0376 39.4736ZM13.4838 34.6873C13.2283 35.0706 12.7812 35.1344 12.5896 34.7512L13.0367 34.8789C12.9728 34.3046 13.3561 34.4962 13.5477 34.4324L13.4838 34.6873ZM30.1547 33.4753C30.2186 33.858 30.0908 33.9858 29.7714 33.9219L29.6437 33.6025L29.8992 33.4753L29.8353 33.4114L30.1547 33.4753ZM29.3882 25.2436L28.6217 24.9887C28.8133 24.6693 29.1327 24.4782 29.5159 24.5415L29.2604 24.7332L29.3882 25.2436ZM38.3307 12.4817L38.0113 12.8005H37.9475L38.2668 12.099H38.3946L38.3307 12.4817Z" fill="#2C2221"/>
<path d="M27.9028 4.73242C16.301 4.73242 6.89551 14.1374 6.89551 25.7397C6.89551 37.3415 16.301 46.747 27.9028 46.747C39.5051 46.747 48.9106 37.3415 48.9106 25.7397C48.9106 14.1374 39.5051 4.73242 27.9028 4.73242Z" fill="#F9F8DB"/>
<path d="M27.9004 0C14.866 0 4.30859 10.5574 4.30859 23.5918C4.30859 34.0313 11.0619 42.8482 20.4395 45.9743C21.6193 46.1807 22.0615 45.4731 22.0615 44.854C22.0615 44.2933 22.032 42.4355 22.032 40.4597C16.1048 41.5511 14.5712 39.0146 14.0995 37.688C13.8342 37.0094 12.6839 34.9157 11.681 34.3556C10.8555 33.9133 9.67575 32.822 11.6515 32.7925C13.5093 32.7631 14.8365 34.503 15.2787 35.2105C17.4019 38.7788 20.7933 37.7764 22.15 37.1568C22.3563 35.6238 22.9754 34.5914 23.654 34.0018C18.4048 33.4116 12.9197 31.3769 12.9197 22.353C12.9197 19.7877 13.8342 17.6645 15.3377 16.013C15.1019 15.4234 14.2764 13.0049 15.5736 9.76144C15.5736 9.76144 17.5499 9.14179 22.0615 12.1794C23.9488 11.6488 25.9541 11.3829 27.9593 11.3829C29.9646 11.3829 31.9698 11.6488 33.8571 12.1794C38.3693 9.11231 40.3451 9.76144 40.3451 9.76144C41.6428 13.0049 40.8168 15.4234 40.581 16.013C42.085 17.6645 42.9989 19.7582 42.9989 22.353C42.9989 31.4064 37.4844 33.4116 32.2351 34.0018C33.0906 34.7388 33.8277 36.1544 33.8277 38.3661C33.8277 41.5216 33.7982 44.0575 33.7982 44.854C33.7982 45.4731 34.2409 46.2101 35.4202 45.9743C36.0016 45.7783 36.5737 45.5594 37.1382 45.3186C37.7022 45.0779 38.2558 44.8158 38.7995 44.5319C39.3433 44.248 39.8751 43.9434 40.3953 43.618C40.9151 43.2926 41.4217 42.9476 41.9147 42.5829C42.4077 42.2182 42.8859 41.835 43.3494 41.4331C43.8124 41.0313 44.2595 40.6121 44.6897 40.1753C45.1205 39.7385 45.5332 39.286 45.9285 38.817C46.3243 38.3486 46.7004 37.8649 47.058 37.367C47.4156 36.8685 47.7535 36.3575 48.0713 35.8329C48.389 35.3088 48.686 34.7727 48.9623 34.2251C49.2385 33.678 49.4929 33.1206 49.7255 32.5534C49.958 31.9862 50.1682 31.4102 50.356 30.8266C50.5444 30.243 50.7093 29.6534 50.8512 29.0567C50.9926 28.4605 51.1111 27.8594 51.2066 27.2534C51.3016 26.648 51.3731 26.0392 51.4206 25.4283C51.4681 24.8169 51.4921 24.2049 51.4921 23.5918C51.4921 10.5574 40.9347 0 27.9004 0Z" fill="#2C2221"/>
</svg>
