<svg width="52" height="47" viewBox="0 0 52 47" fill="none" xmlns="http://www.w3.org/2000/svg">
<path d="M45.0377 39.3707C44.7183 39.3707 44.3989 39.3068 44.2073 39.7534L44.7822 39.5623C44.8461 39.7534 44.8461 40.0089 44.7822 40.2005C44.7183 40.2639 44.5267 40.3277 44.3989 40.3916V40.6471L43.9518 40.4555L43.8879 40.5194L44.2073 40.7743L43.3131 40.9659L43.2492 40.8382L43.1214 41.0937L42.8021 40.9659L42.6743 41.2853L42.4188 41.1576L41.844 41.7958L42.1633 41.8591L41.9717 42.4334C41.844 42.3062 41.7801 42.1785 41.7162 42.1785C41.6523 42.1785 41.333 42.2423 41.333 42.3062C41.2052 42.8167 40.7581 42.8805 40.3748 43.0716C40.2471 43.1355 40.1832 43.1994 40.1193 43.2632C40.0555 43.3271 39.9916 43.391 39.9916 43.391C39.6083 43.2632 39.3528 43.6459 38.9696 43.6459C38.9057 43.6459 38.8419 43.7098 38.778 43.7737C38.778 44.0925 38.5225 44.0925 38.267 44.0286C38.0115 43.9653 37.8199 44.0286 37.6921 44.2841C37.6921 44.348 37.6282 44.4758 37.5644 44.4758C37.1172 44.4119 36.7979 44.9223 36.3507 44.8585C36.223 44.8585 36.0314 44.7946 35.9036 44.7946L36.1591 44.5391L36.0952 44.4758L35.712 44.7307L35.8398 44.348L36.5424 44.2841L35.9036 43.9653L35.201 44.6668L35.7759 44.7307C35.8398 44.9223 35.7759 45.0495 35.5843 45.1773C34.8816 45.6239 34.1151 45.9432 33.3486 46.071C33.2209 46.1343 33.0932 46.1343 32.9654 46.1982C32.7738 45.9432 32.7099 45.4328 32.1989 45.6877C32.4544 46.1343 32.3267 46.3259 31.624 46.4537L31.8795 45.9432L31.8157 45.8794C31.6879 46.0071 31.5602 46.1343 31.4324 46.2621C31.1769 46.5814 30.7937 46.4537 30.4743 46.5176C30.1549 46.5814 29.7717 46.5814 29.5162 46.4537C29.3246 46.3898 29.1329 46.3898 28.9413 46.3898C28.7497 46.3898 28.5581 46.5176 28.3026 46.5176C27.9193 46.4537 27.5999 46.3898 27.2167 46.3259C27.1528 46.3259 27.1528 46.1982 27.1528 46.1343C27.0251 46.071 26.8973 46.0071 26.7696 46.0071C26.8334 46.5176 26.6418 46.6453 26.1947 46.5176C26.0031 46.4537 25.8115 46.5814 25.6837 46.5176C25.556 46.4537 25.4921 46.4537 25.3643 46.3259C25.3005 46.2621 25.1727 46.1343 25.1088 46.1343C25.045 46.1343 24.9172 46.2621 24.7256 46.3259L24.2146 46.0071L23.9591 46.2621V46.1343C23.8313 46.1343 23.7036 46.1343 23.512 46.1343C23.3204 46.071 23.1287 46.0071 22.9371 45.9432C22.7455 45.8155 22.6177 45.6877 22.4261 45.6239C22.3622 45.6239 22.2984 45.6239 22.2345 45.6877L21.468 45.4328L21.3402 44.9862C20.7654 45.6877 20.3182 45.305 19.935 44.8585L20.0628 44.4119C19.6156 44.8585 19.424 44.8585 18.913 44.5391C18.4659 44.2841 17.9549 44.1564 17.5078 44.2203C17.5078 44.2203 17.5078 44.2203 17.4439 44.2203C17.2523 44.0925 16.9329 43.8376 16.8052 43.9014C16.4858 44.0286 16.358 44.0286 16.1664 43.7098H16.4219L16.2303 43.4543C16.0387 43.4543 15.847 43.5821 15.7832 43.5182C15.7193 43.391 15.2083 43.1994 15.847 42.9439L15.2083 42.8167L15.2722 42.4973L15.1444 42.4334L14.7612 43.1994L13.9308 42.8805L14.3779 42.7528L13.9308 42.6889L14.3779 42.4973V42.3695L13.4198 41.9868L13.4837 42.1785C13.4837 42.2423 13.4837 42.3695 13.4837 42.4334C13.4198 42.4334 13.3559 42.4334 13.2282 42.4334C12.9088 42.3062 12.6533 42.1146 12.3978 41.923C12.2062 41.7319 12.0146 41.5403 11.8868 41.2853L11.5674 41.2214C11.5674 41.0298 12.0146 40.711 11.5036 40.711C11.2481 40.711 10.9926 40.6471 10.7371 40.5832C10.3538 40.5194 10.0983 40.1367 10.1622 39.7534C10.1622 39.6895 10.1622 39.6895 10.1622 39.6262C10.0345 39.6262 9.9067 39.6895 9.84283 39.6262C9.77896 39.4985 9.71508 39.3707 9.65121 39.243C9.65121 39.1158 9.65121 38.9241 9.65121 38.9241C9.20409 38.7325 9.52346 38.6053 9.65121 38.3498C9.52346 38.3498 9.39571 38.3498 9.33183 38.4137C9.20409 38.6686 9.14021 38.9241 9.07634 39.1791C9.01246 39.4346 8.88471 39.5623 8.69309 39.3707C8.50147 39.1791 8.24597 39.1791 8.30984 38.8603C8.30984 38.7325 8.11822 38.6053 7.99047 38.4776C7.99047 38.4137 8.30984 38.2859 7.99047 38.1582C7.86272 38.0943 7.79885 37.8394 7.6711 37.6477C7.54335 37.4567 7.4156 37.265 7.1601 37.4567C7.09623 37.4567 7.09623 37.4567 7.03235 37.4567C6.77685 37.265 6.58523 37.0734 6.39361 36.8185C6.32973 36.6907 6.45748 36.4358 6.39361 36.2441C6.32973 36.0525 6.26586 35.7976 6.20198 35.6059C6.20198 35.7337 6.20198 35.9253 6.13811 36.0525C6.07423 36.1164 5.94649 36.1803 5.75486 36.2441C5.49936 35.8614 5.30774 35.4143 5.05224 35.0316C4.79674 34.6489 4.54125 34.4573 4.34962 34.1385C4.09412 33.883 3.9025 33.5641 3.71088 33.2448C3.647 33.0537 3.77475 32.7982 3.77475 32.5432L3.83863 32.1605H3.71088L3.96638 31.9689L3.9025 31.905L3.07213 32.2239C2.68889 31.7773 2.36951 31.2668 2.17789 30.7564C2.11402 30.5648 1.98627 30.4376 1.85852 30.2459C1.66689 29.9271 1.66689 29.5439 1.85852 29.225L1.53914 28.8423C1.28365 28.8423 1.1559 28.6507 1.21977 28.3319C1.28365 28.1403 1.53914 27.8214 1.02815 27.5659L1.60302 27.4382V27.3743H1.09202L0.964274 27.1832L0.836525 27.2471C0.77265 27.0555 0.77265 26.8005 0.77265 26.6089C0.77265 26.4812 1.02815 26.4173 1.1559 26.2895L1.28365 26.3534C1.28365 26.2895 1.21977 26.2262 1.21977 26.1623C0.708776 26.2895 0.708776 25.843 0.644901 25.588C0.581027 25.2048 0.453278 24.6943 0.77265 24.3116C0.836525 24.2477 0.836525 24.1839 0.77265 24.1205C0.581027 23.9289 0.77265 23.6095 0.708776 23.4823C0.644901 23.163 0.836525 23.0358 0.964274 22.8441C1.02815 22.7803 1.02815 22.6525 1.02815 22.5886L0.581027 22.7803L0.517152 21.6316L0.325529 20.6746C0.389403 20.6107 0.517152 20.5468 0.581027 20.483C0.581027 20.3558 0.644901 20.2919 0.644901 20.1641C0.517152 20.0364 0.389403 19.9086 0.325529 19.7176C0.261654 19.3982 0.19778 19.0155 0.19778 18.6328C0.19778 18.4412 0.133905 18.2495 0.0700309 18.0585C-0.121593 17.7391 0.133905 17.548 0.19778 17.2925C0.19778 17.2286 0.261654 17.1648 0.261654 17.1014C0.133905 16.7821 0.261654 16.3994 0.581027 16.2716C0.644901 16.2716 0.644901 16.2077 0.708776 16.2077C0.900399 16.1439 1.02815 15.9528 1.09202 15.825L0.325529 16.1439L0.261654 16.0805C0.389403 15.9528 0.517152 15.825 0.581027 15.6334C0.581027 15.5695 0.581027 15.5062 0.581027 15.3785C0.453278 15.123 0.644901 15.0591 0.836525 15.0591C0.964274 15.0591 1.09202 14.9958 1.1559 14.9319C1.34752 14.868 1.47527 14.7403 1.66689 14.6125C1.73077 14.5486 1.79464 14.4214 1.85852 14.3576C1.85852 14.2298 1.85852 14.1021 1.85852 13.9743L1.66689 14.1659L1.73077 13.0812V13.0173C2.17789 12.6985 2.11402 12.1241 2.43339 11.7414C2.75276 11.3582 2.62501 11.1032 2.68889 10.7205C2.11402 10.3373 2.75276 9.82685 2.49726 9.38027C2.43339 9.25252 2.68889 8.99757 2.75276 8.86982L2.88051 8.9337L3.19988 9.9546L3.58313 9.57189C3.32763 9.50802 3.51925 9.3164 3.647 9.18865H3.26376L3.07213 8.6782H3.39151L3.32763 8.9337H3.39151C3.51925 8.80595 3.58313 8.6782 3.647 8.55099L3.9025 8.2955C4.03025 8.16775 4.09412 7.9128 4.22187 7.84892C4.34962 7.78505 4.66899 7.84892 4.79674 7.78505C5.05224 7.52955 5.24387 7.33847 5.49936 7.0191C6.13811 6.44477 6.77685 5.80712 7.4156 5.2328C7.79885 5.67937 7.92659 5.67937 8.24597 5.2328L7.73497 5.10505C7.79885 5.04117 7.86272 4.84955 7.99047 4.84955C8.50146 4.72235 8.43759 4.27577 8.62921 3.9564C8.69309 3.89252 8.82084 3.89252 8.88471 3.89252C9.07634 3.9564 9.14021 3.89252 9.26796 3.63757C9.33183 3.44595 9.58733 3.3182 9.77896 3.3182C9.77896 3.3182 9.84283 3.3182 9.84283 3.38207L10.9926 2.68055L11.1203 2.9355C11.6952 2.10622 12.5894 1.85072 13.5476 1.59577L13.4198 1.85072L13.9308 2.16955L14.314 1.59577C13.6753 1.9146 13.6753 1.9146 13.5476 1.59577L13.6114 1.5319C14.1863 1.5319 14.6334 1.08477 15.2083 1.02145C15.847 0.957572 16.4858 0.638199 17.1884 0.765948C17.3161 0.765948 17.6355 0.638199 17.891 0.638199C17.9549 0.574325 18.0826 0.638199 18.1465 0.638199C18.0826 0.702074 18.0826 0.829823 18.0188 0.893697C17.9549 0.957572 17.891 1.08477 17.8271 1.14865C17.9549 1.14865 18.0826 1.14865 18.1465 1.08477C18.3381 0.893697 18.4659 0.702074 18.5936 0.510996C18.6575 0.447122 18.7214 0.447122 18.7853 0.447122C19.2324 0.447122 19.7434 0.447122 20.1905 0.383247C20.2544 0.383247 20.3182 0.319373 20.446 0.319373C20.5737 0.319373 20.7654 0.319373 20.8931 0.383247C20.957 0.383247 21.0847 0.447122 21.1486 0.447122L21.2125 0.0638745C21.6596 0.0638745 22.1067 0.127749 22.6177 0.127749C23.1287 0.127749 23.3842 0.0638745 23.8313 0C24.2785 0 24.6617 0 25.1088 0C25.2366 0 25.3643 0.127749 25.3643 0.191624C25.3643 0.510996 25.556 0.383247 25.7476 0.447122L25.6837 0.0638745C26.1947 0.0638745 26.6418 0.0638745 27.0889 0.0638745C27.8554 0.127749 28.6219 0.127749 29.3884 0.255498C29.9633 0.319373 30.5382 0.447122 31.0492 0.574325C31.2408 0.638199 31.624 0.574325 31.624 0.957572C31.6879 0.957572 31.8157 0.957572 31.9434 0.957572L31.7518 0.702074L31.8157 0.638199L32.1989 0.893697C32.5183 0.702074 32.7099 0.765948 32.9015 1.02145C33.0932 0.957572 33.2209 0.893697 33.3486 0.957572C33.7958 1.08477 34.3068 1.2764 34.7539 1.40415C35.0094 1.46802 35.201 1.5319 35.4565 1.6591C35.712 1.78685 36.1591 1.6591 36.223 2.16955C36.223 2.16955 36.3507 2.23342 36.4146 2.23342C36.6701 2.23342 36.9256 2.16955 37.1172 2.42505C37.1172 2.48892 37.3089 2.48892 37.3727 2.48892L37.4366 2.9355L37.756 2.68055L37.8199 2.74387L37.6921 2.99937C38.0115 2.87162 38.0754 2.99937 38.1392 3.25432C38.4586 3.12712 38.778 2.87162 39.0974 3.191C39.3528 3.44595 39.6083 3.63757 39.9277 3.82865C39.9916 3.82865 40.0555 3.76477 40.0555 3.70145L40.1832 4.14802H40.2471V3.89252L40.3748 4.27577C40.6942 4.02027 40.822 4.27577 41.0136 4.46685C41.333 4.72235 41.6523 4.91342 42.0356 5.10505C42.2272 5.2328 42.4188 5.29667 42.6105 5.42387C42.7382 5.55162 42.9298 5.74325 42.9937 5.93432L42.6105 6.12595L42.6743 6.2537C43.0576 6.12595 43.4408 5.93432 43.8241 6.18982C44.2073 6.38144 44.5906 6.57252 44.9738 6.82802C45.2293 7.14685 45.4209 7.46622 45.5487 7.84892C45.8042 7.6573 45.868 7.97667 45.9958 8.16775C46.1235 8.35937 46.3152 8.42325 46.4429 8.55099C46.5707 8.74207 46.7623 8.9337 46.89 9.12477L46.5707 9.3164L46.7623 9.57189C46.4429 9.82685 46.8262 9.9546 46.89 10.2095L46.9539 9.82685C47.2094 9.6991 47.401 10.0185 47.5288 10.2095C47.8482 10.8477 48.1675 11.4859 48.5508 12.1241C48.8063 12.5707 49.0618 13.0173 49.3811 13.5277C49.445 13.5916 49.445 13.7194 49.5089 13.8471C49.5728 13.9743 49.6366 14.0382 49.7005 14.1659C49.8921 14.4214 49.956 14.7403 49.8921 14.9958C49.8283 15.123 49.8283 15.1868 49.7644 15.3146L50.2754 15.1868L50.5948 15.9528L50.3393 16.0805C50.7225 16.1439 50.7864 16.2716 50.7225 16.7182H51.0419L51.1058 17.4841C51.1058 17.548 51.1696 17.6119 51.1696 17.548C51.5529 17.3564 51.489 17.7391 51.489 17.8668C51.6168 18.3134 51.6806 18.7605 51.8084 19.271V19.3343C51.5529 19.6537 51.8084 20.0364 51.6806 20.3558C51.6168 20.5468 51.6168 20.8023 51.7445 20.9934C51.8723 21.4405 51.489 21.3128 51.3613 21.5039C51.4251 21.6316 51.2974 21.8871 51.6168 21.8871C51.6806 21.8871 51.6806 22.0782 51.6806 22.1421C51.6806 22.5248 51.4251 22.908 51.0419 23.0991L51.3613 23.7373C51.3613 23.8012 51.3613 23.865 51.3613 23.9289C51.2335 24.1839 51.1058 24.4394 50.9141 24.631C50.9141 24.6943 50.7864 24.6943 50.7864 24.7582C50.8503 25.2048 51.1058 25.5241 51.489 25.7158L51.8723 26.3534L51.6806 27.4382H51.9361L52 27.5659L51.3613 28.0125L51.8723 28.1403L51.2974 29.0973L51.6806 28.9695C51.6806 29.0334 51.6806 29.0973 51.6806 29.1612C51.6168 29.3528 51.6168 29.4805 51.5529 29.6716C51.489 29.8632 51.5529 29.991 51.2974 29.8632C51.2974 29.8632 51.1696 29.991 51.2335 29.991C51.489 30.3737 51.0419 30.4376 50.9141 30.6286C50.7864 30.8203 50.5948 30.7564 50.467 30.8203C50.7864 31.3307 50.7864 31.4585 50.467 31.7134C50.2754 31.6495 50.0838 31.5862 49.8921 31.5862C49.8283 31.5862 49.7644 31.7134 49.7005 31.8412L50.0838 32.0328L50.0199 31.8412H50.4031L50.0838 32.2877H49.8921L49.956 32.5432H49.445C49.5728 32.7343 49.7005 32.9259 49.8283 33.1176C49.8921 33.2448 49.8921 33.3086 49.8283 33.4364C49.8283 33.4364 49.7005 33.4364 49.5728 33.4364L49.5089 34.3295L49.1256 34.4573V34.1385L48.8702 34.0746L48.4869 34.8405C48.7424 35.2232 48.6785 35.351 48.1675 35.4782L47.9759 35.1594C47.6565 35.6059 47.6565 35.6059 48.0398 36.0525L47.8482 36.1803L48.1675 36.3719L47.7204 36.8823C47.4649 36.8185 47.5927 36.3719 47.2094 36.6268L47.401 36.7546L47.3372 37.2012L46.5068 37.9032L46.8262 38.3498H46.1235L45.9319 39.0519C45.9319 39.1158 45.868 39.1791 45.868 39.1158C45.868 39.0519 45.7403 39.0519 45.7403 39.0519C45.6764 38.9241 45.6764 38.7964 45.6764 38.6686L45.0377 39.1158V39.3707ZM37.8837 36.6907L36.9256 36.3719L36.7979 36.8185C36.9895 36.6268 37.3089 36.6268 37.8837 36.7546L38.0115 36.9462L38.3309 36.6268L38.267 36.563H38.4586C38.2031 36.4358 37.9476 36.308 37.8837 36.6907ZM47.5288 13.8471L48.1037 13.4005C48.0398 13.3367 47.9759 13.3367 47.912 13.2728C47.6565 13.0812 47.7204 13.6555 47.401 13.4639L47.3372 13.7194C47.401 13.7832 47.4649 13.8471 47.5288 13.8471C47.0817 14.2937 47.0817 14.3576 47.5927 14.6125L47.5288 13.8471ZM46.8262 37.0734L46.9539 36.6268C46.8262 36.563 46.6984 36.563 46.5707 36.563C46.4429 36.6268 46.379 36.7546 46.3152 36.7546L46.8262 37.0734C46.3152 36.8185 46.4429 37.4567 46.1235 37.5205L46.379 37.8394L46.8262 37.0734ZM14.5057 12.3158C14.4418 11.9325 14.3779 11.6137 14.314 11.2943C14.2502 11.1032 14.1224 10.9116 13.9308 11.1032C13.7392 11.3582 13.5476 11.5498 13.4198 11.8686L14.0585 11.6776L13.8669 11.9325L14.5057 12.3158ZM15.336 22.7164L15.0167 23.0991C15.0167 23.163 14.9528 23.2268 14.9528 23.2268L15.0805 23.3546C15.2722 23.2268 15.4638 23.4823 15.7193 23.3546C15.9748 23.2268 15.9109 22.908 15.9748 22.7803C15.9748 22.7803 15.847 22.5248 15.7193 22.4614C15.5915 22.3976 15.4638 22.5248 15.336 22.5248L15.847 22.8441L15.7832 22.9719L15.336 22.7164ZM20.957 12.1241C20.3821 11.7414 20.446 12.3158 20.3182 12.5707C20.2544 12.6346 20.2544 12.8262 20.3182 12.8262C20.446 12.9534 20.6376 13.0173 20.7654 13.0812L20.8292 13.0173C20.5099 12.6346 20.5737 12.3791 20.957 12.1241ZM26.2586 16.2716C26.1947 16.3355 26.1308 16.3355 26.067 16.3994C25.8115 16.5271 25.3643 16.591 25.8115 17.0376C25.8115 17.1014 25.7476 17.2286 25.7476 17.2925H26.067V16.591L26.3225 16.7821L26.2586 16.2716ZM31.5602 13.2089V13.7194L31.3047 13.4639L31.1769 13.5277L31.3685 13.9743C31.4963 13.911 31.624 13.8471 31.6879 13.7832C32.0073 13.5916 31.9434 13.2089 31.5602 13.2089ZM11.1842 36.563L10.7371 36.7546C10.9287 37.0734 10.7371 37.2012 10.4177 37.265L10.9287 37.5205L11.1842 36.563ZM9.45958 35.1594C9.26796 35.351 9.14021 35.6698 9.39571 35.8614C9.58733 35.9886 9.84283 35.9886 10.0345 35.7976C10.0983 35.7337 10.0983 35.6698 10.0983 35.6059L9.45958 35.7976V35.1594ZM14.6973 40.1367L14.1863 40.3277L14.314 39.945H13.8031L14.3779 40.711L14.6973 40.1367ZM50.1476 29.4167L50.6586 30.2459V29.2889L50.1476 29.4167ZM32.4544 43.5821L32.5183 44.4119H32.646L32.5183 44.0286L32.9654 43.5821L32.9015 43.4543L32.4544 43.5821ZM7.35172 32.9259L7.22398 32.5432C7.03235 32.5432 6.9046 32.6071 6.71298 32.671C6.6491 32.7343 6.58523 32.8621 6.58523 32.9898H6.6491L6.96848 32.7343L7.03235 32.7982L6.84073 32.9259V32.9898L7.35172 32.9259ZM46.8262 34.2023L46.379 34.3295L47.0817 34.585L47.0178 33.9468L46.5707 34.0107L46.8262 34.2023ZM8.37372 33.9468H8.24597L8.11822 34.2023C7.92659 34.4573 7.92659 34.4573 8.37372 34.6489V33.9468ZM12.3339 39.8812C12.5256 39.8173 12.6533 39.7534 12.7811 39.6262C13.0366 39.4985 12.9727 39.4985 12.8449 39.243C12.6533 39.4346 12.2062 39.4346 12.3339 39.8812ZM40.7581 41.6041V41.7319L41.333 41.6041C41.3968 41.7958 41.3968 42.1146 41.844 41.923C41.333 41.7958 41.5246 41.5403 41.5246 41.3486L40.7581 41.6041ZM42.0995 34.0107L41.844 34.585L42.4827 34.5212L42.0995 34.0107ZM41.844 41.1576H41.9078C41.9078 40.9659 41.9078 40.8382 41.844 40.711C41.7801 40.5832 41.5885 40.5194 41.5246 40.5194C41.4607 40.5194 41.2691 40.711 41.1413 40.8382C41.2052 40.9021 41.333 40.9021 41.3968 40.8382L41.6523 40.711C41.7162 40.7743 41.7162 40.8382 41.7801 40.9659C41.7801 40.9659 41.7801 41.0298 41.844 41.1576ZM42.2272 39.8812L42.0995 39.945C42.0995 40.0728 42.0995 40.2639 42.0995 40.3916C42.0995 40.4555 42.1633 40.5832 42.2272 40.6471C42.2911 40.5832 42.4188 40.5194 42.4188 40.4555C42.3549 40.2005 42.2911 40.0089 42.2272 39.8812ZM50.4031 19.271C50.5309 19.271 50.5948 19.271 50.7225 19.271C50.7225 19.271 50.7864 19.1432 50.7864 19.0794C50.7864 18.8877 50.7864 18.7605 50.7864 18.5689L50.467 18.6328C50.4031 18.8239 50.8503 19.0794 50.4031 19.271ZM47.8482 14.9319L47.5288 14.6764L47.3372 15.4423C47.7204 15.1868 47.912 14.868 47.7843 14.6125L47.8482 14.9319ZM46.379 11.1032L46.2513 11.1671L46.5707 11.9325L46.9539 11.9964C46.8262 11.8686 46.6984 11.7414 46.6984 11.7414C46.9539 11.3582 46.379 11.4221 46.379 11.1032ZM39.4167 28.7785C39.289 28.8423 39.289 28.9062 39.1612 28.9062C38.778 28.9062 38.9057 29.1612 38.9696 29.3528C38.9696 29.4167 39.0335 29.4167 39.0974 29.4805C39.1612 29.5439 39.1612 29.4805 39.1612 29.4167C39.289 29.225 39.3528 29.0334 39.4167 28.7785ZM47.0178 33.5003H47.2094C47.2733 33.2448 47.2733 32.9898 47.3372 32.7343C47.3372 32.7343 47.2733 32.671 47.2094 32.671C47.1455 32.671 47.1455 32.7343 47.0817 32.7343L47.0178 33.5003ZM11.6952 38.3498L11.4397 38.2859C11.4397 38.4137 11.3758 38.5414 11.4397 38.5414C11.5036 38.6048 11.6313 38.6048 11.7591 38.6048C11.8229 38.6048 11.8868 38.5414 12.0146 38.4776L11.8868 38.1582L11.6952 38.3498ZM27.3444 18.1862L27.1528 17.4841C26.7696 17.803 26.8334 17.9307 27.3444 18.1862ZM48.8063 32.3516H48.7424L48.5508 32.7343C48.934 32.671 48.4869 33.0537 48.8063 33.1814V32.3516ZM46.3152 13.4005C46.3152 13.5277 46.2513 13.7194 46.3152 13.7832C46.379 13.8471 46.5707 13.9743 46.6984 14.0382L46.8262 13.911L46.3152 13.4005ZM10.6732 3.63757C10.5455 3.63757 10.4177 3.63757 10.3538 3.70145C10.29 3.70145 10.2261 3.76477 10.2261 3.82865C10.2261 3.89252 10.29 3.89252 10.29 3.9564C10.4816 4.02027 10.6732 4.08415 10.9926 4.08415L10.6732 3.63757ZM37.5005 37.3928V37.3289L36.734 37.1373L36.6701 37.3928H37.5005ZM42.6743 30.7564L42.8659 30.3098C42.6743 30.2459 42.4188 30.0543 42.2911 30.3098L42.6743 30.7564ZM6.45748 7.40235C6.32973 7.2746 6.01036 7.14685 6.39361 6.95577C6.39361 6.95577 6.39361 6.82802 6.32973 6.70027L5.94649 7.08297L6.20198 7.46622L6.45748 7.40235ZM15.4638 39.4346H14.7612V39.5623L15.1444 39.7534L15.4638 39.4346ZM25.6837 23.865C25.556 23.8012 25.4282 23.8012 25.3005 23.8012C25.2366 23.865 25.1727 23.9289 25.1727 24.0567C25.1727 24.1205 25.2366 24.1839 25.3005 24.2477L25.6837 23.865ZM7.79885 37.4567H7.92659L8.11822 36.4991H7.99047L7.79885 37.4567ZM46.9539 12.1241L46.2513 12.3791C46.7623 12.5068 46.9539 12.443 46.9539 12.1241ZM40.5026 7.6573C40.5665 7.40235 40.5026 7.14685 40.2471 7.0191C40.1832 7.0191 40.1193 6.95577 40.0555 7.0191L40.5026 7.6573ZM45.0377 39.4346C45.1016 39.3707 45.1016 39.3068 45.1654 39.243C45.2293 39.1791 45.3571 39.1791 45.4209 39.1158C45.4209 39.1791 45.4848 39.3068 45.4848 39.3707C45.3571 39.5623 45.2293 39.6895 45.0377 39.8812H44.9738L45.0377 39.4346ZM13.4837 34.6489C13.2282 35.0316 12.7811 35.0955 12.5894 34.7128L13.0366 34.8405C12.9727 34.2662 13.3559 34.4573 13.5476 34.3934L13.4837 34.6489ZM30.1549 33.4364C30.2188 33.8191 30.091 33.9468 29.7717 33.883L29.6439 33.5641L29.8994 33.4364L29.8356 33.3725L30.1549 33.4364ZM29.3884 25.2048L28.6219 24.9498C28.8136 24.631 29.1329 24.4394 29.5162 24.5032L29.2607 24.6943L29.3884 25.2048ZM38.3309 12.443L38.0115 12.7623H37.9476L38.267 12.0603H38.3947L38.3309 12.443Z" fill="#D0026C"/>
<path d="M33.5587 15.5288C33.5095 15.5288 33.461 15.5337 33.4135 15.543C33.3654 15.5528 33.3185 15.567 33.2737 15.5856C33.2284 15.6041 33.1853 15.6271 33.1449 15.6544C33.1039 15.6817 33.0662 15.7122 33.0319 15.7472C32.9969 15.7816 32.9663 15.8192 32.939 15.8602C32.9117 15.9006 32.8888 15.9437 32.8703 15.989C32.8517 16.0338 32.8375 16.0808 32.8277 16.1288C32.8184 16.1768 32.8135 16.2249 32.8135 16.274C32.8135 16.3231 32.8184 16.3712 32.8277 16.4192C32.8375 16.4673 32.8517 16.5137 32.8703 16.559C32.8888 16.6043 32.9117 16.6474 32.939 16.6878C32.9663 16.7288 32.9969 16.7664 33.0319 16.8008C33.0662 16.8352 33.1039 16.8664 33.1449 16.8936C33.1853 16.9209 33.2284 16.9439 33.2737 16.9624C33.3185 16.981 33.3654 16.9952 33.4135 17.005C33.461 17.0143 33.5095 17.0192 33.5587 17.0192C33.6073 17.0192 33.6559 17.0143 33.7039 17.005C33.7519 16.9952 33.7983 16.981 33.8437 16.9624C33.889 16.9439 33.9321 16.9209 33.9725 16.8936C34.0134 16.8664 34.0506 16.8358 34.0855 16.8008C34.1199 16.7664 34.151 16.7288 34.1783 16.6878C34.2051 16.6474 34.228 16.6043 34.2471 16.559C34.2657 16.5137 34.2799 16.4673 34.2891 16.4192C34.299 16.3712 34.3039 16.3231 34.3039 16.274C34.3033 16.2249 34.299 16.1768 34.2891 16.1288C34.2799 16.0808 34.2657 16.0343 34.2466 15.989C34.228 15.9437 34.2051 15.9006 34.1778 15.8602C34.1505 15.8192 34.1199 15.7821 34.085 15.7472C34.0506 15.7128 34.0129 15.6817 33.9725 15.6544C33.9316 15.6276 33.889 15.6047 33.8437 15.5856C33.7983 15.567 33.7519 15.5528 33.7039 15.543C33.6559 15.5337 33.6073 15.5288 33.5587 15.5288Z" fill="#F9F8DB"/>
<path d="M31.1144 23.3651C31.1144 23.5338 31.1062 23.7025 31.0893 23.8707C31.0729 24.0388 31.0483 24.2059 31.015 24.3713C30.9823 24.5373 30.9413 24.7011 30.8922 24.8627C30.8431 25.0242 30.7863 25.1831 30.7219 25.3393C30.6569 25.4954 30.5848 25.6477 30.5051 25.7967C30.4254 25.9458 30.3386 26.0905 30.2447 26.2313C30.1514 26.3716 30.0504 26.507 29.9434 26.638C29.8364 26.7685 29.7228 26.8935 29.6033 27.0131C29.4842 27.1327 29.3592 27.2457 29.2282 27.3532C29.0977 27.4602 28.9623 27.5607 28.822 27.6546C28.6812 27.7485 28.5365 27.8353 28.3875 27.915C28.2384 27.9947 28.0861 28.0667 27.93 28.1312C27.7738 28.1961 27.615 28.2529 27.4534 28.302C27.2918 28.3512 27.128 28.3921 26.9626 28.4249C26.7966 28.4576 26.6295 28.4828 26.4614 28.4991C26.2932 28.5155 26.1251 28.5242 25.9559 28.5242C25.7872 28.5242 25.6185 28.5155 25.4503 28.4991C25.2822 28.4828 25.1157 28.4576 24.9497 28.4249C24.7843 28.3921 24.6205 28.3512 24.4589 28.302C24.2968 28.2529 24.1379 28.1961 23.9823 28.1312C23.8262 28.0667 23.6733 27.9947 23.5243 27.915C23.3752 27.8353 23.2305 27.7485 23.0902 27.6546C22.9499 27.5607 22.814 27.4602 22.6835 27.3532C22.553 27.2457 22.428 27.1327 22.3085 27.0131C22.1889 26.8935 22.0759 26.7685 21.9689 26.638C21.8613 26.507 21.7609 26.3716 21.667 26.2313C21.5731 26.0905 21.4863 25.9458 21.4071 25.7967C21.3274 25.6477 21.2553 25.4954 21.1904 25.3393C21.126 25.1831 21.0692 25.0242 21.02 24.8627C20.9709 24.7011 20.93 24.5373 20.8967 24.3713C20.8639 24.2059 20.8393 24.0388 20.8224 23.8707C20.806 23.7025 20.7979 23.5338 20.7979 23.3651C20.7979 23.1959 20.806 23.0272 20.8224 22.8591C20.8393 22.6909 20.8639 22.5244 20.8967 22.3584C20.93 22.1925 20.9709 22.0292 21.02 21.8671C21.0692 21.7055 21.126 21.5466 21.1904 21.3905C21.2553 21.2344 21.3274 21.082 21.4071 20.933C21.4863 20.784 21.5731 20.6393 21.667 20.4984C21.7609 20.3581 21.8613 20.2227 21.9689 20.0923C22.0759 19.9612 22.1889 19.8362 22.3085 19.7167C22.428 19.5976 22.553 19.4841 22.6835 19.3771C22.814 19.2695 22.9499 19.1691 23.0902 19.0752C23.2305 18.9813 23.3752 18.8945 23.5243 18.8148C23.6733 18.7356 23.8262 18.663 23.9823 18.5986C24.1379 18.5342 24.2968 18.4768 24.4589 18.4283C24.6205 18.3791 24.7843 18.3382 24.9497 18.3049C25.1157 18.2721 25.2822 18.247 25.4503 18.2306C25.6185 18.2142 25.7872 18.2061 25.9559 18.2061C26.1251 18.2061 26.2932 18.2142 26.4614 18.2306C26.6295 18.247 26.7966 18.2721 26.9626 18.3049C27.128 18.3382 27.2918 18.3791 27.4534 18.4283C27.615 18.4768 27.7738 18.5342 27.93 18.5986C28.0861 18.663 28.2384 18.7356 28.3875 18.8148C28.5365 18.8945 28.6812 18.9813 28.822 19.0752C28.9623 19.1691 29.0977 19.2695 29.2282 19.3771C29.3592 19.4841 29.4842 19.5976 29.6033 19.7167C29.7228 19.8362 29.8364 19.9612 29.9434 20.0923C30.0504 20.2227 30.1514 20.3581 30.2447 20.4984C30.3386 20.6393 30.4254 20.784 30.5051 20.933C30.5848 21.082 30.6569 21.2344 30.7219 21.3905C30.7863 21.5466 30.8431 21.7055 30.8922 21.8671C30.9413 22.0292 30.9823 22.1925 31.015 22.3584C31.0483 22.5244 31.0729 22.6909 31.0893 22.8591C31.1062 23.0272 31.1144 23.1959 31.1144 23.3651Z" fill="#F9F8DB"/>
<path d="M32.5901 9.78516H19.3217C19.0815 9.7857 18.8418 9.79771 18.6027 9.82119C18.3636 9.84521 18.1261 9.8807 17.8902 9.92765C17.6544 9.97514 17.4218 10.0336 17.1914 10.1034C16.9616 10.1733 16.7356 10.2541 16.5139 10.3464C16.2917 10.4386 16.0744 10.5413 15.8626 10.6548C15.6508 10.7684 15.445 10.8918 15.2452 11.0255C15.0454 11.1587 14.8526 11.3023 14.6665 11.4546C14.4809 11.6069 14.3029 11.7685 14.1331 11.9383C13.9633 12.1081 13.8017 12.2861 13.6494 12.4723C13.4971 12.6579 13.354 12.8506 13.2203 13.0504C13.0865 13.2502 12.9632 13.4566 12.8496 13.6684C12.7366 13.8802 12.6334 14.0975 12.5417 14.3192C12.4494 14.5414 12.3681 14.7674 12.2982 14.9972C12.2283 15.2276 12.1699 15.4602 12.123 15.696C12.076 15.9318 12.0405 16.1693 12.0165 16.4085C11.9925 16.6476 11.9805 16.8878 11.9805 17.128V29.601C11.9805 29.8418 11.9925 30.0814 12.0165 30.3205C12.0405 30.5597 12.076 30.7971 12.123 31.033C12.1699 31.2688 12.2283 31.5019 12.2982 31.7318C12.3681 31.9616 12.4494 32.1876 12.5417 32.4098C12.6334 32.632 12.7366 32.8488 12.8496 33.0606C12.9632 33.273 13.0865 33.4788 13.2203 33.6786C13.354 33.8784 13.4971 34.0711 13.6494 34.2573C13.8017 34.4429 13.9633 34.6209 14.1331 34.7907C14.3029 34.961 14.4809 35.122 14.6665 35.2744C14.8526 35.4272 15.0454 35.5703 15.2452 35.704C15.445 35.8372 15.6508 35.9611 15.8626 36.0742C16.0744 36.1877 16.2917 36.2903 16.5139 36.3826C16.7356 36.4749 16.9616 36.5557 17.1914 36.6256C17.4218 36.6954 17.6544 36.7544 17.8902 36.8013C18.1261 36.8483 18.3636 36.8838 18.6027 36.9078C18.8418 36.9313 19.0815 36.9433 19.3217 36.9438H32.5901C32.8309 36.9433 33.0705 36.9313 33.3096 36.9078C33.5488 36.8838 33.7862 36.8483 34.0221 36.8013C34.2579 36.7544 34.4905 36.6954 34.7203 36.6256C34.9507 36.5557 35.1762 36.4749 35.3984 36.3826C35.6206 36.2903 35.8373 36.1877 36.0491 36.0742C36.2615 35.9611 36.4673 35.8372 36.6671 35.704C36.867 35.5703 37.0597 35.4272 37.2453 35.2744C37.4315 35.122 37.6089 34.961 37.7792 34.7907C37.949 34.6209 38.1101 34.4429 38.2629 34.2573C38.4152 34.0711 38.5583 33.8784 38.692 33.6786C38.8258 33.4788 38.9492 33.273 39.0622 33.0606C39.1757 32.8488 39.2784 32.632 39.3706 32.4098C39.4629 32.1876 39.5437 31.9616 39.6136 31.7318C39.6834 31.5019 39.7424 31.2688 39.7894 31.033C39.8363 30.7971 39.8718 30.5597 39.8958 30.3205C39.9193 30.0814 39.9313 29.8418 39.9318 29.601V17.128C39.9313 16.8878 39.9193 16.6476 39.8958 16.4085C39.8718 16.1693 39.8363 15.9318 39.7894 15.696C39.7424 15.4602 39.6834 15.2276 39.6136 14.9972C39.5437 14.7674 39.4629 14.5414 39.3706 14.3192C39.2784 14.0975 39.1757 13.8802 39.0622 13.6684C38.9492 13.4566 38.8258 13.2502 38.692 13.0504C38.5583 12.8506 38.4152 12.6579 38.2629 12.4723C38.1101 12.2861 37.949 12.1081 37.7792 11.9383C37.6089 11.7685 37.4315 11.6069 37.2453 11.4546C37.0597 11.3023 36.867 11.1587 36.6671 11.0255C36.4673 10.8918 36.2615 10.7684 36.0491 10.6548C35.8373 10.5413 35.6206 10.4386 35.3984 10.3464C35.1762 10.2541 34.9507 10.1733 34.7203 10.1034C34.4905 10.0336 34.2579 9.97514 34.0221 9.92765C33.7862 9.8807 33.5488 9.84521 33.3096 9.82119C33.0705 9.79771 32.8309 9.7857 32.5901 9.78516ZM25.9559 29.9952C25.7391 29.9952 25.5224 29.9848 25.3062 29.9635C25.09 29.9422 24.8755 29.91 24.6626 29.868C24.4496 29.8254 24.2395 29.773 24.0315 29.7096C23.824 29.6469 23.6198 29.5737 23.4189 29.4907C23.2186 29.4072 23.0226 29.3144 22.8309 29.2123C22.6393 29.1097 22.4532 28.9983 22.273 28.8776C22.0923 28.757 21.9181 28.6281 21.7505 28.49C21.5824 28.3524 21.4219 28.2067 21.2685 28.0533C21.1145 27.8993 20.9693 27.7388 20.8312 27.5712C20.6936 27.4031 20.5642 27.2289 20.4436 27.0482C20.3229 26.868 20.2115 26.6819 20.1095 26.4902C20.0068 26.2986 19.914 26.1026 19.831 25.9017C19.748 25.7014 19.6749 25.4972 19.6121 25.2892C19.5488 25.0817 19.4964 24.871 19.4538 24.6581C19.4117 24.4452 19.3795 24.2306 19.3582 24.0144C19.337 23.7982 19.3266 23.5815 19.3266 23.3648C19.3266 23.1475 19.337 22.9307 19.3582 22.7146C19.3795 22.4984 19.4117 22.2838 19.4538 22.0709C19.4964 21.858 19.5488 21.6478 19.6121 21.4398C19.6749 21.2318 19.748 21.0276 19.831 20.8273C19.914 20.6264 20.0068 20.4304 20.1095 20.2387C20.2115 20.0477 20.3229 19.8615 20.4436 19.6808C20.5642 19.5001 20.6936 19.3259 20.8312 19.1583C20.9693 18.9902 21.1145 18.8297 21.2685 18.6763C21.4219 18.5223 21.5824 18.3765 21.7505 18.239C21.9181 18.1014 22.0923 17.972 22.273 17.8514C22.4532 17.7307 22.6393 17.6193 22.8309 17.5167C23.0226 17.4146 23.2186 17.3218 23.4189 17.2388C23.6198 17.1558 23.824 17.0827 24.0315 17.0194C24.2395 16.9566 24.4496 16.9036 24.6626 16.8616C24.8755 16.819 25.09 16.7873 25.3062 16.766C25.5224 16.7447 25.7391 16.7338 25.9559 16.7338C26.1732 16.7338 26.3899 16.7447 26.6061 16.766C26.8217 16.7873 27.0363 16.819 27.2492 16.8616C27.4621 16.9036 27.6729 16.9566 27.8803 17.0194C28.0883 17.0827 28.2925 17.1558 28.4928 17.2388C28.6938 17.3218 28.8897 17.4146 29.0814 17.5167C29.2724 17.6193 29.4586 17.7307 29.6393 17.8514C29.82 17.972 29.9942 18.1014 30.1618 18.239C30.3294 18.3765 30.4904 18.5223 30.6438 18.6763C30.7972 18.8297 30.943 18.9902 31.0806 19.1583C31.2187 19.3259 31.3475 19.5001 31.4682 19.6808C31.5889 19.8615 31.7002 20.0477 31.8029 20.2387C31.9049 20.4304 31.9978 20.6264 32.0807 20.8273C32.1643 21.0276 32.2369 21.2318 32.3002 21.4398C32.363 21.6478 32.4159 21.858 32.458 22.0709C32.5006 22.2838 32.5322 22.4984 32.5535 22.7146C32.5748 22.9307 32.5857 23.1475 32.5857 23.3648C32.5852 23.5815 32.5743 23.7982 32.553 24.0144C32.5317 24.2301 32.4995 24.4446 32.4569 24.6575C32.4143 24.8705 32.3614 25.0806 32.2986 25.2886C32.2352 25.4961 32.1621 25.7003 32.0791 25.9006C31.9956 26.1015 31.9028 26.2975 31.8007 26.4886C31.698 26.6802 31.5867 26.8659 31.466 27.0466C31.3454 27.2273 31.216 27.4014 31.0784 27.569C30.9408 27.7366 30.7951 27.8977 30.6417 28.0511C30.4882 28.2045 30.3277 28.3503 30.1596 28.4878C29.992 28.6254 29.8178 28.7548 29.6377 28.8754C29.457 28.9961 29.2714 29.1075 29.0797 29.2101C28.8881 29.3122 28.6927 29.405 28.4918 29.4885C28.2914 29.5715 28.0872 29.6447 27.8798 29.708C27.6718 29.7713 27.4616 29.8243 27.2487 29.8663C27.0363 29.9089 26.8217 29.9411 26.6055 29.9624C26.3899 29.9842 26.1732 29.9952 25.9559 29.9952ZM33.5586 18.4901C33.486 18.4901 33.4134 18.4863 33.3413 18.4792C33.2692 18.4721 33.1972 18.4617 33.1262 18.4475C33.0552 18.4333 32.9848 18.4159 32.9149 18.3946C32.8456 18.3738 32.7774 18.3493 32.7102 18.3214C32.6436 18.2936 32.5781 18.2624 32.5137 18.2286C32.4498 18.1942 32.3876 18.1571 32.3275 18.1167C32.2669 18.0763 32.2085 18.0332 32.1528 17.9868C32.0966 17.9409 32.0425 17.8923 31.9912 17.841C31.9399 17.7897 31.8913 17.7356 31.8454 17.6799C31.7996 17.6237 31.7559 17.5653 31.7161 17.5052C31.6757 17.4446 31.638 17.3824 31.6041 17.3185C31.5697 17.2547 31.5386 17.1891 31.5108 17.122C31.4835 17.0548 31.4589 16.9866 31.4376 16.9173C31.4169 16.8474 31.3989 16.777 31.3847 16.706C31.371 16.635 31.3601 16.563 31.353 16.4909C31.3459 16.4188 31.3421 16.3462 31.3421 16.2736C31.3421 16.201 31.3459 16.1284 31.353 16.0563C31.3601 15.9843 31.371 15.9122 31.3847 15.8412C31.3989 15.7697 31.4169 15.6998 31.4376 15.6299C31.4589 15.5606 31.4835 15.4924 31.5108 15.4252C31.5386 15.3581 31.5697 15.2926 31.6041 15.2287C31.638 15.1648 31.6757 15.1026 31.7161 15.042C31.7559 14.9819 31.7996 14.9235 31.8454 14.8673C31.8913 14.811 31.9399 14.7575 31.9912 14.7062C32.0425 14.6549 32.0966 14.6063 32.1528 14.5599C32.2085 14.5141 32.2669 14.4709 32.3275 14.4305C32.3876 14.3901 32.4498 14.353 32.5137 14.3186C32.5781 14.2848 32.6436 14.2536 32.7102 14.2258C32.7774 14.198 32.8456 14.1734 32.9149 14.1526C32.9848 14.1314 33.0552 14.1139 33.1262 14.0997C33.1972 14.0855 33.2692 14.0746 33.3413 14.0675C33.4134 14.0604 33.486 14.0571 33.5586 14.0571C33.6312 14.0571 33.7033 14.0604 33.7759 14.0675C33.8479 14.0746 33.9195 14.0855 33.991 14.0997C34.0619 14.1139 34.1324 14.1314 34.2017 14.1526C34.271 14.1734 34.3393 14.198 34.4064 14.2258C34.4736 14.2536 34.5391 14.2848 34.603 14.3186C34.6674 14.353 34.7296 14.3901 34.7897 14.4305C34.8503 14.4709 34.9081 14.5141 34.9644 14.5599C35.0206 14.6063 35.0741 14.6549 35.1254 14.7062C35.1767 14.7575 35.2253 14.811 35.2717 14.8673C35.3176 14.9235 35.3607 14.9819 35.4011 15.042C35.4415 15.1026 35.4786 15.1648 35.513 15.2287C35.5474 15.2926 35.578 15.3581 35.6058 15.4252C35.6337 15.4924 35.6583 15.5606 35.679 15.6299C35.7003 15.6998 35.7178 15.7697 35.732 15.8412C35.7462 15.9122 35.7571 15.9843 35.7642 16.0563C35.7713 16.1284 35.7745 16.201 35.7745 16.2736C35.7745 16.4188 35.7603 16.563 35.7314 16.706C35.703 16.8485 35.661 16.9871 35.6053 17.1214C35.5496 17.2557 35.4814 17.3835 35.4006 17.5047C35.3198 17.6253 35.2275 17.7373 35.1249 17.8404C35.0222 17.9431 34.9103 18.0348 34.7891 18.1156C34.6685 18.1964 34.5407 18.2652 34.4064 18.3209C34.2716 18.3765 34.1335 18.4186 33.9904 18.447C33.8479 18.4754 33.7038 18.4901 33.5586 18.4901Z" fill="#F9F8DB"/>
</svg>
