<svg width="52" height="47" viewBox="0 0 52 47" fill="none" xmlns="http://www.w3.org/2000/svg">
<path d="M45.0377 39.3707C44.7183 39.3707 44.3989 39.3068 44.2073 39.7534L44.7822 39.5623C44.8461 39.7534 44.8461 40.0089 44.7822 40.2005C44.7183 40.2639 44.5267 40.3277 44.3989 40.3916V40.6471L43.9518 40.4555L43.8879 40.5194L44.2073 40.7743L43.3131 40.9659L43.2492 40.8382L43.1214 41.0937L42.8021 40.9659L42.6743 41.2853L42.4188 41.1576L41.844 41.7958L42.1633 41.8591L41.9717 42.4334C41.844 42.3062 41.7801 42.1785 41.7162 42.1785C41.6523 42.1785 41.333 42.2423 41.333 42.3062C41.2052 42.8167 40.7581 42.8805 40.3748 43.0716C40.2471 43.1355 40.1832 43.1994 40.1193 43.2632C40.0555 43.3271 39.9916 43.391 39.9916 43.391C39.6083 43.2632 39.3528 43.6459 38.9696 43.6459C38.9057 43.6459 38.8419 43.7098 38.778 43.7737C38.778 44.0925 38.5225 44.0925 38.267 44.0286C38.0115 43.9653 37.8199 44.0286 37.6921 44.2841C37.6921 44.348 37.6282 44.4758 37.5644 44.4758C37.1172 44.4119 36.7979 44.9223 36.3507 44.8585C36.223 44.8585 36.0314 44.7946 35.9036 44.7946L36.1591 44.5391L36.0952 44.4758L35.712 44.7307L35.8398 44.348L36.5424 44.2841L35.9036 43.9653L35.201 44.6668L35.7759 44.7307C35.8398 44.9223 35.7759 45.0495 35.5843 45.1773C34.8816 45.6239 34.1151 45.9432 33.3486 46.071C33.2209 46.1343 33.0932 46.1343 32.9654 46.1982C32.7738 45.9432 32.7099 45.4328 32.1989 45.6877C32.4544 46.1343 32.3267 46.3259 31.624 46.4537L31.8795 45.9432L31.8157 45.8794C31.6879 46.0071 31.5602 46.1343 31.4324 46.2621C31.1769 46.5814 30.7937 46.4537 30.4743 46.5176C30.1549 46.5814 29.7717 46.5814 29.5162 46.4537C29.3246 46.3898 29.1329 46.3898 28.9413 46.3898C28.7497 46.3898 28.5581 46.5176 28.3026 46.5176C27.9193 46.4537 27.5999 46.3898 27.2167 46.3259C27.1528 46.3259 27.1528 46.1982 27.1528 46.1343C27.0251 46.071 26.8973 46.0071 26.7696 46.0071C26.8334 46.5176 26.6418 46.6453 26.1947 46.5176C26.0031 46.4537 25.8115 46.5814 25.6837 46.5176C25.556 46.4537 25.4921 46.4537 25.3643 46.3259C25.3005 46.2621 25.1727 46.1343 25.1088 46.1343C25.045 46.1343 24.9172 46.2621 24.7256 46.3259L24.2146 46.0071L23.9591 46.2621V46.1343C23.8313 46.1343 23.7036 46.1343 23.512 46.1343C23.3204 46.071 23.1287 46.0071 22.9371 45.9432C22.7455 45.8155 22.6177 45.6877 22.4261 45.6239C22.3622 45.6239 22.2984 45.6239 22.2345 45.6877L21.468 45.4328L21.3402 44.9862C20.7654 45.6877 20.3182 45.305 19.935 44.8585L20.0628 44.4119C19.6156 44.8585 19.424 44.8585 18.913 44.5391C18.4659 44.2841 17.9549 44.1564 17.5078 44.2203C17.5078 44.2203 17.5078 44.2203 17.4439 44.2203C17.2523 44.0925 16.9329 43.8376 16.8052 43.9014C16.4858 44.0286 16.358 44.0286 16.1664 43.7098H16.4219L16.2303 43.4543C16.0387 43.4543 15.847 43.5821 15.7832 43.5182C15.7193 43.391 15.2083 43.1994 15.847 42.9439L15.2083 42.8167L15.2722 42.4973L15.1444 42.4334L14.7612 43.1994L13.9308 42.8805L14.3779 42.7528L13.9308 42.6889L14.3779 42.4973V42.3695L13.4198 41.9868L13.4837 42.1785C13.4837 42.2423 13.4837 42.3695 13.4837 42.4334C13.4198 42.4334 13.3559 42.4334 13.2282 42.4334C12.9088 42.3062 12.6533 42.1146 12.3978 41.923C12.2062 41.7319 12.0146 41.5403 11.8868 41.2853L11.5674 41.2214C11.5674 41.0298 12.0146 40.711 11.5036 40.711C11.2481 40.711 10.9926 40.6471 10.7371 40.5832C10.3538 40.5194 10.0983 40.1367 10.1622 39.7534C10.1622 39.6895 10.1622 39.6895 10.1622 39.6262C10.0345 39.6262 9.9067 39.6895 9.84283 39.6262C9.77896 39.4985 9.71508 39.3707 9.65121 39.243C9.65121 39.1158 9.65121 38.9241 9.65121 38.9241C9.20409 38.7325 9.52346 38.6053 9.65121 38.3498C9.52346 38.3498 9.39571 38.3498 9.33183 38.4137C9.20409 38.6686 9.14021 38.9241 9.07634 39.1791C9.01246 39.4346 8.88471 39.5623 8.69309 39.3707C8.50147 39.1791 8.24597 39.1791 8.30984 38.8603C8.30984 38.7325 8.11822 38.6053 7.99047 38.4776C7.99047 38.4137 8.30984 38.2859 7.99047 38.1582C7.86272 38.0943 7.79885 37.8394 7.6711 37.6477C7.54335 37.4567 7.4156 37.265 7.1601 37.4567C7.09623 37.4567 7.09623 37.4567 7.03235 37.4567C6.77685 37.265 6.58523 37.0734 6.39361 36.8185C6.32973 36.6907 6.45748 36.4358 6.39361 36.2441C6.32973 36.0525 6.26586 35.7976 6.20198 35.6059C6.20198 35.7337 6.20198 35.9253 6.13811 36.0525C6.07423 36.1164 5.94649 36.1803 5.75486 36.2441C5.49936 35.8614 5.30774 35.4143 5.05224 35.0316C4.79674 34.6489 4.54125 34.4573 4.34962 34.1385C4.09412 33.883 3.9025 33.5641 3.71088 33.2448C3.647 33.0537 3.77475 32.7982 3.77475 32.5432L3.83863 32.1605H3.71088L3.96638 31.9689L3.9025 31.905L3.07213 32.2239C2.68889 31.7773 2.36951 31.2668 2.17789 30.7564C2.11402 30.5648 1.98627 30.4376 1.85852 30.2459C1.66689 29.9271 1.66689 29.5439 1.85852 29.225L1.53914 28.8423C1.28365 28.8423 1.1559 28.6507 1.21977 28.3319C1.28365 28.1403 1.53914 27.8214 1.02815 27.5659L1.60302 27.4382V27.3743H1.09202L0.964274 27.1832L0.836525 27.2471C0.77265 27.0555 0.77265 26.8005 0.77265 26.6089C0.77265 26.4812 1.02815 26.4173 1.1559 26.2895L1.28365 26.3534C1.28365 26.2895 1.21977 26.2262 1.21977 26.1623C0.708776 26.2895 0.708776 25.843 0.644901 25.588C0.581027 25.2048 0.453278 24.6943 0.77265 24.3116C0.836525 24.2477 0.836525 24.1839 0.77265 24.1205C0.581027 23.9289 0.77265 23.6095 0.708776 23.4823C0.644901 23.163 0.836525 23.0358 0.964274 22.8441C1.02815 22.7803 1.02815 22.6525 1.02815 22.5886L0.581027 22.7803L0.517152 21.6316L0.325529 20.6746C0.389403 20.6107 0.517152 20.5468 0.581027 20.483C0.581027 20.3558 0.644901 20.2919 0.644901 20.1641C0.517152 20.0364 0.389403 19.9086 0.325529 19.7176C0.261654 19.3982 0.19778 19.0155 0.19778 18.6328C0.19778 18.4412 0.133905 18.2495 0.0700309 18.0585C-0.121593 17.7391 0.133905 17.548 0.19778 17.2925C0.19778 17.2286 0.261654 17.1648 0.261654 17.1014C0.133905 16.7821 0.261654 16.3994 0.581027 16.2716C0.644901 16.2716 0.644901 16.2077 0.708776 16.2077C0.900399 16.1439 1.02815 15.9528 1.09202 15.825L0.325529 16.1439L0.261654 16.0805C0.389403 15.9528 0.517152 15.825 0.581027 15.6334C0.581027 15.5695 0.581027 15.5062 0.581027 15.3785C0.453278 15.123 0.644901 15.0591 0.836525 15.0591C0.964274 15.0591 1.09202 14.9958 1.1559 14.9319C1.34752 14.868 1.47527 14.7403 1.66689 14.6125C1.73077 14.5486 1.79464 14.4214 1.85852 14.3576C1.85852 14.2298 1.85852 14.1021 1.85852 13.9743L1.66689 14.1659L1.73077 13.0812V13.0173C2.17789 12.6985 2.11402 12.1241 2.43339 11.7414C2.75276 11.3582 2.62501 11.1032 2.68889 10.7205C2.11402 10.3373 2.75276 9.82685 2.49726 9.38027C2.43339 9.25252 2.68889 8.99757 2.75276 8.86982L2.88051 8.9337L3.19988 9.9546L3.58313 9.57189C3.32763 9.50802 3.51925 9.3164 3.647 9.18865H3.26376L3.07213 8.6782H3.39151L3.32763 8.9337H3.39151C3.51925 8.80595 3.58313 8.6782 3.647 8.55099L3.9025 8.2955C4.03025 8.16775 4.09412 7.9128 4.22187 7.84892C4.34962 7.78505 4.66899 7.84892 4.79674 7.78505C5.05224 7.52955 5.24387 7.33847 5.49936 7.0191C6.13811 6.44477 6.77685 5.80712 7.4156 5.2328C7.79885 5.67937 7.92659 5.67937 8.24597 5.2328L7.73497 5.10505C7.79885 5.04117 7.86272 4.84955 7.99047 4.84955C8.50146 4.72235 8.43759 4.27577 8.62921 3.9564C8.69309 3.89252 8.82084 3.89252 8.88471 3.89252C9.07634 3.9564 9.14021 3.89252 9.26796 3.63757C9.33183 3.44595 9.58733 3.3182 9.77896 3.3182C9.77896 3.3182 9.84283 3.3182 9.84283 3.38207L10.9926 2.68055L11.1203 2.9355C11.6952 2.10622 12.5894 1.85072 13.5476 1.59577L13.4198 1.85072L13.9308 2.16955L14.314 1.59577C13.6753 1.9146 13.6753 1.9146 13.5476 1.59577L13.6114 1.5319C14.1863 1.5319 14.6334 1.08477 15.2083 1.02145C15.847 0.957572 16.4858 0.638199 17.1884 0.765948C17.3161 0.765948 17.6355 0.638199 17.891 0.638199C17.9549 0.574325 18.0826 0.638199 18.1465 0.638199C18.0826 0.702074 18.0826 0.829823 18.0188 0.893697C17.9549 0.957572 17.891 1.08477 17.8271 1.14865C17.9549 1.14865 18.0826 1.14865 18.1465 1.08477C18.3381 0.893697 18.4659 0.702074 18.5936 0.510996C18.6575 0.447122 18.7214 0.447122 18.7853 0.447122C19.2324 0.447122 19.7434 0.447122 20.1905 0.383247C20.2544 0.383247 20.3182 0.319373 20.446 0.319373C20.5737 0.319373 20.7654 0.319373 20.8931 0.383247C20.957 0.383247 21.0847 0.447122 21.1486 0.447122L21.2125 0.0638745C21.6596 0.0638745 22.1067 0.127749 22.6177 0.127749C23.1287 0.127749 23.3842 0.0638745 23.8313 0C24.2785 0 24.6617 0 25.1088 0C25.2366 0 25.3643 0.127749 25.3643 0.191624C25.3643 0.510996 25.556 0.383247 25.7476 0.447122L25.6837 0.0638745C26.1947 0.0638745 26.6418 0.0638745 27.0889 0.0638745C27.8554 0.127749 28.6219 0.127749 29.3884 0.255498C29.9633 0.319373 30.5382 0.447122 31.0492 0.574325C31.2408 0.638199 31.624 0.574325 31.624 0.957572C31.6879 0.957572 31.8157 0.957572 31.9434 0.957572L31.7518 0.702074L31.8157 0.638199L32.1989 0.893697C32.5183 0.702074 32.7099 0.765948 32.9015 1.02145C33.0932 0.957572 33.2209 0.893697 33.3486 0.957572C33.7958 1.08477 34.3068 1.2764 34.7539 1.40415C35.0094 1.46802 35.201 1.5319 35.4565 1.6591C35.712 1.78685 36.1591 1.6591 36.223 2.16955C36.223 2.16955 36.3507 2.23342 36.4146 2.23342C36.6701 2.23342 36.9256 2.16955 37.1172 2.42505C37.1172 2.48892 37.3089 2.48892 37.3727 2.48892L37.4366 2.9355L37.756 2.68055L37.8199 2.74387L37.6921 2.99937C38.0115 2.87162 38.0754 2.99937 38.1392 3.25432C38.4586 3.12712 38.778 2.87162 39.0974 3.191C39.3528 3.44595 39.6083 3.63757 39.9277 3.82865C39.9916 3.82865 40.0555 3.76477 40.0555 3.70145L40.1832 4.14802H40.2471V3.89252L40.3748 4.27577C40.6942 4.02027 40.822 4.27577 41.0136 4.46685C41.333 4.72235 41.6523 4.91342 42.0356 5.10505C42.2272 5.2328 42.4188 5.29667 42.6105 5.42387C42.7382 5.55162 42.9298 5.74325 42.9937 5.93432L42.6105 6.12595L42.6743 6.2537C43.0576 6.12595 43.4408 5.93432 43.8241 6.18982C44.2073 6.38144 44.5906 6.57252 44.9738 6.82802C45.2293 7.14685 45.4209 7.46622 45.5487 7.84892C45.8042 7.6573 45.868 7.97667 45.9958 8.16775C46.1235 8.35937 46.3152 8.42325 46.4429 8.55099C46.5707 8.74207 46.7623 8.9337 46.89 9.12477L46.5707 9.3164L46.7623 9.57189C46.4429 9.82685 46.8262 9.9546 46.89 10.2095L46.9539 9.82685C47.2094 9.6991 47.401 10.0185 47.5288 10.2095C47.8482 10.8477 48.1675 11.4859 48.5508 12.1241C48.8063 12.5707 49.0618 13.0173 49.3811 13.5277C49.445 13.5916 49.445 13.7194 49.5089 13.8471C49.5728 13.9743 49.6366 14.0382 49.7005 14.1659C49.8921 14.4214 49.956 14.7403 49.8921 14.9958C49.8283 15.123 49.8283 15.1868 49.7644 15.3146L50.2754 15.1868L50.5948 15.9528L50.3393 16.0805C50.7225 16.1439 50.7864 16.2716 50.7225 16.7182H51.0419L51.1058 17.4841C51.1058 17.548 51.1696 17.6119 51.1696 17.548C51.5529 17.3564 51.489 17.7391 51.489 17.8668C51.6168 18.3134 51.6806 18.7605 51.8084 19.271V19.3343C51.5529 19.6537 51.8084 20.0364 51.6806 20.3558C51.6168 20.5468 51.6168 20.8023 51.7445 20.9934C51.8723 21.4405 51.489 21.3128 51.3613 21.5039C51.4251 21.6316 51.2974 21.8871 51.6168 21.8871C51.6806 21.8871 51.6806 22.0782 51.6806 22.1421C51.6806 22.5248 51.4251 22.908 51.0419 23.0991L51.3613 23.7373C51.3613 23.8012 51.3613 23.865 51.3613 23.9289C51.2335 24.1839 51.1058 24.4394 50.9141 24.631C50.9141 24.6943 50.7864 24.6943 50.7864 24.7582C50.8503 25.2048 51.1058 25.5241 51.489 25.7158L51.8723 26.3534L51.6806 27.4382H51.9361L52 27.5659L51.3613 28.0125L51.8723 28.1403L51.2974 29.0973L51.6806 28.9695C51.6806 29.0334 51.6806 29.0973 51.6806 29.1612C51.6168 29.3528 51.6168 29.4805 51.5529 29.6716C51.489 29.8632 51.5529 29.991 51.2974 29.8632C51.2974 29.8632 51.1696 29.991 51.2335 29.991C51.489 30.3737 51.0419 30.4376 50.9141 30.6286C50.7864 30.8203 50.5948 30.7564 50.467 30.8203C50.7864 31.3307 50.7864 31.4585 50.467 31.7134C50.2754 31.6495 50.0838 31.5862 49.8921 31.5862C49.8283 31.5862 49.7644 31.7134 49.7005 31.8412L50.0838 32.0328L50.0199 31.8412H50.4031L50.0838 32.2877H49.8921L49.956 32.5432H49.445C49.5728 32.7343 49.7005 32.9259 49.8283 33.1176C49.8921 33.2448 49.8921 33.3086 49.8283 33.4364C49.8283 33.4364 49.7005 33.4364 49.5728 33.4364L49.5089 34.3295L49.1256 34.4573V34.1385L48.8702 34.0746L48.4869 34.8405C48.7424 35.2232 48.6785 35.351 48.1675 35.4782L47.9759 35.1594C47.6565 35.6059 47.6565 35.6059 48.0398 36.0525L47.8482 36.1803L48.1675 36.3719L47.7204 36.8823C47.4649 36.8185 47.5927 36.3719 47.2094 36.6268L47.401 36.7546L47.3372 37.2012L46.5068 37.9032L46.8262 38.3498H46.1235L45.9319 39.0519C45.9319 39.1158 45.868 39.1791 45.868 39.1158C45.868 39.0519 45.7403 39.0519 45.7403 39.0519C45.6764 38.9241 45.6764 38.7964 45.6764 38.6686L45.0377 39.1158V39.3707ZM37.8837 36.6907L36.9256 36.3719L36.7979 36.8185C36.9895 36.6268 37.3089 36.6268 37.8837 36.7546L38.0115 36.9462L38.3309 36.6268L38.267 36.563H38.4586C38.2031 36.4358 37.9476 36.308 37.8837 36.6907ZM47.5288 13.8471L48.1037 13.4005C48.0398 13.3367 47.9759 13.3367 47.912 13.2728C47.6565 13.0812 47.7204 13.6555 47.401 13.4639L47.3372 13.7194C47.401 13.7832 47.4649 13.8471 47.5288 13.8471C47.0817 14.2937 47.0817 14.3576 47.5927 14.6125L47.5288 13.8471ZM46.8262 37.0734L46.9539 36.6268C46.8262 36.563 46.6984 36.563 46.5707 36.563C46.4429 36.6268 46.379 36.7546 46.3152 36.7546L46.8262 37.0734C46.3152 36.8185 46.4429 37.4567 46.1235 37.5205L46.379 37.8394L46.8262 37.0734ZM14.5057 12.3158C14.4418 11.9325 14.3779 11.6137 14.314 11.2943C14.2502 11.1032 14.1224 10.9116 13.9308 11.1032C13.7392 11.3582 13.5476 11.5498 13.4198 11.8686L14.0585 11.6776L13.8669 11.9325L14.5057 12.3158ZM15.336 22.7164L15.0167 23.0991C15.0167 23.163 14.9528 23.2268 14.9528 23.2268L15.0805 23.3546C15.2722 23.2268 15.4638 23.4823 15.7193 23.3546C15.9748 23.2268 15.9109 22.908 15.9748 22.7803C15.9748 22.7803 15.847 22.5248 15.7193 22.4614C15.5915 22.3976 15.4638 22.5248 15.336 22.5248L15.847 22.8441L15.7832 22.9719L15.336 22.7164ZM20.957 12.1241C20.3821 11.7414 20.446 12.3158 20.3182 12.5707C20.2544 12.6346 20.2544 12.8262 20.3182 12.8262C20.446 12.9534 20.6376 13.0173 20.7654 13.0812L20.8292 13.0173C20.5099 12.6346 20.5737 12.3791 20.957 12.1241ZM26.2586 16.2716C26.1947 16.3355 26.1308 16.3355 26.067 16.3994C25.8115 16.5271 25.3643 16.591 25.8115 17.0376C25.8115 17.1014 25.7476 17.2286 25.7476 17.2925H26.067V16.591L26.3225 16.7821L26.2586 16.2716ZM31.5602 13.2089V13.7194L31.3047 13.4639L31.1769 13.5277L31.3685 13.9743C31.4963 13.911 31.624 13.8471 31.6879 13.7832C32.0073 13.5916 31.9434 13.2089 31.5602 13.2089ZM11.1842 36.563L10.7371 36.7546C10.9287 37.0734 10.7371 37.2012 10.4177 37.265L10.9287 37.5205L11.1842 36.563ZM9.45958 35.1594C9.26796 35.351 9.14021 35.6698 9.39571 35.8614C9.58733 35.9886 9.84283 35.9886 10.0345 35.7976C10.0983 35.7337 10.0983 35.6698 10.0983 35.6059L9.45958 35.7976V35.1594ZM14.6973 40.1367L14.1863 40.3277L14.314 39.945H13.8031L14.3779 40.711L14.6973 40.1367ZM50.1476 29.4167L50.6586 30.2459V29.2889L50.1476 29.4167ZM32.4544 43.5821L32.5183 44.4119H32.646L32.5183 44.0286L32.9654 43.5821L32.9015 43.4543L32.4544 43.5821ZM7.35172 32.9259L7.22398 32.5432C7.03235 32.5432 6.9046 32.6071 6.71298 32.671C6.6491 32.7343 6.58523 32.8621 6.58523 32.9898H6.6491L6.96848 32.7343L7.03235 32.7982L6.84073 32.9259V32.9898L7.35172 32.9259ZM46.8262 34.2023L46.379 34.3295L47.0817 34.585L47.0178 33.9468L46.5707 34.0107L46.8262 34.2023ZM8.37372 33.9468H8.24597L8.11822 34.2023C7.92659 34.4573 7.92659 34.4573 8.37372 34.6489V33.9468ZM12.3339 39.8812C12.5256 39.8173 12.6533 39.7534 12.7811 39.6262C13.0366 39.4985 12.9727 39.4985 12.8449 39.243C12.6533 39.4346 12.2062 39.4346 12.3339 39.8812ZM40.7581 41.6041V41.7319L41.333 41.6041C41.3968 41.7958 41.3968 42.1146 41.844 41.923C41.333 41.7958 41.5246 41.5403 41.5246 41.3486L40.7581 41.6041ZM42.0995 34.0107L41.844 34.585L42.4827 34.5212L42.0995 34.0107ZM41.844 41.1576H41.9078C41.9078 40.9659 41.9078 40.8382 41.844 40.711C41.7801 40.5832 41.5885 40.5194 41.5246 40.5194C41.4607 40.5194 41.2691 40.711 41.1413 40.8382C41.2052 40.9021 41.333 40.9021 41.3968 40.8382L41.6523 40.711C41.7162 40.7743 41.7162 40.8382 41.7801 40.9659C41.7801 40.9659 41.7801 41.0298 41.844 41.1576ZM42.2272 39.8812L42.0995 39.945C42.0995 40.0728 42.0995 40.2639 42.0995 40.3916C42.0995 40.4555 42.1633 40.5832 42.2272 40.6471C42.2911 40.5832 42.4188 40.5194 42.4188 40.4555C42.3549 40.2005 42.2911 40.0089 42.2272 39.8812ZM50.4031 19.271C50.5309 19.271 50.5948 19.271 50.7225 19.271C50.7225 19.271 50.7864 19.1432 50.7864 19.0794C50.7864 18.8877 50.7864 18.7605 50.7864 18.5689L50.467 18.6328C50.4031 18.8239 50.8503 19.0794 50.4031 19.271ZM47.8482 14.9319L47.5288 14.6764L47.3372 15.4423C47.7204 15.1868 47.912 14.868 47.7843 14.6125L47.8482 14.9319ZM46.379 11.1032L46.2513 11.1671L46.5707 11.9325L46.9539 11.9964C46.8262 11.8686 46.6984 11.7414 46.6984 11.7414C46.9539 11.3582 46.379 11.4221 46.379 11.1032ZM39.4167 28.7785C39.289 28.8423 39.289 28.9062 39.1612 28.9062C38.778 28.9062 38.9057 29.1612 38.9696 29.3528C38.9696 29.4167 39.0335 29.4167 39.0974 29.4805C39.1612 29.5439 39.1612 29.4805 39.1612 29.4167C39.289 29.225 39.3528 29.0334 39.4167 28.7785ZM47.0178 33.5003H47.2094C47.2733 33.2448 47.2733 32.9898 47.3372 32.7343C47.3372 32.7343 47.2733 32.671 47.2094 32.671C47.1455 32.671 47.1455 32.7343 47.0817 32.7343L47.0178 33.5003ZM11.6952 38.3498L11.4397 38.2859C11.4397 38.4137 11.3758 38.5414 11.4397 38.5414C11.5036 38.6048 11.6313 38.6048 11.7591 38.6048C11.8229 38.6048 11.8868 38.5414 12.0146 38.4776L11.8868 38.1582L11.6952 38.3498ZM27.3444 18.1862L27.1528 17.4841C26.7696 17.803 26.8334 17.9307 27.3444 18.1862ZM48.8063 32.3516H48.7424L48.5508 32.7343C48.934 32.671 48.4869 33.0537 48.8063 33.1814V32.3516ZM46.3152 13.4005C46.3152 13.5277 46.2513 13.7194 46.3152 13.7832C46.379 13.8471 46.5707 13.9743 46.6984 14.0382L46.8262 13.911L46.3152 13.4005ZM10.6732 3.63757C10.5455 3.63757 10.4177 3.63757 10.3538 3.70145C10.29 3.70145 10.2261 3.76477 10.2261 3.82865C10.2261 3.89252 10.29 3.89252 10.29 3.9564C10.4816 4.02027 10.6732 4.08415 10.9926 4.08415L10.6732 3.63757ZM37.5005 37.3928V37.3289L36.734 37.1373L36.6701 37.3928H37.5005ZM42.6743 30.7564L42.8659 30.3098C42.6743 30.2459 42.4188 30.0543 42.2911 30.3098L42.6743 30.7564ZM6.45748 7.40235C6.32973 7.2746 6.01036 7.14685 6.39361 6.95577C6.39361 6.95577 6.39361 6.82802 6.32973 6.70027L5.94649 7.08297L6.20198 7.46622L6.45748 7.40235ZM15.4638 39.4346H14.7612V39.5623L15.1444 39.7534L15.4638 39.4346ZM25.6837 23.865C25.556 23.8012 25.4282 23.8012 25.3005 23.8012C25.2366 23.865 25.1727 23.9289 25.1727 24.0567C25.1727 24.1205 25.2366 24.1839 25.3005 24.2477L25.6837 23.865ZM7.79885 37.4567H7.92659L8.11822 36.4991H7.99047L7.79885 37.4567ZM46.9539 12.1241L46.2513 12.3791C46.7623 12.5068 46.9539 12.443 46.9539 12.1241ZM40.5026 7.6573C40.5665 7.40235 40.5026 7.14685 40.2471 7.0191C40.1832 7.0191 40.1193 6.95577 40.0555 7.0191L40.5026 7.6573ZM45.0377 39.4346C45.1016 39.3707 45.1016 39.3068 45.1654 39.243C45.2293 39.1791 45.3571 39.1791 45.4209 39.1158C45.4209 39.1791 45.4848 39.3068 45.4848 39.3707C45.3571 39.5623 45.2293 39.6895 45.0377 39.8812H44.9738L45.0377 39.4346ZM13.4837 34.6489C13.2282 35.0316 12.7811 35.0955 12.5894 34.7128L13.0366 34.8405C12.9727 34.2662 13.3559 34.4573 13.5476 34.3934L13.4837 34.6489ZM30.1549 33.4364C30.2188 33.8191 30.091 33.9468 29.7717 33.883L29.6439 33.5641L29.8994 33.4364L29.8356 33.3725L30.1549 33.4364ZM29.3884 25.2048L28.6219 24.9498C28.8136 24.631 29.1329 24.4394 29.5162 24.5032L29.2607 24.6943L29.3884 25.2048ZM38.3309 12.443L38.0115 12.7623H37.9476L38.267 12.0603H38.3947L38.3309 12.443Z" fill="#0D65C2"/>
<path d="M14.03 16.3101H19.283C19.3327 16.3101 19.3818 16.315 19.4304 16.3248C19.479 16.3341 19.5265 16.3488 19.5723 16.3674C19.6182 16.3865 19.6619 16.41 19.7028 16.4373C19.7443 16.4651 19.782 16.4962 19.8175 16.5312C19.8524 16.5661 19.8835 16.6043 19.9114 16.6458C19.9387 16.6868 19.9621 16.7304 19.9812 16.7763C19.9998 16.8221 20.0145 16.8691 20.0238 16.9177C20.0336 16.9663 20.0386 17.0154 20.0386 17.0651V34.3729C20.0386 34.4226 20.0336 34.4717 20.0238 34.5203C20.0145 34.5689 19.9998 34.6158 19.9812 34.6617C19.9621 34.7076 19.9387 34.7512 19.9114 34.7922C19.8835 34.8337 19.8524 34.8719 19.8175 34.9068C19.782 34.9418 19.7443 34.9729 19.7028 35.0007C19.6619 35.028 19.6182 35.0515 19.5723 35.0706C19.5265 35.0892 19.479 35.1039 19.4304 35.1132C19.3818 35.123 19.3327 35.1279 19.283 35.1279H14.03C13.9803 35.1279 13.9312 35.123 13.8826 35.1132C13.834 35.1039 13.7865 35.0892 13.7406 35.0706C13.6948 35.0515 13.6517 35.028 13.6102 35.0007C13.5692 34.9729 13.531 34.9418 13.4961 34.9068C13.4606 34.8719 13.4295 34.8337 13.4016 34.7922C13.3743 34.7512 13.3508 34.7076 13.3323 34.6617C13.3132 34.6158 13.299 34.5689 13.2892 34.5203C13.2793 34.4717 13.2744 34.4226 13.2744 34.3729V17.0651C13.2744 17.0154 13.2793 16.9663 13.2892 16.9177C13.299 16.8691 13.3132 16.8221 13.3323 16.7763C13.3508 16.7304 13.3743 16.6868 13.4016 16.6458C13.4295 16.6043 13.4606 16.5661 13.4961 16.5312C13.531 16.4962 13.5692 16.4651 13.6102 16.4373C13.6517 16.41 13.6948 16.3865 13.7406 16.3674C13.7865 16.3488 13.834 16.3341 13.8826 16.3248C13.9312 16.315 13.9803 16.3101 14.03 16.3101Z" fill="#F9F8DB"/>
<path d="M35.0429 16.1296C34.5538 16.111 34.0679 16.1433 33.5853 16.2257C33.1027 16.3087 32.6337 16.4402 32.1784 16.6204C31.7231 16.8011 31.2918 17.026 30.8835 17.2968C30.4756 17.5671 30.0995 17.8766 29.7561 18.2255C29.7037 18.2806 29.6404 18.3166 29.5661 18.333C29.4919 18.3494 29.4198 18.3439 29.3488 18.3161C29.2779 18.2882 29.2211 18.2429 29.1785 18.1801C29.1354 18.1174 29.1135 18.048 29.1135 17.9716V17.0593C29.1135 17.0097 29.1086 16.9605 29.0988 16.9119C29.089 16.8633 29.0748 16.8158 29.0557 16.77C29.0371 16.7241 29.0136 16.681 28.9863 16.6395C28.9585 16.5986 28.9274 16.5603 28.8919 16.5254C28.8569 16.4905 28.8187 16.4588 28.7778 16.4315C28.7363 16.4037 28.6932 16.3807 28.6473 16.3616C28.6014 16.3425 28.5539 16.3283 28.5054 16.3185C28.4568 16.3092 28.4076 16.3043 28.358 16.3043H23.0427C22.993 16.3043 22.9434 16.3092 22.8942 16.319C22.8456 16.3289 22.7981 16.3436 22.7517 16.3627C22.7059 16.3824 22.6622 16.4058 22.6207 16.4337C22.5798 16.4621 22.5416 16.4937 22.5066 16.5298C22.4717 16.5653 22.4406 16.604 22.4133 16.6461C22.3865 16.6876 22.3636 16.7318 22.345 16.7782C22.327 16.8251 22.3134 16.8726 22.3046 16.9218C22.2959 16.9709 22.2921 17.0206 22.2932 17.0703C22.3379 20.276 22.2932 31.3694 22.2932 34.3726C22.2926 34.4217 22.297 34.4703 22.3063 34.5184C22.3155 34.5664 22.3292 34.6128 22.3472 34.6587C22.3658 34.704 22.3881 34.7471 22.4149 34.7881C22.4416 34.829 22.4722 34.8672 22.5066 34.9022C22.541 34.9371 22.5781 34.9682 22.6185 34.9961C22.6589 35.0239 22.7015 35.0474 22.7468 35.0665C22.7916 35.0861 22.838 35.1009 22.886 35.1113C22.9341 35.1211 22.9827 35.1265 23.0313 35.1276H28.364C28.4131 35.1276 28.4622 35.1227 28.5108 35.1129C28.5599 35.1036 28.6069 35.0889 28.6528 35.0703C28.6986 35.0512 28.7423 35.0277 28.7832 35.0004C28.8247 34.9726 28.8629 34.9415 28.8979 34.9065C28.9328 34.8716 28.9639 34.8334 28.9918 34.7919C29.0191 34.7509 29.0426 34.7073 29.0617 34.6614C29.0802 34.6155 29.095 34.5686 29.1042 34.52C29.1141 34.4714 29.119 34.4223 29.119 34.3726V24.947C29.0737 24.4251 29.1228 23.9125 29.2653 23.4086C29.3215 23.2415 29.3909 23.0794 29.4722 22.9227C29.5541 22.7665 29.6469 22.617 29.7523 22.475C29.8571 22.3331 29.9723 22.2004 30.0984 22.0765C30.224 21.9526 30.3588 21.8395 30.5024 21.7364C30.646 21.6337 30.7966 21.5431 30.9544 21.4634C31.1122 21.3842 31.2749 21.3182 31.443 21.2641C31.6117 21.2106 31.7832 21.1702 31.9573 21.1435C32.132 21.1167 32.3073 21.1036 32.4841 21.1042C34.8005 21.1042 35.8662 22.8452 35.8662 25.392V34.3726C35.8662 34.4212 35.8706 34.4692 35.8799 34.5173C35.8891 34.5648 35.9028 34.6112 35.9213 34.6565C35.9394 34.7013 35.9617 34.7444 35.9885 34.7853C36.0152 34.8257 36.0453 34.8639 36.0791 34.8983C36.113 34.9333 36.1501 34.9649 36.1899 34.9928C36.2298 35.0206 36.2724 35.0441 36.3166 35.0638C36.3614 35.0834 36.4072 35.0987 36.4547 35.1091C36.5022 35.12 36.5503 35.126 36.5989 35.1276H41.8295C41.8791 35.1276 41.9283 35.1227 41.9769 35.1129C42.0255 35.1036 42.073 35.0889 42.1188 35.0703C42.1647 35.0512 42.2078 35.0277 42.2493 35.0004C42.2902 34.9726 42.3285 34.9415 42.3639 34.9065C42.3989 34.8716 42.43 34.8334 42.4578 34.7919C42.4851 34.7509 42.5086 34.7073 42.5272 34.6614C42.5463 34.6155 42.5605 34.5686 42.5703 34.52C42.5801 34.4714 42.585 34.4223 42.585 34.3726V24.6653C42.585 18.8336 39.2647 16.1296 35.0429 16.1296Z" fill="#F9F8DB"/>
<path d="M16.6003 14.2083H16.6565C18.7534 14.2083 20.0386 12.856 20.0386 11.1434C20.0386 9.43026 18.7365 8.08398 16.6565 8.08398C14.5765 8.08398 13.2744 9.40242 13.2744 11.1489C13.2744 12.8953 14.5825 14.2083 16.6003 14.2083Z" fill="#F9F8DB"/>
</svg>
