<svg width="220" height="197" viewBox="0 0 220 197" fill="none" xmlns="http://www.w3.org/2000/svg">
<path d="M153.281 196.612H66.6867C65.6664 196.609 64.649 196.541 63.6375 196.408C62.6231 196.275 61.6234 196.073 60.6386 195.81C59.6507 195.547 58.6866 195.222 57.7402 194.831C56.7967 194.441 55.8828 193.991 54.9956 193.483C54.1113 192.974 53.2624 192.412 52.4491 191.794C51.6387 191.173 50.8698 190.504 50.1452 189.786C49.4206 189.067 48.7463 188.304 48.1193 187.497C47.4952 186.692 46.9244 185.846 46.4068 184.965L3.135 110.071C2.62334 109.184 2.17084 108.264 1.78044 107.318C1.39005 106.371 1.06176 105.401 0.79558 104.413C0.532358 103.422 0.334202 102.42 0.198156 101.402C0.0650654 100.388 0 99.3676 0 98.3414C0 97.318 0.0650654 96.2977 0.198156 95.2803C0.334202 94.2659 0.532358 93.2632 0.79558 92.2725C1.06176 91.2817 1.39005 90.3146 1.78044 89.3652C2.17084 88.4188 2.62334 87.5019 3.135 86.6147L46.4068 11.7562C46.9185 10.866 47.4834 10.0172 48.1045 9.20388C48.7256 8.3876 49.3999 7.61864 50.1215 6.89404C50.8432 6.16648 51.6121 5.49216 52.4225 4.86812C53.2329 4.24112 54.0817 3.67327 54.9689 3.15866C55.8562 2.64405 56.7701 2.19154 57.7165 1.79819C58.6629 1.40483 59.63 1.07359 60.6208 0.80741C61.6086 0.54123 62.6112 0.340117 63.6257 0.204071C64.6431 0.0680232 65.6634 0 66.6867 0H153.281C154.307 0 155.327 0.068023 156.345 0.201113C157.359 0.33716 158.362 0.538274 159.353 0.804452C160.343 1.07063 161.31 1.40188 162.257 1.79523C163.203 2.18858 164.12 2.64109 165.007 3.1557C165.892 3.67031 166.743 4.23816 167.554 4.86516C168.367 5.4892 169.133 6.16353 169.855 6.89108C170.579 7.61568 171.251 8.3876 171.872 9.20092C172.496 10.0142 173.061 10.866 173.569 11.7562L216.88 86.6413C217.388 87.5315 217.838 88.4484 218.228 89.3977C218.616 90.3441 218.944 91.3113 219.207 92.302C219.471 93.2928 219.669 94.2954 219.802 95.3099C219.932 96.3273 220 97.3447 220 98.3709C220 99.3942 219.932 100.415 219.802 101.429C219.669 102.446 219.471 103.449 219.207 104.437C218.944 105.428 218.616 106.398 218.228 107.344C217.838 108.291 217.388 109.21 216.88 110.098L173.552 184.994C173.037 185.876 172.466 186.719 171.839 187.523C171.215 188.328 170.541 189.091 169.816 189.809C169.092 190.528 168.323 191.193 167.509 191.812C166.699 192.43 165.85 192.992 164.966 193.5C164.079 194.006 163.165 194.456 162.221 194.843C161.278 195.231 160.314 195.556 159.326 195.819C158.341 196.082 157.341 196.28 156.33 196.411C155.318 196.544 154.301 196.612 153.281 196.612Z" fill="#FFE6B5"/>
</svg>
