<svg width="1610" height="745" viewBox="0 0 1610 745" fill="none" xmlns="http://www.w3.org/2000/svg">
<g clip-path="url(#clip0_275_5334)">
<path d="M943.023 393.198C946.761 392.74 947.253 392.91 952.276 391.994C955.991 391.313 954.357 390.979 957.861 393.315C966.406 399.008 969.573 400.637 971.918 399.883C974.551 399.036 974.513 396.334 976.092 391.837C976.168 391.616 976.197 391.366 976.184 391.086C976.529 390.083 977.51 386.84 977.53 386.751C981.005 374.051 976.574 380.242 985.192 374.192C989.109 371.52 996.371 367.274 994.498 362.898C994.052 361.87 992.687 361.078 992.772 361.138C981.233 353.23 978.246 353.556 977.267 351.448C975.663 347.756 974.438 344.118 971.759 339.651C969.726 336.257 968.383 332.049 964.327 333.354C960.985 334.429 957.561 339.908 956.437 341.38C956.377 341.465 953.997 344.048 952.242 346.724C936.855 347.637 934.768 348.123 934.848 348.114C931.982 348.576 930.031 348.958 929.01 351.294C927.217 355.345 935.7 366.781 938.243 369.94C934.527 380.94 933.569 389.084 933.623 388.689C932.909 394.412 936.786 393.963 943.023 393.198Z" fill="#E3DFF1"/>
<path d="M1026.96 402.188C1038.03 403.466 1035.35 401.823 1036.62 403.427C1039.1 406.597 1041.75 410.158 1044.25 409.356C1046.27 408.706 1047.13 405.792 1047.99 403.179C1049.82 397.606 1048.52 399.122 1052 398.101C1055.38 397.112 1058.8 395.618 1060.05 394.883C1061.93 393.786 1062.36 391.475 1061.28 390.116C1059.88 388.324 1058.65 387.834 1057.04 386.809C1056.06 386.103 1055.13 385.338 1054.12 384.665C1052.21 383.36 1052.63 384.709 1052.52 381.17C1052.5 380.423 1052.19 377.06 1051.71 374.495C1051.23 371.929 1049.2 370.786 1047.02 371.49C1044.45 372.316 1042.4 374.908 1040.4 377.333C1040.05 377.758 1039.67 378.21 1039.3 378.64C1026.77 376.603 1028.84 377.092 1029.69 377.17C1026.86 376.92 1024.43 376.728 1023.57 379.561C1022.81 382.076 1025.99 388.871 1027.38 391.679C1027.13 392.027 1026.82 392.482 1026.45 393.122C1025.01 395.549 1023.72 397.802 1023.92 399.122C1024.2 401.006 1025.31 402.001 1026.96 402.188Z" fill="#E3DFF1"/>
<path d="M844.152 519.204C846.514 519.183 859.797 517.157 859.718 517.166C861.16 518.672 867.501 524.538 867.877 524.838C870.369 526.871 871.844 527.95 873.777 527.328C875.919 526.639 875.902 524.937 877.727 519.437C878.062 518.421 879.158 513.51 879.18 513.427C880.172 508.791 878.133 512.757 886.333 507.022C891.359 503.495 896.569 500.32 894.142 497.063C893.483 496.17 892.974 495.573 879.637 488.982C877.84 475.985 876.544 473.623 876.568 473.697C875.884 471.74 873.886 470.649 871.972 471.587C870.324 472.402 859.574 482.487 859.51 482.545C854.146 481.755 842.525 479.289 840.877 484.371C840.37 485.924 841.334 486.998 845.886 498.867C846.324 500.007 846.46 499.476 845.322 501.741C843.202 505.695 841.174 511.397 840.648 515.56C840.4 517.424 841.858 519.236 844.152 519.204Z" fill="#E3DFF1"/>
<path d="M930.222 390.434C929.895 386.797 927.34 382.733 922.438 383.178C914.894 383.843 915.203 393.63 920.778 396.723C924.716 398.897 930.722 396.018 930.222 390.434Z" fill="#E3DFF1"/>
<path d="M950.784 404.275C959.17 400.362 952.807 385.788 943.597 391.974C937.147 396.293 943.516 407.67 950.784 404.275Z" fill="#E3DFF1"/>
<path d="M945.452 422.99C948.204 421.919 950.027 419.472 949.475 416.263C949.201 414.66 949.142 414.92 948.839 413.672C947.962 410.096 942.192 408.369 938.373 412.246C934.454 416.204 938.19 425.808 945.452 422.99Z" fill="#E3DFF1"/>
<path d="M945.38 447.404C939.158 453.012 946.259 463.503 953.84 458.716C955.086 458.458 956.217 457.672 956.705 456.449C958.112 452.932 957.884 450.029 955.134 447.352C952.529 444.781 947.645 445.346 945.38 447.404Z" fill="#E3DFF1"/>
<path d="M897.21 446.057C898.457 445.804 899.587 445.013 900.075 443.79C901.483 440.278 901.249 437.372 898.506 434.698C895.894 432.124 891.015 432.687 888.75 434.745C882.528 440.353 889.626 450.85 897.21 446.057Z" fill="#E3DFF1"/>
<path d="M986.445 342.241C987.687 341.984 988.823 341.197 989.309 339.968C990.717 336.456 990.489 333.554 987.735 330.878C985.13 328.307 980.25 328.871 977.98 330.931C971.763 336.537 978.86 347.029 986.445 342.241Z" fill="#E3DFF1"/>
<path d="M1181.96 452.077C1183.21 451.818 1184.34 451.033 1184.83 449.809C1186.24 446.293 1186.01 443.39 1183.26 440.717C1180.65 438.142 1175.77 438.707 1173.5 440.765C1167.28 446.373 1174.38 456.868 1181.96 452.077Z" fill="#E3DFF1"/>
<path d="M969.92 555.352C971.161 555.095 972.293 554.31 972.785 553.085C974.192 549.568 973.96 546.671 971.211 543.994C968.606 541.424 963.725 541.982 961.457 544.047C955.238 549.648 962.336 560.145 969.92 555.352Z" fill="#E3DFF1"/>
<path d="M979.979 311.773C981.226 311.514 982.352 310.73 982.844 309.505C984.253 305.993 984.023 303.085 981.271 300.414C978.666 297.844 973.784 298.402 971.521 300.466C965.297 306.068 972.394 316.56 979.979 311.773Z" fill="#E3DFF1"/>
<path d="M1003.37 467.007C1004.42 464.928 1003.76 462.855 1003.75 462.536C1003.59 456.371 996.061 453.169 991.023 458.291C988.34 461.004 988.647 467.077 993.375 470.004C996.355 471.835 1001.48 470.754 1003.37 467.007Z" fill="#E3DFF1"/>
<path d="M885.345 343.918C886.401 341.844 885.727 339.768 885.717 339.448C885.566 333.282 878.031 330.081 873 335.207C870.315 337.915 870.619 343.994 875.35 346.915C878.33 348.746 883.464 347.664 885.345 343.918Z" fill="#E3DFF1"/>
<path d="M1079.27 316.57C1080.32 314.497 1079.66 312.42 1079.65 312.105C1079.49 305.933 1071.96 302.733 1066.93 307.859C1064.24 310.567 1064.55 316.646 1069.28 319.565C1072.26 321.398 1077.39 320.317 1079.27 316.57Z" fill="#E3DFF1"/>
<path d="M917.604 466.064C914.919 468.772 915.227 474.849 919.954 477.771C922.934 479.603 928.063 478.522 929.953 474.773C931.004 472.7 930.331 470.624 930.326 470.303C930.17 464.138 922.64 460.936 917.604 466.064Z" fill="#E3DFF1"/>
<path d="M806.012 418.827C808.293 426.739 814.469 435.196 820.322 440.808C826.707 446.91 840.055 454.511 847.09 456.97C853.135 459.131 861.052 459.898 867.522 460.302C866.965 461.659 863.642 474.25 864.415 482.275C866.112 501.026 872.088 512.259 885.565 525.395C901.989 541.36 923.751 545.37 946.505 541.516C968.951 537.713 976.889 532.343 983.492 528.102C986.922 525.926 1005.58 512.163 1011.38 506.156C1011.31 506.586 1013.48 523.819 1022.53 539.972C1027.94 549.742 1033.83 556.088 1042.76 563.375C1055.48 573.48 1064.82 574.693 1078.99 572.293C1093.38 569.854 1108.09 562.313 1112.07 558.749C1133.76 539.94 1136.25 530.897 1145.19 508.637C1147.26 503.538 1148.18 501.597 1149.09 491.199C1149.2 491.604 1153.72 497.536 1159.39 502.36C1169.32 510.667 1185.87 517.097 1198.37 517.991C1215.57 519.314 1231.56 514.031 1244.13 503.825C1248.36 500.44 1252.74 496.814 1255.57 493.408C1277.45 466.623 1276.29 437.786 1265.7 404.526C1263.1 396.465 1262.76 394.727 1260.02 390.401C1257.94 387.07 1256.02 385.632 1256.23 385.595C1268.27 379.023 1295.86 347.647 1290.6 297.229C1289.1 283.299 1281.03 267.006 1272.31 256.249C1251.84 230.848 1214.26 223.764 1187.82 234.732C1174.03 240.528 1171.49 244.143 1171.33 243.541C1168.28 234.101 1164.22 224.615 1161.07 218.081C1154.6 204.338 1124.56 169.691 1092.05 163.804C1065.26 157.325 1046.9 159.816 1031.42 165.724C1017.98 170.864 1001.17 181.091 991.558 191.896C981.185 203.664 976.597 211.478 970.858 224.874C957.043 216.634 943.601 210.285 926.939 207.909C917.429 206.562 900.656 206.62 890.137 209.041C882.098 210.884 875.102 214.182 868.381 217.819C847.477 229.163 847.17 233.679 842.186 238.876C823.95 257.644 818.535 275.164 819.405 299.724C819.786 309.86 819.728 318.966 827.027 337.481C828.9 342.208 830.311 345.577 832.897 349.962C831.395 350.761 828.802 352.7 827.795 353.457C816.646 361.796 809.599 372.493 804.89 385.42C801.876 393.569 803.516 410.052 806.012 418.827Z" fill="#E3DFF1"/>
</g>
<g clip-path="url(#clip1_275_5334)">
<path d="M452.269 443.422C455.658 450.927 462.98 458.414 469.575 463.131C476.767 468.258 491.065 473.873 498.379 475.3C504.671 476.575 512.616 476.202 519.078 475.676C518.721 477.099 517.231 490.036 519.144 497.868C523.505 516.184 531.026 526.446 546.243 537.521C564.78 550.974 586.892 551.831 608.861 544.763C630.532 537.79 637.622 531.34 643.551 526.198C646.634 523.554 663.13 507.265 668.019 500.489C668.006 500.926 672.622 517.671 683.888 532.364C690.635 541.261 697.37 546.699 707.251 552.635C721.291 560.817 730.703 560.683 744.382 556.281C758.284 551.808 771.757 542.243 775.188 538.146C793.965 516.429 795.139 507.122 800.809 483.812C802.121 478.471 802.752 476.419 802.172 465.997C802.335 466.382 807.66 471.606 813.958 475.571C824.977 482.372 842.272 486.371 854.774 485.467C871.983 484.318 887.062 476.801 898.039 464.904C901.745 460.948 905.56 456.734 907.874 452.958C925.694 423.32 920.427 394.945 905.185 363.541C901.468 355.934 900.881 354.263 897.545 350.374C895.015 347.374 892.906 346.225 893.114 346.158C904.091 337.932 926.905 302.934 914.489 253.786C911.014 240.214 900.703 225.241 890.534 215.842C866.639 193.629 828.437 191.991 803.831 206.627C791.008 214.336 789.015 218.277 788.775 217.703C784.4 208.797 779.027 199.988 774.974 193.972C766.606 181.296 731.923 151.3 698.908 150.121C671.459 147.54 653.647 152.631 639.175 160.69C626.608 167.699 611.434 180.225 603.461 192.294C594.878 205.424 591.454 213.813 587.69 227.893C572.839 221.712 558.627 217.35 541.796 217.382C532.192 217.408 515.599 219.863 505.534 223.764C497.841 226.737 491.389 231.002 485.257 235.563C466.19 249.779 466.531 254.292 462.342 260.148C446.977 281.331 444.123 299.446 448.495 323.628C450.321 333.606 451.566 342.627 461.437 359.908C463.967 364.319 465.845 367.451 469.032 371.421C467.659 372.426 465.371 374.717 464.482 375.61C454.639 385.457 449.195 397.052 446.382 410.519C444.564 419.015 448.545 435.095 452.269 443.422Z" fill="#E3DFF1"/>
<path d="M614.023 322.198C617.761 321.74 618.253 321.91 623.276 320.994C626.991 320.313 625.357 319.979 628.861 322.315C637.406 328.008 640.573 329.637 642.918 328.883C645.551 328.036 645.513 325.334 647.092 320.837C647.168 320.616 647.197 320.366 647.184 320.086C647.529 319.083 648.51 315.84 648.53 315.751C652.005 303.051 647.574 309.242 656.192 303.192C660.109 300.52 667.371 296.274 665.498 291.898C665.052 290.87 663.687 290.078 663.772 290.138C652.233 282.23 649.246 282.556 648.267 280.448C646.663 276.756 645.438 273.118 642.759 268.651C640.726 265.257 639.383 261.049 635.327 262.354C631.985 263.429 628.561 268.908 627.437 270.38C627.377 270.465 624.997 273.048 623.242 275.724C607.855 276.637 605.768 277.123 605.848 277.114C602.982 277.576 601.031 277.958 600.01 280.294C598.217 284.345 606.7 295.781 609.243 298.94C605.527 309.94 604.569 318.084 604.623 317.689C603.909 323.412 607.786 322.963 614.023 322.198Z" fill="#E3DFF1"/>
<path d="M697.957 331.188C709.032 332.466 706.352 330.823 707.624 332.427C710.099 335.597 712.755 339.158 715.249 338.356C717.267 337.706 718.129 334.792 718.99 332.179C720.819 326.606 719.523 328.122 723.003 327.101C726.383 326.112 729.803 324.618 731.049 323.883C732.929 322.786 733.361 320.475 732.279 319.116C730.876 317.324 729.646 316.834 728.036 315.809C727.065 315.103 726.129 314.338 725.124 313.665C723.211 312.36 723.628 313.709 723.524 310.17C723.497 309.423 723.186 306.06 722.706 303.495C722.23 300.929 720.205 299.786 718.018 300.49C715.45 301.316 713.395 303.908 711.402 306.333C711.051 306.758 710.666 307.21 710.301 307.64C697.773 305.603 699.84 306.092 700.686 306.17C697.859 305.92 695.428 305.728 694.566 308.561C693.805 311.076 696.987 317.871 698.378 320.679C698.129 321.027 697.821 321.482 697.447 322.122C696.007 324.549 694.718 326.802 694.918 328.122C695.202 330.006 696.31 331.001 697.957 331.188Z" fill="#E3DFF1"/>
<path d="M515.152 448.204C517.514 448.183 530.797 446.157 530.718 446.166C532.16 447.672 538.501 453.538 538.877 453.838C541.369 455.871 542.844 456.95 544.777 456.328C546.919 455.639 546.902 453.937 548.727 448.437C549.062 447.421 550.158 442.51 550.18 442.427C551.172 437.791 549.133 441.757 557.333 436.022C562.359 432.495 567.569 429.32 565.142 426.063C564.483 425.17 563.974 424.573 550.637 417.982C548.84 404.985 547.544 402.623 547.568 402.697C546.884 400.74 544.886 399.649 542.972 400.587C541.324 401.402 530.574 411.487 530.51 411.545C525.146 410.755 513.525 408.289 511.877 413.371C511.37 414.924 512.334 415.998 516.886 427.867C517.324 429.007 517.46 428.476 516.322 430.741C514.202 434.695 512.174 440.397 511.648 444.56C511.4 446.424 512.858 448.236 515.152 448.204Z" fill="#E3DFF1"/>
<path d="M601.222 319.434C600.895 315.797 598.34 311.733 593.438 312.178C585.894 312.843 586.203 322.63 591.778 325.723C595.716 327.897 601.722 325.018 601.222 319.434Z" fill="#E3DFF1"/>
<path d="M621.784 333.275C630.17 329.362 623.807 314.788 614.597 320.974C608.147 325.293 614.516 336.67 621.784 333.275Z" fill="#E3DFF1"/>
<path d="M616.452 351.99C619.204 350.919 621.027 348.472 620.475 345.263C620.201 343.66 620.142 343.92 619.839 342.672C618.962 339.096 613.192 337.369 609.373 341.246C605.454 345.204 609.19 354.808 616.452 351.99Z" fill="#E3DFF1"/>
<path d="M616.38 376.404C610.158 382.012 617.259 392.503 624.84 387.716C626.086 387.458 627.217 386.672 627.705 385.449C629.112 381.932 628.884 379.029 626.134 376.352C623.529 373.781 618.645 374.346 616.38 376.404Z" fill="#E3DFF1"/>
<path d="M568.21 375.057C569.457 374.804 570.587 374.013 571.075 372.79C572.483 369.278 572.249 366.372 569.506 363.698C566.894 361.124 562.015 361.687 559.75 363.746C553.528 369.353 560.626 379.85 568.21 375.057Z" fill="#E3DFF1"/>
<path d="M657.445 271.241C658.687 270.984 659.823 270.197 660.309 268.968C661.717 265.456 661.489 262.554 658.735 259.878C656.13 257.307 651.25 257.871 648.98 259.931C642.763 265.537 649.86 276.029 657.445 271.241Z" fill="#E3DFF1"/>
<path d="M852.963 381.077C854.21 380.818 855.341 380.033 855.828 378.809C857.235 375.293 857.007 372.39 854.26 369.717C851.653 367.142 846.768 367.707 844.503 369.765C838.281 375.373 845.384 385.868 852.963 381.077Z" fill="#E3DFF1"/>
<path d="M640.92 484.352C642.161 484.095 643.293 483.31 643.785 482.085C645.192 478.568 644.96 475.671 642.211 472.994C639.606 470.424 634.725 470.982 632.457 473.047C626.238 478.648 633.336 489.145 640.92 484.352Z" fill="#E3DFF1"/>
<path d="M650.979 240.773C652.226 240.514 653.352 239.73 653.844 238.505C655.253 234.993 655.023 232.085 652.271 229.414C649.666 226.844 644.784 227.402 642.521 229.466C636.297 235.068 643.394 245.56 650.979 240.773Z" fill="#E3DFF1"/>
<path d="M674.369 396.007C675.424 393.928 674.757 391.855 674.747 391.536C674.591 385.371 667.061 382.169 662.023 387.291C659.34 390.004 659.647 396.077 664.375 399.004C667.355 400.835 672.484 399.754 674.369 396.007Z" fill="#E3DFF1"/>
<path d="M556.345 272.918C557.401 270.844 556.727 268.768 556.717 268.448C556.566 262.282 549.031 259.081 544 264.207C541.315 266.915 541.619 272.994 546.35 275.915C549.33 277.746 554.464 276.664 556.345 272.918Z" fill="#E3DFF1"/>
<path d="M750.272 245.57C751.323 243.497 750.655 241.42 750.647 241.105C750.494 234.933 742.959 231.733 737.928 236.859C735.243 239.567 735.546 245.646 740.283 248.565C743.258 250.398 748.387 249.317 750.272 245.57Z" fill="#E3DFF1"/>
<path d="M588.604 395.064C585.919 397.772 586.227 403.849 590.954 406.771C593.934 408.603 599.063 407.522 600.953 403.773C602.004 401.7 601.331 399.624 601.326 399.303C601.17 393.138 593.64 389.936 588.604 395.064Z" fill="#E3DFF1"/>
</g>
<path d="M1609.99 315.694C1609.75 295.692 1606.53 280.973 1584.17 254.733C1568.55 236.414 1570.23 238.795 1560.85 232.158C1552.21 226.045 1542.71 221.269 1532.17 220.252C1543.68 183.389 1527.47 139.205 1482.65 124.017C1452.89 113.841 1427.49 115.922 1396.56 137.044C1385.23 144.67 1370.84 160.172 1364.71 174.708C1358.28 168.619 1346.87 159.089 1336.55 152.175C1287.87 119.484 1230.78 128.381 1199.33 161.691C1186.49 175.223 1181.19 188.536 1176.12 206.405C1175.39 209.011 1172.02 225.797 1171.46 232.031C1169.47 245.306 1171.31 257.091 1175.46 269.311C1179.23 280.388 1179.65 286.73 1190.86 301.317C1193.17 304.336 1192.73 301.58 1185.28 311.245C1143.46 365.119 1152.73 430.13 1219.02 460.8C1225.63 463.852 1241.08 467.119 1249.01 467.119C1265.3 467.119 1278.97 461.677 1292.52 454.111C1304.91 447.169 1312.4 438.581 1320.84 428.677C1323.2 447.342 1332.26 460.172 1342.22 472.313C1410.9 555.534 1513.57 465.108 1505.1 394.992C1531.41 396.497 1558.67 388.331 1571.62 379.613C1584.77 370.753 1591.74 363.928 1600.31 351.188C1603.24 346.828 1603.83 345.028 1605.01 340.72C1609.69 324.464 1610.09 324.398 1609.99 315.694Z" fill="#E3DFF1"/>
<path d="M1181.66 457.448C1179.78 459.521 1179.08 461.431 1178.7 463.364C1178.53 464.229 1178.61 464.748 1178.71 466.004C1178.8 466.979 1179.15 468.13 1179.91 469.328C1179.81 469.788 1179.74 470.298 1179.81 470.763C1179.93 471.531 1180.75 472.572 1181.71 472.976C1182.5 473.315 1183.83 473.301 1184.62 473.02C1186.19 472.473 1186.63 470.356 1186.16 468.849C1185.31 467.375 1183.4 466.622 1181.4 467.676C1180.95 466.223 1180.92 465.093 1181.1 463.587C1181.27 462.159 1181.96 460.213 1182.32 459.562C1182.57 459.125 1182.71 458.9 1183.12 458.416C1183.5 457.96 1183.17 457.114 1182.46 457.111C1182.17 457.067 1181.85 457.189 1181.66 457.448Z" fill="black"/>
<path d="M1158.63 437.607C1155.49 438.519 1155.65 443.909 1159.98 443.807C1161.34 445.936 1165.69 447.597 1170.56 445.792C1172.63 445.018 1172.73 445 1174.08 444.024C1174.65 443.612 1174.42 442.599 1173.65 442.515C1172.89 442.103 1173.2 442.828 1169.08 443.611C1166.43 444.114 1163.9 443.696 1162.41 442.949C1163.31 442.219 1163.45 441.287 1163.33 440.22C1163.2 439.034 1162.73 438.017 1161.56 437.729C1160.85 437.395 1159.84 437.257 1158.63 437.607Z" fill="black"/>
<path d="M1204.46 402.726C1204.59 403.643 1216.26 419.088 1220.84 425.994C1226.17 434.058 1232.13 435.937 1232.94 436.447C1233.05 436.687 1233.26 436.872 1233.52 436.953C1234.23 437.175 1234.92 437.382 1235.62 437.459C1236.66 437.573 1238.58 437.494 1238.56 437.495C1240.62 437.377 1245.25 436.271 1245.58 436.176C1250.32 434.837 1254.88 432.659 1258.07 428.919C1258.57 428.329 1259.64 427.042 1260.03 426.381C1262.58 422.08 1262.35 422.166 1262.58 421.554C1263.75 418.553 1265.24 414.148 1265.17 410.948C1265.02 403.653 1261.12 395.665 1260.39 392.682C1259.48 388.895 1259.64 388.257 1259.67 386.401C1259.73 383.822 1260.33 383.348 1260.22 382.64C1260.16 382.188 1259.73 381.883 1259.37 381.91C1258.97 381.94 1258.62 382.11 1258.31 382.262C1255.5 383.638 1248.87 378.601 1241.27 376.274C1227.67 372.108 1217.37 375.613 1211.34 382.01C1208.5 385.01 1205.36 390.599 1204.65 395.776C1204.46 397.215 1204.1 400.903 1204.49 402.303C1204.45 402.447 1204.44 402.588 1204.46 402.726Z" fill="#F28F38"/>
<path d="M1169.43 435.564C1169.76 437.798 1171.29 443.27 1172.78 446.512C1173.08 447.152 1173.4 447.742 1173.93 448.847C1174.75 450.511 1174.92 450.836 1175.8 452.013C1177.67 454.846 1178.41 455.79 1181.36 458.121C1181.95 458.59 1182.78 459.332 1183.79 459.97C1185.36 460.957 1186.83 461.61 1186.81 461.598C1196.19 466.278 1203.42 466.721 1211.39 465.42C1218.65 464.236 1224.25 460.462 1224.14 460.531C1224.43 460.342 1225.77 459.749 1226.86 458.639C1229.45 456.808 1231.79 452.6 1232.91 449.645C1235.7 442.369 1236.15 432.65 1234.61 425.713C1234.3 424.287 1233.61 422.155 1233.11 420.793C1231.97 417.609 1230.62 415.129 1228.7 412.273C1228.55 412.043 1228.29 411.895 1228.02 411.874C1224.44 407.216 1220.2 403.752 1215.31 401.314C1212.23 399.779 1208.53 397.402 1200.57 397.592C1196.03 397.7 1192.29 398.293 1186.79 400.319C1183.97 401.363 1178.74 405.329 1176.68 407.753C1172.75 412.367 1171.08 417.998 1171.09 417.975C1169.78 421.469 1169.4 424.299 1168.97 428.577C1168.81 430.106 1169.19 433.967 1169.43 435.564Z" fill="#F28F38"/>
<path d="M1240.66 418.169C1233.23 406.874 1219.73 393.843 1207.15 388.17C1205.94 390.565 1205 393.221 1204.65 395.776C1204.57 396.376 1204.46 397.367 1204.39 398.42C1213.93 403.654 1228.91 417.989 1234.3 427.767C1235.27 429.518 1236.73 431.799 1237.64 433.997C1238.04 434.957 1238.32 435.878 1239.08 437.451C1241.32 437.211 1245.28 436.264 1245.58 436.176C1246.89 435.808 1248.17 435.373 1249.42 434.863C1248.59 432.486 1246.54 427.999 1246.53 427.98C1245.72 426.253 1240.67 418.19 1240.66 418.169Z" fill="black"/>
<path d="M1254.29 391.881C1261.42 401.1 1264.26 408.948 1265.17 411.155C1265.17 411.086 1265.18 411.016 1265.17 410.948C1265.02 403.653 1261.12 395.665 1260.39 392.682C1259.47 388.895 1259.64 388.257 1259.67 386.401C1259.73 383.822 1260.33 383.348 1260.22 382.64C1260.16 382.188 1259.73 381.883 1259.37 381.91C1258.97 381.94 1258.62 382.11 1258.31 382.262C1255.5 383.638 1248.87 378.601 1241.27 376.274C1238.11 375.306 1235.13 374.757 1232.34 374.557C1234.37 375.287 1235.83 376.154 1236.56 376.526C1244.28 380.489 1249.41 385.547 1254.29 391.881Z" fill="black"/>
<path d="M1233.45 383.003C1229.96 380.517 1225.03 377.34 1220.88 375.92C1217.02 377.239 1213.82 379.38 1211.34 382.01C1211.13 382.225 1210.92 382.459 1210.72 382.701C1211.94 383.352 1213.89 384.172 1214.72 384.611C1216.56 385.589 1216.65 385.747 1218.32 386.562C1219.99 387.386 1220.53 387.718 1222.03 388.73C1223.82 389.92 1224.2 389.925 1227.3 392.429C1229.95 394.56 1229.33 394.219 1231.78 396.324C1235.49 399.53 1233.54 397.482 1242.95 408.014C1250.06 416.612 1247.49 413.038 1252.73 421.183C1253.29 422.042 1256.57 427.944 1257.51 429.547C1257.7 429.343 1257.89 429.134 1258.07 428.919C1258.57 428.33 1259.64 427.042 1260.03 426.381C1262.58 422.08 1262.35 422.166 1262.58 421.554C1262.81 420.967 1263.05 420.328 1263.29 419.654C1257.9 406.8 1244.76 391.051 1233.45 383.003Z" fill="black"/>
<path d="M1216.84 392.075C1216.92 392.614 1217.59 395.134 1217.75 395.688C1218.46 398.131 1219.94 400.508 1219.93 400.488C1221.56 403.392 1222.73 404.26 1224.97 406.23C1226.18 407.287 1227.07 407.709 1227.05 407.694C1227.83 408.167 1228.66 408.621 1229.37 408.055C1229.52 408.559 1230.79 410.484 1231.14 410.968C1231.84 411.929 1232.07 411.971 1233.19 413.261C1237.31 418.021 1241.16 423.366 1248.9 423.685C1251.36 423.786 1252.92 423.269 1254.8 422.391C1255.74 421.95 1257.03 421.245 1257.79 420.53C1260.47 418.02 1261.23 416.293 1261.54 414.034C1261.92 411.334 1260.98 408.319 1259.35 406.301C1258.42 405.141 1257.51 404.349 1257.53 404.367C1255.75 402.69 1251.39 400.75 1248.34 400.659C1246.35 400.602 1243.93 400.686 1241.96 401.063C1240.58 401.326 1238.61 401.988 1238.63 401.982C1232.23 404.027 1231.84 405.378 1233.93 403.092C1234.59 402.368 1233.97 402.901 1235.58 401.259C1236.16 400.66 1237.01 399.057 1236.99 399.082C1237.93 397.523 1238.42 396.691 1238.85 394.966C1238.9 394.758 1239.91 390.147 1239.8 389.411C1239.76 389.165 1239.7 389.122 1239.62 388.862C1238.55 384.588 1237.5 382.853 1235.42 381.047C1232.98 378.929 1230.51 378.368 1227.31 378.575C1224.91 378.733 1223.56 379.293 1221.5 380.584C1219.03 382.143 1218.24 383.564 1217.66 384.922C1216.73 387.105 1216.49 389.742 1216.84 392.075Z" fill="#C1B9B0"/>
<path d="M1181.41 395.538C1181.57 396.637 1182.92 401.007 1185.74 404.565C1193.43 414.266 1204.31 415.732 1216.4 413.037C1219.59 412.325 1225.29 409.9 1226.29 409.321C1227.43 408.663 1226.68 408.988 1225.91 410.141C1225.35 410.981 1222.3 414.102 1220.03 418.148C1213.29 430.246 1215.08 443.197 1221.55 450.91C1222.81 452.619 1224.7 454.697 1226.64 455.555C1227.8 456.068 1230.49 457.214 1231.74 457.473C1238.91 459.739 1248.43 453.938 1250.93 447.314C1251.31 446.323 1251.52 445.204 1251.7 444.115C1252.07 444.335 1252.53 444.541 1252.51 444.529C1253.9 445.186 1254.25 445.214 1255.17 445.212C1257.34 445.201 1258.3 445.127 1260.83 442.545C1261.47 441.898 1261.64 441.43 1262.21 440.56C1268.14 432.194 1259.8 412.659 1242.55 407.736C1240.78 407.229 1241.02 407.173 1238.62 406.714C1233.84 405.798 1230.08 406.296 1230.1 406.293C1231.12 404.462 1235.35 389.536 1230.18 378.746C1227.95 374.093 1224.19 369.724 1219.13 368.613C1218.09 368.392 1217.21 368.568 1216.92 368.618C1216.21 368.736 1215.61 368.733 1214.8 369.391C1213.29 370.613 1212.69 371.709 1212.31 373.031C1210.57 371.512 1203.34 368.653 1197.9 370.032C1190.6 371.894 1187.92 374.827 1184.71 379.779C1182.31 383.488 1182.03 385.412 1181.78 387.005C1181.27 389.886 1180.78 391.365 1181.41 395.538Z" fill="#DFD6CB"/>
<path d="M1219.27 393.259C1212.19 386.009 1206.17 384.306 1202.53 382.974C1202.93 383.119 1200.55 382.192 1198.47 381.861C1198.02 381.789 1194.89 381.095 1192.66 380.946C1191.36 380.721 1188.82 380.584 1188.38 380.623C1188.12 380.648 1187.57 380.571 1187.26 381.104C1187.15 381.294 1187.14 381.547 1187.21 381.756C1187.42 382.392 1188.01 382.336 1188.37 382.368C1193.46 382.851 1190.5 382.138 1195.64 383.315C1202.55 384.888 1206.31 386.743 1213.12 391.63C1217.43 394.719 1223.16 401.598 1225.19 404.377C1225.27 404.597 1225.37 404.784 1225.58 404.915C1226.23 405.681 1227.34 404.827 1226.89 404.04C1226.8 403.485 1225.86 401.778 1225.75 401.627C1224.11 399.203 1222.83 396.921 1219.27 393.259Z" fill="white"/>
<path d="M1216.71 373.692C1216.31 374.85 1218.37 374.893 1221.66 383.354C1223.93 389.709 1223.76 393.09 1224.31 393.613C1224.85 394.228 1225.83 393.863 1225.86 393.078C1226.29 390.109 1224.72 383.886 1223.42 380.782C1223.02 379.829 1221.45 376.986 1220.87 376.177C1220.2 375.25 1218.42 373.101 1217.58 373.074C1217.18 373.061 1216.84 373.324 1216.71 373.692Z" fill="white"/>
<path d="M1189.59 398.191C1188.42 397.709 1187.36 398.673 1187.49 399.552C1187.61 400.337 1188.4 401.052 1189.82 400.895C1191.16 400.749 1191.36 398.912 1189.59 398.191Z" fill="white"/>
<path d="M1219.52 405.697C1221.76 405.317 1220.92 403.405 1219.51 403.885C1212.82 404.581 1200.88 402.356 1194 400.388C1193.6 400.274 1193.17 400.183 1192.82 400.496C1192.64 400.652 1192.51 400.941 1192.55 401.187C1192.73 402.418 1195.86 403.043 1197.2 403.478C1198.48 403.897 1198.49 403.828 1199.29 404.002C1200.88 404.348 1204.43 405.696 1211.8 406.084C1212.39 406.114 1212 406.048 1213.67 406.156C1214.82 406.228 1214.85 406.217 1215.31 406.166C1217.75 405.923 1217.98 406.109 1218.88 405.836C1219.09 405.772 1219.3 405.737 1219.52 405.697Z" fill="white"/>
<path d="M1229.33 411.655C1230.26 413.395 1229.46 411.991 1230.63 414.051C1233.08 418.35 1235.58 427.829 1236.31 432.783C1236.39 433.357 1236.66 436.685 1236.66 436.709C1236.94 440.328 1236.84 441.216 1236.79 443.245C1236.74 445.492 1236.92 446.577 1236.44 450.457C1236.41 450.714 1236.33 451.141 1236.63 451.503C1236.82 451.688 1237.02 451.889 1237.46 451.817C1238.21 451.692 1238.34 450.988 1238.72 448.549C1239.22 445.396 1239.6 441.91 1239.33 438.699C1239.01 435.013 1239.6 435.839 1238.06 427.68C1237.07 422.429 1234.38 416.141 1232.22 412.771C1231.23 411.168 1230.77 410.729 1230.66 410.579C1230.07 409.777 1228.64 410.652 1229.33 411.655Z" fill="white"/>
<path d="M1227 444.563C1226.99 443.776 1226.9 442.989 1226.78 442.213C1225.16 431.836 1228.02 419.738 1227.52 418.666C1227.15 417.858 1225.94 417.952 1225.79 418.934C1225.31 422.146 1221.7 434.677 1225.25 444.565C1225.32 444.772 1225.41 445.128 1225.84 445.288C1226.41 445.497 1227 445.039 1227 444.563Z" fill="white"/>
<path d="M1234.99 412.811C1236.04 413.421 1237.01 413.823 1237.45 414.151C1241.67 417.303 1244.86 420.257 1246.42 422.022C1251.79 428.13 1252.89 432.317 1254.02 432.887C1254.3 432.989 1254.61 432.939 1254.85 432.742C1255.35 432.318 1255.1 431.778 1254.89 431.161C1254.61 430.338 1253.9 428.66 1252.99 427.108C1250.52 422.867 1249.36 420.984 1245.43 417.086C1244.59 416.26 1242.34 414.51 1240.38 413.609C1240.02 413.406 1239.68 413.17 1239.34 412.949C1237.95 412.045 1236.96 411.854 1236.65 411.712C1235.87 411.352 1235.74 411.185 1235.35 411.248C1234.53 411.384 1234.41 412.469 1234.99 412.811Z" fill="white"/>
<path d="M1254.56 436.86C1254.75 438.187 1256.52 438.637 1257.02 437.401C1257.04 437.356 1257.23 437.11 1257.15 436.761C1257 436.067 1256.85 435.35 1256.16 435.177C1255.1 434.915 1254.39 435.764 1254.56 436.86Z" fill="white"/>
<path d="M1506.9 135.437C1508.65 138.032 1509.86 140.995 1510.51 144.328C1510.56 144.567 1510.54 144.827 1510.46 145.105C1510.38 145.388 1510.24 145.664 1510.05 145.943C1509.85 146.222 1509.62 146.477 1509.34 146.713C1509.06 146.947 1508.76 147.141 1508.43 147.295C1508.11 147.45 1507.79 147.552 1507.47 147.602C1507.16 147.654 1506.87 147.649 1506.61 147.588C1506.34 147.529 1506.13 147.419 1505.97 147.255C1505.8 147.094 1505.69 146.894 1505.65 146.653C1505.05 143.639 1503.97 140.961 1502.38 138.621C1502.25 138.429 1502.19 138.207 1502.18 137.948C1502.18 137.69 1502.24 137.42 1502.36 137.135C1502.48 136.852 1502.65 136.575 1502.88 136.309C1503.11 136.039 1503.37 135.798 1503.67 135.587C1503.97 135.377 1504.28 135.211 1504.61 135.089C1504.93 134.968 1505.25 134.899 1505.55 134.885C1505.85 134.871 1506.12 134.911 1506.35 135.009C1506.59 135.104 1506.77 135.248 1506.9 135.437ZM1507.81 165.543C1506.4 169.242 1504.56 173.071 1502.29 177.037C1502.13 177.321 1501.92 177.588 1501.66 177.839C1501.4 178.09 1501.11 178.307 1500.8 178.49C1500.48 178.671 1500.17 178.802 1499.84 178.886C1499.52 178.97 1499.22 178.998 1498.93 178.972C1498.65 178.946 1498.41 178.866 1498.21 178.733C1498.01 178.6 1497.87 178.424 1497.79 178.204C1497.7 177.984 1497.68 177.738 1497.72 177.468C1497.76 177.195 1497.86 176.917 1498.03 176.635C1500.15 172.932 1501.86 169.364 1503.17 165.932C1503.28 165.648 1503.44 165.37 1503.66 165.099C1503.88 164.828 1504.13 164.58 1504.43 164.362C1504.72 164.143 1505.03 163.968 1505.36 163.836C1505.68 163.704 1506 163.625 1506.31 163.601C1506.61 163.574 1506.89 163.604 1507.13 163.688C1507.37 163.774 1507.57 163.906 1507.71 164.089C1507.85 164.272 1507.93 164.49 1507.95 164.74C1507.96 164.994 1507.92 165.261 1507.81 165.543ZM1486.91 198.5C1484.07 201.863 1480.95 205.356 1477.55 208.975C1477.31 209.235 1477.03 209.463 1476.72 209.659C1476.41 209.854 1476.1 210.002 1475.77 210.105C1475.45 210.207 1475.14 210.255 1474.84 210.246C1474.55 210.237 1474.3 210.176 1474.08 210.06C1473.87 209.945 1473.71 209.782 1473.6 209.576C1473.49 209.371 1473.45 209.133 1473.47 208.868C1473.49 208.602 1473.57 208.327 1473.72 208.041C1473.86 207.756 1474.05 207.483 1474.3 207.225C1477.6 203.712 1480.62 200.326 1483.37 197.072C1483.59 196.803 1483.86 196.564 1484.16 196.353C1484.45 196.139 1484.77 195.971 1485.09 195.849C1485.42 195.728 1485.73 195.657 1486.04 195.643C1486.34 195.627 1486.61 195.667 1486.84 195.761C1487.08 195.857 1487.26 196 1487.39 196.189C1487.52 196.379 1487.59 196.603 1487.6 196.86C1487.6 197.118 1487.54 197.388 1487.43 197.672C1487.31 197.955 1487.13 198.233 1486.91 198.5ZM1457.95 228.332C1454.45 231.555 1450.87 234.73 1447.22 237.852C1446.95 238.087 1446.65 238.284 1446.32 238.444C1446 238.603 1445.68 238.709 1445.37 238.766C1445.05 238.822 1444.76 238.822 1444.49 238.767C1444.23 238.71 1444.01 238.604 1443.84 238.447C1443.67 238.289 1443.56 238.093 1443.5 237.858C1443.45 237.619 1443.46 237.362 1443.53 237.084C1443.61 236.803 1443.74 236.523 1443.93 236.245C1444.12 235.967 1444.35 235.708 1444.63 235.47C1448.2 232.416 1451.7 229.311 1455.13 226.157C1455.4 225.909 1455.69 225.703 1456.01 225.531C1456.33 225.359 1456.65 225.239 1456.97 225.164C1457.29 225.094 1457.59 225.078 1457.86 225.118C1458.14 225.157 1458.37 225.247 1458.56 225.392C1458.74 225.537 1458.87 225.723 1458.94 225.949C1459.01 226.177 1459.02 226.428 1458.96 226.703C1458.91 226.98 1458.79 227.258 1458.62 227.541C1458.44 227.822 1458.22 228.085 1457.95 228.332ZM1425.36 255.299C1421.49 258.172 1417.58 260.979 1413.62 263.714C1413.32 263.924 1413 264.089 1412.68 264.206C1412.35 264.323 1412.03 264.388 1411.73 264.398C1411.43 264.406 1411.17 264.363 1410.94 264.263C1410.71 264.163 1410.53 264.014 1410.41 263.821C1410.28 263.628 1410.22 263.401 1410.22 263.142C1410.22 262.881 1410.28 262.61 1410.41 262.324C1410.53 262.041 1410.71 261.765 1410.94 261.499C1411.17 261.233 1411.44 260.994 1411.74 260.786C1415.61 258.107 1419.45 255.36 1423.23 252.547C1423.52 252.328 1423.83 252.153 1424.16 252.02C1424.49 251.888 1424.8 251.81 1425.11 251.783C1425.42 251.757 1425.69 251.789 1425.94 251.873C1426.18 251.957 1426.37 252.091 1426.51 252.274C1426.65 252.455 1426.73 252.671 1426.75 252.925C1426.77 253.177 1426.72 253.446 1426.61 253.728C1426.5 254.013 1426.34 254.291 1426.13 254.562C1425.91 254.833 1425.65 255.08 1425.36 255.299ZM1390.09 278.81C1385.97 281.261 1381.82 283.624 1377.65 285.902C1377.33 286.076 1377.01 286.199 1376.69 286.273C1376.37 286.347 1376.07 286.367 1375.79 286.329C1375.52 286.292 1375.28 286.201 1375.09 286.06C1374.9 285.918 1374.77 285.736 1374.7 285.508C1374.63 285.281 1374.62 285.033 1374.67 284.758C1374.72 284.483 1374.84 284.204 1375.01 283.921C1375.18 283.638 1375.4 283.375 1375.67 283.128C1375.93 282.882 1376.22 282.671 1376.54 282.497C1380.62 280.269 1384.68 277.956 1388.72 275.559C1389.03 275.373 1389.35 275.234 1389.67 275.144C1389.99 275.057 1390.3 275.022 1390.58 275.045C1390.87 275.065 1391.12 275.138 1391.32 275.267C1391.52 275.394 1391.67 275.567 1391.76 275.783C1391.85 275.997 1391.88 276.241 1391.85 276.511C1391.81 276.781 1391.71 277.059 1391.56 277.343C1391.4 277.626 1391.19 277.896 1390.94 278.149C1390.69 278.404 1390.4 278.624 1390.09 278.81ZM1353.1 298.204L1343.44 302.622L1340.45 303.991C1340.13 304.139 1339.81 304.236 1339.49 304.278C1339.18 304.323 1338.89 304.312 1338.64 304.243C1338.38 304.177 1338.17 304.059 1338.01 303.892C1337.86 303.723 1337.75 303.517 1337.72 303.276C1337.68 303.03 1337.7 302.768 1337.79 302.488C1337.88 302.206 1338.02 301.927 1338.22 301.65C1338.43 301.375 1338.67 301.121 1338.95 300.89C1339.24 300.659 1339.54 300.471 1339.87 300.323L1342.85 298.956L1352.52 294.536C1352.84 294.388 1353.16 294.291 1353.47 294.247C1353.79 294.205 1354.07 294.216 1354.33 294.284C1354.59 294.351 1354.79 294.468 1354.95 294.637C1355.11 294.804 1355.21 295.008 1355.25 295.254C1355.29 295.497 1355.26 295.759 1355.18 296.042C1355.09 296.321 1354.94 296.6 1354.74 296.877C1354.54 297.154 1354.3 297.406 1354.01 297.637C1353.73 297.866 1353.42 298.056 1353.1 298.204ZM1316.45 315.953C1312.21 318.352 1308.29 320.791 1304.71 323.267C1304.41 323.475 1304.09 323.64 1303.77 323.759C1303.44 323.876 1303.13 323.939 1302.83 323.951C1302.52 323.959 1302.26 323.914 1302.03 323.814C1301.8 323.714 1301.62 323.567 1301.5 323.374C1301.37 323.178 1301.31 322.954 1301.31 322.695C1301.31 322.434 1301.37 322.162 1301.5 321.877C1301.62 321.594 1301.8 321.318 1302.03 321.052C1302.26 320.786 1302.53 320.547 1302.83 320.339C1306.63 317.713 1310.76 315.137 1315.24 312.608C1315.55 312.429 1315.87 312.299 1316.19 312.221C1316.52 312.141 1316.82 312.116 1317.1 312.144C1317.38 312.176 1317.62 312.258 1317.81 312.397C1318.01 312.532 1318.15 312.712 1318.23 312.934C1318.31 313.156 1318.32 313.404 1318.28 313.677C1318.23 313.949 1318.13 314.226 1317.96 314.51C1317.79 314.792 1317.58 315.061 1317.32 315.309C1317.06 315.561 1316.77 315.775 1316.45 315.953ZM1285.45 340.81C1282.65 344.28 1280.34 347.736 1278.5 351.181C1278.35 351.466 1278.15 351.735 1277.9 351.992C1277.65 352.248 1277.37 352.473 1277.06 352.662C1276.75 352.852 1276.43 352.992 1276.1 353.089C1275.78 353.184 1275.47 353.222 1275.18 353.206C1274.89 353.19 1274.64 353.123 1274.44 352.997C1274.23 352.872 1274.07 352.707 1273.98 352.495C1273.88 352.282 1273.85 352.042 1273.88 351.774C1273.91 351.504 1274 351.228 1274.15 350.943C1276.18 347.137 1278.73 343.325 1281.81 339.509C1282.03 339.236 1282.28 338.992 1282.58 338.775C1282.87 338.557 1283.18 338.382 1283.51 338.252C1283.83 338.12 1284.15 338.044 1284.46 338.018C1284.76 337.995 1285.04 338.025 1285.28 338.113C1285.52 338.199 1285.71 338.334 1285.85 338.517C1285.99 338.702 1286.07 338.919 1286.08 339.173C1286.1 339.425 1286.05 339.692 1285.94 339.976C1285.83 340.261 1285.67 340.539 1285.45 340.81Z" fill="#6451A6"/>
<g clip-path="url(#clip2_275_5334)">
<path d="M13.5679 282.974C14.8915 291.102 20.0185 300.233 25.1626 306.501C30.7766 313.319 43.1258 322.454 49.8191 325.731C55.5641 328.596 63.3331 330.299 69.71 331.469C68.9954 332.75 64.1979 344.857 64.0114 352.917C63.4671 371.737 68.0647 383.601 79.8843 398.246C94.2928 416.052 115.423 422.621 138.474 421.499C161.213 420.393 169.734 416.005 176.794 412.579C180.458 410.826 200.619 399.38 207.099 394.105C206.973 394.523 207.083 411.893 214.147 429.007C218.353 439.351 223.444 446.352 231.445 454.65C242.88 466.196 252.003 468.511 266.356 467.812C280.943 467.103 296.437 461.364 300.814 458.298C324.586 442.202 328.137 433.519 339.664 412.481C342.319 407.664 343.461 405.846 345.608 395.63C345.664 396.045 349.45 402.473 354.503 407.937C363.378 417.365 379.042 425.718 391.349 428.091C408.266 431.45 424.78 428.107 438.47 419.468C443.076 416.611 447.854 413.531 451.069 410.486C475.974 386.492 478.255 357.722 471.691 323.438C470.076 315.126 469.943 313.36 467.732 308.738C466.068 305.184 464.329 303.527 464.547 303.517C477.283 298.423 508.403 270.549 509.175 219.863C509.343 205.854 503.274 188.718 495.893 177C478.586 149.345 442.119 137.843 414.557 145.588C400.172 149.703 397.225 152.991 397.142 152.375C395.229 142.638 392.328 132.736 389.976 125.874C385.187 111.459 359.482 73.4868 327.905 63.7757C302.069 54.1554 283.545 54.4467 267.477 58.472C253.522 61.9774 235.616 70.1333 224.782 79.7181C213.084 90.1688 207.6 97.3814 200.309 110.001C187.571 100.176 174.98 92.2733 158.718 87.9335C149.436 85.4651 132.775 83.5278 122.043 84.681C113.841 85.5546 106.503 87.9975 99.3972 90.8097C77.2925 99.5872 76.4503 104.034 70.8845 108.602C50.5462 125.068 43.086 141.82 41.029 166.309C40.2016 176.418 39.0613 185.453 44.1071 204.705C45.4049 209.621 46.4049 213.134 48.4516 217.795C46.865 218.41 44.0601 220.027 42.9697 220.659C30.908 227.613 22.6394 237.396 16.4266 249.671C12.4644 257.404 12.1335 273.965 13.5679 282.974Z" fill="#E3DFF1"/>
<path d="M201.251 207.909C204.979 208.437 205.41 208.729 210.499 209.149C214.263 209.456 212.772 208.709 215.549 211.875C222.323 219.591 224.958 221.987 227.418 221.867C230.181 221.733 230.846 219.114 233.538 215.182C233.67 214.988 233.762 214.754 233.822 214.48C234.416 213.601 236.205 210.724 236.248 210.644C242.901 199.281 237.015 204.109 246.908 200.504C251.385 198.941 259.5 196.726 258.827 192.014C258.664 190.906 257.551 189.787 257.618 189.867C248.527 179.234 245.559 178.773 245.161 176.483C244.571 172.501 244.332 168.67 242.905 163.66C241.822 159.854 241.618 155.442 237.363 155.649C233.857 155.82 229.127 160.222 227.66 161.352C227.58 161.418 224.61 163.294 222.221 165.423C207.125 162.309 204.983 162.236 205.062 162.248C202.174 161.951 200.191 161.812 198.599 163.804C195.815 167.25 201.038 180.496 202.673 184.208C196.229 193.866 193.189 201.481 193.343 201.114C191.168 206.455 195.029 207.028 201.251 207.909Z" fill="#E3DFF1"/>
<path d="M279.97 238.385C290.333 242.495 288.173 240.212 288.984 242.092C290.551 245.796 292.192 249.924 294.808 249.797C296.926 249.694 298.515 247.103 300.025 244.803C303.238 239.896 301.593 241.024 305.218 240.942C308.74 240.864 312.43 240.309 313.825 239.923C315.924 239.352 316.942 237.232 316.25 235.639C315.36 233.544 314.3 232.751 313.011 231.343C312.256 230.41 311.552 229.428 310.756 228.517C309.247 226.761 309.3 228.171 310.118 224.726C310.286 223.998 310.859 220.67 311.061 218.068C311.268 215.467 309.609 213.837 307.315 213.949C304.62 214.08 301.963 216.05 299.408 217.874C298.959 218.193 298.47 218.53 298.006 218.85C286.436 213.63 288.305 214.639 289.102 214.934C286.437 213.958 284.139 213.142 282.572 215.653C281.184 217.885 282.492 225.273 283.106 228.345C282.775 228.617 282.36 228.976 281.832 229.497C279.811 231.468 277.982 233.309 277.833 234.635C277.617 236.528 278.429 237.777 279.97 238.385Z" fill="#E3DFF1"/>
<path d="M73.052 303.92C75.3387 304.513 88.6927 306.006 88.6139 305.994C89.6154 307.823 94.2158 315.134 94.5006 315.522C96.3797 318.131 97.5232 319.557 99.5521 319.458C101.799 319.348 102.225 317.701 105.416 312.863C106.003 311.969 108.336 307.512 108.379 307.436C110.541 303.217 107.542 306.518 116.95 303.109C122.719 301.008 128.575 299.294 127.077 295.519C126.672 294.485 126.336 293.777 115.168 283.949C116.808 270.932 116.169 268.314 116.173 268.392C116.02 266.324 114.374 264.751 112.282 265.16C110.48 265.519 97.4792 272.467 97.4029 272.507C92.4277 270.35 81.8455 264.952 78.9348 269.432C78.0419 270.8 78.6938 272.087 80.0078 284.731C80.1347 285.945 80.4034 285.468 78.7173 287.36C75.6434 290.627 72.2043 295.608 70.6151 299.492C69.8913 301.227 70.8292 303.356 73.052 303.92Z" fill="#E3DFF1"/>
<path d="M189.607 201.916C190.235 198.319 188.823 193.731 183.974 192.887C176.516 191.571 174.273 201.103 178.853 205.537C182.092 208.659 188.64 207.438 189.607 201.916Z" fill="white"/>
<path d="M205.869 220.622C214.984 219.02 212.623 203.294 202.124 206.876C194.773 209.372 197.969 222.012 205.869 220.622Z" fill="white"/>
<path d="M195.861 237.31C198.797 236.99 201.192 235.1 201.493 231.858C201.644 230.239 201.52 230.475 201.551 229.191C201.633 225.51 196.509 222.344 191.815 225.096C187.003 227.901 188.116 238.146 195.861 237.31Z" fill="white"/>
<path d="M189.452 260.868C181.987 264.668 186.121 276.642 194.684 273.989C195.955 274.062 197.251 273.598 198.04 272.543C200.312 269.512 200.845 266.649 198.885 263.35C197.037 260.191 192.173 259.469 189.452 260.868Z" fill="white"/>
<path d="M143.283 247.059C144.554 247.138 145.85 246.668 146.638 245.613C148.911 242.588 149.439 239.72 147.485 236.426C145.631 233.262 140.772 232.539 138.05 233.939C130.586 237.738 134.714 249.718 143.283 247.059Z" fill="white"/>
<path d="M256.415 169.975C257.68 170.049 258.982 169.584 259.77 168.524C262.042 165.498 262.576 162.635 260.611 159.336C258.762 156.178 253.904 155.455 251.177 156.854C243.717 160.654 247.846 172.629 256.415 169.975Z" fill="white"/>
<path d="M416.706 326.812C417.977 326.886 419.274 326.421 420.062 325.366C422.334 322.335 422.867 319.473 420.908 316.179C419.059 313.015 414.196 312.292 411.474 313.692C404.009 317.491 408.143 329.471 416.706 326.812Z" fill="white"/>
<path d="M185.119 371.485C186.385 371.559 187.681 371.095 188.475 370.039C190.747 367.009 191.275 364.152 189.315 360.852C187.467 357.694 182.608 356.965 179.882 358.37C172.422 362.164 176.551 374.145 185.119 371.485Z" fill="white"/>
<path d="M258.082 138.873C259.352 138.946 260.644 138.482 261.437 137.427C263.709 134.401 264.243 131.533 262.278 128.239C260.43 125.081 255.571 124.352 252.849 125.757C245.384 129.552 249.513 141.527 258.082 138.873Z" fill="white"/>
<path d="M240.361 294.856C241.919 293.122 241.813 290.947 241.887 290.636C243.337 284.642 236.896 279.595 230.701 283.233C227.405 285.156 226.125 291.101 229.931 295.155C232.333 297.697 237.567 297.985 240.361 294.856Z" fill="white"/>
<path d="M158.346 145.342C159.905 143.613 159.793 141.434 159.867 141.123C161.322 135.128 154.876 130.081 148.687 133.725C145.391 135.643 144.105 141.593 147.916 145.641C150.318 148.184 155.557 148.471 158.346 145.342Z" fill="white"/>
<path d="M352.724 169.288C354.277 167.559 354.171 165.38 354.245 165.073C355.7 159.074 349.254 154.027 343.065 157.671C339.769 159.588 338.483 165.538 342.299 169.587C344.696 172.129 349.93 172.417 352.724 169.288Z" fill="white"/>
<path d="M157.783 271.675C154.486 273.593 153.206 279.542 157.012 283.591C159.414 286.134 164.648 286.422 167.447 283.292C169 281.564 168.889 279.384 168.968 279.073C170.418 273.078 163.977 268.031 157.783 271.675Z" fill="white"/>
</g>
<defs>
<clipPath id="clip0_275_5334">
<rect width="500" height="500" fill="white" transform="translate(1330.11 590.969) rotate(162.164)"/>
</clipPath>
<clipPath id="clip1_275_5334">
<rect width="500" height="500" fill="white" transform="translate(1001.11 519.969) rotate(162.164)"/>
</clipPath>
<clipPath id="clip2_275_5334">
<rect width="500" height="500" fill="white" transform="translate(523.711 499.409) rotate(177.214)"/>
</clipPath>
</defs>
</svg>
