<svg width="1421" height="523" viewBox="0 0 1421 523" fill="none" xmlns="http://www.w3.org/2000/svg">
<g clip-path="url(#clip0_302_5351)">
<path d="M846.023 348.198C849.761 347.74 850.253 347.91 855.276 346.994C858.991 346.313 857.357 345.979 860.861 348.315C869.406 354.008 872.573 355.637 874.918 354.883C877.551 354.036 877.513 351.334 879.092 346.837C879.168 346.616 879.197 346.366 879.184 346.086C879.529 345.083 880.51 341.84 880.53 341.751C884.005 329.051 879.574 335.242 888.192 329.192C892.109 326.52 899.371 322.274 897.498 317.898C897.052 316.87 895.687 316.078 895.772 316.138C884.233 308.23 881.246 308.556 880.267 306.448C878.663 302.756 877.438 299.118 874.759 294.651C872.726 291.257 871.383 287.049 867.327 288.354C863.985 289.429 860.561 294.908 859.437 296.38C859.377 296.465 856.997 299.048 855.242 301.724C839.855 302.637 837.768 303.123 837.848 303.114C834.982 303.576 833.031 303.958 832.01 306.294C830.217 310.345 838.7 321.781 841.243 324.94C837.527 335.94 836.569 344.084 836.623 343.689C835.909 349.412 839.786 348.963 846.023 348.198Z" fill="#E3DFF1"/>
<path d="M929.957 357.188C941.032 358.466 938.352 356.823 939.624 358.427C942.099 361.597 944.755 365.158 947.249 364.356C949.267 363.706 950.129 360.792 950.99 358.179C952.819 352.606 951.523 354.122 955.003 353.101C958.383 352.112 961.803 350.618 963.049 349.883C964.929 348.786 965.361 346.475 964.279 345.116C962.876 343.324 961.646 342.834 960.036 341.809C959.065 341.103 958.129 340.338 957.124 339.665C955.211 338.36 955.628 339.709 955.524 336.17C955.497 335.423 955.186 332.06 954.706 329.495C954.23 326.929 952.205 325.786 950.018 326.49C947.45 327.316 945.395 329.908 943.402 332.333C943.051 332.758 942.666 333.21 942.301 333.64C929.773 331.603 931.84 332.092 932.686 332.17C929.859 331.92 927.428 331.728 926.566 334.561C925.805 337.076 928.987 343.871 930.378 346.679C930.129 347.027 929.821 347.482 929.447 348.122C928.007 350.549 926.718 352.802 926.918 354.122C927.202 356.006 928.31 357.001 929.957 357.188Z" fill="#E3DFF1"/>
<path d="M747.152 474.204C749.514 474.183 762.797 472.157 762.718 472.166C764.16 473.672 770.501 479.538 770.877 479.838C773.369 481.871 774.844 482.95 776.777 482.328C778.919 481.639 778.902 479.937 780.727 474.437C781.062 473.421 782.158 468.51 782.18 468.427C783.172 463.791 781.133 467.757 789.333 462.022C794.359 458.495 799.569 455.32 797.142 452.063C796.483 451.17 795.974 450.573 782.637 443.982C780.84 430.985 779.544 428.623 779.568 428.697C778.884 426.74 776.886 425.649 774.972 426.587C773.324 427.402 762.574 437.487 762.51 437.545C757.146 436.755 745.525 434.289 743.877 439.371C743.37 440.924 744.334 441.998 748.886 453.867C749.324 455.007 749.46 454.476 748.322 456.741C746.202 460.695 744.174 466.397 743.648 470.56C743.4 472.424 744.858 474.236 747.152 474.204Z" fill="#E3DFF1"/>
<path d="M833.222 345.434C832.895 341.797 830.34 337.733 825.438 338.178C817.894 338.843 818.203 348.63 823.778 351.723C827.716 353.897 833.722 351.018 833.222 345.434Z" fill="#E3DFF1"/>
<path d="M853.784 359.275C862.17 355.362 855.807 340.788 846.597 346.974C840.147 351.293 846.516 362.67 853.784 359.275Z" fill="#E3DFF1"/>
<path d="M848.452 377.99C851.204 376.919 853.027 374.472 852.475 371.263C852.201 369.66 852.142 369.92 851.839 368.672C850.962 365.096 845.192 363.369 841.373 367.246C837.454 371.204 841.19 380.808 848.452 377.99Z" fill="#E3DFF1"/>
<path d="M848.38 402.404C842.158 408.012 849.259 418.503 856.84 413.716C858.086 413.458 859.217 412.672 859.705 411.449C861.112 407.932 860.884 405.029 858.134 402.352C855.529 399.781 850.645 400.346 848.38 402.404Z" fill="#E3DFF1"/>
<path d="M800.21 401.057C801.457 400.804 802.587 400.013 803.075 398.79C804.483 395.278 804.249 392.372 801.506 389.698C798.894 387.124 794.015 387.687 791.75 389.745C785.528 395.353 792.626 405.85 800.21 401.057Z" fill="#E3DFF1"/>
<path d="M889.445 297.241C890.687 296.984 891.823 296.197 892.309 294.968C893.717 291.456 893.489 288.554 890.735 285.878C888.13 283.307 883.25 283.871 880.98 285.931C874.763 291.537 881.86 302.029 889.445 297.241Z" fill="#E3DFF1"/>
<path d="M1084.96 407.077C1086.21 406.818 1087.34 406.033 1087.83 404.809C1089.24 401.293 1089.01 398.39 1086.26 395.717C1083.65 393.142 1078.77 393.707 1076.5 395.765C1070.28 401.373 1077.38 411.868 1084.96 407.077Z" fill="#E3DFF1"/>
<path d="M872.92 510.352C874.161 510.095 875.293 509.31 875.785 508.085C877.192 504.568 876.96 501.671 874.211 498.994C871.606 496.424 866.725 496.982 864.457 499.047C858.238 504.648 865.336 515.145 872.92 510.352Z" fill="#E3DFF1"/>
<path d="M882.979 266.773C884.226 266.514 885.352 265.73 885.844 264.505C887.253 260.993 887.023 258.085 884.271 255.414C881.666 252.844 876.784 253.402 874.521 255.466C868.297 261.068 875.394 271.56 882.979 266.773Z" fill="#E3DFF1"/>
<path d="M906.369 422.007C907.424 419.928 906.757 417.855 906.747 417.536C906.591 411.371 899.061 408.169 894.023 413.291C891.34 416.004 891.647 422.077 896.375 425.004C899.355 426.835 904.484 425.754 906.369 422.007Z" fill="#E3DFF1"/>
<path d="M788.345 298.918C789.401 296.844 788.727 294.768 788.717 294.448C788.566 288.282 781.031 285.081 776 290.207C773.315 292.915 773.619 298.994 778.35 301.915C781.33 303.746 786.464 302.664 788.345 298.918Z" fill="#E3DFF1"/>
<path d="M982.272 271.57C983.323 269.497 982.655 267.42 982.647 267.105C982.494 260.933 974.959 257.733 969.928 262.859C967.243 265.567 967.546 271.646 972.283 274.565C975.258 276.398 980.387 275.317 982.272 271.57Z" fill="#E3DFF1"/>
<path d="M820.604 421.064C817.919 423.772 818.227 429.849 822.954 432.771C825.934 434.603 831.063 433.522 832.953 429.773C834.004 427.7 833.331 425.624 833.326 425.303C833.17 419.138 825.64 415.936 820.604 421.064Z" fill="#E3DFF1"/>
<path d="M709.012 373.827C711.293 381.739 717.469 390.196 723.322 395.808C729.707 401.91 743.055 409.511 750.09 411.97C756.135 414.131 764.052 414.898 770.522 415.302C769.965 416.659 766.642 429.25 767.415 437.275C769.112 456.026 775.088 467.259 788.565 480.395C804.989 496.36 826.751 500.37 849.505 496.516C871.951 492.713 879.889 487.343 886.492 483.102C889.922 480.926 908.578 467.163 914.385 461.156C914.31 461.586 916.485 478.819 925.534 494.972C930.94 504.742 936.827 511.088 945.758 518.375C958.484 528.48 967.818 529.693 981.986 527.293C996.385 524.854 1011.09 517.313 1015.07 513.749C1036.76 494.94 1039.25 485.897 1048.19 463.637C1050.26 458.538 1051.18 456.597 1052.09 446.199C1052.2 446.604 1056.72 452.536 1062.39 457.36C1072.32 465.667 1088.87 472.097 1101.37 472.991C1118.57 474.314 1134.56 469.031 1147.13 458.825C1151.36 455.44 1155.74 451.814 1158.57 448.408C1180.45 421.623 1179.29 392.786 1168.7 359.526C1166.1 351.465 1165.76 349.727 1163.02 345.401C1160.94 342.07 1159.02 340.632 1159.23 340.595C1171.27 334.023 1198.86 302.647 1193.6 252.229C1192.1 238.299 1184.03 222.006 1175.31 211.249C1154.84 185.848 1117.26 178.764 1090.82 189.732C1077.03 195.529 1074.49 199.143 1074.33 198.541C1071.28 189.101 1067.22 179.615 1064.07 173.081C1057.6 159.338 1027.56 124.691 995.053 118.804C968.256 112.325 949.898 114.816 934.423 120.724C920.983 125.864 904.174 136.091 894.558 146.896C884.185 158.664 879.597 166.478 873.858 179.874C860.043 171.634 846.601 165.285 829.939 162.909C820.429 161.562 803.656 161.62 793.137 164.041C785.098 165.884 778.102 169.182 771.381 172.819C750.477 184.163 750.17 188.679 745.186 193.876C726.95 212.644 721.535 230.164 722.405 254.724C722.786 264.86 722.728 273.966 730.027 292.481C731.9 297.208 733.311 300.577 735.897 304.962C734.395 305.761 731.802 307.7 730.795 308.457C719.646 316.796 712.599 327.493 707.89 340.42C704.876 348.569 706.516 365.052 709.012 373.827Z" fill="#E3DFF1"/>
</g>
<g clip-path="url(#clip1_302_5351)">
<path d="M355.269 398.422C358.658 405.927 365.98 413.414 372.575 418.131C379.767 423.258 394.065 428.873 401.379 430.3C407.671 431.575 415.616 431.202 422.078 430.676C421.721 432.099 420.231 445.036 422.144 452.868C426.505 471.184 434.026 481.446 449.243 492.521C467.78 505.974 489.892 506.831 511.861 499.763C533.532 492.79 540.622 486.34 546.551 481.198C549.634 478.554 566.13 462.265 571.019 455.489C571.006 455.926 575.622 472.671 586.888 487.364C593.635 496.261 600.37 501.699 610.251 507.635C624.291 515.817 633.703 515.683 647.382 511.281C661.284 506.808 674.757 497.243 678.188 493.146C696.965 471.429 698.139 462.122 703.809 438.812C705.121 433.471 705.752 431.419 705.172 420.997C705.335 421.382 710.66 426.606 716.958 430.571C727.977 437.372 745.272 441.371 757.774 440.467C774.983 439.318 790.062 431.801 801.039 419.904C804.745 415.948 808.56 411.734 810.874 407.958C828.694 378.32 823.427 349.945 808.185 318.541C804.468 310.934 803.881 309.263 800.545 305.373C798.015 302.374 795.906 301.225 796.114 301.158C807.091 292.932 829.905 257.934 817.489 208.786C814.014 195.214 803.703 180.241 793.534 170.842C769.639 148.629 731.437 146.991 706.831 161.627C694.008 169.336 692.015 173.277 691.775 172.703C687.4 163.797 682.027 154.988 677.974 148.972C669.606 136.296 634.923 106.3 601.908 105.121C574.459 102.54 556.647 107.631 542.175 115.69C529.608 122.699 514.434 135.225 506.461 147.294C497.878 160.424 494.454 168.813 490.69 182.893C475.839 176.712 461.627 172.35 444.796 172.382C435.192 172.408 418.599 174.863 408.534 178.764C400.841 181.737 394.389 186.002 388.257 190.563C369.19 204.779 369.531 209.292 365.342 215.148C349.977 236.331 347.123 254.446 351.495 278.628C353.321 288.606 354.566 297.627 364.437 314.908C366.967 319.319 368.845 322.451 372.032 326.421C370.659 327.426 368.371 329.717 367.482 330.61C357.639 340.457 352.195 352.052 349.382 365.519C347.564 374.016 351.545 390.095 355.269 398.422Z" fill="#E3DFF1"/>
<path d="M517.023 277.198C520.761 276.74 521.253 276.91 526.276 275.994C529.991 275.313 528.357 274.979 531.861 277.315C540.406 283.008 543.573 284.637 545.918 283.883C548.551 283.036 548.513 280.334 550.092 275.837C550.168 275.616 550.197 275.366 550.184 275.086C550.529 274.083 551.51 270.84 551.53 270.751C555.005 258.051 550.574 264.242 559.192 258.192C563.109 255.52 570.371 251.274 568.498 246.898C568.052 245.87 566.687 245.078 566.772 245.138C555.233 237.23 552.246 237.556 551.267 235.448C549.663 231.756 548.438 228.118 545.759 223.651C543.726 220.257 542.383 216.049 538.327 217.354C534.985 218.429 531.561 223.908 530.437 225.38C530.377 225.465 527.997 228.048 526.242 230.724C510.855 231.637 508.768 232.123 508.848 232.114C505.982 232.576 504.031 232.958 503.01 235.294C501.217 239.345 509.7 250.781 512.243 253.94C508.527 264.94 507.569 273.084 507.623 272.689C506.909 278.412 510.786 277.963 517.023 277.198Z" fill="#E3DFF1"/>
<path d="M600.957 286.188C612.032 287.466 609.352 285.823 610.624 287.427C613.099 290.597 615.755 294.158 618.249 293.356C620.267 292.706 621.129 289.792 621.99 287.179C623.819 281.606 622.523 283.122 626.003 282.101C629.383 281.112 632.803 279.618 634.049 278.883C635.929 277.786 636.361 275.475 635.279 274.116C633.876 272.324 632.646 271.834 631.036 270.809C630.065 270.103 629.129 269.338 628.124 268.665C626.211 267.36 626.628 268.709 626.524 265.17C626.497 264.423 626.186 261.06 625.706 258.495C625.23 255.929 623.205 254.786 621.018 255.49C618.45 256.316 616.395 258.908 614.402 261.333C614.051 261.758 613.666 262.21 613.301 262.64C600.773 260.603 602.84 261.092 603.686 261.17C600.859 260.92 598.428 260.728 597.566 263.561C596.805 266.076 599.987 272.871 601.378 275.679C601.129 276.027 600.821 276.482 600.447 277.122C599.007 279.549 597.718 281.802 597.918 283.122C598.202 285.006 599.31 286.001 600.957 286.188Z" fill="#E3DFF1"/>
<path d="M418.152 403.204C420.514 403.183 433.797 401.157 433.718 401.166C435.16 402.672 441.501 408.538 441.877 408.838C444.369 410.871 445.844 411.95 447.777 411.328C449.919 410.639 449.902 408.937 451.727 403.437C452.062 402.421 453.158 397.51 453.18 397.427C454.172 392.791 452.133 396.757 460.333 391.022C465.359 387.495 470.569 384.32 468.142 381.063C467.483 380.17 466.974 379.573 453.637 372.982C451.84 359.985 450.544 357.623 450.568 357.697C449.884 355.74 447.886 354.649 445.972 355.587C444.324 356.402 433.574 366.487 433.51 366.545C428.146 365.755 416.525 363.289 414.877 368.371C414.37 369.924 415.334 370.998 419.886 382.867C420.324 384.007 420.46 383.476 419.322 385.741C417.202 389.695 415.174 395.397 414.648 399.56C414.4 401.424 415.858 403.236 418.152 403.204Z" fill="#E3DFF1"/>
<path d="M504.222 274.434C503.895 270.797 501.34 266.733 496.438 267.178C488.894 267.843 489.203 277.63 494.778 280.723C498.716 282.897 504.722 280.018 504.222 274.434Z" fill="#E3DFF1"/>
<path d="M524.784 288.275C533.17 284.362 526.807 269.788 517.597 275.974C511.147 280.293 517.516 291.67 524.784 288.275Z" fill="#E3DFF1"/>
<path d="M519.452 306.99C522.204 305.919 524.027 303.472 523.475 300.263C523.201 298.66 523.142 298.92 522.839 297.672C521.962 294.096 516.192 292.369 512.373 296.246C508.454 300.204 512.19 309.808 519.452 306.99Z" fill="#E3DFF1"/>
<path d="M519.38 331.404C513.158 337.012 520.259 347.503 527.84 342.716C529.086 342.458 530.217 341.672 530.705 340.449C532.112 336.932 531.884 334.029 529.134 331.352C526.529 328.781 521.645 329.346 519.38 331.404Z" fill="#E3DFF1"/>
<path d="M471.21 330.057C472.457 329.804 473.587 329.013 474.075 327.79C475.483 324.278 475.249 321.372 472.506 318.698C469.894 316.124 465.015 316.687 462.75 318.746C456.528 324.353 463.626 334.85 471.21 330.057Z" fill="#E3DFF1"/>
<path d="M560.445 226.241C561.687 225.984 562.823 225.197 563.309 223.968C564.717 220.456 564.489 217.554 561.735 214.878C559.13 212.307 554.25 212.871 551.98 214.931C545.763 220.537 552.86 231.029 560.445 226.241Z" fill="#E3DFF1"/>
<path d="M755.963 336.077C757.21 335.818 758.341 335.033 758.828 333.809C760.235 330.293 760.007 327.39 757.26 324.717C754.653 322.142 749.768 322.707 747.503 324.765C741.281 330.373 748.384 340.868 755.963 336.077Z" fill="#E3DFF1"/>
<path d="M543.92 439.352C545.161 439.095 546.293 438.31 546.785 437.085C548.192 433.568 547.96 430.671 545.211 427.994C542.606 425.424 537.725 425.982 535.457 428.047C529.238 433.648 536.336 444.145 543.92 439.352Z" fill="#E3DFF1"/>
<path d="M553.979 195.773C555.226 195.514 556.352 194.73 556.844 193.505C558.253 189.993 558.023 187.085 555.271 184.414C552.666 181.844 547.784 182.402 545.521 184.466C539.297 190.068 546.394 200.56 553.979 195.773Z" fill="#E3DFF1"/>
<path d="M577.369 351.007C578.424 348.928 577.757 346.855 577.747 346.536C577.591 340.371 570.061 337.169 565.023 342.291C562.34 345.004 562.647 351.077 567.375 354.004C570.355 355.835 575.484 354.754 577.369 351.007Z" fill="#E3DFF1"/>
<path d="M459.345 227.918C460.401 225.844 459.727 223.768 459.717 223.448C459.566 217.282 452.031 214.081 447 219.207C444.315 221.915 444.619 227.994 449.35 230.915C452.33 232.746 457.464 231.664 459.345 227.918Z" fill="#E3DFF1"/>
<path d="M653.272 200.57C654.323 198.497 653.655 196.42 653.647 196.105C653.494 189.933 645.959 186.733 640.928 191.859C638.243 194.567 638.546 200.646 643.283 203.565C646.258 205.398 651.387 204.317 653.272 200.57Z" fill="#E3DFF1"/>
<path d="M491.604 350.064C488.919 352.772 489.227 358.849 493.954 361.771C496.934 363.603 502.063 362.522 503.953 358.773C505.004 356.7 504.331 354.624 504.326 354.303C504.17 348.138 496.64 344.936 491.604 350.064Z" fill="#E3DFF1"/>
</g>
<path d="M1512.99 270.694C1512.75 250.692 1509.53 235.973 1487.17 209.733C1471.55 191.414 1473.23 193.795 1463.85 187.158C1455.21 181.045 1445.71 176.269 1435.17 175.252C1446.68 138.389 1430.47 94.2047 1385.65 79.0172C1355.89 68.8407 1330.49 70.9219 1299.56 92.0438C1288.23 99.6704 1273.84 115.172 1267.71 129.708C1261.28 123.619 1249.87 114.089 1239.55 107.175C1190.87 74.4844 1133.78 83.3813 1102.33 116.691C1089.49 130.223 1084.19 143.536 1079.12 161.405C1078.39 164.011 1075.02 180.797 1074.46 187.031C1072.47 200.306 1074.31 212.091 1078.46 224.311C1082.23 235.388 1082.65 241.73 1093.86 256.317C1096.17 259.336 1095.73 256.58 1088.28 266.245C1046.46 320.119 1055.73 385.13 1122.02 415.8C1128.63 418.852 1144.08 422.119 1152.01 422.119C1168.3 422.119 1181.97 416.677 1195.52 409.111C1207.91 402.169 1215.4 393.581 1223.84 383.677C1226.2 402.342 1235.26 415.172 1245.22 427.313C1313.9 510.534 1416.57 420.108 1408.1 349.992C1434.41 351.497 1461.67 343.331 1474.62 334.613C1487.77 325.753 1494.74 318.928 1503.31 306.188C1506.24 301.828 1506.83 300.028 1508.01 295.72C1512.69 279.464 1513.09 279.398 1512.99 270.694Z" fill="#E3DFF1"/>
<path d="M1084.66 412.448C1082.78 414.521 1082.08 416.431 1081.7 418.364C1081.53 419.229 1081.61 419.748 1081.71 421.004C1081.8 421.979 1082.15 423.13 1082.91 424.328C1082.81 424.788 1082.74 425.298 1082.81 425.763C1082.93 426.531 1083.75 427.572 1084.71 427.976C1085.5 428.315 1086.83 428.301 1087.62 428.02C1089.19 427.473 1089.63 425.356 1089.16 423.849C1088.31 422.375 1086.4 421.622 1084.4 422.676C1083.95 421.223 1083.92 420.093 1084.1 418.587C1084.27 417.159 1084.96 415.213 1085.32 414.562C1085.57 414.125 1085.71 413.9 1086.12 413.416C1086.5 412.96 1086.17 412.114 1085.46 412.111C1085.17 412.067 1084.85 412.189 1084.66 412.448Z" fill="black"/>
<path d="M1061.63 392.607C1058.49 393.519 1058.65 398.909 1062.98 398.807C1064.34 400.936 1068.69 402.597 1073.56 400.792C1075.63 400.018 1075.73 400 1077.08 399.024C1077.65 398.612 1077.42 397.599 1076.65 397.515C1075.89 397.103 1076.2 397.828 1072.08 398.611C1069.43 399.114 1066.9 398.696 1065.41 397.949C1066.31 397.219 1066.45 396.287 1066.33 395.22C1066.2 394.034 1065.73 393.017 1064.56 392.729C1063.85 392.395 1062.84 392.257 1061.63 392.607Z" fill="black"/>
<path d="M1107.46 357.726C1107.59 358.643 1119.26 374.088 1123.84 380.994C1129.17 389.058 1135.13 390.937 1135.94 391.447C1136.05 391.687 1136.26 391.872 1136.52 391.953C1137.23 392.175 1137.92 392.382 1138.62 392.459C1139.66 392.573 1141.58 392.494 1141.56 392.495C1143.62 392.377 1148.25 391.271 1148.58 391.176C1153.32 389.837 1157.88 387.659 1161.07 383.919C1161.57 383.329 1162.64 382.042 1163.03 381.381C1165.58 377.08 1165.35 377.166 1165.58 376.554C1166.75 373.553 1168.24 369.148 1168.17 365.948C1168.02 358.653 1164.12 350.665 1163.39 347.682C1162.48 343.895 1162.64 343.257 1162.67 341.401C1162.73 338.822 1163.33 338.348 1163.22 337.64C1163.16 337.188 1162.73 336.883 1162.37 336.91C1161.97 336.94 1161.62 337.11 1161.31 337.262C1158.5 338.638 1151.87 333.601 1144.27 331.274C1130.67 327.108 1120.37 330.613 1114.34 337.01C1111.5 340.01 1108.36 345.599 1107.65 350.776C1107.46 352.215 1107.1 355.903 1107.49 357.303C1107.45 357.447 1107.44 357.588 1107.46 357.726Z" fill="#F28F38"/>
<path d="M1072.43 390.564C1072.76 392.798 1074.29 398.27 1075.78 401.512C1076.08 402.152 1076.4 402.742 1076.93 403.847C1077.75 405.511 1077.92 405.836 1078.8 407.013C1080.67 409.846 1081.41 410.79 1084.36 413.121C1084.95 413.59 1085.78 414.332 1086.79 414.97C1088.36 415.957 1089.83 416.61 1089.81 416.598C1099.19 421.278 1106.42 421.721 1114.39 420.42C1121.65 419.236 1127.25 415.462 1127.14 415.531C1127.43 415.342 1128.77 414.749 1129.86 413.639C1132.45 411.808 1134.79 407.6 1135.91 404.645C1138.7 397.369 1139.15 387.65 1137.61 380.713C1137.3 379.287 1136.61 377.155 1136.11 375.793C1134.97 372.609 1133.62 370.129 1131.7 367.273C1131.55 367.043 1131.29 366.895 1131.02 366.874C1127.44 362.216 1123.2 358.752 1118.31 356.314C1115.23 354.779 1111.53 352.402 1103.57 352.592C1099.03 352.7 1095.29 353.293 1089.79 355.319C1086.97 356.363 1081.74 360.329 1079.68 362.753C1075.75 367.367 1074.08 372.998 1074.09 372.975C1072.78 376.469 1072.4 379.299 1071.97 383.577C1071.81 385.106 1072.19 388.967 1072.43 390.564Z" fill="#F28F38"/>
<path d="M1143.66 373.169C1136.23 361.874 1122.73 348.843 1110.15 343.17C1108.94 345.565 1108 348.221 1107.65 350.776C1107.57 351.376 1107.46 352.367 1107.39 353.42C1116.93 358.654 1131.91 372.989 1137.3 382.767C1138.27 384.518 1139.73 386.799 1140.64 388.997C1141.04 389.957 1141.32 390.878 1142.08 392.451C1144.32 392.211 1148.28 391.264 1148.58 391.176C1149.89 390.808 1151.17 390.373 1152.42 389.863C1151.59 387.486 1149.54 382.999 1149.53 382.98C1148.72 381.253 1143.67 373.19 1143.66 373.169Z" fill="black"/>
<path d="M1157.29 346.881C1164.42 356.1 1167.26 363.948 1168.17 366.155C1168.17 366.086 1168.18 366.016 1168.17 365.948C1168.02 358.653 1164.12 350.665 1163.39 347.682C1162.47 343.895 1162.64 343.257 1162.67 341.401C1162.73 338.822 1163.33 338.348 1163.22 337.64C1163.16 337.188 1162.73 336.883 1162.37 336.91C1161.97 336.94 1161.62 337.11 1161.31 337.262C1158.5 338.638 1151.87 333.601 1144.27 331.274C1141.11 330.306 1138.13 329.757 1135.34 329.557C1137.37 330.287 1138.83 331.154 1139.56 331.526C1147.28 335.489 1152.41 340.547 1157.29 346.881Z" fill="black"/>
<path d="M1136.45 338.003C1132.96 335.517 1128.03 332.34 1123.88 330.92C1120.02 332.239 1116.82 334.38 1114.34 337.01C1114.13 337.225 1113.92 337.459 1113.72 337.701C1114.94 338.352 1116.89 339.172 1117.72 339.611C1119.56 340.589 1119.65 340.747 1121.32 341.562C1122.99 342.386 1123.53 342.719 1125.03 343.73C1126.82 344.92 1127.2 344.925 1130.3 347.429C1132.95 349.56 1132.33 349.219 1134.78 351.324C1138.49 354.53 1136.54 352.482 1145.95 363.014C1153.06 371.612 1150.49 368.038 1155.73 376.183C1156.29 377.042 1159.57 382.944 1160.51 384.547C1160.7 384.343 1160.89 384.134 1161.07 383.919C1161.57 383.33 1162.64 382.042 1163.03 381.381C1165.58 377.08 1165.35 377.166 1165.58 376.554C1165.81 375.967 1166.05 375.328 1166.29 374.654C1160.9 361.8 1147.76 346.051 1136.45 338.003Z" fill="black"/>
<path d="M1119.84 347.075C1119.92 347.614 1120.59 350.134 1120.75 350.688C1121.46 353.131 1122.94 355.508 1122.93 355.488C1124.56 358.392 1125.73 359.26 1127.97 361.23C1129.18 362.287 1130.07 362.709 1130.05 362.694C1130.83 363.167 1131.66 363.621 1132.37 363.055C1132.52 363.559 1133.79 365.484 1134.14 365.968C1134.84 366.929 1135.07 366.971 1136.19 368.261C1140.31 373.021 1144.16 378.366 1151.9 378.685C1154.36 378.786 1155.92 378.269 1157.8 377.391C1158.74 376.95 1160.03 376.245 1160.79 375.53C1163.47 373.02 1164.23 371.293 1164.54 369.034C1164.92 366.334 1163.98 363.319 1162.35 361.301C1161.42 360.141 1160.51 359.349 1160.53 359.367C1158.75 357.69 1154.39 355.75 1151.34 355.659C1149.35 355.602 1146.93 355.686 1144.96 356.063C1143.58 356.326 1141.61 356.988 1141.63 356.982C1135.23 359.027 1134.84 360.378 1136.93 358.092C1137.59 357.368 1136.97 357.901 1138.58 356.259C1139.16 355.66 1140.01 354.057 1139.99 354.082C1140.93 352.523 1141.42 351.691 1141.85 349.966C1141.9 349.758 1142.91 345.147 1142.8 344.411C1142.76 344.165 1142.7 344.122 1142.62 343.862C1141.55 339.588 1140.5 337.853 1138.42 336.047C1135.98 333.929 1133.51 333.368 1130.31 333.575C1127.91 333.733 1126.56 334.293 1124.5 335.584C1122.03 337.143 1121.24 338.564 1120.66 339.922C1119.73 342.105 1119.49 344.742 1119.84 347.075Z" fill="#C1B9B0"/>
<path d="M1084.41 350.538C1084.57 351.637 1085.92 356.007 1088.74 359.565C1096.43 369.266 1107.31 370.732 1119.4 368.037C1122.59 367.325 1128.29 364.9 1129.29 364.321C1130.43 363.663 1129.68 363.988 1128.91 365.141C1128.35 365.981 1125.3 369.102 1123.03 373.148C1116.29 385.246 1118.08 398.197 1124.55 405.91C1125.81 407.619 1127.7 409.697 1129.64 410.555C1130.8 411.068 1133.49 412.214 1134.74 412.473C1141.91 414.739 1151.43 408.938 1153.93 402.314C1154.31 401.323 1154.52 400.204 1154.7 399.115C1155.07 399.335 1155.53 399.541 1155.51 399.529C1156.9 400.186 1157.25 400.214 1158.17 400.212C1160.34 400.201 1161.3 400.127 1163.83 397.545C1164.47 396.898 1164.64 396.43 1165.21 395.56C1171.14 387.194 1162.8 367.659 1145.55 362.736C1143.78 362.229 1144.02 362.173 1141.62 361.714C1136.84 360.798 1133.08 361.296 1133.1 361.293C1134.12 359.462 1138.35 344.536 1133.18 333.746C1130.95 329.093 1127.19 324.724 1122.13 323.613C1121.09 323.392 1120.21 323.568 1119.92 323.618C1119.21 323.736 1118.61 323.733 1117.8 324.391C1116.29 325.613 1115.69 326.709 1115.31 328.031C1113.57 326.512 1106.34 323.653 1100.9 325.032C1093.6 326.894 1090.92 329.827 1087.71 334.779C1085.31 338.488 1085.03 340.412 1084.78 342.005C1084.27 344.886 1083.78 346.365 1084.41 350.538Z" fill="#DFD6CB"/>
<path d="M1122.27 348.259C1115.19 341.009 1109.17 339.306 1105.53 337.974C1105.93 338.119 1103.55 337.192 1101.47 336.861C1101.02 336.789 1097.89 336.095 1095.66 335.946C1094.36 335.721 1091.82 335.584 1091.38 335.623C1091.12 335.648 1090.57 335.571 1090.26 336.104C1090.15 336.294 1090.14 336.547 1090.21 336.756C1090.42 337.392 1091.01 337.336 1091.37 337.368C1096.46 337.851 1093.5 337.138 1098.64 338.315C1105.55 339.888 1109.31 341.743 1116.12 346.63C1120.43 349.719 1126.16 356.598 1128.19 359.377C1128.27 359.597 1128.37 359.784 1128.58 359.915C1129.23 360.681 1130.34 359.827 1129.89 359.04C1129.8 358.485 1128.86 356.778 1128.75 356.627C1127.11 354.203 1125.83 351.921 1122.27 348.259Z" fill="white"/>
<path d="M1119.71 328.692C1119.31 329.85 1121.37 329.893 1124.66 338.354C1126.93 344.709 1126.76 348.09 1127.31 348.613C1127.85 349.228 1128.83 348.863 1128.86 348.078C1129.29 345.109 1127.72 338.886 1126.42 335.782C1126.02 334.829 1124.45 331.986 1123.87 331.177C1123.2 330.25 1121.42 328.101 1120.58 328.074C1120.18 328.061 1119.84 328.324 1119.71 328.692Z" fill="white"/>
<path d="M1092.59 353.191C1091.42 352.709 1090.36 353.673 1090.49 354.552C1090.61 355.337 1091.4 356.052 1092.82 355.895C1094.16 355.749 1094.36 353.912 1092.59 353.191Z" fill="white"/>
<path d="M1122.52 360.697C1124.76 360.317 1123.92 358.405 1122.51 358.885C1115.82 359.581 1103.88 357.356 1097 355.388C1096.6 355.274 1096.17 355.183 1095.82 355.496C1095.64 355.652 1095.51 355.941 1095.55 356.187C1095.73 357.418 1098.86 358.043 1100.2 358.478C1101.48 358.897 1101.49 358.828 1102.29 359.002C1103.88 359.348 1107.43 360.696 1114.8 361.084C1115.39 361.114 1115 361.048 1116.67 361.156C1117.82 361.228 1117.85 361.217 1118.31 361.166C1120.75 360.923 1120.98 361.109 1121.88 360.836C1122.09 360.772 1122.3 360.737 1122.52 360.697Z" fill="white"/>
<path d="M1132.33 366.655C1133.26 368.395 1132.46 366.991 1133.63 369.051C1136.08 373.35 1138.58 382.829 1139.31 387.783C1139.39 388.357 1139.66 391.685 1139.66 391.709C1139.94 395.328 1139.84 396.216 1139.79 398.245C1139.74 400.492 1139.92 401.577 1139.44 405.457C1139.41 405.714 1139.33 406.141 1139.63 406.503C1139.82 406.688 1140.02 406.889 1140.46 406.817C1141.21 406.692 1141.34 405.988 1141.72 403.549C1142.22 400.396 1142.6 396.91 1142.33 393.699C1142.01 390.013 1142.6 390.839 1141.06 382.68C1140.07 377.429 1137.38 371.141 1135.22 367.771C1134.23 366.168 1133.77 365.729 1133.66 365.579C1133.07 364.777 1131.64 365.652 1132.33 366.655Z" fill="white"/>
<path d="M1130 399.563C1129.99 398.776 1129.9 397.989 1129.78 397.213C1128.16 386.836 1131.02 374.738 1130.52 373.666C1130.15 372.858 1128.94 372.952 1128.79 373.934C1128.31 377.146 1124.7 389.677 1128.25 399.565C1128.32 399.772 1128.41 400.128 1128.84 400.288C1129.41 400.497 1130 400.039 1130 399.563Z" fill="white"/>
<path d="M1137.99 367.811C1139.04 368.421 1140.01 368.823 1140.45 369.151C1144.67 372.303 1147.86 375.257 1149.42 377.022C1154.79 383.13 1155.89 387.317 1157.02 387.887C1157.3 387.989 1157.61 387.939 1157.85 387.742C1158.35 387.318 1158.1 386.778 1157.89 386.161C1157.61 385.338 1156.9 383.66 1155.99 382.108C1153.52 377.867 1152.36 375.984 1148.43 372.086C1147.59 371.26 1145.34 369.51 1143.38 368.609C1143.02 368.406 1142.68 368.17 1142.34 367.949C1140.95 367.045 1139.96 366.854 1139.65 366.712C1138.87 366.352 1138.74 366.185 1138.35 366.248C1137.53 366.384 1137.41 367.469 1137.99 367.811Z" fill="white"/>
<path d="M1157.56 391.86C1157.75 393.187 1159.52 393.637 1160.02 392.401C1160.04 392.356 1160.23 392.11 1160.15 391.761C1160 391.067 1159.85 390.35 1159.16 390.177C1158.1 389.915 1157.39 390.764 1157.56 391.86Z" fill="white"/>
<path d="M1409.9 90.4371C1411.65 93.032 1412.86 95.995 1413.51 99.328C1413.56 99.5668 1413.54 99.8266 1413.46 100.105C1413.38 100.388 1413.24 100.664 1413.05 100.943C1412.85 101.222 1412.62 101.477 1412.34 101.713C1412.06 101.947 1411.76 102.141 1411.43 102.295C1411.11 102.45 1410.79 102.552 1410.47 102.602C1410.16 102.654 1409.87 102.649 1409.61 102.588C1409.34 102.529 1409.13 102.419 1408.97 102.255C1408.8 102.094 1408.69 101.894 1408.65 101.653C1408.05 98.6391 1406.97 95.9605 1405.38 93.6205C1405.25 93.4294 1405.19 93.2065 1405.18 92.9481C1405.18 92.6897 1405.24 92.42 1405.36 92.135C1405.48 91.852 1405.65 91.5747 1405.88 91.3088C1406.11 91.0392 1406.37 90.7985 1406.67 90.587C1406.97 90.3775 1407.28 90.2112 1407.61 90.0885C1407.93 89.9676 1408.25 89.8993 1408.55 89.8851C1408.85 89.8711 1409.12 89.911 1409.35 90.0086C1409.59 90.1042 1409.77 90.2477 1409.9 90.4371ZM1410.81 120.543C1409.4 124.242 1407.56 128.071 1405.29 132.037C1405.13 132.321 1404.92 132.588 1404.66 132.839C1404.4 133.09 1404.11 133.307 1403.8 133.49C1403.48 133.671 1403.17 133.802 1402.84 133.886C1402.52 133.97 1402.22 133.998 1401.93 133.972C1401.65 133.946 1401.41 133.866 1401.21 133.733C1401.01 133.6 1400.87 133.424 1400.79 133.204C1400.7 132.984 1400.68 132.738 1400.72 132.468C1400.76 132.195 1400.86 131.917 1401.03 131.635C1403.15 127.932 1404.86 124.364 1406.17 120.932C1406.28 120.648 1406.44 120.37 1406.66 120.099C1406.88 119.828 1407.13 119.58 1407.43 119.362C1407.72 119.143 1408.03 118.968 1408.36 118.836C1408.68 118.704 1409 118.625 1409.31 118.601C1409.61 118.574 1409.89 118.604 1410.13 118.688C1410.37 118.774 1410.57 118.906 1410.71 119.089C1410.85 119.272 1410.93 119.49 1410.95 119.74C1410.96 119.994 1410.92 120.261 1410.81 120.543ZM1389.91 153.5C1387.07 156.863 1383.95 160.356 1380.55 163.975C1380.31 164.235 1380.03 164.463 1379.72 164.659C1379.41 164.854 1379.1 165.002 1378.77 165.105C1378.45 165.207 1378.14 165.255 1377.84 165.246C1377.55 165.237 1377.3 165.176 1377.08 165.06C1376.87 164.945 1376.71 164.782 1376.6 164.576C1376.49 164.371 1376.45 164.133 1376.47 163.868C1376.49 163.602 1376.57 163.327 1376.72 163.041C1376.86 162.756 1377.05 162.483 1377.3 162.225C1380.6 158.712 1383.62 155.326 1386.37 152.072C1386.59 151.803 1386.86 151.564 1387.16 151.353C1387.45 151.139 1387.77 150.971 1388.09 150.849C1388.42 150.728 1388.73 150.657 1389.04 150.643C1389.34 150.627 1389.61 150.667 1389.84 150.761C1390.08 150.857 1390.26 151 1390.39 151.189C1390.52 151.379 1390.59 151.603 1390.6 151.86C1390.6 152.118 1390.54 152.388 1390.43 152.672C1390.31 152.955 1390.13 153.233 1389.91 153.5ZM1360.95 183.332C1357.45 186.555 1353.87 189.73 1350.22 192.852C1349.95 193.087 1349.65 193.284 1349.32 193.444C1349 193.603 1348.68 193.709 1348.37 193.766C1348.05 193.822 1347.76 193.822 1347.49 193.767C1347.23 193.71 1347.01 193.604 1346.84 193.447C1346.67 193.289 1346.56 193.093 1346.5 192.858C1346.45 192.619 1346.46 192.362 1346.53 192.083C1346.61 191.803 1346.74 191.523 1346.93 191.245C1347.12 190.967 1347.35 190.708 1347.63 190.47C1351.2 187.416 1354.7 184.311 1358.13 181.157C1358.4 180.909 1358.69 180.703 1359.01 180.531C1359.33 180.359 1359.65 180.239 1359.97 180.164C1360.29 180.094 1360.59 180.078 1360.86 180.118C1361.14 180.157 1361.37 180.247 1361.56 180.392C1361.74 180.537 1361.87 180.723 1361.94 180.949C1362.01 181.177 1362.02 181.428 1361.96 181.703C1361.91 181.98 1361.79 182.258 1361.62 182.541C1361.44 182.822 1361.22 183.085 1360.95 183.332ZM1328.36 210.299C1324.49 213.172 1320.58 215.979 1316.62 218.714C1316.32 218.924 1316 219.089 1315.68 219.206C1315.35 219.323 1315.03 219.388 1314.73 219.398C1314.43 219.406 1314.17 219.363 1313.94 219.263C1313.71 219.163 1313.53 219.014 1313.41 218.821C1313.28 218.627 1313.22 218.401 1313.22 218.142C1313.22 217.881 1313.28 217.61 1313.41 217.324C1313.53 217.041 1313.71 216.765 1313.94 216.499C1314.17 216.233 1314.44 215.994 1314.74 215.786C1318.61 213.107 1322.45 210.36 1326.23 207.547C1326.52 207.328 1326.83 207.153 1327.16 207.02C1327.49 206.888 1327.8 206.81 1328.11 206.783C1328.42 206.757 1328.69 206.789 1328.94 206.873C1329.18 206.957 1329.37 207.091 1329.51 207.274C1329.65 207.455 1329.73 207.671 1329.75 207.925C1329.77 208.177 1329.72 208.446 1329.61 208.728C1329.5 209.013 1329.34 209.291 1329.13 209.562C1328.91 209.833 1328.65 210.08 1328.36 210.299ZM1293.09 233.81C1288.97 236.261 1284.82 238.624 1280.65 240.902C1280.33 241.076 1280.01 241.199 1279.69 241.273C1279.37 241.347 1279.07 241.367 1278.79 241.329C1278.52 241.292 1278.28 241.201 1278.09 241.06C1277.9 240.917 1277.77 240.736 1277.7 240.508C1277.63 240.281 1277.62 240.033 1277.67 239.758C1277.72 239.483 1277.84 239.204 1278.01 238.921C1278.18 238.638 1278.4 238.375 1278.67 238.128C1278.93 237.882 1279.22 237.671 1279.54 237.497C1283.62 235.269 1287.68 232.956 1291.72 230.559C1292.03 230.373 1292.35 230.234 1292.67 230.144C1292.99 230.057 1293.3 230.022 1293.58 230.045C1293.87 230.065 1294.12 230.138 1294.32 230.267C1294.52 230.394 1294.67 230.567 1294.76 230.783C1294.85 230.997 1294.88 231.241 1294.85 231.511C1294.81 231.781 1294.71 232.059 1294.56 232.343C1294.4 232.626 1294.19 232.896 1293.94 233.149C1293.69 233.404 1293.4 233.624 1293.09 233.81ZM1256.1 253.204L1246.44 257.622L1243.45 258.991C1243.13 259.139 1242.81 259.236 1242.49 259.278C1242.18 259.323 1241.89 259.312 1241.64 259.243C1241.38 259.177 1241.17 259.059 1241.01 258.892C1240.86 258.723 1240.75 258.517 1240.72 258.276C1240.68 258.03 1240.7 257.768 1240.79 257.488C1240.88 257.206 1241.02 256.927 1241.22 256.65C1241.43 256.375 1241.67 256.121 1241.95 255.89C1242.24 255.659 1242.54 255.471 1242.87 255.323L1245.85 253.956L1255.52 249.536C1255.84 249.388 1256.16 249.291 1256.47 249.247C1256.79 249.205 1257.07 249.216 1257.33 249.284C1257.59 249.351 1257.79 249.468 1257.95 249.637C1258.11 249.804 1258.21 250.008 1258.25 250.254C1258.29 250.497 1258.26 250.759 1258.18 251.042C1258.09 251.321 1257.94 251.6 1257.74 251.877C1257.54 252.154 1257.3 252.406 1257.01 252.637C1256.73 252.866 1256.42 253.056 1256.1 253.204ZM1219.45 270.953C1215.21 273.352 1211.29 275.791 1207.71 278.267C1207.41 278.475 1207.09 278.64 1206.77 278.759C1206.44 278.876 1206.13 278.939 1205.83 278.951C1205.52 278.959 1205.26 278.914 1205.03 278.814C1204.8 278.714 1204.62 278.567 1204.5 278.374C1204.37 278.178 1204.31 277.954 1204.31 277.695C1204.31 277.434 1204.37 277.162 1204.5 276.877C1204.62 276.594 1204.8 276.318 1205.03 276.052C1205.26 275.786 1205.53 275.547 1205.83 275.339C1209.63 272.713 1213.76 270.137 1218.24 267.608C1218.55 267.429 1218.87 267.299 1219.19 267.221C1219.52 267.141 1219.82 267.116 1220.1 267.144C1220.38 267.176 1220.62 267.258 1220.81 267.397C1221.01 267.532 1221.15 267.712 1221.23 267.934C1221.31 268.156 1221.32 268.404 1221.28 268.677C1221.23 268.949 1221.13 269.226 1220.96 269.51C1220.79 269.792 1220.58 270.061 1220.32 270.309C1220.06 270.561 1219.77 270.775 1219.45 270.953ZM1188.45 295.81C1185.65 299.28 1183.34 302.736 1181.5 306.181C1181.35 306.466 1181.15 306.735 1180.9 306.992C1180.65 307.248 1180.37 307.473 1180.06 307.662C1179.75 307.852 1179.43 307.992 1179.1 308.089C1178.78 308.184 1178.47 308.222 1178.18 308.206C1177.89 308.19 1177.64 308.123 1177.44 307.997C1177.23 307.872 1177.07 307.707 1176.98 307.495C1176.88 307.281 1176.85 307.042 1176.88 306.774C1176.91 306.504 1177 306.228 1177.15 305.943C1179.18 302.137 1181.73 298.325 1184.81 294.509C1185.03 294.236 1185.28 293.992 1185.58 293.775C1185.87 293.557 1186.18 293.382 1186.51 293.252C1186.83 293.12 1187.15 293.044 1187.46 293.018C1187.76 292.995 1188.04 293.025 1188.28 293.113C1188.52 293.199 1188.71 293.334 1188.85 293.517C1188.99 293.702 1189.07 293.919 1189.08 294.173C1189.1 294.425 1189.05 294.692 1188.94 294.976C1188.83 295.261 1188.67 295.539 1188.45 295.81Z" fill="#6451A6"/>
<g clip-path="url(#clip2_302_5351)">
<path d="M-83.4321 237.974C-82.1084 246.102 -76.9815 255.233 -71.8374 261.501C-66.2234 268.319 -53.8742 277.454 -47.1809 280.731C-41.4359 283.596 -33.6669 285.299 -27.29 286.469C-28.0046 287.75 -32.802 299.857 -32.9886 307.917C-33.5329 326.737 -28.9353 338.601 -17.1157 353.246C-2.70725 371.052 18.4235 377.621 41.4743 376.499C64.2131 375.393 72.7338 371.005 79.7944 367.579C83.4583 365.826 103.619 354.38 110.099 349.105C109.973 349.523 110.083 366.893 117.147 384.007C121.353 394.351 126.444 401.352 134.445 409.65C145.88 421.196 155.003 423.511 169.356 422.812C183.943 422.103 199.437 416.364 203.814 413.298C227.586 397.202 231.137 388.519 242.664 367.481C245.319 362.664 246.461 360.846 248.608 350.63C248.664 351.045 252.45 357.473 257.503 362.937C266.378 372.365 282.042 380.718 294.349 383.091C311.266 386.45 327.78 383.107 341.47 374.468C346.076 371.611 350.854 368.531 354.069 365.486C378.974 341.492 381.255 312.722 374.691 278.438C373.076 270.126 372.943 268.36 370.732 263.738C369.068 260.184 367.329 258.527 367.547 258.517C380.283 253.423 411.403 225.549 412.175 174.863C412.343 160.854 406.274 143.718 398.893 132C381.586 104.345 345.119 92.8432 317.557 100.588C303.172 104.703 300.225 107.991 300.142 107.375C298.229 97.6383 295.328 87.7364 292.976 80.8739C288.186 66.4594 262.482 28.4868 230.905 18.7757C205.069 9.15544 186.545 9.44671 170.477 13.472C156.522 16.9774 138.616 25.1334 127.782 34.7181C116.084 45.1688 110.6 52.3814 103.309 65.0007C90.5712 55.1759 77.9795 47.2733 61.7181 42.9335C52.4361 40.4651 35.7754 38.5278 25.0427 39.681C16.8411 40.5546 9.50325 42.9975 2.39717 45.8097C-19.7076 54.5872 -20.5497 59.0344 -26.1155 63.602C-46.4538 80.0683 -53.9141 96.8205 -55.9711 121.309C-56.7984 131.418 -57.9387 140.453 -52.8929 159.705C-51.5951 164.621 -50.5951 168.134 -48.5484 172.795C-50.135 173.41 -52.9399 175.027 -54.0303 175.659C-66.092 182.613 -74.3606 192.396 -80.5735 204.671C-84.5356 212.404 -84.8664 228.965 -83.4321 237.974Z" fill="#E3DFF1"/>
<path d="M104.251 162.909C107.979 163.437 108.41 163.729 113.499 164.149C117.263 164.456 115.772 163.709 118.549 166.875C125.323 174.591 127.958 176.987 130.418 176.867C133.181 176.733 133.846 174.114 136.538 170.182C136.67 169.988 136.762 169.754 136.822 169.48C137.416 168.601 139.205 165.724 139.248 165.644C145.901 154.281 140.015 159.109 149.908 155.504C154.385 153.941 162.5 151.726 161.827 147.014C161.664 145.906 160.551 144.787 160.618 144.867C151.527 134.234 148.559 133.773 148.161 131.483C147.571 127.501 147.332 123.67 145.905 118.66C144.822 114.854 144.618 110.442 140.363 110.649C136.857 110.82 132.127 115.222 130.66 116.352C130.58 116.418 127.61 118.294 125.221 120.423C110.125 117.309 107.983 117.236 108.062 117.248C105.174 116.951 103.191 116.812 101.599 118.804C98.815 122.25 104.038 135.496 105.673 139.208C99.2289 148.866 96.1892 156.481 96.3434 156.114C94.1682 161.455 98.0287 162.028 104.251 162.909Z" fill="#E3DFF1"/>
<path d="M182.97 193.385C193.333 197.495 191.173 195.212 191.984 197.092C193.551 200.796 195.192 204.924 197.808 204.797C199.926 204.694 201.515 202.103 203.025 199.803C206.238 194.896 204.593 196.024 208.218 195.942C211.74 195.864 215.43 195.309 216.825 194.923C218.924 194.352 219.942 192.232 219.25 190.639C218.36 188.544 217.3 187.751 216.011 186.343C215.256 185.41 214.552 184.428 213.756 183.517C212.247 181.761 212.3 183.171 213.118 179.726C213.286 178.998 213.859 175.67 214.061 173.068C214.268 170.467 212.609 168.837 210.315 168.949C207.62 169.08 204.963 171.05 202.408 172.874C201.959 173.193 201.47 173.53 201.006 173.85C189.436 168.63 191.305 169.639 192.102 169.934C189.437 168.958 187.139 168.142 185.572 170.653C184.184 172.885 185.492 180.273 186.106 183.345C185.775 183.617 185.36 183.976 184.832 184.497C182.811 186.468 180.982 188.309 180.833 189.635C180.617 191.528 181.429 192.777 182.97 193.385Z" fill="#E3DFF1"/>
<path d="M-23.948 258.92C-21.6613 259.513 -8.30728 261.006 -8.38608 260.994C-7.38457 262.823 -2.7842 270.134 -2.4994 270.522C-0.620336 273.131 0.523205 274.557 2.55205 274.458C4.79939 274.348 5.22503 272.701 8.41553 267.863C9.00298 266.969 11.336 262.512 11.3792 262.436C13.5413 258.217 10.5419 261.518 19.9499 258.109C25.7192 256.008 31.5751 254.294 30.0773 250.519C29.6724 249.485 29.3355 248.777 18.1676 238.949C19.8077 225.932 19.1692 223.314 19.173 223.392C19.0203 221.324 17.3742 219.751 15.2822 220.16C13.4798 220.519 0.479207 227.467 0.402949 227.507C-4.57233 225.35 -15.1545 219.952 -18.0652 224.432C-18.9581 225.8 -18.3062 227.087 -16.9922 239.731C-16.8653 240.945 -16.5966 240.468 -18.2827 242.36C-21.3566 245.627 -24.7957 250.608 -26.3849 254.492C-27.1087 256.227 -26.1708 258.356 -23.948 258.92Z" fill="#E3DFF1"/>
<path d="M92.6068 156.916C93.2348 153.319 91.8227 148.731 86.9738 147.887C79.5156 146.571 77.2731 156.103 81.8534 160.537C85.0923 163.659 91.6397 162.438 92.6068 156.916Z" fill="white"/>
<path d="M108.869 175.622C117.984 174.02 115.623 158.294 105.124 161.876C97.7726 164.372 100.969 177.012 108.869 175.622Z" fill="white"/>
<path d="M98.8609 192.31C101.797 191.99 104.192 190.1 104.493 186.858C104.644 185.239 104.52 185.475 104.551 184.191C104.633 180.51 99.5093 177.344 94.8146 180.096C90.0025 182.901 91.1163 193.146 98.8609 192.31Z" fill="white"/>
<path d="M92.4515 215.868C84.9867 219.668 89.1205 231.642 97.6839 228.989C98.9547 229.062 100.251 228.598 101.04 227.543C103.312 224.512 103.845 221.649 101.885 218.35C100.037 215.191 95.1732 214.469 92.4515 215.868Z" fill="white"/>
<path d="M46.2828 202.059C47.5538 202.138 48.8502 201.668 49.6384 200.613C51.9107 197.588 52.4386 194.72 50.4845 191.426C48.6307 188.262 43.7721 187.539 41.0504 188.939C33.5856 192.738 37.7145 204.718 46.2828 202.059Z" fill="white"/>
<path d="M159.415 124.975C160.68 125.049 161.982 124.584 162.77 123.524C165.042 120.498 165.576 117.635 163.611 114.336C161.762 111.178 156.904 110.455 154.177 111.854C146.717 115.654 150.846 127.629 159.415 124.975Z" fill="white"/>
<path d="M319.706 281.812C320.977 281.886 322.274 281.421 323.062 280.366C325.334 277.335 325.867 274.473 323.908 271.179C322.059 268.015 317.196 267.292 314.474 268.692C307.009 272.491 311.143 284.471 319.706 281.812Z" fill="white"/>
<path d="M88.119 326.485C89.3845 326.559 90.6812 326.095 91.4746 325.039C93.7466 322.009 94.275 319.152 92.3155 315.852C90.4671 312.694 85.6082 311.965 82.8816 313.37C75.4218 317.164 79.5506 329.145 88.119 326.485Z" fill="white"/>
<path d="M161.082 93.8726C162.352 93.9464 163.644 93.482 164.437 92.4266C166.709 89.4011 167.243 86.5333 165.278 83.2394C163.43 80.0807 158.571 79.3525 155.849 80.7573C148.384 84.5516 152.513 96.5266 161.082 93.8726Z" fill="white"/>
<path d="M143.361 249.856C144.919 248.122 144.813 245.947 144.887 245.636C146.337 239.642 139.896 234.595 133.701 238.233C130.405 240.156 129.125 246.101 132.931 250.155C135.333 252.697 140.567 252.985 143.361 249.856Z" fill="white"/>
<path d="M61.3461 100.342C62.9045 98.6135 62.7933 96.434 62.8668 96.1228C64.3219 90.1283 57.8763 85.0815 51.6867 88.7252C48.3906 90.6428 47.1053 96.5925 50.916 100.641C53.3184 103.184 58.5574 103.471 61.3461 100.342Z" fill="white"/>
<path d="M255.724 124.288C257.277 122.559 257.171 120.38 257.245 120.073C258.7 114.074 252.254 109.027 246.065 112.671C242.769 114.588 241.483 120.538 245.299 124.587C247.696 127.129 252.93 127.417 255.724 124.288Z" fill="white"/>
<path d="M60.7825 226.675C57.4864 228.593 56.2064 234.542 60.0118 238.591C62.4143 241.134 67.648 241.422 70.4471 238.292C72.0004 236.564 71.8891 234.384 71.9678 234.073C73.4177 228.078 66.9773 223.031 60.7825 226.675Z" fill="white"/>
</g>
<defs>
<clipPath id="clip0_302_5351">
<rect width="500" height="500" fill="white" transform="translate(1233.11 545.969) rotate(162.164)"/>
</clipPath>
<clipPath id="clip1_302_5351">
<rect width="500" height="500" fill="white" transform="translate(904.114 474.969) rotate(162.164)"/>
</clipPath>
<clipPath id="clip2_302_5351">
<rect width="500" height="500" fill="white" transform="translate(426.711 454.409) rotate(177.214)"/>
</clipPath>
</defs>
</svg>
