<svg width="241" height="441" viewBox="0 0 241 441" fill="none" xmlns="http://www.w3.org/2000/svg">
<path d="M238.589 437.798C232.626 439.834 226.349 440.881 219.756 440.937C219.282 440.945 218.813 440.841 218.352 440.63C217.884 440.416 217.464 440.115 217.079 439.72C216.694 439.325 216.38 438.869 216.131 438.348C215.884 437.833 215.727 437.296 215.659 436.731C215.586 436.169 215.61 435.628 215.729 435.104C215.844 434.581 216.045 434.126 216.331 433.725C216.616 433.319 216.96 433.012 217.376 432.794C217.785 432.573 218.225 432.462 218.701 432.459C224.664 432.406 230.338 431.46 235.715 429.624C236.154 429.473 236.611 429.431 237.091 429.502C237.571 429.573 238.032 429.743 238.477 430.023C238.92 430.298 239.316 430.66 239.657 431.101C240.004 431.544 240.272 432.041 240.464 432.582C240.653 433.119 240.751 433.673 240.761 434.23C240.766 434.789 240.684 435.31 240.507 435.804C240.331 436.291 240.079 436.708 239.744 437.052C239.41 437.401 239.024 437.648 238.589 437.798ZM182.356 430.316C176.459 426.962 170.611 422.88 164.799 418.061C164.382 417.718 164.03 417.299 163.737 416.812C163.445 416.325 163.236 415.801 163.109 415.242C162.983 414.687 162.952 414.137 163.013 413.595C163.074 413.052 163.223 412.557 163.46 412.111C163.696 411.665 164.004 411.308 164.382 411.029C164.761 410.75 165.181 410.571 165.643 410.504C166.106 410.431 166.575 410.471 167.047 410.62C167.522 410.768 167.968 411.013 168.381 411.357C173.809 415.856 179.258 419.658 184.729 422.771C185.181 423.031 185.588 423.372 185.943 423.801C186.298 424.23 186.585 424.714 186.793 425.25C187.001 425.785 187.119 426.331 187.145 426.894C187.173 427.45 187.109 427.983 186.947 428.482C186.792 428.984 186.554 429.414 186.236 429.78C185.916 430.142 185.544 430.412 185.112 430.584C184.68 430.756 184.224 430.815 183.75 430.771C183.269 430.723 182.806 430.571 182.356 430.316ZM135.39 387.061C131.065 381.523 126.692 375.489 122.27 368.97C121.953 368.504 121.716 367.991 121.559 367.442C121.405 366.886 121.342 366.337 121.37 365.783C121.397 365.236 121.516 364.723 121.727 364.258C121.938 363.792 122.22 363.405 122.577 363.093C122.934 362.782 123.342 362.572 123.793 362.463C124.244 362.354 124.712 362.354 125.188 362.467C125.665 362.579 126.118 362.793 126.552 363.106C126.982 363.421 127.357 363.814 127.671 364.281C131.962 370.612 136.204 376.457 140.388 381.816C140.735 382.259 141.001 382.75 141.192 383.292C141.388 383.833 141.489 384.385 141.499 384.942C141.505 385.5 141.424 386.027 141.249 386.514C141.076 387.006 140.824 387.424 140.494 387.771C140.16 388.12 139.775 388.367 139.337 388.524C138.901 388.673 138.441 388.717 137.963 388.651C137.483 388.581 137.022 388.41 136.574 388.137C136.131 387.861 135.735 387.499 135.39 387.061ZM99.5635 331.845C95.9425 325.278 92.4607 318.607 89.1243 311.837C88.8731 311.323 88.7079 310.788 88.6291 310.222C88.548 309.662 88.5662 309.118 88.6712 308.594C88.7803 308.068 88.973 307.603 89.2516 307.193C89.532 306.789 89.8729 306.472 90.2784 306.241C90.6857 306.015 91.1225 305.893 91.5929 305.875C92.0692 305.86 92.5361 305.959 93.0021 306.156C93.47 306.359 93.8984 306.657 94.2878 307.039C94.6749 307.427 94.9971 307.88 95.2524 308.393C98.5159 315.017 101.921 321.543 105.462 327.971C105.742 328.475 105.928 329.001 106.033 329.564C106.139 330.126 106.149 330.671 106.072 331.208C105.989 331.742 105.818 332.227 105.564 332.651C105.307 333.082 104.986 333.426 104.594 333.681C104.202 333.936 103.772 334.09 103.307 334.135C102.838 334.181 102.37 334.118 101.899 333.945C101.424 333.774 100.989 333.508 100.583 333.144C100.181 332.778 99.8394 332.35 99.5635 331.845ZM71.4563 271.648C68.7217 264.608 66.1457 257.503 63.7297 250.351C63.5424 249.808 63.449 249.252 63.4491 248.697C63.4493 248.142 63.5401 247.617 63.7212 247.134C63.9064 246.649 64.1647 246.235 64.5022 245.897C64.8396 245.558 65.2331 245.319 65.6725 245.18C66.1141 245.033 66.5747 245.002 67.0523 245.079C67.5341 245.155 67.9945 245.337 68.4375 245.624C68.8786 245.905 69.2683 246.276 69.607 246.722C69.9456 247.169 70.2095 247.667 70.3927 248.212C72.7582 255.215 75.2818 262.166 77.9577 269.06C78.1655 269.596 78.2836 270.141 78.3138 270.703C78.3398 271.265 78.2734 271.793 78.1182 272.296C77.9611 272.793 77.7185 273.224 77.4006 273.59C77.0848 273.95 76.7087 274.223 76.2765 274.394C75.8484 274.564 75.395 274.628 74.9144 274.581C74.4379 274.532 73.9705 274.381 73.5205 274.126C73.0686 273.866 72.6617 273.525 72.3063 273.096C71.9509 272.667 71.6642 272.183 71.4563 271.648ZM51.5134 208.2C49.7331 200.87 48.1302 193.526 46.6983 186.177C46.5888 185.617 46.5766 185.066 46.6535 184.529C46.7304 183.992 46.8931 183.509 47.1481 183.074C47.4007 182.645 47.7221 182.3 48.1103 182.035C48.5003 181.775 48.9239 181.618 49.3931 181.571C49.8604 181.52 50.3264 181.578 50.7994 181.744C51.2725 181.91 51.7121 182.175 52.1182 182.539C52.5266 182.896 52.8678 183.325 53.1459 183.823C53.4241 184.321 53.6199 184.85 53.7294 185.411C55.1273 192.605 56.6962 199.793 58.4364 206.965C58.5724 207.521 58.6172 208.071 58.5665 208.616C58.5117 209.163 58.3729 209.659 58.142 210.109C57.9129 210.564 57.6152 210.934 57.2406 211.223C56.87 211.511 56.4517 211.695 55.9917 211.779C55.5357 211.861 55.0667 211.832 54.5908 211.696C54.1148 211.561 53.6663 211.322 53.2471 210.986C52.8279 210.65 52.4658 210.241 52.1668 209.762C51.8659 209.278 51.6494 208.757 51.5134 208.2ZM40.3245 143.22L38.5981 126.441L38.0624 121.246C38.0038 120.684 38.0381 120.145 38.1693 119.628C38.2964 119.113 38.5071 118.659 38.8033 118.272C39.0976 117.879 39.4543 117.58 39.8692 117.374C40.2859 117.173 40.7344 117.071 41.2059 117.081C41.6834 117.095 42.1519 117.21 42.6131 117.433C43.072 117.661 43.4919 117.974 43.8705 118.377C44.2449 118.782 44.5525 119.246 44.7892 119.771C45.0258 120.296 45.1704 120.838 45.2291 121.401L45.7629 126.591L47.4911 143.375C47.5497 143.937 47.5155 144.476 47.3884 144.991C47.2572 145.508 47.0465 145.962 46.7503 146.349C46.4559 146.741 46.0993 147.041 45.6825 147.242C45.2676 147.448 44.8233 147.549 44.3458 147.535C43.8701 147.526 43.4017 147.41 42.9386 147.183C42.4815 146.959 42.0617 146.647 41.6831 146.244C41.3068 145.834 41.0011 145.375 40.7644 144.85C40.5319 144.323 40.3831 143.783 40.3245 143.22ZM31.9504 79.2732C30.3463 71.7624 28.4482 64.7709 26.2603 58.2973C26.0771 57.7523 25.9815 57.2039 25.9797 56.6437C25.9799 56.0887 26.0726 55.5687 26.2518 55.0803C26.437 54.5955 26.6972 54.1869 27.0346 53.8479C27.3721 53.509 27.7637 53.2656 28.2031 53.126C28.6466 52.9848 29.1053 52.9478 29.5829 53.0252C30.0647 53.1011 30.5251 53.2832 30.9681 53.57C31.4092 53.8517 31.7989 54.2218 32.1376 54.6687C32.4762 55.1156 32.7401 55.6132 32.9233 56.1582C35.242 63.0227 37.2485 70.4076 38.9403 78.3195C39.0622 78.8756 39.0886 79.4266 39.0176 79.9674C38.9508 80.5067 38.796 80.9977 38.5572 81.4388C38.3124 81.8764 38.0008 82.2346 37.6145 82.5049C37.2342 82.7788 36.8102 82.9474 36.3467 83.0093C35.8832 83.0712 35.4127 83.0258 34.9393 82.8717C34.466 82.7175 34.026 82.4643 33.6113 82.115C33.2007 81.7642 32.8471 81.3401 32.5627 80.8501C32.2722 80.3565 32.0681 79.8308 31.9504 79.2732ZM6.67768 22.2575C2.1326 16.7439 -2.71222 12.012 -7.85229 8.04849C-8.27782 7.72054 -8.64439 7.32447 -8.94941 6.84204C-9.25667 6.3662 -9.48545 5.8497 -9.62562 5.29464C-9.76991 4.74107 -9.81876 4.1926 -9.78005 3.64062C-9.73945 3.09373 -9.6067 2.5936 -9.38364 2.1352C-9.1606 1.67677 -8.87075 1.29767 -8.50211 1.005C-8.13123 0.705718 -7.72269 0.508109 -7.26638 0.414194C-6.80817 0.325371 -6.34298 0.343796 -5.86668 0.467945C-5.38849 0.597187 -4.93962 0.824026 -4.5141 1.15197C1.16698 5.52784 6.50991 10.7458 11.5106 16.8075C11.8679 17.2416 12.1486 17.7216 12.3524 18.2589C12.5602 18.7947 12.6761 19.3472 12.7003 19.9048C12.7263 20.4675 12.6557 20.9966 12.4986 21.4941C12.3374 21.9932 12.099 22.4227 11.775 22.7855C11.4552 23.1468 11.0794 23.4074 10.6472 23.5791C10.2131 23.7457 9.75973 23.8097 9.28135 23.7556C8.80485 23.7067 8.34159 23.5546 7.88965 23.2943C7.43771 23.0339 7.0331 22.6866 6.67768 22.2575Z" fill="#E4E6D7"/>
</svg>
