<svg width="567" height="604" viewBox="0 0 567 604" fill="none" xmlns="http://www.w3.org/2000/svg">
<path d="M102.254 179.515C99.7573 175.624 69.8685 175.494 65.5187 175.724C35.9267 177.27 42.4685 175.315 30.2907 187.472C29.248 188.509 31.5656 185.996 16.1987 204.478C5.94659 216.758 5.88189 218.215 3.39306 221.154C0.637842 224.421 -0.941463 227.145 0.611203 231.724C4.47764 243.223 27.5621 276.891 28.2814 278.299C32.1897 284.416 34.4426 288.954 38.0046 288.735C46.8601 290.757 71.5657 290.422 77.2779 290.036C83.8881 289.601 85.7148 290.129 91.6362 289.82C98.8439 289.445 98.4596 289.185 102.726 284.357C107.193 279.358 131.663 243.97 131.496 244.178C137.702 236.418 137.029 233.668 102.254 179.515Z" fill="#FFC759"/>
<path d="M175.678 121.125C146.082 122.675 152.624 120.72 140.45 132.873C139.407 133.914 141.725 131.405 126.358 149.883C116.11 162.166 116.041 163.619 113.552 166.559C110.797 169.83 109.218 172.55 110.77 177.129C114.637 188.631 137.718 222.295 138.441 223.704C142.349 229.821 144.598 234.359 148.16 234.144C157.019 236.162 181.725 235.831 187.433 235.441C194.043 235.006 195.87 235.534 201.792 235.229C208.999 234.853 208.615 234.593 212.885 229.762C217.349 224.767 241.822 189.375 241.655 189.583C247.858 181.823 247.184 179.076 212.409 124.923C209.913 121.028 180.028 120.898 175.678 121.125Z" fill="#FFC759"/>
<path d="M173.246 241.394C143.65 242.94 150.196 240.986 138.018 253.142C136.979 254.179 139.293 251.67 123.926 270.149C113.678 282.432 113.609 283.885 111.121 286.828C108.365 290.095 106.786 292.816 108.339 297.394C112.205 308.893 135.29 342.561 136.009 343.969C139.917 350.087 142.17 354.625 145.728 354.409C154.591 356.427 179.293 356.096 185.005 355.706C191.612 355.275 193.439 355.799 199.364 355.491C206.571 355.119 206.183 354.859 210.453 350.027C214.921 345.032 239.394 309.64 239.227 309.848C245.43 302.092 244.756 299.342 209.981 245.185C207.481 241.294 177.6 241.164 173.246 241.394Z" fill="#FFC759"/>
<path d="M283.406 184.424C253.81 185.97 260.355 184.019 248.178 196.172C247.135 197.209 249.452 194.701 234.082 213.179C223.833 225.466 223.769 226.915 221.28 229.859C218.525 233.129 216.942 235.846 218.494 240.428C222.361 251.927 245.445 285.591 246.168 287.003C250.077 293.121 252.329 297.658 255.888 297.439C264.747 299.461 289.453 299.126 295.161 298.736C301.767 298.305 303.598 298.833 309.519 298.524C316.727 298.149 316.339 297.893 320.609 293.061C325.08 288.066 349.55 252.67 349.383 252.878C355.586 245.122 354.916 242.376 320.141 188.223C317.64 184.328 287.755 184.198 283.406 184.424Z" fill="#FFC759"/>
<path d="M222.901 109.593C220.142 112.86 218.562 115.584 220.115 120.162C223.981 131.658 247.066 165.325 247.785 166.738C251.694 172.851 253.946 177.393 257.505 177.173C266.368 179.195 291.073 178.861 296.782 178.47C303.388 178.039 305.219 178.563 311.14 178.259C318.348 177.883 317.96 177.623 322.229 172.792C326.697 167.797 351.171 132.405 351.003 132.616C357.202 124.856 356.533 122.11 321.758 67.9532C319.261 64.0621 289.376 63.9283 285.023 64.1587C255.427 65.7085 261.972 63.7536 249.795 75.9065C248.756 76.9471 251.073 74.4348 235.703 92.9132C225.454 105.2 225.386 106.649 222.901 109.593Z" fill="#FFC759"/>
<path d="M141.679 102.647C145.588 108.764 147.841 113.302 151.403 113.083C160.258 115.105 184.964 114.77 190.676 114.384C197.282 113.949 199.113 114.476 205.034 114.168C212.238 113.793 211.854 113.536 216.124 108.705C220.591 103.706 245.061 68.3176 244.894 68.5258C251.097 60.7694 250.427 58.0155 215.652 3.86254C213.155 -0.0286277 183.266 -0.158705 178.917 0.0680007C149.325 1.61778 155.87 -0.337096 143.689 11.8195C142.646 12.8564 144.964 10.3478 129.597 28.8262C119.345 41.1055 119.28 42.5624 116.791 45.5021C114.036 48.7689 112.456 51.4931 114.005 56.0718C117.876 67.5706 140.956 101.238 141.679 102.647Z" fill="#FFC759"/>
<path d="M32.3343 158.034C36.2388 164.151 38.4917 168.689 42.0537 168.47C50.913 170.492 75.6187 170.157 81.327 169.767C87.9334 169.336 89.7639 169.863 95.6853 169.555C102.893 169.18 102.509 168.923 106.775 164.092C111.246 159.097 135.712 123.701 135.549 123.909C141.748 116.153 141.078 113.403 106.307 59.2495C103.806 55.3547 73.9214 55.2283 69.5716 55.455C39.9759 57.0011 46.5214 55.0499 34.3436 67.2028C33.3009 68.2397 35.6147 65.7311 20.2479 84.2095C9.99951 96.4925 9.93482 97.9494 7.44599 100.889C4.69077 104.156 3.10766 106.88 4.66032 111.459C8.52676 122.958 31.6112 156.625 32.3343 158.034Z" fill="#FFC759"/>
<path d="M315.254 427.515C312.757 423.624 282.868 423.494 278.519 423.724C248.927 425.27 255.468 423.315 243.291 435.472C242.248 436.509 244.566 433.996 229.199 452.478C218.947 464.758 218.882 466.215 216.393 469.154C213.638 472.421 212.059 475.145 213.611 479.724C217.478 491.223 240.562 524.891 241.281 526.299C245.19 532.416 247.443 536.954 251.005 536.735C259.86 538.757 284.566 538.422 290.278 538.036C296.888 537.601 298.715 538.129 304.636 537.82C311.844 537.445 311.46 537.185 315.726 532.357C320.193 527.358 344.663 491.97 344.496 492.178C350.702 484.418 350.029 481.668 315.254 427.515Z" fill="#FFC759"/>
<path d="M388.678 369.125C359.082 370.675 365.624 368.72 353.45 380.873C352.407 381.914 354.725 379.405 339.358 397.883C329.11 410.166 329.041 411.619 326.552 414.559C323.797 417.83 322.218 420.55 323.77 425.129C327.637 436.631 350.718 470.295 351.441 471.704C355.349 477.821 357.598 482.359 361.16 482.144C370.019 484.162 394.725 483.831 400.433 483.441C407.043 483.006 408.87 483.534 414.792 483.229C421.999 482.853 421.615 482.593 425.885 477.762C430.349 472.767 454.822 437.375 454.655 437.583C460.858 429.823 460.184 427.076 425.409 372.923C422.913 369.028 393.028 368.898 388.678 369.125Z" fill="#FFC759"/>
<path d="M386.246 489.394C356.65 490.94 363.196 488.986 351.018 501.142C349.979 502.179 352.293 499.67 336.926 518.149C326.678 530.432 326.609 531.885 324.121 534.828C321.365 538.095 319.786 540.816 321.339 545.394C325.205 556.893 348.29 590.561 349.009 591.969C352.917 598.087 355.17 602.625 358.728 602.409C367.591 604.427 392.293 604.096 398.005 603.706C404.612 603.275 406.439 603.799 412.364 603.491C419.571 603.119 419.183 602.859 423.453 598.027C427.921 593.032 452.394 557.64 452.227 557.848C458.43 550.092 457.756 547.342 422.981 493.185C420.481 489.294 390.6 489.164 386.246 489.394Z" fill="#FFC759"/>
<path d="M496.406 432.424C466.81 433.97 473.355 432.019 461.178 444.172C460.135 445.209 462.452 442.701 447.082 461.179C436.833 473.466 436.769 474.915 434.28 477.859C431.525 481.129 429.942 483.846 431.494 488.428C435.361 499.927 458.445 533.591 459.168 535.003C463.077 541.121 465.329 545.658 468.888 545.439C477.747 547.461 502.453 547.126 508.161 546.736C514.767 546.305 516.598 546.833 522.519 546.524C529.727 546.149 529.339 545.893 533.609 541.061C538.08 536.066 562.55 500.67 562.383 500.878C568.586 493.122 567.916 490.376 533.141 436.223C530.64 432.328 500.755 432.198 496.406 432.424Z" fill="#FFC759"/>
<path d="M435.901 357.593C433.142 360.86 431.562 363.584 433.115 368.162C436.981 379.658 460.066 413.325 460.785 414.738C464.694 420.851 466.946 425.393 470.505 425.173C479.368 427.195 504.073 426.861 509.782 426.47C516.388 426.039 518.219 426.563 524.14 426.259C531.348 425.883 530.96 425.623 535.229 420.792C539.697 415.797 564.171 380.405 564.003 380.616C570.202 372.856 569.533 370.11 534.758 315.953C532.261 312.062 502.376 311.928 498.023 312.159C468.427 313.708 474.972 311.754 462.795 323.907C461.756 324.947 464.073 322.435 448.703 340.913C438.454 353.2 438.386 354.649 435.901 357.593Z" fill="#FFC759"/>
<path d="M354.679 350.647C358.588 356.764 360.841 361.302 364.403 361.083C373.258 363.105 397.964 362.77 403.676 362.384C410.282 361.949 412.113 362.476 418.034 362.168C425.238 361.793 424.854 361.536 429.124 356.705C433.591 351.706 458.061 316.318 457.894 316.526C464.097 308.769 463.427 306.016 428.652 251.863C426.155 247.971 396.266 247.841 391.917 248.068C362.325 249.618 368.87 247.663 356.689 259.82C355.646 260.856 357.964 258.348 342.597 276.826C332.345 289.105 332.28 290.562 329.791 293.502C327.036 296.769 325.456 299.493 327.005 304.072C330.876 315.571 353.956 349.238 354.679 350.647Z" fill="#FFC759"/>
<path d="M245.334 406.034C249.239 412.151 251.492 416.689 255.054 416.47C263.913 418.492 288.619 418.157 294.327 417.767C300.933 417.336 302.764 417.863 308.685 417.555C315.893 417.18 315.509 416.923 319.775 412.092C324.246 407.097 348.712 371.701 348.549 371.909C354.748 364.153 354.078 361.403 319.307 307.25C316.806 303.355 286.921 303.228 282.572 303.455C252.976 305.001 259.521 303.05 247.344 315.203C246.301 316.24 248.615 313.731 233.248 332.209C223 344.492 222.935 345.949 220.446 348.889C217.691 352.156 216.108 354.88 217.66 359.459C221.527 370.958 244.611 404.625 245.334 406.034Z" fill="#FFC759"/>
</svg>
