<svg width="512" height="978" viewBox="0 0 512 978" fill="none" xmlns="http://www.w3.org/2000/svg">
<path d="M195.152 533.688C193.72 534.039 191.438 534.757 187.116 535.628C174.787 538.117 153.875 547.434 154.819 560.121C154.968 562.088 156.047 563.864 157.298 565.698C160.331 570.129 164.206 570.989 169.501 571.711C179.707 573.09 187.763 569.61 193.8 567.766C194.871 567.45 196.144 567.008 197.311 566.406C195.961 555.632 193.304 544.442 195.152 533.688Z" fill="#DFD6CB"/>
<path d="M197.066 526.707C201.553 515.19 209.274 505.394 214.649 494.334C210.863 491.554 195.826 481.346 186.726 478.063C163.799 469.799 148.53 484.971 163.977 506.222C168.868 512.964 176.188 519.727 187.217 525.636C191.465 527.916 191.037 527.824 193.261 528.662C194.317 529.066 195.227 529.463 196.033 529.798C196.329 528.763 196.666 527.733 197.066 526.707Z" fill="#DFD6CB"/>
<path d="M372.35 563.322C371.725 560.525 371.855 558.912 366.771 554.597C360.373 549.155 342.576 541.888 336.22 540.198C336.532 544.112 336.398 548.071 335.423 551.824C334.171 556.655 330.833 560.886 329.86 565.772C334.742 569.303 344.519 573.077 346.336 573.893C350.221 575.619 363.553 577.14 369.416 570.974C371.089 569.197 372.916 565.794 372.35 563.322Z" fill="#DFD6CB"/>
<path d="M377.218 489.072C374.88 483.604 370.471 479.866 364.518 479.432C355.066 478.763 332.227 489.13 324.146 494.151C323.595 494.49 323.025 494.834 322.469 495.186C326.866 507.611 332.573 519.645 335.139 532.641C335.322 533.574 335.49 534.52 335.644 535.474C336.111 535.589 336.598 535.62 337.108 535.524C337.411 535.642 337.722 535.702 338.032 535.702C339.402 535.702 346.11 532.051 347.949 530.867C360.285 522.912 365.679 517.25 367.811 515.224C373.508 510.068 377.258 506.181 378.71 498.861C379.632 494.218 379.078 493.46 377.218 489.072Z" fill="#DFD6CB"/>
<path d="M339.57 537.391C339.433 533.143 337.628 524.271 336.836 520.596C331.216 494.699 311.488 475.029 294.12 467.488C288.547 465.069 288.593 465.182 280.325 463.885C273.911 462.881 274.284 463.505 269.448 463.505C251.793 463.505 239.508 467.941 229.767 474.026C225.167 476.89 219.554 480.873 215.621 484.614C207.026 492.783 202.289 501.28 202.799 500.382C206.256 494.658 186.377 522.456 191.6 560.327C192.796 569.004 196.19 580.678 201.018 590.799C204.696 598.507 217.109 615.011 221.723 620.124C230.448 629.799 250.096 647.223 261.597 650.083C264.877 651.169 266.391 650.451 267.91 649.895C278.917 645.876 281.379 642.52 284.793 640.484C287.671 638.777 292.509 634.577 290.697 636.108C304.737 624.336 295.711 633.03 311.572 617.471C317.486 611.405 328.958 593.476 331.817 586.01C332.59 584.002 336.321 573.026 336.653 571.573C338.653 562.669 339.977 549.816 339.57 537.391Z" fill="#F28F38"/>
<path d="M299.352 449.057C302.637 441.542 300.743 445.275 304.313 444.065C312.918 441.121 314.292 426.564 303.013 425.314C294.88 424.426 288.925 436.654 296.009 442.469C293.734 447.588 288.509 461.429 288.48 461.513C285.825 468.789 284.807 469.186 285.866 470.991C287.141 473.17 290.417 472.748 291.098 470.305C294.466 462.322 297.614 453.283 299.352 449.057Z" fill="black"/>
<path d="M254.178 468.189C253.543 465.108 249.201 449.184 246.197 440.396C248.44 438.588 249.258 435.435 249.047 432.648C248.279 422.784 235.748 420.194 232.566 430.318C230.701 436.143 234.417 442.748 240.61 442.921C242.555 448.695 247.22 464.598 248.56 469.737C249.485 473.27 255.006 472.211 254.178 468.189Z" fill="black"/>
<path d="M237.58 504.118C233.07 502.874 234.247 511.505 227.923 516.935C227.021 517.578 226.494 517.838 225.415 518.059C224.32 518.146 222.527 518.141 221.432 517.814C218.943 516.601 218.093 515.469 217.658 513.508C216.519 508.405 217.569 502.965 217.802 500.654C218.113 497.528 212.721 496.49 212.297 500.654C212.192 501.714 211.205 508.297 211.696 512.292C212.594 519.393 215.973 523.412 223.386 523.66C226.901 523.797 229.977 522.931 232.417 520.324C235.696 516.824 237.864 511.936 239.436 507.387C239.908 506.015 238.914 504.484 237.58 504.118Z" fill="black"/>
<path d="M326.022 512.015C325.974 508.568 320.837 508.47 320.741 512.015C320.652 515.289 320.751 520.281 317.641 524.719C315.754 526.929 311.582 526.741 308.607 525.607C303.988 523.439 304.082 521.881 303.216 519.202C302.292 516.353 302.484 514.109 302.422 511.25C302.347 507.48 296.804 507.724 296.881 511.25C296.946 514.521 296.787 520.55 299.663 525.294C304.595 533.44 326.417 539.199 326.022 512.015Z" fill="black"/>
<path d="M273.735 531.136C271.535 531.136 270.026 534.186 262.778 533.341C257.873 532.614 257.392 530.785 255.447 531.312C252.604 532.092 251.042 537.994 265.59 538.461C268.127 538.54 271.328 538.047 275.042 535.936C277.222 534.701 276.464 531.136 273.735 531.136Z" fill="black"/>
<path d="M260.776 600.743C228.371 599.231 218.546 594.073 208.48 589.685C205.64 588.446 201.076 586.008 198.118 584.111C199.016 586.381 199.981 588.626 201.019 590.8C203.849 596.735 211.864 607.889 217.506 615.038C228.448 618.487 241.506 620.933 252.862 622.001C270.883 623.778 287.441 623.092 313.489 615.329C318.495 609.36 325.697 598.285 329.635 590.704C309.573 598.435 281.657 601.699 260.776 600.743Z" fill="black"/>
<path d="M231.36 629.177C231.047 629.095 230.775 629.023 230.527 628.958C240.22 637.955 253.119 647.975 261.596 650.084C264.877 651.169 266.391 650.452 267.91 649.896C278.917 645.876 281.379 642.521 284.792 640.485C287.315 638.99 291.339 635.579 291.079 635.786C290.949 635.897 290.831 635.996 290.697 636.109C290.923 635.919 291.043 635.818 291.079 635.786C297.583 630.344 298.933 629.471 300.341 628.301C299.188 628.493 295.848 629.406 288.932 630.643C268.088 633.94 252.989 634.727 231.36 629.177Z" fill="black"/>
<path d="M324.51 551.783C315.26 554.63 314.891 554.683 306.655 556.354C295.713 558.547 274.18 560.429 260.169 559.139C241.055 557.389 212.343 549.571 195.4 537.933C193.193 536.325 192.091 535.37 191.537 534.913C190.545 542.572 190.336 551.152 191.6 560.328C191.797 561.757 192.059 563.279 192.375 564.853C210.843 578.411 237.719 586.029 259.132 586.927C282.087 587.868 313.688 583.324 336.171 573.203C336.419 572.42 336.593 571.838 336.653 571.573C338.152 564.896 339.274 555.998 339.565 546.724C330.655 550.476 330.022 550.086 324.51 551.783Z" fill="black"/>
<path d="M510.464 806.866C493.813 824.432 477.443 823.601 457.224 823.966C446.189 824.145 447.945 824.061 441.981 823.27C443.058 823.405 443.26 823.439 441.981 823.237C443.451 803.629 446.795 773.604 446.778 773.778C448.483 758.726 447.603 763.736 450.318 736.123C480.916 738.939 514.088 747.539 519.132 777.783C520.697 791.309 517.454 797.767 510.464 806.866ZM561.404 762.53C559.726 747.062 549.83 729.278 541.92 722.002C513.005 695.354 490.004 695.264 454.481 692.616C455.098 683.881 465.432 595.915 463.401 589.188C373.975 587.432 367.737 586.557 344.865 588.846C324.573 589.687 239.669 589.115 185.857 586.563C124.398 583.028 40.6223 585.188 25.6433 586.355C24.5718 587.758 24.2857 589.929 24.9981 591.539C24.9925 591.718 24.9084 597.732 24.9196 597.373C24.8635 597.547 21.5143 791.781 25.4526 837.812C29.2169 880.303 26.3333 877.565 29.4077 905.172C31.1019 920.51 31.8144 944.785 31.7527 942.581C32.1959 957.447 34.7485 973.038 35.0795 973.986C35.8032 973.98 59.1918 973.717 66.6869 974.115C114.407 976.567 119.282 972.466 143.534 975.45C157.105 977.117 207.136 978.149 224.41 977.476C301.532 974.452 335.658 974.945 337.807 974.889C351.053 974.53 349.897 973.964 385.156 973.902C386.099 974.166 404.337 973.341 405.325 973.296C417.723 971.007 422.542 973.105 427.086 969.094C427.137 968.696 427.042 969.61 427.664 963.164C433.488 903.186 433.415 932.718 438.436 868.667C441.072 869.021 443.709 869.071 445.936 869.071C486.638 869.071 499.659 862.709 525.959 847.921C553.353 832.415 564.854 794.417 561.404 762.53Z" fill="#255932"/>
<path d="M265.033 882.761C264.236 883.816 264.27 883.737 265.033 882.761V882.761ZM265.067 882.722C265.033 882.772 265.039 882.755 265.033 882.761C265.05 882.744 265.061 882.733 265.067 882.722ZM265.089 882.688C265.1 882.671 265.117 882.654 265.134 882.643C265.117 882.654 265.1 882.671 265.089 882.688ZM265.375 882.323C265.067 882.739 265.044 882.772 265.375 882.323V882.323ZM158.783 675.114C152.477 677.15 147.002 685.234 145.223 692.432C140.645 710.957 153.588 754.761 160.96 772.455L160.932 772.359C161.01 772.539 187.776 837.65 212.763 877.33C220.522 889.577 230.721 901.841 240.085 912.915C240.595 912.332 241.111 911.771 241.684 911.255C245.005 908.208 249.403 902.402 247.905 904.298C251.148 900.152 251.311 900.59 254.015 897.168C302.071 834.671 311.889 811.299 325.791 790.794C336.349 775.176 361.981 721.481 354.941 702.923C353.875 700.14 350.425 694.614 348.08 692C343.244 686.586 333.325 684.185 321.802 690.743C321.179 691.495 289.678 704.432 243.866 798.822C194.149 696.382 178.777 668.718 158.783 675.114Z" fill="#D92B2B"/>
<path d="M261.931 886.867C262.048 886.716 262.037 886.738 261.953 886.834C261.942 886.845 261.936 886.856 261.931 886.867Z" fill="#F2BBBB"/>
<path d="M260.825 888.342C260.73 888.46 260.64 888.572 260.55 888.69C260.259 889.077 260.522 888.729 260.825 888.342Z" fill="#F2BBBB"/>
<path d="M266.188 692.577C266.182 692.577 266.182 692.571 266.182 692.571C266.188 692.577 266.188 692.583 266.188 692.583C266.188 692.583 266.188 692.583 266.188 692.577ZM270.239 694.552C287.579 673.805 277.694 665.07 270.188 671.387C269.251 671.741 268.651 672.38 268.039 673.188C261.532 681.873 260.404 683.853 259.147 687.118C254.867 698.249 262.822 703.416 270.239 694.552Z" fill="#F2BBBB"/>
<path d="M209.621 643.546C211.422 645.824 213.582 648.248 216.488 648.029C221.105 649.179 227.938 643.973 214.749 627.995C212.611 625.398 208.353 620.624 204.819 620.624C203.046 620.624 201.531 621.645 200.886 623.21C196.235 627.417 205.307 640.136 209.621 643.546Z" fill="#F2BBBB"/>
<path d="M270.177 610.631C272.629 614.821 280.107 612.819 284.079 610.844C284.264 610.754 287.344 609.133 288.337 608.566C290.391 607.394 293.734 605.004 295.333 603.41C297.555 601.222 298.267 598.451 296.034 595.854C291.12 590.165 265.246 602.199 270.177 610.631Z" fill="#F2BBBB"/>
<path d="M361.791 673.755C365.185 672.409 366.161 669.374 364.899 666.361C364.713 660.695 341.252 643.612 336.394 653.245C331.574 662.692 355.889 676.095 361.791 673.755Z" fill="#F2BBBB"/>
<path d="M405.212 627.826C410.531 627.859 421.397 624.331 424.438 622.805C429.414 620.286 429.801 615.977 427.468 613.649C422.822 608.981 406.048 614.204 400.702 617.469C398.216 618.939 396.881 621.537 398.143 624.19C399.019 627.169 402.16 627.82 405.212 627.826Z" fill="#F2BBBB"/>
<path d="M406.374 729.604C406.571 728.925 406.952 729.121 407.507 724.774C408.113 720.168 407.939 708.218 405.471 704.852C404.046 702.911 402.357 702.137 400.803 702.137C392.966 702.137 393.847 715.405 394.93 723.158C395.328 725.952 405.157 733.879 406.374 729.604Z" fill="#F2BBBB"/>
<path d="M408.461 785.751C408.68 785.454 408.904 785.173 409.128 784.882C408.517 785.678 408.534 785.656 408.461 785.751ZM430.105 776.421C429.566 774.974 428.511 773.914 426.677 773.414C421.712 772.034 413.83 779.687 410.189 783.417C398.116 795.664 409.308 800.988 415.647 796.124C419.199 793.667 423.042 791.12 427.939 784.82C429.998 782.194 432.315 779.339 430.105 776.421Z" fill="#F2BBBB"/>
<path d="M353.942 797.532C344.214 797.532 348.792 817.05 356.489 826.172C359.389 829.622 365.729 827.535 365.561 820.551C365.448 815.945 361.869 797.532 353.942 797.532Z" fill="#F2BBBB"/>
<path d="M121.767 667.944C123.484 668.264 124.207 667.865 125.402 667.562C132.465 665.762 142.171 638.3 131.489 638.294C130.283 638.294 129.049 638.726 128.073 639.349C123.035 642.592 118.771 658.048 118.373 663.181C118.216 665.201 119.702 667.557 121.767 667.944Z" fill="#F2BBBB"/>
<path d="M66.8388 620.617C66.7939 620.555 66.7996 620.572 66.7939 620.555C66.8052 620.572 66.822 620.594 66.8388 620.617Z" fill="#F2BBBB"/>
<path d="M67.4494 621.408C71.298 626.272 76.852 630.687 80.1788 625.727C84.925 618.659 69.8786 604.297 64.6332 602.143C62.0469 601.071 57.5364 603.326 58.2713 608.028C58.0188 611.04 63.2475 616.112 67.4494 621.408Z" fill="#F2BBBB"/>
<path d="M66.1368 687.439C64.7511 688.488 63.343 689.492 62.0414 690.653C57.4467 694.715 60.4874 700.752 66.7427 700.191C71.4103 699.759 81.2953 695.439 84.2575 693.189C94.653 685.24 86.2491 679.372 80.7456 681.105C79.8255 681.257 70.2098 684.264 66.1368 687.439Z" fill="#F2BBBB"/>
<path d="M118.322 759.675C120.959 760.601 127.77 761.981 130.137 760.208C131.529 759.187 132.146 758.626 132.454 756.084C133.055 751.22 119.82 745.128 115.226 743.916C111.074 742.816 108.454 741.947 104.533 743.787C103.697 744.185 102.423 745.571 102.059 747.047C100.454 753.846 110.956 757.105 118.322 759.675Z" fill="#F2BBBB"/>
<path d="M56.1174 797.442C56.1511 797.397 56.1847 797.352 56.2184 797.307C56.2072 797.324 56.1342 797.414 56.1174 797.442ZM71.1581 793.111C72.5775 786.143 64.1904 780.331 55.3432 796.982C54.0809 799.344 50.6363 805.605 50.6251 808.258C50.6026 811.765 54.8383 813.493 57.015 812.718C61.6265 811.063 66.44 803.316 68.7963 799.03C69.5368 797.666 70.8159 794.828 71.1581 793.111Z" fill="#F2BBBB"/>
<path d="M109.795 821.594C103.271 821.594 104.634 831.653 105.767 838.178C106.311 841.291 107.102 846.127 108.752 848.843C110.951 852.461 116.819 851.266 118.053 846.032C119.579 839.597 115.916 821.594 109.795 821.594Z" fill="#F2BBBB"/>
<path d="M174.8 860.813C170.884 864.387 166.188 879.736 165.863 881.346C163.675 889.144 170.379 892.443 174.945 887.843C179.074 883.686 186.732 864.926 182.278 860.471C181.369 859.562 176.993 858.816 174.8 860.813Z" fill="#F2BBBB"/>
<path d="M213.52 715.097C213.846 722.844 213.952 726.238 216.297 730.917C218.081 734.457 221.116 735.074 223.338 733.644C226.502 731.663 226.199 726.059 226.132 722.323C226.059 716.999 211.444 693.93 213.52 715.097Z" fill="#F2BBBB"/>
<path d="M412.298 872.005C412.46 866.266 401.526 859.596 395.507 857.296C387.596 854.227 382.968 861.043 388.601 866.676C392.876 870.867 404.808 880.062 410.289 877.212C412.186 876.224 412.971 873.61 412.365 872.168C412.343 872.112 412.32 872.056 412.298 872.005Z" fill="#F2BBBB"/>
<path d="M316.898 861.981C316.91 861.975 316.921 861.964 316.926 861.964C316.921 861.964 316.91 861.975 316.898 861.981ZM309.364 858.312C308.842 859.445 308.365 860.617 307.945 861.796C306.985 864.55 306.116 875.451 307.496 880.786C308.657 885.493 314.419 885.818 317.128 881.38C319.832 876.904 321.869 863.714 320.158 859.215C317.701 852.713 311.462 853.706 309.364 858.312Z" fill="#F2BBBB"/>
<path d="M353.767 929.358C352.556 929.425 352.124 929.448 343.512 936.646C333.61 944.971 336.601 952.264 343.815 951.108C347.03 950.587 359.271 942.082 361.969 934.643C363.187 931.26 359.636 926.867 353.767 929.358Z" fill="#F2BBBB"/>
<path d="M91.601 891.416C91.6122 891.411 91.6234 891.405 91.6347 891.405C91.629 891.405 91.6178 891.411 91.601 891.416ZM81.4635 884C79.096 882.99 76.6669 882.059 74.1255 882.059C68.549 882.059 66.0974 887.366 69.9964 891.068C71.9431 892.847 75.169 894.233 77.0876 895.158C83.1241 898.053 93.5309 903.024 96.796 897.47C100.695 890.816 88.6725 887.091 81.4635 884Z" fill="#F2BBBB"/>
<path d="M138.564 937.291C134.693 937.678 126.681 940.158 123.214 941.869C115.983 944.427 116.387 949.852 120.168 951.748C126.176 954.767 145.481 949.229 145.481 941.998C145.481 939.922 143.08 936.842 138.564 937.291Z" fill="#F2BBBB"/>
<path d="M212.231 935.338C210.716 930.502 208.78 925.481 204.489 925.481C202.396 925.481 200.41 926.968 199.849 929.919C198.716 935.882 203.731 950.839 206.985 953.604C210.323 956.415 215.423 954.906 214.834 947.187C214.475 942.468 213.639 939.86 212.231 935.338Z" fill="#F2BBBB"/>
<path d="M275.659 910.25C271.849 907.468 268.309 909.291 267.67 912.292C265.936 915.125 268.068 917.083 270.178 919.922C273.673 925.162 282.924 935.036 288.029 932.034C289.555 931.142 290.122 929.751 290.239 928.006C290.329 926.637 289.549 925.285 288.859 924.169C286.133 919.771 279.361 912.921 275.659 910.25Z" fill="#F2BBBB"/>
<path d="M35.1969 923.983C32.8743 923.299 30.9051 924.219 29.7999 926.081C26.7929 931.17 35.2474 939.989 39.483 944.191C42.03 946.738 44.8126 949.341 47.9767 947.473C50.3049 946.104 51.0062 943.293 50.2208 940.814C48.8463 936.522 39.8925 924.118 35.1969 923.983Z" fill="#F2BBBB"/>
<path d="M38.838 747.849C41.5702 742.637 46.378 726.76 40.7567 723.456C38.4397 722.11 35.0344 722.878 33.1045 726.542C30.7595 731.114 29.4467 742.564 29.5421 744.113C28.8857 750.564 35.573 754.026 38.838 747.849Z" fill="#F2BBBB"/>
<path d="M173.413 599.702C174.417 598.154 175.119 596.325 175.814 594.625C177.447 590.625 179.91 585.099 175.612 582.776C172.852 581.29 171.057 582.238 168.661 584.196C163.04 588.897 154.647 606.687 163.124 608.1C165.307 608.661 166.928 607.607 168.37 606.244C169.542 605.138 172.504 601.121 173.413 599.702Z" fill="#F2BBBB"/>
<path d="M438.739 649.992C432.848 653.582 437.555 673.638 439.227 675.725C440.254 677.784 441.118 678.295 442.851 679.024C443.597 679.332 444.445 679.153 445.202 679.052C453.561 677.924 448.467 644.067 438.739 649.992Z" fill="#F2BBBB"/>
<path d="M122.241 510.574C114.596 502.641 107.826 493.958 101.932 484.521C101.504 483.843 101.21 483.139 101.048 482.414C100.884 481.678 100.863 480.985 100.984 480.313C101.104 479.641 101.358 479.053 101.744 478.538C102.127 478.027 102.614 477.639 103.211 477.369C103.803 477.094 104.454 476.965 105.171 476.977C105.882 476.984 106.59 477.133 107.311 477.422C108.036 477.707 108.698 478.108 109.319 478.638C109.938 479.158 110.457 479.756 110.882 480.437C116.215 488.972 122.333 496.821 129.227 503.974C129.792 504.559 130.245 505.201 130.587 505.911C130.929 506.62 131.138 507.333 131.205 508.056C131.276 508.775 131.204 509.453 130.992 510.075C130.781 510.707 130.44 511.242 129.978 511.681C129.52 512.115 128.96 512.423 128.32 512.606C127.674 512.784 126.992 512.824 126.26 512.719C125.538 512.616 124.829 512.381 124.131 512.004C123.429 511.631 122.8 511.153 122.241 510.574ZM81.2464 427.669C79.9426 418.197 79.5309 408.573 80.009 398.777C80.0398 398.075 80.2172 397.444 80.5261 396.876C80.8351 396.309 81.2619 395.851 81.8012 395.498C82.3363 395.149 82.9498 394.939 83.6363 394.862C84.3228 394.784 85.0309 394.848 85.7605 395.052C86.4901 395.257 87.1777 395.589 87.8374 396.047C88.4971 396.506 89.0771 397.054 89.5632 397.695C90.0591 398.338 90.4264 399.023 90.6696 399.744C90.9181 400.471 91.0269 401.185 90.9907 401.881C90.5449 411.028 90.9309 419.996 92.139 428.784C92.235 429.511 92.1976 430.198 92.0117 430.838C91.8258 431.477 91.5157 432.035 91.0749 432.496C90.6341 432.956 90.1022 433.291 89.4693 433.499C88.8461 433.708 88.1682 433.777 87.4439 433.697C86.7207 433.627 86.0093 433.415 85.3012 433.071C84.5973 432.721 83.9526 432.27 83.3704 431.702C82.7882 431.135 82.3171 430.5 81.9486 429.806C81.579 429.102 81.3467 428.392 81.2464 427.669ZM90.144 347.206C92.7752 339.325 95.9425 331.224 99.6319 322.907C99.8945 322.31 100.283 321.815 100.785 321.423C101.296 321.034 101.88 320.777 102.551 320.65C103.213 320.522 103.915 320.537 104.644 320.698C105.373 320.86 106.075 321.146 106.753 321.564C107.432 321.981 108.038 322.504 108.563 323.117C109.089 323.73 109.502 324.401 109.793 325.119C110.083 325.836 110.235 326.551 110.253 327.269C110.267 327.981 110.14 328.637 109.872 329.229C106.287 337.302 103.224 345.158 100.676 352.782C100.466 353.414 100.129 353.944 99.6662 354.383C99.2092 354.827 98.6556 355.14 98.0151 355.323C97.3691 355.501 96.6834 355.545 95.961 355.442C95.2345 355.343 94.525 355.107 93.8285 354.74C93.1265 354.368 92.4978 353.889 91.9283 353.309C91.3686 352.73 90.9103 352.082 90.5642 351.377C90.2224 350.667 90.0138 349.955 89.937 349.23C89.8657 348.511 89.9376 347.833 90.144 347.206ZM122.832 279.089C127.285 271.905 131.982 264.889 136.925 258.052C137.302 257.536 137.779 257.137 138.369 256.852C138.95 256.566 139.6 256.427 140.305 256.419C141.014 256.416 141.726 256.551 142.45 256.826C143.169 257.106 143.84 257.499 144.468 258.01C145.092 258.526 145.619 259.115 146.056 259.784C146.495 260.463 146.792 261.162 146.974 261.89C147.152 262.622 147.183 263.327 147.083 264.001C146.972 264.674 146.729 265.274 146.357 265.795C141.521 272.483 136.924 279.344 132.562 286.373C132.223 286.927 131.773 287.353 131.211 287.674C130.649 287.996 130.022 288.176 129.328 288.229C128.633 288.272 127.916 288.174 127.197 287.937C126.468 287.699 125.782 287.343 125.138 286.858C124.494 286.374 123.936 285.804 123.472 285.151C123.003 284.492 122.664 283.802 122.448 283.075C122.228 282.342 122.153 281.637 122.218 280.944C122.289 280.256 122.487 279.637 122.832 279.089ZM168.151 220.53C173.939 214.474 179.943 208.626 186.144 202.993C186.612 202.559 187.176 202.257 187.823 202.089C188.47 201.921 189.163 201.892 189.886 202.005C190.615 202.123 191.326 202.368 192.019 202.75C192.712 203.131 193.338 203.623 193.889 204.21C194.45 204.799 194.895 205.45 195.227 206.159C195.564 206.872 195.759 207.588 195.816 208.31C195.878 209.028 195.791 209.699 195.57 210.32C195.348 210.941 195.001 211.471 194.528 211.899C188.456 217.414 182.585 223.141 176.915 229.068C176.474 229.529 175.942 229.864 175.315 230.077C174.682 230.285 174.008 230.35 173.285 230.279C172.566 230.205 171.849 229.988 171.141 229.643C170.443 229.299 169.793 228.843 169.211 228.275C168.634 227.713 168.158 227.082 167.789 226.378C167.425 225.68 167.187 224.964 167.086 224.242C166.99 223.515 167.028 222.828 167.214 222.188C167.4 221.548 167.71 220.991 168.151 220.53ZM224.476 172.693C231.447 167.918 238.589 163.393 245.89 159.111C246.447 158.784 247.078 158.599 247.772 158.547C248.466 158.494 249.172 158.581 249.905 158.815C250.629 159.047 251.314 159.403 251.967 159.88C252.615 160.36 253.172 160.92 253.641 161.578C254.115 162.233 254.458 162.919 254.683 163.647C254.908 164.376 254.988 165.087 254.923 165.78C254.867 166.474 254.669 167.093 254.335 167.643C254 168.193 253.557 168.634 253 168.961C245.85 173.147 238.858 177.576 232.037 182.246C231.508 182.61 230.907 182.841 230.227 182.934C229.542 183.021 228.84 182.972 228.112 182.777C227.379 182.587 226.684 182.272 226.016 181.823C225.353 181.379 224.769 180.835 224.264 180.2C223.765 179.571 223.384 178.89 223.122 178.167C222.859 177.443 222.741 176.727 222.762 176.024C222.783 175.321 222.94 174.678 223.234 174.104C223.532 173.526 223.948 173.057 224.476 172.693ZM290.328 136.945L308.36 129.382L313.942 127.038C314.545 126.784 315.204 126.669 315.922 126.701C316.635 126.727 317.351 126.891 318.064 127.199C318.781 127.502 319.446 127.922 320.053 128.455C320.655 128.992 321.171 129.604 321.576 130.283C321.982 130.972 322.261 131.679 322.41 132.407C322.549 133.135 322.556 133.832 322.421 134.497C322.28 135.156 322.011 135.738 321.608 136.237C321.205 136.735 320.701 137.107 320.098 137.362L314.52 139.701L296.484 147.269C295.88 147.523 295.222 147.638 294.509 147.612C293.79 147.58 293.075 147.416 292.362 147.108C291.644 146.805 290.979 146.385 290.377 145.848C289.77 145.315 289.26 144.709 288.854 144.02C288.443 143.335 288.164 142.628 288.019 141.895C287.876 141.172 287.869 140.475 288.005 139.81C288.15 139.146 288.415 138.569 288.817 138.07C289.226 137.577 289.724 137.2 290.328 136.945ZM357.464 105.546C364.8 100.969 371.272 96.1268 376.883 91.0264C377.357 90.5984 377.911 90.295 378.563 90.1227C379.21 89.9546 379.898 89.9298 380.626 90.0387C381.355 90.1572 382.061 90.4064 382.754 90.7876C383.448 91.1687 384.078 91.6565 384.629 92.2442C385.186 92.8373 385.634 93.4838 385.966 94.1923C386.304 94.9062 386.499 95.6215 386.556 96.3438C386.618 97.0618 386.531 97.7328 386.309 98.3539C386.088 98.975 385.741 99.5043 385.268 99.9322C379.316 105.339 372.482 110.455 364.755 115.28C364.215 115.624 363.596 115.829 362.903 115.891C362.215 115.959 361.506 115.886 360.78 115.677C360.054 115.459 359.361 115.12 358.704 114.648C358.049 114.186 357.477 113.629 356.995 112.983C356.514 112.338 356.15 111.649 355.912 110.924C355.673 110.198 355.579 109.49 355.62 108.79C355.665 108.095 355.847 107.459 356.167 106.902C356.485 106.336 356.918 105.884 357.464 105.546ZM401.58 52.0173C403.989 43.8279 405.221 35.4457 405.297 26.8732C405.303 26.1636 405.44 25.5178 405.733 24.9341C406.016 24.3492 406.416 23.8646 406.939 23.4953C407.457 23.1205 408.053 22.8841 408.73 22.7723C409.404 22.6646 410.104 22.7034 410.836 22.8842C411.567 23.065 412.265 23.3657 412.932 23.8056C413.609 24.2467 414.201 24.7726 414.714 25.3984C415.222 26.0286 415.612 26.7012 415.888 27.4219C416.16 28.1468 416.293 28.8592 416.287 29.5688C416.209 39.0422 414.85 48.286 412.206 57.2949C412.015 57.9389 411.704 58.487 411.258 58.9421C410.817 59.4026 410.276 59.7363 409.647 59.94C409.014 60.148 408.335 60.2072 407.616 60.1328C406.892 60.053 406.18 59.8413 405.471 59.4868C404.767 59.1377 404.131 58.6778 403.549 58.1102C402.971 57.5382 402.496 56.9075 402.136 56.2051C401.771 55.507 401.539 54.7966 401.443 54.0696C401.347 53.3425 401.394 52.657 401.58 52.0173Z" fill="black"/>
</svg>
