<svg width="250" height="250" viewBox="0 0 250 250" fill="none" xmlns="http://www.w3.org/2000/svg">
<path fill-rule="evenodd" clip-rule="evenodd" d="M102.951 56.5906C102.951 56.5906 120.375 58.1719 123.745 59.6447L121.014 73.7795L100.923 70.6387L102.951 56.5906Z" fill="#6451A6"/>
<path fill-rule="evenodd" clip-rule="evenodd" d="M102.952 56.5906L102.691 58.2465L123.358 61.6466L123.745 59.6447C123.792 59.5096 117.96 57.7787 102.952 56.5906Z" fill="#D92B2B"/>
<path fill-rule="evenodd" clip-rule="evenodd" d="M123.357 61.6466L102.711 58.2499L102.44 60.126L122.987 63.5683L123.357 61.6466Z" fill="#F28F38"/>
<path fill-rule="evenodd" clip-rule="evenodd" d="M102.441 60.126L102.097 62.511L122.546 65.8524L122.987 63.5683L102.441 60.126Z" fill="#FFD274"/>
<path fill-rule="evenodd" clip-rule="evenodd" d="M102.097 62.511L101.681 64.6807L122.099 68.1678L122.546 65.8524L102.097 62.511Z" fill="#5D8E69"/>
<path fill-rule="evenodd" clip-rule="evenodd" d="M101.68 64.6807L101.428 67.14L121.62 70.6387L122.098 68.1678L101.68 64.6807Z" fill="#507DD1"/>
<path fill-rule="evenodd" clip-rule="evenodd" d="M102.71 56.7659L101.133 56.5181C101.018 56.5 100.94 56.3922 100.958 56.2775C100.976 56.1627 101.083 56.0842 101.198 56.1022L102.983 56.3827C103.098 56.4007 103.177 56.5083 103.158 56.6232L98.701 84.9999C98.6829 85.1146 98.5753 85.1932 98.4605 85.1752C98.3457 85.1572 98.2674 85.0493 98.2854 84.9346L102.71 56.7659Z" fill="black"/>
<path fill-rule="evenodd" clip-rule="evenodd" d="M96.9483 84.5115L98.5258 84.7594C98.6406 84.7774 98.719 84.8852 98.701 84.9999C98.6829 85.1146 98.5753 85.1932 98.4605 85.1752L96.6752 84.8947C96.5604 84.8767 96.482 84.769 96.5001 84.6542L100.958 56.2775C100.976 56.1627 101.083 56.0842 101.198 56.1022C101.313 56.1203 101.391 56.228 101.373 56.3428L96.9483 84.5115Z" fill="black"/>
<path fill-rule="evenodd" clip-rule="evenodd" d="M111.926 122.2C111.926 122.2 113.072 127.161 104.908 129.214L98.8262 116.318C98.8262 116.318 104.053 114.785 104.429 113.141L107.945 118.488L108.396 117.929L111.926 122.2Z" fill="black"/>
<path fill-rule="evenodd" clip-rule="evenodd" d="M99.5638 90.4336C99.5638 90.4336 101.231 90.5415 101.884 88.0659C101.884 88.0659 104.015 90.1737 105.542 89.9487C105.542 89.9487 105.574 89.4627 105.612 88.8736C105.647 88.3295 105.464 87.7938 105.103 87.385C104.742 86.976 104.234 86.7276 103.689 86.6945C102.906 86.6469 102.039 86.5941 101.357 86.5526C100.573 86.5049 99.8039 86.7763 99.2235 87.3049C97.3994 88.9665 93.4619 92.5532 93.4619 92.5532L98.0137 93.5925L98.5844 92.2615C98.5844 92.2615 97.3202 90.5985 98.7366 89.9337C98.7366 89.9337 99.2908 89.6125 99.5638 90.4336Z" fill="black"/>
<path fill-rule="evenodd" clip-rule="evenodd" d="M103.417 94.8004C103.417 94.8004 103.964 94.8544 104.461 94.2632L104.171 97.4957L102.72 96.8041L103.417 94.8004Z" fill="black"/>
<path fill-rule="evenodd" clip-rule="evenodd" d="M77.4092 132.913L77.4175 132.955C75.7139 134.004 73.6967 134.611 71.5354 134.611C65.4335 134.611 60.4795 129.769 60.4795 123.806C60.4795 119.908 62.5958 116.49 65.7662 114.589C64.9162 113.368 64.4295 111.951 64.4295 110.44C64.4295 105.872 68.8767 102.163 74.3546 102.163C76.6941 102.163 78.8457 102.84 80.5425 103.97L84.8809 100.647L85.9241 100.902L81.246 104.486C81.3991 104.609 81.5476 104.737 81.6912 104.868L85.966 101.258C86.0709 101.103 86.1717 100.978 86.2666 100.891C86.2666 100.891 86.2534 100.941 86.2305 101.035L86.3697 100.918L86.0851 101.673C85.6469 103.711 84.7159 109.133 86.8165 110.674C86.8165 110.674 85.7439 110.428 84.2789 110.531L84.2786 110.551C83.5067 110.622 82.6225 110.772 81.749 111.065C79.8347 111.778 77.8743 113.337 76.8565 116.603C76.3927 118.292 76.0348 120.907 76.2833 124.816C76.3311 125.335 76.3916 125.87 76.4656 126.426L77.541 132.866L77.4092 132.913Z" fill="black"/>
<path fill-rule="evenodd" clip-rule="evenodd" d="M65.4321 114.066C65.5781 113.964 65.7489 113.847 65.9173 113.75C66.3317 113.511 66.788 113.323 67.195 113.314C68.6802 113.283 69.1506 114.265 69.0934 114.815C69.0432 115.297 68.8512 115.633 68.5581 115.842C68.2759 116.043 67.8876 116.128 67.4043 116.081C66.3925 115.98 65.7454 115.49 65.2998 114.884C65.5549 114.706 65.761 114.587 65.7667 114.589C65.7535 114.569 65.7404 114.55 65.7275 114.531C66.0937 115.037 66.6191 115.451 67.4584 115.534C67.7838 115.567 68.0494 115.53 68.2394 115.394C68.4185 115.267 68.5166 115.052 68.5472 114.758C68.5853 114.392 68.1959 113.842 67.2067 113.863C66.7941 113.872 66.3271 114.129 65.9325 114.385C65.8603 114.432 65.7904 114.479 65.7234 114.525C65.6155 114.379 65.5121 114.233 65.4321 114.066Z" fill="white"/>
<path fill-rule="evenodd" clip-rule="evenodd" d="M84.1472 90.4335L81.1836 99.7384L86.1257 100.818C86.1257 100.818 84.3653 108.138 86.5904 110.537L99.3129 116.187C99.3129 116.187 102.392 116.229 104.468 113.26L107.945 118.488L114.071 110.897C114.071 110.897 109.463 100.649 103.82 97.2752C103.82 97.2752 103.362 101.138 98.3587 99.3204C96.305 98.5743 95.6627 97.3803 93.4829 92.4721L84.1472 90.4335Z" fill="#FFD274"/>
<path fill-rule="evenodd" clip-rule="evenodd" d="M104.468 113.26C104.468 113.26 104.81 112.66 105.147 112.066C105.231 111.92 105.402 111.846 105.566 111.886C105.73 111.926 105.848 112.07 105.854 112.239C105.907 113.625 105.984 115.602 105.984 115.602L104.468 113.26Z" fill="black"/>
<path fill-rule="evenodd" clip-rule="evenodd" d="M103.776 97.627C103.776 97.627 102.936 101.148 98.4776 99.3665C98.4776 99.3665 95.7306 99.2604 93.5518 92.5963L98.064 93.57L98.6616 92.4213C98.6616 92.4213 96.9504 89.844 99.2198 90.0426L99.6764 90.3881C99.6764 90.3881 101.437 90.1455 101.866 88.0929C101.866 88.0929 104.496 90.2834 105.366 89.8754C105.366 89.8754 106.139 94.2439 103.404 94.8617L102.649 96.7254L103.776 97.627Z" fill="white"/>
<path fill-rule="evenodd" clip-rule="evenodd" d="M97.8983 93.3498L98.3714 92.3906C98.4228 92.2864 98.5491 92.2435 98.6533 92.2949C98.7574 92.3463 98.8003 92.4727 98.7489 92.5768L98.202 93.6856C98.1588 93.7732 98.061 93.8196 97.9658 93.7975L93.675 92.9448L93.4814 92.4767L97.8983 93.3498Z" fill="#6451A6"/>
<path fill-rule="evenodd" clip-rule="evenodd" d="M105.111 90.0111C105.111 90.0111 105.066 91.1681 105.02 92.3582C104.988 93.1819 104.55 93.9364 103.851 94.3733C103.153 94.8102 102.283 94.8729 101.528 94.5407C101.347 94.4608 101.174 94.3638 101.015 94.2462C100.922 94.177 100.79 94.1967 100.721 94.2901C100.652 94.3834 100.671 94.5153 100.765 94.5844C100.949 94.7207 101.149 94.8333 101.359 94.9259C102.241 95.3143 103.258 95.241 104.075 94.7302C104.892 94.2195 105.403 93.3375 105.44 92.3745C105.486 91.1844 105.531 90.0274 105.531 90.0274C105.536 89.9114 105.445 89.8135 105.329 89.809C105.213 89.8045 105.115 89.8951 105.111 90.0111Z" fill="#6451A6"/>
<path fill-rule="evenodd" clip-rule="evenodd" d="M103.235 94.786L102.098 97.4714C102.052 97.5784 102.102 97.702 102.209 97.7473C102.316 97.7926 102.44 97.7425 102.485 97.6356L103.623 94.9503C103.668 94.8433 103.618 94.7197 103.511 94.6743C103.404 94.629 103.281 94.679 103.235 94.786Z" fill="#6451A6"/>
<path fill-rule="evenodd" clip-rule="evenodd" d="M102.505 97.0483C102.885 97.2162 103.266 97.4075 103.646 97.6247C103.683 97.646 103.757 97.6936 103.757 97.6936C103.803 97.5277 103.82 97.2753 103.82 97.2753C103.82 97.2753 103.049 96.8283 102.674 96.6632C102.568 96.6163 102.444 96.6645 102.397 96.7709C102.35 96.8771 102.398 97.0015 102.505 97.0483Z" fill="#6451A6"/>
<path fill-rule="evenodd" clip-rule="evenodd" d="M103.127 92.3191C102.873 92.1166 102.58 92.0681 102.365 92.1505C102.2 92.2134 102.068 92.3475 102.015 92.5656C101.987 92.6785 102.057 92.7924 102.169 92.82C102.282 92.8474 102.396 92.7782 102.424 92.6653C102.471 92.4699 102.691 92.5095 102.865 92.6482C102.956 92.7206 103.088 92.7057 103.161 92.6149C103.233 92.524 103.218 92.3915 103.127 92.3191Z" fill="#6451A6"/>
<path fill-rule="evenodd" clip-rule="evenodd" d="M102.015 92.5656C101.948 92.8414 102.048 93.0971 102.232 93.2892C102.4 93.465 102.638 93.5833 102.853 93.612C103.027 93.6352 103.188 93.5998 103.305 93.5111C103.427 93.4189 103.515 93.2671 103.508 93.0318C103.504 92.9088 103.459 92.5833 103.128 92.3191C103.037 92.2467 102.904 92.2616 102.832 92.3524C102.759 92.4432 102.774 92.5757 102.865 92.6482C103.051 92.7967 103.085 92.9752 103.087 93.0443C103.089 93.1058 103.083 93.1513 103.051 93.1754C103.015 93.203 102.963 93.2019 102.908 93.1947C102.779 93.1775 102.637 93.104 102.536 92.9983C102.451 92.9089 102.393 92.7936 102.424 92.6653C102.452 92.5525 102.382 92.4385 102.269 92.411C102.157 92.3835 102.043 92.4527 102.015 92.5656Z" fill="#6451A6"/>
<path fill-rule="evenodd" clip-rule="evenodd" d="M99.0375 92.3207C99.0375 92.3207 98.6562 92.0092 98.4119 91.576C98.1914 91.185 98.0859 90.6829 98.5808 90.2431C98.6465 90.1845 98.728 90.1473 98.815 90.1358C98.9045 90.1235 99.0189 90.1267 99.116 90.2071C99.238 90.3081 99.3237 90.5066 99.3531 90.8564C99.3628 90.9721 99.4646 91.0582 99.5804 91.0484C99.6961 91.0387 99.7822 90.9369 99.7725 90.8211C99.7293 90.3073 99.5637 90.0313 99.3844 89.8829C99.1803 89.7139 98.9435 89.6931 98.7587 89.7186C98.5895 89.7408 98.4295 89.8141 98.301 89.9286C97.6117 90.5411 97.738 91.2379 98.0453 91.7828C98.3287 92.2854 98.7712 92.6467 98.7712 92.6467C98.8612 92.7202 98.994 92.7068 99.0675 92.6168C99.1408 92.5268 99.1275 92.3941 99.0375 92.3207Z" fill="#6451A6"/>
<path fill-rule="evenodd" clip-rule="evenodd" d="M96.1607 71.4361C96.1607 71.4361 99.1684 69.3892 99.2662 69.0947C99.2662 69.0947 99.9593 70.9484 98.2932 72.4733C98.2932 72.4733 98.7328 75.0148 97.6453 76.5678L96.9422 81.5096L79.8569 90.3766L83.9543 90.9165L81.1991 99.7885C81.1991 99.7885 75.9888 98.6168 71.4555 97.5973C67.8176 96.7792 65.5263 93.1732 66.3308 89.5322C66.3309 89.5322 66.3309 89.5321 66.3309 89.532C66.808 87.3729 68.2228 85.5388 70.1901 84.5291C74.8048 82.1609 82.9337 77.9891 82.9337 77.9891L92.5599 73.3892" fill="white"/>
<path fill-rule="evenodd" clip-rule="evenodd" d="M81.441 90.0232L84.1177 90.5062L83.9595 91.0702L80.5603 90.4091C80.4456 90.3864 80.3578 90.2937 80.3416 90.1779C80.3253 90.0622 80.384 89.9489 80.488 89.8955L98.3148 80.7386C98.4496 80.6694 98.6153 80.7226 98.6844 80.8574C98.7537 80.9922 98.7004 81.1578 98.5657 81.227L81.441 90.0232Z" fill="#3768BE"/>
<path fill-rule="evenodd" clip-rule="evenodd" d="M92.7054 73.7058L70.4985 84.4666C67.3995 85.9682 65.7591 89.4205 66.5521 92.7715C66.5521 92.7716 66.5521 92.7716 66.5521 92.7717C67.0842 95.0204 68.8588 96.7645 71.1162 97.2577C76.6526 98.4674 86.1781 100.548 86.1781 100.548L86.075 101.1C86.075 101.1 76.5353 99.0038 70.9991 97.7941C68.5352 97.2558 66.5986 95.3523 66.0178 92.8982C66.0178 92.8981 66.0178 92.898 66.0178 92.898C65.1655 89.2965 66.9286 85.5863 70.2591 83.9724C78.3402 80.0566 92.4711 73.2092 92.4711 73.2092L92.4822 73.2041C95.7519 71.7963 99.0863 68.8878 99.0863 68.8878C99.1442 68.8373 99.2207 68.8134 99.2971 68.8219C99.3736 68.8304 99.4429 68.8706 99.4883 68.9327C99.935 69.5437 99.8666 70.2869 99.5976 70.9601C99.2279 71.8849 98.4901 72.6636 98.4901 72.6636C98.3859 72.7735 98.212 72.7781 98.1021 72.6738C97.9922 72.5695 97.9876 72.3956 98.0918 72.2857C98.0918 72.2857 98.7556 71.587 99.0877 70.7563C99.2492 70.3522 99.338 69.9129 99.1886 69.5203C98.3345 70.2316 95.497 72.5024 92.7054 73.7058Z" fill="#3768BE"/>
<path fill-rule="evenodd" clip-rule="evenodd" d="M101.145 73.7025C101.145 73.7025 98.8306 74.5922 99.457 75.5529L99.9784 75.917C99.9784 75.917 98.3321 77.096 99.6336 77.9456C99.6336 77.9456 97.7877 78.9146 99.1798 79.9085C98.4397 80.0724 98.1482 81.9061 99.2618 81.5569C99.5483 81.467 101.234 80.2424 101.234 80.2424C101.234 80.2424 101.302 79.6222 100.712 79.3811C100.712 79.3811 102.325 77.7545 101.179 77.5783L101.084 77.1298C101.084 77.1298 102.93 75.8469 101.239 75.5193C101.239 75.5193 104.396 73.3839 101.24 72.6078L100.756 72.639L100.634 74.0034" fill="white"/>
<path fill-rule="evenodd" clip-rule="evenodd" d="M102.12 75.7796C101.84 75.3041 101.226 75.1454 100.751 75.4255L99.2552 76.3062C98.7797 76.5863 98.621 77.1997 98.901 77.6752C98.9779 77.8057 99.1464 77.8493 99.2769 77.7724C99.4075 77.6955 99.451 77.5271 99.3741 77.3965C99.2479 77.1822 99.3195 76.9056 99.5339 76.7793L101.029 75.8986C101.244 75.7723 101.52 75.8439 101.647 76.0582C101.723 76.1888 101.892 76.2324 102.022 76.1555C102.153 76.0786 102.197 75.9102 102.12 75.7796Z" fill="#3768BE"/>
<path fill-rule="evenodd" clip-rule="evenodd" d="M98.9011 77.6752C99.1812 78.1507 99.7946 78.3094 100.27 78.0294L101.766 77.1486C102.241 76.8686 102.4 76.2551 102.12 75.7796C102.043 75.6491 101.874 75.6055 101.744 75.6824C101.613 75.7593 101.57 75.9277 101.647 76.0583C101.773 76.2727 101.701 76.5492 101.487 76.6755L99.9915 77.5562C99.7771 77.6825 99.5005 77.611 99.3742 77.3966C99.2973 77.266 99.1289 77.2225 98.9984 77.2994C98.8679 77.3762 98.8242 77.5446 98.9011 77.6752Z" fill="#3768BE"/>
<path fill-rule="evenodd" clip-rule="evenodd" d="M101.007 73.4655L99.5812 74.2991C99.0973 74.5842 98.9359 75.2084 99.2208 75.6922C99.5058 76.1761 100.13 76.3376 100.614 76.0526L102.201 75.1181C102.443 74.9753 103.28 74.2726 102.856 73.3686C102.537 72.6875 101.969 72.5109 101.162 72.4621C101.011 72.453 100.881 72.5683 100.872 72.7196C100.863 72.8708 100.978 73.001 101.129 73.0102C101.702 73.0448 102.133 73.1177 102.359 73.6014C102.481 73.8613 102.414 74.0906 102.303 74.2654C102.178 74.4624 102.001 74.5988 101.922 74.645L100.335 75.5795C100.112 75.7108 99.8251 75.6364 99.6939 75.4136C99.5627 75.1908 99.637 74.9034 99.8598 74.7722C99.8591 74.7727 101.284 73.9396 101.284 73.9396C101.415 73.863 101.459 73.6948 101.383 73.564C101.306 73.4332 101.138 73.3891 101.007 73.4655Z" fill="#3768BE"/>
<path fill-rule="evenodd" clip-rule="evenodd" d="M101.667 77.7589C101.412 77.3022 100.833 77.139 100.377 77.3947L98.771 78.2936C98.3142 78.5493 98.151 79.1277 98.4067 79.5844C98.4807 79.7166 98.6481 79.7639 98.7803 79.6899C98.9126 79.6159 98.9598 79.4484 98.8858 79.3162C98.7781 79.1239 98.8468 78.8803 99.0392 78.7726L100.645 77.8738C100.837 77.7661 101.081 77.8348 101.188 78.0271C101.262 78.1593 101.43 78.2066 101.562 78.1326C101.694 78.0586 101.741 77.8911 101.667 77.7589Z" fill="#3768BE"/>
<path fill-rule="evenodd" clip-rule="evenodd" d="M98.4067 79.5844C98.6623 80.0412 99.2407 80.2044 99.6975 79.9487L101.303 79.0498C101.76 78.7941 101.923 78.2157 101.667 77.759C101.593 77.6268 101.426 77.5795 101.294 77.6535C101.161 77.7275 101.114 77.895 101.188 78.0272C101.296 78.2195 101.227 78.463 101.035 78.5707L99.4293 79.4696C99.2369 79.5773 98.9934 79.5085 98.8857 79.3162C98.8117 79.184 98.6443 79.1368 98.512 79.2108C98.3798 79.2848 98.3326 79.4522 98.4067 79.5844Z" fill="#3768BE"/>
<path fill-rule="evenodd" clip-rule="evenodd" d="M101.385 79.6624C101.155 79.2514 100.634 79.1045 100.223 79.3346L98.6022 80.2421C98.1912 80.4722 98.0443 80.9927 98.2744 81.4037C98.3484 81.5358 98.5159 81.5831 98.6481 81.5091C98.7803 81.4351 98.8275 81.2676 98.7535 81.1354C98.6714 80.9889 98.7238 80.8032 98.8704 80.7212L100.491 79.8137C100.638 79.7316 100.824 79.784 100.906 79.9306C100.98 80.0628 101.147 80.1101 101.279 80.0361C101.411 79.9621 101.459 79.7946 101.385 79.6624Z" fill="#3768BE"/>
<path fill-rule="evenodd" clip-rule="evenodd" d="M98.2748 81.4036C98.5049 81.8146 99.0254 81.9615 99.4364 81.7314L101.057 80.8239C101.468 80.5938 101.615 80.0734 101.385 79.6624C101.311 79.5302 101.144 79.483 101.011 79.557C100.879 79.631 100.832 79.7984 100.906 79.9306C100.988 80.0772 100.936 80.2628 100.789 80.3449L99.1682 81.2523C99.0216 81.3344 98.836 81.282 98.7539 81.1354C98.6799 81.0032 98.5125 80.956 98.3803 81.03C98.2481 81.104 98.2008 81.2714 98.2748 81.4036Z" fill="#3768BE"/>
<path fill-rule="evenodd" clip-rule="evenodd" d="M96.597 78.2123C96.6574 78.1277 96.7049 78.0552 96.7359 78.0033C97.0629 77.4569 97.4784 76.6327 97.7842 75.7502C98.1616 74.661 98.3874 73.4809 98.0108 72.6549C97.948 72.5171 98.0088 72.3541 98.1467 72.2913C98.2845 72.2284 98.4475 72.2892 98.5104 72.4272C98.9362 73.361 98.7296 74.6984 98.303 75.9299C97.9834 76.8524 97.5489 77.714 97.2071 78.2852C97.1702 78.3468 97.1132 78.4327 97.0406 78.5327C97.3023 78.7968 97.4931 79.15 97.6097 79.5253C97.6547 79.6699 97.5737 79.8238 97.429 79.8689C97.2843 79.9138 97.1303 79.8328 97.0853 79.6881C97.0025 79.4214 96.8743 79.1603 96.6958 78.9633C96.4242 79.272 96.0879 79.5865 95.7681 79.7267C95.417 79.8806 95.0814 79.8593 94.8113 79.5715C94.6665 79.4172 94.6109 79.2582 94.6076 79.1072C94.6044 78.9584 94.6545 78.8123 94.7484 78.6784C94.9642 78.3708 95.4397 78.1319 95.7401 78.0891C96.0634 78.0433 96.3495 78.0936 96.597 78.2123ZM96.2372 78.6612C96.1109 78.6228 95.9712 78.6109 95.8173 78.6328C95.658 78.6554 95.4214 78.7656 95.2672 78.9143C95.2091 78.9703 95.1551 79.0272 95.1565 79.0954C95.1573 79.1295 95.1789 79.1609 95.2116 79.1957C95.3581 79.3518 95.5484 79.2458 95.7398 79.1138C95.9139 78.9938 96.0854 78.8295 96.2372 78.6612Z" fill="#3768BE"/>
<path fill-rule="evenodd" clip-rule="evenodd" d="M80.8187 89.6906C80.8187 89.6906 79.4863 90.3773 78.162 91.0599C77.97 91.1588 77.8795 91.3835 77.9491 91.5879C78.0188 91.7923 78.2277 91.9148 78.4402 91.8759C80.6653 91.4686 83.3649 90.9744 83.3649 90.9744L80.8187 89.6906Z" fill="#3768BE"/>
<path fill-rule="evenodd" clip-rule="evenodd" d="M79.8221 143.344C77.0717 132.725 76.3201 126.431 76.3201 126.431C73.9341 107.943 86.5905 110.537 86.5905 110.537L99.5378 116.129C106.9 126.99 111.645 140.891 114.294 150.418C115.006 153.03 114.452 155.825 112.795 157.968C111.137 160.109 108.57 161.348 105.862 161.312L112.519 186.623L96.7395 189.253C91.8561 179.005 88.1008 169.52 85.225 161.187L68.9541 159.495L70.3179 143.056L79.8221 143.344H79.8221Z" fill="#507DD1"/>
<path fill-rule="evenodd" clip-rule="evenodd" d="M94.0774 123.799L105.862 161.312C106.467 161.293 107.775 161.25 108.764 160.836C108.764 160.836 98.4508 136.123 94.8822 123.569C94.7555 123.125 94.5841 122.894 94.2815 122.945C93.981 122.995 93.9506 123.355 94.0774 123.799Z" fill="#3768BE"/>
<path fill-rule="evenodd" clip-rule="evenodd" d="M77.2461 143.266L82.2071 160.873L85.3179 161.457L79.8219 143.344L77.2461 143.266Z" fill="#3768BE"/>
<path fill-rule="evenodd" clip-rule="evenodd" d="M80.7547 126.755C80.7547 127.232 80.4131 127.641 79.9639 127.641C79.5147 127.641 79.1731 127.232 79.1731 126.755C79.1731 126.351 78.8451 126.023 78.441 126.023C78.0369 126.023 77.709 126.351 77.709 126.755C77.709 128.064 78.7319 129.105 79.9639 129.105C81.1959 129.105 82.2189 128.064 82.2189 126.755C82.2189 126.351 81.8909 126.023 81.4868 126.023C81.0828 126.023 80.7547 126.351 80.7547 126.755Z" fill="#5D8E69"/>
<path fill-rule="evenodd" clip-rule="evenodd" d="M79.1731 126.755C79.1731 126.277 79.5147 125.869 79.9639 125.869C80.4131 125.869 80.7547 126.277 80.7547 126.755C80.7547 127.159 81.0828 127.487 81.4868 127.487C81.8909 127.487 82.2189 127.159 82.2189 126.755C82.2189 125.446 81.1959 124.405 79.9639 124.405C78.7319 124.405 77.709 125.446 77.709 126.755C77.709 127.159 78.0369 127.487 78.441 127.487C78.8451 127.487 79.1731 127.159 79.1731 126.755Z" fill="#5D8E69"/>
<path fill-rule="evenodd" clip-rule="evenodd" d="M88.9816 111.57L90.2953 112.137C90.2869 112.18 90.2745 112.222 90.2582 112.264C90.0835 112.708 90.2519 113.213 90.67 113.378C91.088 113.542 91.5555 113.287 91.7301 112.843C91.7399 112.818 91.7508 112.794 91.7629 112.771L93.1032 113.35C93.0999 113.359 93.0965 113.369 93.0927 113.379C92.6137 114.597 91.2807 115.191 90.1341 114.74C88.9876 114.29 88.4166 112.946 88.8956 111.728C88.9181 111.671 88.9472 111.618 88.9816 111.57Z" fill="#5D8E69"/>
<path fill-rule="evenodd" clip-rule="evenodd" d="M76.3436 155.387C76.3436 155.864 76.002 156.273 75.5528 156.273C75.1036 156.273 74.762 155.864 74.762 155.387C74.762 154.983 74.4339 154.655 74.0299 154.655C73.6258 154.655 73.2979 154.983 73.2979 155.387C73.2979 156.696 74.3207 157.737 75.5528 157.737C76.7848 157.737 77.8077 156.696 77.8077 155.387C77.8077 154.983 77.4798 154.655 77.0757 154.655C76.6717 154.655 76.3436 154.983 76.3436 155.387Z" fill="#5D8E69"/>
<path fill-rule="evenodd" clip-rule="evenodd" d="M74.762 155.387C74.762 154.91 75.1036 154.501 75.5528 154.501C76.002 154.501 76.3436 154.91 76.3436 155.387C76.3436 155.791 76.6717 156.119 77.0757 156.119C77.4798 156.119 77.8077 155.791 77.8077 155.387C77.8077 154.078 76.7848 153.037 75.5528 153.037C74.3207 153.037 73.2979 154.078 73.2979 155.387C73.2979 155.791 73.6258 156.119 74.0299 156.119C74.4339 156.119 74.762 155.791 74.762 155.387Z" fill="#5D8E69"/>
<path fill-rule="evenodd" clip-rule="evenodd" d="M97.2933 134.036L97.7496 135.489C97.7062 135.48 97.6613 135.476 97.6154 135.476C97.1662 135.476 96.8245 135.885 96.8245 136.362C96.8245 136.839 97.1662 137.248 97.6154 137.248C97.8558 137.248 98.0654 137.131 98.2084 136.949L98.6754 138.435C98.3582 138.612 97.9968 138.712 97.6154 138.712C96.3833 138.712 95.3604 137.671 95.3604 136.362C95.3604 135.169 96.2101 134.198 97.2933 134.036Z" fill="#5D8E69"/>
<path fill-rule="evenodd" clip-rule="evenodd" d="M91.2372 148.809C91.2372 149.286 90.8956 149.695 90.4464 149.695C89.9971 149.695 89.6555 149.286 89.6555 148.809C89.6555 148.405 89.3275 148.077 88.9235 148.077C88.5194 148.077 88.1914 148.405 88.1914 148.809C88.1914 150.118 89.2143 151.159 90.4464 151.159C91.6783 151.159 92.7013 150.118 92.7013 148.809C92.7013 148.405 92.3733 148.077 91.9692 148.077C91.5652 148.077 91.2372 148.405 91.2372 148.809Z" fill="#5D8E69"/>
<path fill-rule="evenodd" clip-rule="evenodd" d="M89.6555 148.809C89.6555 148.332 89.9971 147.924 90.4464 147.924C90.8956 147.924 91.2372 148.332 91.2372 148.809C91.2372 149.213 91.5652 149.541 91.9692 149.541C92.3733 149.541 92.7013 149.213 92.7013 148.809C92.7013 147.5 91.6783 146.459 90.4464 146.459C89.2143 146.459 88.1914 147.5 88.1914 148.809C88.1914 149.213 88.5194 149.541 88.9235 149.541C89.3275 149.541 89.6555 149.213 89.6555 148.809Z" fill="#5D8E69"/>
<path fill-rule="evenodd" clip-rule="evenodd" d="M89.6555 169.21C89.6555 168.732 89.9971 168.324 90.4464 168.324C90.8956 168.324 91.2372 168.732 91.2372 169.21C91.2372 169.613 91.5652 169.942 91.9692 169.942C92.3733 169.942 92.7013 169.613 92.7013 169.21C92.7013 167.9 91.6783 166.86 90.4464 166.86C89.2143 166.86 88.1914 167.9 88.1914 169.21C88.1914 169.613 88.5194 169.942 88.9235 169.942C89.3275 169.942 89.6555 169.613 89.6555 169.21Z" fill="#5D8E69"/>
<path fill-rule="evenodd" clip-rule="evenodd" d="M91.2372 169.21C91.2372 169.687 90.8956 170.096 90.4464 170.096C89.9971 170.096 89.6555 169.687 89.6555 169.21C89.6555 168.805 89.3275 168.478 88.9235 168.478C88.5194 168.478 88.1914 168.805 88.1914 169.21C88.1914 170.518 89.2143 171.56 90.4464 171.56C91.6783 171.56 92.7013 170.518 92.7013 169.21C92.7013 168.805 92.3733 168.478 91.9692 168.478C91.5652 168.478 91.2372 168.805 91.2372 169.21Z" fill="#5D8E69"/>
<path fill-rule="evenodd" clip-rule="evenodd" d="M107.912 182.922C107.912 182.444 108.254 182.036 108.703 182.036C109.152 182.036 109.494 182.444 109.494 182.922C109.494 183.325 109.822 183.654 110.226 183.654C110.63 183.654 110.958 183.325 110.958 182.922C110.958 181.612 109.935 180.572 108.703 180.572C107.471 180.572 106.448 181.612 106.448 182.922C106.448 183.325 106.776 183.654 107.18 183.654C107.584 183.654 107.912 183.325 107.912 182.922Z" fill="#5D8E69"/>
<path fill-rule="evenodd" clip-rule="evenodd" d="M109.494 182.922C109.494 183.399 109.152 183.808 108.703 183.808C108.254 183.808 107.912 183.399 107.912 182.922C107.912 182.518 107.584 182.19 107.18 182.19C106.776 182.19 106.448 182.518 106.448 182.922C106.448 184.231 107.471 185.272 108.703 185.272C109.935 185.272 110.958 184.231 110.958 182.922C110.958 182.518 110.63 182.19 110.226 182.19C109.822 182.19 109.494 182.518 109.494 182.922Z" fill="#5D8E69"/>
<path fill-rule="evenodd" clip-rule="evenodd" d="M110.958 155.387C110.958 154.91 111.3 154.501 111.749 154.501C112.198 154.501 112.54 154.91 112.54 155.387C112.54 155.791 112.868 156.119 113.272 156.119C113.676 156.119 114.004 155.791 114.004 155.387C114.004 154.078 112.981 153.037 111.749 153.037C110.517 153.037 109.494 154.078 109.494 155.387C109.494 155.791 109.822 156.119 110.226 156.119C110.63 156.119 110.958 155.791 110.958 155.387Z" fill="#5D8E69"/>
<path fill-rule="evenodd" clip-rule="evenodd" d="M112.54 155.387C112.54 155.864 112.198 156.273 111.749 156.273C111.3 156.273 110.958 155.864 110.958 155.387C110.958 154.983 110.63 154.655 110.226 154.655C109.822 154.655 109.494 154.983 109.494 155.387C109.494 156.696 110.517 157.737 111.749 157.737C112.981 157.737 114.004 156.696 114.004 155.387C114.004 154.983 113.676 154.655 113.272 154.655C112.868 154.655 112.54 154.983 112.54 155.387Z" fill="#5D8E69"/>
<path fill-rule="evenodd" clip-rule="evenodd" d="M108.958 134.476L109.526 135.91C109.331 136.075 109.177 136.276 109.184 136.52C109.186 136.587 109.198 136.655 109.22 136.723C109.329 137.056 109.678 137.245 110.031 137.242L110.571 138.712C109.398 138.978 108.19 138.28 107.829 137.18C107.488 136.141 107.977 135.005 108.958 134.476Z" fill="#5D8E69"/>
<path fill-rule="evenodd" clip-rule="evenodd" d="M93.5167 182.225C94.6275 182.471 95.9986 182.975 97.2683 183.996C98.4925 184.982 99.6362 186.45 100.341 188.653L98.8766 188.897C98.2762 187.144 97.3574 185.947 96.3504 185.137C95.6759 184.595 94.9676 184.226 94.3034 183.976L93.5167 182.225ZM100.03 181.867C100.03 181.867 99.3591 179.257 100.747 176.658C101.696 174.88 103.608 173.139 107.277 172.17C107.668 172.066 107.901 171.665 107.798 171.275C107.695 170.884 107.294 170.651 106.903 170.754C102.694 171.866 100.544 173.929 99.4553 175.968C97.7864 179.094 98.6127 182.236 98.6127 182.236C98.7145 182.626 99.1145 182.861 99.5055 182.76C99.8966 182.658 100.131 182.258 100.03 181.867ZM84.6619 159.253C85.7598 158.954 87.9053 158.594 90.2193 159.421C92.3962 160.199 94.7519 162.022 96.4688 166.024C96.6281 166.395 96.4559 166.826 96.0846 166.985C95.7134 167.144 95.2825 166.972 95.1232 166.601C93.6269 163.114 91.6237 161.478 89.7264 160.799C87.7965 160.11 86.0075 160.405 85.0971 160.65L84.6619 159.253ZM105.529 160.252L106.022 161.921C105.274 162.658 104.328 163.51 103.196 164.208C102.852 164.42 102.401 164.313 102.189 163.969C101.977 163.626 102.084 163.174 102.428 162.962C103.764 162.139 104.776 161.12 105.529 160.252ZM71.9167 150.24C71.9167 150.24 74.544 149.641 77.1042 151.099C78.8549 152.096 80.5438 154.056 81.4124 157.749C81.5049 158.142 81.8993 158.387 82.2926 158.294C82.6859 158.202 82.9301 157.808 82.8376 157.414C81.8411 153.176 79.8376 150.971 77.8288 149.827C74.7497 148.073 71.5868 148.813 71.5868 148.813C71.1931 148.905 70.9474 149.298 71.0385 149.692C71.1295 150.085 71.523 150.331 71.9167 150.24ZM96.058 144.431C96.058 144.431 98.1513 146.127 98.5852 149.042C98.8818 151.034 98.3837 153.573 96.0143 156.536C95.762 156.852 95.8135 157.313 96.1291 157.566C96.4447 157.818 96.9057 157.766 97.158 157.451C99.8764 154.05 100.374 151.113 100.033 148.826C99.5116 145.321 96.9763 143.291 96.9763 143.291C96.6617 143.037 96.2004 143.087 95.947 143.401C95.6935 143.716 95.7433 144.177 96.058 144.431ZM104.37 149.98C104.997 149.38 105.738 148.783 106.61 148.2C106.945 147.976 107.4 148.066 107.625 148.402C107.85 148.738 107.759 149.193 107.423 149.418C106.419 150.089 105.609 150.776 104.96 151.466L104.37 149.98ZM72.6272 143.148L74.5658 143.201C76.3402 145.023 78.5563 145.383 78.5563 145.383C78.9554 145.446 79.2278 145.821 79.1643 146.221C79.1009 146.62 78.7254 146.892 78.3264 146.828C78.3264 146.828 75.117 146.327 72.922 143.545C72.8216 143.417 72.7232 143.285 72.6272 143.148ZM112.856 145.57C112.312 145.653 111.73 145.692 111.115 145.661C108.806 145.547 106.023 144.485 103.22 141.154C102.96 140.845 103 140.383 103.309 140.122C103.618 139.862 104.08 139.902 104.34 140.211C106.783 143.114 109.175 144.1 111.187 144.198C111.615 144.219 112.025 144.201 112.412 144.154L112.856 145.57ZM78.1481 136.374C79.1485 136.415 80.4474 136.509 81.6322 137.047C83.7371 138.002 85.9336 140.016 87.3131 144.144C87.4411 144.528 87.234 144.943 86.8507 145.071C86.4675 145.199 86.0524 144.992 85.9244 144.608C84.7221 141.009 82.8613 139.213 81.0268 138.379C80.1821 137.996 79.2113 137.859 78.4667 137.792L78.1481 136.374ZM94.8193 126.162L95.2593 127.562C93.8046 127.963 92.7166 128.629 91.9064 129.399C89.7703 131.428 89.5842 134.116 89.5842 134.116C89.5576 134.52 89.2087 134.825 88.8055 134.799C88.4024 134.772 88.0967 134.423 88.1233 134.02C88.1233 134.02 88.3289 130.778 90.8978 128.337C91.8436 127.439 93.1122 126.639 94.8193 126.162ZM102.317 120.572L103.115 121.98L103.125 121.999C101.836 124.047 101.506 125.877 101.657 127.41C101.945 130.343 103.951 132.142 103.951 132.142C104.252 132.41 104.279 132.874 104.01 133.175C103.741 133.477 103.278 133.504 102.977 133.235C102.977 133.235 100.546 131.081 100.199 127.554C100.008 125.609 100.438 123.23 102.317 120.572ZM78.5278 113.328C79.4817 113.492 80.5603 113.825 81.6216 114.463C83.6031 115.653 85.5548 117.904 86.4523 122.165C86.5356 122.56 86.2823 122.949 85.8869 123.032C85.4915 123.115 85.1029 122.862 85.0196 122.466C84.2373 118.753 82.5946 116.756 80.8675 115.718C79.7201 115.028 78.549 114.763 77.6125 114.679C77.9549 114.066 78.2777 113.625 78.5278 113.328ZM99.5684 116.174L99.9001 116.676C99.5134 117.189 99.0443 117.699 98.4761 118.166C96.691 119.636 93.9169 120.721 89.6017 120.142C89.2013 120.088 88.9199 119.719 88.9737 119.319C89.0274 118.918 89.3963 118.637 89.7967 118.691C93.5575 119.196 95.9899 118.316 97.5456 117.036C98.0186 116.647 98.4096 116.223 98.732 115.796L99.5684 116.174Z" fill="#F2BBBB"/>
<path fill-rule="evenodd" clip-rule="evenodd" d="M108.623 117.648C108.623 117.648 112.868 125.851 120.047 122.912C120.047 122.912 123.562 122.557 124.936 116.74L128.133 90.5201C128.133 90.5201 127.949 90.3509 127.418 90.7594C126.888 91.1681 127.468 90.4291 127.468 90.4291L127.418 90.7594C127.418 90.7594 128.293 86.4218 128.556 85.7197L128.952 84.4121C128.952 84.4121 128.629 83.1925 125.989 86.7722L123.629 93.0272L115.612 113.729L114.01 111.26L113.729 111.406L108.623 117.648Z" fill="white"/>
<path fill-rule="evenodd" clip-rule="evenodd" d="M117.226 116.679C117.306 116.803 117.462 116.856 117.601 116.805C117.739 116.754 117.824 116.614 117.805 116.467C117.516 114.287 116.992 110.32 116.992 110.32L115.508 114.009C115.508 114.009 116.497 115.546 117.226 116.679Z" fill="#3768BE"/>
<path fill-rule="evenodd" clip-rule="evenodd" d="M113.699 111.359L116.608 115.684C116.692 115.811 116.862 115.846 116.988 115.763C117.115 115.68 117.15 115.51 117.068 115.383L114.072 110.915L113.699 111.359Z" fill="#3768BE"/>
<path fill-rule="evenodd" clip-rule="evenodd" d="M127.872 90.6741C127.716 90.7036 127.557 90.8218 127.381 91.0204C127.296 91.1177 127.153 91.1415 127.04 91.0773C126.927 91.013 126.874 90.8783 126.914 90.7546C126.914 90.7546 127.903 87.6791 128.451 85.9757C128.473 85.9061 128.445 85.8301 128.382 85.7917C128.32 85.7534 128.24 85.7623 128.189 85.8123C126.91 87.0863 125.33 90.0744 123.737 93.6274C119.982 101.998 116.185 113.499 116.185 113.499C116.138 113.643 115.983 113.721 115.838 113.673C115.695 113.626 115.617 113.471 115.664 113.327C115.664 113.327 119.471 101.796 123.236 93.4027C124.865 89.771 126.494 86.7255 127.803 85.4219C128.035 85.1936 128.393 85.1534 128.671 85.3245C128.948 85.4955 129.073 85.8336 128.973 86.1437L127.684 90.1537C127.888 90.0946 128.085 90.1073 128.273 90.1753C128.395 90.2191 128.47 90.3418 128.453 90.4699C128.453 90.4699 126.092 108.109 124.814 117.648C124.339 121.202 121.322 123.865 117.736 123.897C114.737 123.923 111.885 122.596 109.975 120.283C109.204 119.35 108.222 118.145 108.222 118.145L108.623 117.648C108.623 117.648 109.409 118.737 110.398 119.934C112.204 122.118 114.898 123.373 117.732 123.348C121.044 123.319 123.831 120.858 124.27 117.575L127.872 90.6741Z" fill="#3768BE"/>
<path fill-rule="evenodd" clip-rule="evenodd" d="M127.894 84.19C128.09 83.8816 128.478 83.7535 128.82 83.8883C129.172 84.0269 129.37 84.4017 129.286 84.7704C129.111 85.5381 128.973 86.1436 128.973 86.1436C128.939 86.2914 128.791 86.3839 128.644 86.3502C128.496 86.3165 128.403 86.1693 128.437 86.0215C128.437 86.0215 128.575 85.416 128.75 84.6483C128.774 84.5442 128.718 84.4383 128.618 84.3992C128.52 84.36 128.406 84.3993 128.353 84.4917C128.352 84.492 128.352 84.4921 128.352 84.4921C128.343 84.508 128.333 84.5229 128.32 84.5365C128.32 84.5365 127.153 85.852 126.501 86.5863C126.245 86.8744 126.054 87.2138 125.94 87.5817C125.558 88.8146 124.735 91.4716 124.735 91.4716C124.69 91.6164 124.536 91.6975 124.392 91.6527C124.247 91.6079 124.166 91.454 124.211 91.3092C124.211 91.3092 125.033 88.6522 125.415 87.4193C125.552 86.9766 125.783 86.5684 126.09 86.2218L127.894 84.19Z" fill="#3768BE"/>
<path fill-rule="evenodd" clip-rule="evenodd" d="M125.564 94.5086C125.564 94.5086 126.439 92.069 127.289 91.1186C127.38 91.0158 127.471 90.9321 127.559 90.8777C127.612 90.846 127.66 90.8223 127.71 90.827C127.776 90.8333 127.826 90.894 127.883 90.9846C127.963 91.113 128.132 91.1518 128.26 91.0712C128.389 90.9906 128.428 90.8211 128.347 90.6928C128.174 90.4151 127.967 90.2998 127.761 90.2804C127.491 90.2547 127.177 90.4199 126.88 90.7526C125.983 91.7551 125.048 94.3219 125.048 94.3219C124.996 94.4644 125.07 94.6219 125.212 94.6734C125.355 94.7249 125.512 94.651 125.564 94.5086Z" fill="#3768BE"/>
<path fill-rule="evenodd" clip-rule="evenodd" d="M70.2602 143.211L66.562 142.944L61.1221 163.898C61.1221 163.898 63.4011 164.242 64.8762 159.269L69.0005 159.451L70.2602 143.211Z" fill="white"/>
<path fill-rule="evenodd" clip-rule="evenodd" d="M97.29 189.228L98.2143 191.648L118.338 192.197C118.338 192.197 116.513 189.396 112.958 188.957L111.788 186.741L97.29 189.228Z" fill="white"/>
<path fill-rule="evenodd" clip-rule="evenodd" d="M65.0658 159.177C64.2149 161.282 63.3805 163.076 62.6955 163.696C61.5061 164.774 60.6677 164.384 60.6677 164.384C60.5395 164.331 60.471 164.191 60.5081 164.058L66.2972 143.146C66.3301 143.027 66.4383 142.945 66.5618 142.945L70.318 143.057L70.2724 143.606L66.7706 143.494L61.1219 163.898C61.2967 163.888 61.5578 163.831 61.8804 163.63C62.6149 163.175 63.5958 161.409 64.6266 158.797C64.6689 158.689 64.774 158.619 64.8894 158.623L69.0269 158.97L69.0058 159.524L65.0658 159.177Z" fill="#88C9D4"/>
<path fill-rule="evenodd" clip-rule="evenodd" d="M117.683 191.648C117.279 191.266 116.629 190.711 115.836 190.259C114.955 189.756 113.897 189.374 112.81 189.525C112.681 189.543 112.557 189.468 112.513 189.346L111.608 186.763L112.197 186.649L112.958 188.957C114.09 188.864 115.188 189.257 116.109 189.782C117.546 190.603 118.545 191.741 118.545 191.741C118.615 191.822 118.633 191.937 118.589 192.036C118.544 192.134 118.446 192.197 118.338 192.197H98.0274C97.9149 192.197 97.8137 192.128 97.7722 192.023L96.7393 189.253L97.2329 189.171L98.214 191.648H117.683Z" fill="#88C9D4"/>
<path fill-rule="evenodd" clip-rule="evenodd" d="M160.113 61.5282C152.552 61.3367 146.103 61.5149 139.077 61.5282L139.666 76.4632H160.972L160.113 61.5282Z" fill="#6451A6"/>
<path fill-rule="evenodd" clip-rule="evenodd" d="M160.113 61.5282C153.199 61.3939 146.131 61.4708 139.077 61.5282L139.158 63.5683L160.227 63.5089L160.113 61.5282Z" fill="#D92B2B"/>
<path fill-rule="evenodd" clip-rule="evenodd" d="M160.227 63.5089L139.157 63.5683L139.245 65.8026L160.361 65.8523L160.227 63.5089Z" fill="#F28F38"/>
<path fill-rule="evenodd" clip-rule="evenodd" d="M160.495 68.1678H139.338L139.245 65.8026L160.389 65.8524L160.495 68.1678Z" fill="#FFD274"/>
<path fill-rule="evenodd" clip-rule="evenodd" d="M160.486 68.0798L139.339 68.1678L139.437 70.6387L160.62 70.3413L160.486 68.0798Z" fill="#5D8E69"/>
<path fill-rule="evenodd" clip-rule="evenodd" d="M160.62 70.3413L160.867 73.1258L139.561 73.7795L139.437 70.6387L160.62 70.3413Z" fill="#507DD1"/>
<path fill-rule="evenodd" clip-rule="evenodd" d="M160.337 61.8428L162.204 90.2958C162.212 90.4116 162.124 90.5119 162.008 90.5196C161.892 90.5272 161.792 90.4392 161.785 90.3233L159.903 61.6603C159.896 61.5443 159.984 61.4442 160.1 61.4365L161.903 61.3182C162.019 61.3106 162.119 61.3985 162.127 61.5144C162.134 61.6303 162.046 61.7306 161.93 61.7382L160.337 61.8428Z" fill="#3768BE"/>
<path fill-rule="evenodd" clip-rule="evenodd" d="M163.574 89.995L161.707 61.542C161.699 61.426 161.787 61.3258 161.903 61.3182C162.019 61.3106 162.119 61.3985 162.127 61.5144L164.008 90.1774C164.015 90.2934 163.927 90.3936 163.812 90.4012L162.008 90.5196C161.892 90.5272 161.792 90.4392 161.785 90.3233C161.777 90.2074 161.865 90.1071 161.981 90.0995L163.574 89.995Z" fill="#3768BE"/>
<path fill-rule="evenodd" clip-rule="evenodd" d="M126.209 150.736L102.018 170.307C100.229 169.127 98.3061 168.386 96.8291 169.558L108.578 182.809L134.3 165.602L150.367 188.098C147.768 188.409 145.84 189.124 145.498 190.799H167.88C161.111 179.046 153.986 167.552 146.553 156.282L164.232 140.683C173.666 129.157 168.626 120.823 161.449 119.487C164.353 117.155 166.13 114.382 167.312 111.376C167.312 111.376 183.13 111.394 183.778 110.724C184.06 110.432 184.223 109.803 184.609 109.864C193.365 111.25 191.327 102.928 191.327 102.928L173.094 85.1777L167.485 92.3631L176.34 100.818L163.245 101.261C160.942 101.513 158.894 101.853 157.417 102.39L156.363 99.587C156.363 99.587 159.122 98.2241 157.208 96.7442C156.998 96.5822 156.592 97.2462 156.592 97.2462L156.336 95.8785C156.061 93.7002 154.707 93.1478 152.952 93.1993C150.098 88.6792 147.007 84.2909 143.689 80.0272C141.364 81.9833 139.593 84.0739 138.017 86.2116L151.542 93.502C149.756 94.1126 149.54 95.4514 149.743 96.9846C149.823 98.2547 149.742 100.172 151.542 101.104V103.415C143.47 104.753 139.603 108.122 135.236 112.819C135.236 112.819 134.884 105.005 134.497 99.5286C134.392 98.0353 134.206 95.7664 133.963 94.0268C133.811 92.9477 134.542 90.0982 134.089 89.2606C133.054 87.3458 132.137 86.2344 131.424 85.1777C130.497 83.8033 129.639 83.5727 129.304 83.7206L129.718 89.5184L128.599 88.9118L127.027 101.261C126.002 112.053 121.52 133.998 145.391 115.332C146.528 117.911 148.056 119.852 150.476 120.334C143.887 123.935 138.524 129.656 133.091 135.257C127.006 142.516 125.726 146.868 126.209 150.736Z" fill="white"/>
<path fill-rule="evenodd" clip-rule="evenodd" d="M127.027 101.26L135.015 99.4084L135.407 112.459C135.407 112.459 142.393 104.634 148.962 103.945C149.114 103.929 149.224 103.888 149.38 103.884C149.38 103.884 155.847 108.062 162.11 101.26L176.34 100.818L166.812 92.6015L172.854 84.9563C172.854 84.9563 185.045 96.2178 190.347 101.115C191.854 102.508 192.566 104.562 192.242 106.589V106.589C191.887 108.813 190.013 110.477 187.763 110.566C180.901 110.837 167.312 111.376 167.312 111.376C167.312 111.376 165.409 117.187 161.449 119.487C161.449 119.487 161.576 119.502 161.797 119.53C165.913 120.041 169.156 123.283 169.668 127.399C170.102 130.887 169.13 134.403 166.969 137.174C165.554 138.987 164.232 140.683 164.232 140.683C164.232 140.683 162.8 135.159 157.951 135.415L133.091 135.257C133.091 135.257 143.849 122.975 150.476 120.333C150.476 120.333 146.399 119.444 145.391 115.332C145.391 115.332 140.198 119.458 137.042 121.966C135.513 123.182 133.605 123.82 131.652 123.771C131.651 123.771 131.651 123.771 131.651 123.771C129.646 123.72 127.759 122.812 126.467 121.277C125.176 119.743 124.604 117.728 124.896 115.744C125.842 109.314 127.027 101.26 127.027 101.26Z" fill="#F28F38"/>
<path fill-rule="evenodd" clip-rule="evenodd" d="M164.74 120.433C165.13 120.597 165.615 120.905 166.156 121.316C165.198 121.699 163.934 122.436 163.225 123.791C162.689 124.817 162.494 126.194 162.958 128.03C163.057 128.421 162.82 128.819 162.428 128.919C162.037 129.018 161.638 128.78 161.539 128.388C160.96 126.102 161.26 124.39 161.928 123.113C162.601 121.825 163.74 120.983 164.74 120.433Z" fill="#FCD8C8"/>
<path fill-rule="evenodd" clip-rule="evenodd" d="M169.745 128.084C167.671 128.246 165.92 127.483 165.92 127.482C165.549 127.32 165.382 126.888 165.545 126.518C165.708 126.148 166.14 125.98 166.509 126.143C166.509 126.143 167.896 126.762 169.542 126.647C169.61 127.004 169.723 127.652 169.745 128.084Z" fill="#FCD8C8"/>
<path fill-rule="evenodd" clip-rule="evenodd" d="M161.137 136.232C161.735 136.166 162.36 135.996 162.958 135.661C163.967 135.096 164.884 134.049 165.499 132.259C165.631 131.877 166.047 131.673 166.429 131.804C166.811 131.935 167.015 132.353 166.884 132.734C166.117 134.965 164.931 136.234 163.673 136.938C163.284 137.157 162.885 137.32 162.487 137.438C161.946 136.858 161.415 136.437 161.137 136.232Z" fill="#FCD8C8"/>
<path fill-rule="evenodd" clip-rule="evenodd" d="M157.324 130.03C157.324 130.03 154.824 127.229 151.457 127.495C150.021 127.609 148.412 128.265 146.783 129.971C146.504 130.263 146.514 130.727 146.806 131.006C147.099 131.285 147.562 131.274 147.841 130.982C149.149 129.613 150.419 129.046 151.573 128.955C154.251 128.743 156.228 131.001 156.228 131.001C156.496 131.304 156.958 131.332 157.261 131.064C157.564 130.796 157.592 130.333 157.324 130.03Z" fill="#FCD8C8"/>
<path fill-rule="evenodd" clip-rule="evenodd" d="M148.056 121.605C149.659 122.362 150.671 123.496 150.671 123.496C150.94 123.799 150.911 124.261 150.608 124.53C150.305 124.798 149.842 124.768 149.575 124.466C149.575 124.466 148.375 123.096 146.58 122.591C146.99 122.311 147.566 121.922 148.056 121.605Z" fill="#FCD8C8"/>
<path fill-rule="evenodd" clip-rule="evenodd" d="M156.125 121.518C156.102 121.921 155.757 122.231 155.353 122.208C154.95 122.186 154.641 121.841 154.663 121.437C154.663 121.437 154.845 118.442 152.792 116.709C151.907 115.963 150.605 115.473 148.713 115.527C148.309 115.539 147.972 115.221 147.96 114.817C147.948 114.413 148.267 114.075 148.671 114.064C151.029 113.997 152.634 114.661 153.735 115.59C156.317 117.767 156.125 121.518 156.125 121.518Z" fill="#FCD8C8"/>
<path fill-rule="evenodd" clip-rule="evenodd" d="M158.024 115.515C157.625 115.576 157.251 115.302 157.189 114.902C157.128 114.503 157.402 114.129 157.801 114.067C157.801 114.067 160.77 113.627 162.04 111.26C162.588 110.24 162.798 108.865 162.354 107.025C162.26 106.632 162.501 106.237 162.894 106.141C163.287 106.047 163.683 106.289 163.778 106.682C164.331 108.975 164.012 110.683 163.33 111.952C161.733 114.928 158.024 115.514 158.024 115.515Z" fill="#FCD8C8"/>
<path fill-rule="evenodd" clip-rule="evenodd" d="M186.56 97.6168L187.633 98.6078C187.34 99.0206 187.094 99.4966 186.938 100.04C186.621 101.153 186.707 102.541 187.532 104.245C187.709 104.608 187.556 105.047 187.193 105.223C186.829 105.399 186.391 105.247 186.215 104.883C185.187 102.76 185.135 101.024 185.53 99.6378C185.753 98.8578 186.124 98.1867 186.56 97.6168Z" fill="#FCD8C8"/>
<path fill-rule="evenodd" clip-rule="evenodd" d="M180.033 103.607C179.959 104.005 179.576 104.267 179.179 104.193C178.782 104.119 178.52 103.736 178.594 103.339C178.594 103.339 179.16 100.392 177.347 98.4099C176.566 97.5559 175.338 96.9027 173.454 96.7124C173.052 96.6716 172.759 96.313 172.799 95.9108C172.839 95.5089 173.199 95.2151 173.601 95.2559C175.948 95.4927 177.454 96.3579 178.427 97.4216C180.706 99.9129 180.033 103.607 180.033 103.607Z" fill="#FCD8C8"/>
<path fill-rule="evenodd" clip-rule="evenodd" d="M168.024 101.073C168.061 101.095 168.134 101.129 168.172 101.149C169.192 101.696 170.567 101.906 172.408 101.462C172.8 101.367 173.197 101.609 173.291 102.001C173.386 102.394 173.144 102.79 172.751 102.885C170.459 103.438 168.75 103.121 167.48 102.439C166.838 102.095 166.315 101.627 165.877 101.143L168.024 101.073Z" fill="#FCD8C8"/>
<path fill-rule="evenodd" clip-rule="evenodd" d="M152.559 105.021C152.952 105.076 153.557 105.144 154.21 105.152C154.137 105.249 154.067 105.35 154.001 105.455C153.381 106.432 153.072 107.788 153.381 109.656C153.447 110.055 153.177 110.432 152.779 110.498C152.38 110.564 152.003 110.294 151.937 109.896C151.587 107.784 151.918 106.205 152.559 105.021ZM153.97 103.3L153.793 103.455C153.851 103.402 153.91 103.351 153.97 103.3Z" fill="#FCD8C8"/>
<path fill-rule="evenodd" clip-rule="evenodd" d="M141.889 106.845C142.555 107.455 143.461 108.037 144.595 108.21C145.739 108.384 147.104 108.123 148.691 107.089C149.029 106.868 149.483 106.964 149.704 107.302C149.924 107.641 149.829 108.095 149.49 108.315C147.514 109.603 145.798 109.875 144.373 109.657C142.786 109.415 141.547 108.541 140.685 107.691C140.989 107.474 141.477 107.128 141.889 106.845Z" fill="#FCD8C8"/>
<path fill-rule="evenodd" clip-rule="evenodd" d="M139.324 120.153C138.966 119.363 138.8 118.603 138.767 117.889C138.609 114.516 141.49 112.107 141.49 112.107C141.801 111.849 142.263 111.892 142.521 112.204C142.779 112.515 142.736 112.977 142.425 113.234C142.425 113.234 140.103 115.137 140.229 117.821C140.25 118.264 140.34 118.726 140.518 119.204L139.324 120.153Z" fill="#FCD8C8"/>
<path fill-rule="evenodd" clip-rule="evenodd" d="M126.179 120.924C127.311 119.599 128.508 118.792 129.662 118.503C132.938 117.683 135.868 120.034 135.868 120.034C136.181 120.288 136.23 120.749 135.976 121.063C135.722 121.377 135.261 121.426 134.946 121.172C134.946 121.172 132.624 119.271 130.017 119.923C129.054 120.164 128.169 120.899 127.235 122.056C126.834 121.692 126.574 121.445 126.179 120.924Z" fill="#FCD8C8"/>
<path fill-rule="evenodd" clip-rule="evenodd" d="M126.428 105.333C127.168 105.969 127.671 106.667 128.008 107.375C129.456 110.425 127.73 113.759 127.73 113.76C127.542 114.118 127.099 114.256 126.741 114.069C126.383 113.882 126.244 113.439 126.432 113.081C126.432 113.081 127.837 110.429 126.685 108.003C126.548 107.716 126.375 107.433 126.16 107.159L126.428 105.333Z" fill="#FCD8C8"/>
<path fill-rule="evenodd" clip-rule="evenodd" d="M135.185 105.055C132.638 105.666 130.023 104.851 130.023 104.851C129.638 104.729 129.425 104.317 129.547 103.932C129.67 103.547 130.082 103.334 130.467 103.456C130.467 103.456 132.941 104.264 135.14 103.554L135.185 105.055Z" fill="#FCD8C8"/>
<path fill-rule="evenodd" clip-rule="evenodd" d="M142.288 135.31C142.252 135.263 142.217 135.214 142.183 135.166C140.245 132.4 141.391 128.824 141.391 128.823C141.515 128.44 141.929 128.228 142.313 128.354C142.698 128.478 142.908 128.892 142.783 129.276C142.783 129.276 141.84 132.126 143.382 134.325C143.633 134.683 143.951 135.022 144.349 135.327L142.288 135.31Z" fill="#FCD8C8"/>
<path fill-rule="evenodd" clip-rule="evenodd" d="M171.282 86.9463C171.59 87.5262 172.008 88.1051 172.542 88.6028C173.579 89.5709 175.105 90.2617 177.33 90.3155C177.733 90.3253 178.053 90.6612 178.043 91.0651C178.033 91.469 177.698 91.789 177.294 91.7792C174.616 91.7144 172.792 90.8393 171.543 89.6731C171.05 89.2135 170.632 88.7119 170.303 88.185L171.282 86.9463Z" fill="#FCD8C8"/>
<path fill-rule="evenodd" clip-rule="evenodd" d="M180.822 110.841C182.102 108.927 183.543 108.012 184.915 107.645C187.873 106.855 190.603 108.661 191.084 109.007C190.591 109.551 190.149 109.819 189.875 109.975C189.116 109.491 187.275 108.53 185.293 109.06C184.43 109.29 183.55 109.812 182.716 110.766L180.822 110.841Z" fill="#FCD8C8"/>
<path fill-rule="evenodd" clip-rule="evenodd" d="M174.689 111.083C174.464 110.342 174.074 109.563 173.408 108.917C172.578 108.111 171.314 107.531 169.421 107.454C169.018 107.437 168.704 107.096 168.72 106.692C168.737 106.289 169.078 105.974 169.482 105.991C171.839 106.088 173.394 106.862 174.428 107.866C175.399 108.807 175.907 109.969 176.17 111.025L174.689 111.083Z" fill="#FCD8C8"/>
<path fill-rule="evenodd" clip-rule="evenodd" d="M135.406 112.459C135.406 112.459 135.493 114.223 135.571 115.791C135.581 115.993 135.735 116.158 135.935 116.183C136.136 116.208 136.325 116.085 136.384 115.891C137.155 113.358 138.291 109.624 138.291 109.624L135.406 112.459Z" fill="#D92B2B"/>
<path fill-rule="evenodd" clip-rule="evenodd" d="M176.34 100.818C176.34 100.818 179.592 103.264 181.957 105.043C182.072 105.129 182.102 105.289 182.026 105.411C181.951 105.533 181.794 105.578 181.666 105.514C178.171 103.777 172.527 100.972 172.527 100.972L176.34 100.818Z" fill="#D92B2B"/>
<path fill-rule="evenodd" clip-rule="evenodd" d="M167.312 111.376C167.312 111.376 167.432 110.688 167.452 109.593C167.46 109.373 167.603 109.18 167.812 109.11C168.022 109.04 168.252 109.107 168.39 109.279C168.894 109.9 169.434 110.67 169.589 111.267C169.59 111.272 169.589 111.276 169.586 111.28C169.584 111.284 169.579 111.286 169.575 111.286C169.358 111.295 167.312 111.376 167.312 111.376Z" fill="#D92B2B"/>
<path fill-rule="evenodd" clip-rule="evenodd" d="M145.391 115.332C145.391 115.332 145.265 114.806 145.271 114.036C145.27 113.88 145.167 113.742 145.017 113.697C144.867 113.651 144.705 113.709 144.618 113.839C144.097 114.618 143.521 115.733 143.59 116.763L145.391 115.332Z" fill="#D92B2B"/>
<path fill-rule="evenodd" clip-rule="evenodd" d="M163.271 76.225C163.271 76.225 161.859 77.3049 163.729 79.8955L163.271 76.225Z" fill="white"/>
<path fill-rule="evenodd" clip-rule="evenodd" d="M161.094 79.7135C161.094 79.7135 158.753 79.4478 159.158 81.2694L159.795 82.0484L160.267 82.4294C160.267 82.4294 158.76 82.8442 159.795 84.0153L160.385 84.4918C160.385 84.4918 158.455 84.6695 160.267 86.1848L160.771 86.575C160.771 86.575 158.886 86.4205 159.795 87.6255L161.688 88.9118L162.09 88.329L161.302 87.1885L162.316 86.7249C162.194 86.5168 162.306 86.2431 162.097 86.0127C161.79 85.6746 161.197 85.3945 161.497 85.2628C161.769 85.1435 162.228 84.7291 162.122 84.3092C162 83.8278 161.288 83.3426 161.288 83.3426C161.717 83.3857 162.265 82.8181 162.128 82.249C162.003 81.7268 161.208 81.2005 161.208 81.2005L161.094 79.7135Z" fill="white"/>
<path fill-rule="evenodd" clip-rule="evenodd" d="M161.779 84.6869C161.622 84.8803 161.338 84.9103 161.145 84.7538L159.795 83.6622C159.678 83.5669 159.505 83.5852 159.409 83.703C159.314 83.8208 159.332 83.9938 159.45 84.0891L160.799 85.1807C161.228 85.5278 161.858 85.4612 162.206 85.0322C162.301 84.9144 162.282 84.7414 162.165 84.6461C162.047 84.5508 161.874 84.5691 161.779 84.6869Z" fill="black"/>
<path fill-rule="evenodd" clip-rule="evenodd" d="M159.796 83.6622C159.602 83.5057 159.572 83.2216 159.729 83.0281C159.885 82.8347 160.169 82.8048 160.363 82.9612L161.712 84.0528C161.905 84.2093 161.935 84.4934 161.779 84.6868C161.684 84.8047 161.702 84.9776 161.82 85.0729C161.938 85.1682 162.111 85.15 162.206 85.0322C162.553 84.6031 162.486 83.9731 162.057 83.626L160.708 82.5344C160.279 82.1873 159.649 82.2538 159.302 82.6828C158.955 83.1119 159.021 83.742 159.45 84.0891C159.568 84.1844 159.741 84.1661 159.836 84.0483C159.932 83.9305 159.913 83.7575 159.796 83.6622Z" fill="black"/>
<path fill-rule="evenodd" clip-rule="evenodd" d="M160.4 80.9863L161.687 82.0204C161.887 82.1825 161.918 82.4777 161.756 82.6787C161.593 82.8797 161.298 82.9109 161.097 82.7483L159.665 81.59C159.594 81.5328 159.439 81.3717 159.344 81.1585C159.26 80.9692 159.228 80.7326 159.387 80.4934C159.682 80.0484 160.118 80.0397 160.69 80.0899C160.841 80.1032 160.975 79.9914 160.988 79.8405C161.001 79.6895 160.889 79.5563 160.738 79.543C159.933 79.4723 159.345 79.5632 158.929 80.1899C158.377 81.0216 159.101 81.8399 159.32 82.0169L160.751 83.1751C161.188 83.5283 161.829 83.4606 162.182 83.024C162.536 82.5875 162.468 81.9463 162.031 81.593C162.031 81.5925 160.744 80.5583 160.744 80.5583C160.626 80.4634 160.453 80.4822 160.358 80.6003C160.263 80.7184 160.282 80.8913 160.4 80.9863Z" fill="black"/>
<path fill-rule="evenodd" clip-rule="evenodd" d="M161.979 86.6577C161.844 86.8321 161.593 86.8642 161.418 86.7293L159.963 85.6035C159.789 85.4687 159.757 85.2176 159.891 85.0433C159.984 84.9235 159.962 84.7509 159.842 84.6582C159.722 84.5655 159.55 84.5876 159.457 84.7074C159.137 85.1214 159.213 85.7176 159.627 86.0378L161.083 87.1636C161.497 87.4839 162.093 87.4076 162.413 86.9936C162.506 86.8738 162.484 86.7012 162.364 86.6085C162.244 86.5158 162.071 86.5379 161.979 86.6577Z" fill="black"/>
<path fill-rule="evenodd" clip-rule="evenodd" d="M159.892 85.0434C160.027 84.869 160.278 84.8369 160.452 84.9718L161.908 86.0975C162.082 86.2324 162.114 86.4834 161.979 86.6578C161.887 86.7776 161.909 86.9502 162.029 87.0429C162.149 87.1356 162.321 87.1135 162.414 86.9937C162.734 86.5797 162.658 85.9835 162.244 85.6633L160.788 84.5375C160.374 84.2173 159.778 84.2934 159.458 84.7075C159.365 84.8273 159.387 84.9999 159.507 85.0926C159.627 85.1853 159.799 85.1632 159.892 85.0434Z" fill="black"/>
<path fill-rule="evenodd" clip-rule="evenodd" d="M161.841 88.4764C161.739 88.6093 161.547 88.6337 161.414 88.5309L159.945 87.3945C159.812 87.2917 159.788 87.1003 159.89 86.9675C159.983 86.8476 159.961 86.6751 159.841 86.5824C159.721 86.4897 159.549 86.5117 159.456 86.6315C159.168 87.0041 159.236 87.5406 159.609 87.8288L161.078 88.9652C161.451 89.2534 161.987 89.1849 162.276 88.8123C162.368 88.6925 162.346 88.5199 162.226 88.4272C162.107 88.3345 161.934 88.3566 161.841 88.4764Z" fill="black"/>
<path fill-rule="evenodd" clip-rule="evenodd" d="M159.891 86.9674C159.993 86.8345 160.185 86.8101 160.318 86.9129L161.787 88.0493C161.92 88.1521 161.944 88.3434 161.842 88.4763C161.749 88.5962 161.771 88.7687 161.891 88.8615C162.011 88.9541 162.183 88.9321 162.276 88.8122C162.564 88.4397 162.496 87.9032 162.123 87.615L160.654 86.4786C160.281 86.1904 159.745 86.2589 159.456 86.6315C159.364 86.7513 159.386 86.9239 159.506 87.0166C159.625 87.1093 159.798 87.0872 159.891 86.9674Z" fill="black"/>
<path fill-rule="evenodd" clip-rule="evenodd" d="M163.92 86.1547C163.863 86.0452 163.819 85.9518 163.791 85.8854C163.538 85.2701 163.235 84.3538 163.055 83.3943C162.814 82.1133 162.807 80.7601 163.366 79.8992C163.449 79.7721 163.619 79.7359 163.746 79.8184C163.873 79.9009 163.909 80.0711 163.827 80.1981C163.332 80.9596 163.382 82.16 163.594 83.293C163.767 84.2109 164.056 85.0874 164.299 85.676C164.322 85.7319 164.358 85.8107 164.406 85.9032C164.668 85.8223 164.958 85.8147 165.271 85.9077C165.562 85.9943 165.997 86.3007 166.165 86.6368C166.238 86.783 166.267 86.935 166.241 87.0817C166.216 87.2305 166.137 87.3795 165.972 87.5108C165.662 87.7557 165.327 87.7272 165.002 87.5232C164.707 87.3374 164.42 86.9769 164.197 86.6315C163.992 86.8 163.826 87.0393 163.705 87.2909C163.639 87.4274 163.475 87.4848 163.338 87.419C163.202 87.3532 163.145 87.189 163.21 87.0526C163.381 86.6986 163.622 86.3774 163.92 86.1547ZM164.695 86.4003C164.821 86.5891 164.966 86.7769 165.121 86.9213C165.29 87.08 165.463 87.213 165.631 87.0801C165.782 86.9608 165.653 86.816 165.532 86.698C165.403 86.5726 165.239 86.471 165.115 86.434C164.966 86.3897 164.826 86.3809 164.695 86.4003Z" fill="black"/>
<path fill-rule="evenodd" clip-rule="evenodd" d="M163.712 79.8001C163.771 79.8273 163.819 79.8751 163.848 79.9388C163.908 80.0776 163.845 80.2396 163.706 80.3002C163.637 80.3302 163.548 80.3428 163.444 80.2879C163.386 80.2571 163.272 80.1482 163.159 79.9539C162.921 79.5483 162.569 78.6981 162.472 77.8035C162.404 77.1834 162.459 76.5437 162.737 76.0065C162.738 76.004 162.74 76.0016 162.741 75.9992C162.821 75.8545 162.968 75.7581 163.132 75.741C163.296 75.7238 163.459 75.7881 163.568 75.913L163.575 75.9212C164.549 77.1343 166.085 79.9409 172.607 85.1515C172.626 85.1668 172.665 85.1976 172.665 85.1976L172.322 85.6268C172.322 85.6268 172.288 85.5994 172.27 85.5856C165.785 80.4048 164.18 77.5784 163.193 76.3232C162.902 76.9448 162.968 77.7177 163.132 78.381C163.298 79.0501 163.565 79.6128 163.712 79.8001ZM163.502 79.7909L163.501 79.7914L163.505 79.7899L163.502 79.7909ZM163.518 79.7855L163.517 79.7861L163.519 79.7852L163.518 79.7855Z" fill="black"/>
<path fill-rule="evenodd" clip-rule="evenodd" d="M161.937 88.2338L166.873 92.5743L167.245 92.1059L162.298 87.8208C162.184 87.7209 162.011 87.7325 161.91 87.8464C161.811 87.9604 161.823 88.134 161.937 88.2338Z" fill="black"/>
<path fill-rule="evenodd" clip-rule="evenodd" d="M127.027 101.26L127.574 101.134L128.794 89.4555C128.796 89.4362 128.808 89.4195 128.825 89.4116C128.844 89.4036 128.864 89.4056 128.879 89.4168C129.359 89.7752 130.088 90.8321 130.561 93.8431C130.584 93.9928 130.725 94.0953 130.875 94.0718C131.024 94.0483 131.127 93.9077 131.104 93.758C130.591 90.4879 129.73 89.3667 129.203 88.9733C129.023 88.8451 128.795 88.8228 128.6 88.911C128.405 88.9993 128.27 89.1848 128.248 89.3983L127.027 101.26Z" fill="black"/>
<path fill-rule="evenodd" clip-rule="evenodd" d="M133.954 99.6546L134.498 99.5285C134.498 99.5285 134.104 92.912 132.992 88.7186C132.427 86.5837 131.649 84.7189 130.616 83.7312C130.334 83.4616 129.917 83.3899 129.562 83.5503C129.206 83.7108 128.983 84.0712 128.999 84.461C129.071 86.2489 129.2 89.4058 129.2 89.4058C129.207 89.5572 129.335 89.6751 129.486 89.6689C129.638 89.6627 129.755 89.5348 129.749 89.3834C129.749 89.3834 129.62 86.2267 129.548 84.4388C129.541 84.2726 129.636 84.1191 129.787 84.0508C129.939 83.9824 130.116 84.013 130.236 84.1279C131.213 85.0627 131.926 86.8389 132.461 88.8593C133.591 93.1193 133.954 99.6546 133.954 99.6546Z" fill="black"/>
<path fill-rule="evenodd" clip-rule="evenodd" d="M130.995 84.9967C130.995 84.9967 132.145 86.7603 132.967 88.0226C133.466 88.788 133.712 89.6906 133.671 90.6033C133.599 92.2065 133.494 94.5275 133.494 94.5275C133.487 94.6789 133.604 94.8072 133.755 94.8141C133.907 94.821 134.035 94.7037 134.043 94.5523C134.043 94.5523 134.147 92.2313 134.219 90.6281C134.266 89.6006 133.989 88.5845 133.428 87.7228C132.605 86.4605 131.456 84.6969 131.456 84.6969C131.373 84.57 131.203 84.5341 131.076 84.6167C130.949 84.6994 130.913 84.8697 130.995 84.9967Z" fill="black"/>
<path fill-rule="evenodd" clip-rule="evenodd" d="M129.458 84.1663L129.463 84.162C129.347 84.2589 129.174 84.2429 129.077 84.1264C128.98 84.0099 128.996 83.8366 129.113 83.7397C129.113 83.7397 129.364 83.5209 129.745 83.5902C129.955 83.6282 130.22 83.7554 130.495 84.1165C131.042 84.8388 131.699 86.662 132.046 91.0852C132.058 91.2363 131.944 91.3685 131.793 91.3803C131.642 91.3921 131.51 91.2791 131.498 91.128C131.166 86.8943 130.582 85.1397 130.057 84.4484C129.902 84.2439 129.766 84.152 129.647 84.1305C129.545 84.1118 129.472 84.1561 129.458 84.1663L129.457 84.1674C129.457 84.1674 129.457 84.1671 129.458 84.1664V84.1663Z" fill="black"/>
<path fill-rule="evenodd" clip-rule="evenodd" d="M145.537 135.336L105.354 167.353C105.236 167.447 105.216 167.62 105.311 167.738C105.405 167.857 105.578 167.876 105.697 167.782L146.303 135.342L145.537 135.336Z" fill="black"/>
<path fill-rule="evenodd" clip-rule="evenodd" d="M133.877 135.257H133.092C133.092 135.257 128.825 139.792 126.766 144.071C124.818 148.122 125.695 150.932 125.695 150.932C125.739 151.076 125.893 151.159 126.037 151.114C126.183 151.069 126.264 150.915 126.219 150.771C126.219 150.771 125.424 148.128 127.261 144.31C129.53 139.592 133.877 135.257 133.877 135.257Z" fill="black"/>
<path fill-rule="evenodd" clip-rule="evenodd" d="M133.847 165.913L147.274 184.717C147.362 184.841 147.533 184.869 147.657 184.781C147.78 184.694 147.809 184.522 147.721 184.399L134.294 165.594C134.206 165.471 134.034 165.442 133.91 165.53C133.788 165.618 133.759 165.79 133.847 165.913Z" fill="black"/>
<path fill-rule="evenodd" clip-rule="evenodd" d="M146.481 156.166L163.512 183.407C163.591 183.535 163.762 183.574 163.89 183.494C164.019 183.414 164.057 183.244 163.977 183.116L146.946 155.875C146.867 155.746 146.696 155.708 146.568 155.787C146.44 155.868 146.401 156.037 146.481 156.166Z" fill="black"/>
<path fill-rule="evenodd" clip-rule="evenodd" d="M130.021 154.143L132.624 153.406C132.771 153.365 132.855 153.213 132.814 153.067C132.772 152.921 132.621 152.836 132.475 152.878L129.871 153.615C129.725 153.656 129.64 153.808 129.681 153.954C129.722 154.1 129.874 154.185 130.021 154.143Z" fill="black"/>
<path fill-rule="evenodd" clip-rule="evenodd" d="M163.99 140.024C163.157 140.916 161.287 143.342 157.053 146.979C147.098 155.532 129.418 169.218 114.596 178.301C114.467 178.38 114.426 178.549 114.505 178.678C114.584 178.808 114.753 178.848 114.882 178.768C129.729 169.671 147.439 155.963 157.411 147.396C161.716 143.697 164.289 140.585 164.289 140.585C164.289 140.585 164.066 139.893 163.99 140.024Z" fill="black"/>
<path fill-rule="evenodd" clip-rule="evenodd" d="M150.116 96.8999C150.115 96.9112 150.114 96.9313 150.113 96.9507C150.105 97.1428 150.098 97.6049 150.101 97.7194C150.11 98.0144 150.131 98.3078 150.17 98.5986C150.207 98.8871 150.263 99.1731 150.341 99.4559C150.529 100.14 150.985 100.515 151.543 100.671C152.117 100.831 152.794 100.767 153.408 100.578C153.519 100.543 153.637 100.606 153.671 100.717C153.706 100.828 153.644 100.946 153.532 100.98C152.687 101.241 151.738 101.275 151.017 100.919C150.517 100.672 150.12 100.241 149.935 99.5675C149.852 99.266 149.793 98.9612 149.752 98.6538C149.711 98.3488 149.689 98.0412 149.68 97.7318C149.678 97.6128 149.684 97.1324 149.692 96.9328C149.694 96.8859 149.697 96.8518 149.699 96.836C149.707 96.7726 149.733 96.7396 149.742 96.7286C149.8 96.6516 149.872 96.6405 149.93 96.6462C149.977 96.6508 150.036 96.6685 150.084 96.7368C150.118 96.7863 150.128 96.8454 150.116 96.8999ZM150.054 97.0097C150.046 97.0168 150.038 97.0234 150.029 97.0295C149.992 97.0545 149.951 97.0665 149.91 97.0664C149.956 97.0672 150.008 97.0554 150.054 97.0097ZM149.743 96.9846C149.783 97.037 149.83 97.0559 149.872 97.0628C149.822 97.0536 149.776 97.0269 149.743 96.9846ZM150.055 97.0089V97.0091V97.0089Z" fill="black"/>
<path fill-rule="evenodd" clip-rule="evenodd" d="M151.349 101.143C151.316 101.075 151.322 100.991 151.371 100.927C151.441 100.834 151.573 100.816 151.665 100.886C151.685 100.901 151.739 100.954 151.762 101.066C151.781 101.158 151.804 101.353 151.826 101.603C151.89 102.331 151.957 103.537 151.946 103.925C151.943 104.041 151.846 104.133 151.73 104.129C151.614 104.126 151.522 104.03 151.525 103.913C151.537 103.477 151.449 101.985 151.379 101.359C151.369 101.268 151.353 101.172 151.349 101.143Z" fill="black"/>
<path fill-rule="evenodd" clip-rule="evenodd" d="M156.697 99.4633C156.717 99.5199 156.742 99.5983 156.75 99.6273L156.927 100.27C157.036 100.649 157.141 101.032 157.251 101.413C157.324 101.664 157.4 101.914 157.484 102.161C157.52 102.271 157.461 102.39 157.351 102.427C157.24 102.464 157.121 102.405 157.085 102.295C157 102.042 156.922 101.787 156.847 101.53C156.736 101.15 156.633 100.767 156.523 100.387L156.343 99.7311C156.329 99.6794 156.276 99.5474 156.263 99.4844C156.251 99.431 156.257 99.3891 156.262 99.3643C156.279 99.2962 156.318 99.2554 156.36 99.2298C156.404 99.2029 156.506 99.1521 156.631 99.2618C156.689 99.3139 156.712 99.3916 156.697 99.4633ZM156.363 99.5858L156.364 99.587L156.362 99.585L156.363 99.5858Z" fill="black"/>
<path fill-rule="evenodd" clip-rule="evenodd" d="M156.51 96.2073C156.508 96.2173 156.501 96.2525 156.499 96.2779C156.49 96.3823 156.499 96.5203 156.512 96.6593C156.536 96.8995 156.577 97.1425 156.592 97.2462C156.608 97.3612 156.527 97.4677 156.413 97.4837C156.297 97.4997 156.191 97.4193 156.175 97.3043C156.152 97.1382 156.065 96.6314 156.075 96.314C156.08 96.1482 156.121 96.0211 156.172 95.9574C156.244 95.8667 156.377 95.8521 156.468 95.9247C156.554 95.9939 156.571 96.1175 156.51 96.2073Z" fill="black"/>
<path fill-rule="evenodd" clip-rule="evenodd" d="M156.304 97.238C156.333 97.1746 156.383 97.0681 156.412 97.0299C156.492 96.9278 156.58 96.8302 156.682 96.7538C156.76 96.696 156.846 96.6501 156.943 96.6211C157.158 96.5563 157.366 96.6141 157.548 96.7435C157.761 96.8949 157.937 97.1496 158.033 97.3392C158.28 97.8244 158.153 98.3723 157.828 98.8018C157.517 99.2121 157.029 99.5063 156.559 99.5307C156.444 99.5366 156.344 99.4473 156.339 99.3314C156.332 99.2153 156.422 99.1162 156.538 99.1103C156.893 99.0919 157.257 98.8586 157.492 98.5479C157.719 98.2481 157.83 97.8688 157.657 97.53C157.597 97.4107 157.496 97.2553 157.371 97.1415C157.28 97.059 157.178 96.9897 157.064 97.0242C157.001 97.0427 156.949 97.0766 156.902 97.1171C156.843 97.1671 156.793 97.227 156.745 97.2882C156.709 97.3331 156.666 97.4668 156.647 97.4985C156.587 97.602 156.496 97.6098 156.466 97.611C156.399 97.6135 156.337 97.5908 156.289 97.5262C156.277 97.51 156.236 97.4606 156.248 97.3595C156.253 97.3121 156.274 97.2701 156.304 97.238ZM156.667 97.3885V97.3936V97.3916V97.3885ZM156.667 97.3762V97.381V97.3778V97.3762Z" fill="black"/>
<path fill-rule="evenodd" clip-rule="evenodd" d="M150.1 103.684C149.974 103.708 149.328 103.887 149.328 103.887L149.872 104.154C149.872 104.154 150.156 104.101 150.346 104.065C150.916 103.959 151.023 103.923 151.74 103.81C151.855 103.791 151.933 103.684 151.915 103.569C151.897 103.454 151.789 103.376 151.674 103.394C150.876 103.52 150.716 103.567 150.1 103.684Z" fill="black"/>
<path fill-rule="evenodd" clip-rule="evenodd" d="M157.296 101.985C157.302 101.983 157.309 101.982 157.316 101.98C157.391 101.968 157.549 101.94 157.765 101.902C158.685 101.741 160.714 101.378 162.111 101.261C162.15 101.257 162.014 101.347 161.917 101.467C161.821 101.586 161.642 101.748 161.642 101.748C161.642 101.748 158.651 102.174 157.837 102.317C157.619 102.355 157.462 102.383 157.387 102.395C157.141 102.437 157.093 102.163 157.094 102.158C157.112 102.058 157.198 101.987 157.296 101.985Z" fill="black"/>
<path fill-rule="evenodd" clip-rule="evenodd" d="M154.342 98.2385C154.218 98.1493 154.089 98.1361 153.945 98.1805C153.817 98.2204 153.666 98.3259 153.479 98.4473C153.283 98.5754 153.113 98.7125 153.026 98.8521C152.94 98.9912 152.919 99.1365 152.98 99.2885C153.023 99.3964 153.145 99.449 153.253 99.406C153.361 99.3629 153.414 99.2404 153.37 99.1324C153.357 99.0977 153.384 99.07 153.41 99.0387C153.479 98.9554 153.589 98.878 153.709 98.8C153.815 98.7308 153.907 98.6656 153.989 98.62C154.015 98.6051 154.04 98.5927 154.064 98.5845C154.076 98.5805 154.087 98.5733 154.097 98.5807C154.191 98.6483 154.323 98.6266 154.391 98.5322C154.458 98.4377 154.437 98.3062 154.342 98.2385Z" fill="black"/>
<path fill-rule="evenodd" clip-rule="evenodd" d="M152.979 99.2885C153.084 99.5517 153.295 99.6446 153.542 99.6192C153.727 99.6001 153.94 99.5008 154.121 99.3574C154.342 99.1823 154.509 98.943 154.545 98.7343C154.577 98.5435 154.522 98.3674 154.342 98.2385C154.248 98.1708 154.116 98.1926 154.048 98.287C153.981 98.3815 154.002 98.513 154.097 98.5807C154.142 98.6126 154.135 98.6619 154.117 98.7105C154.075 98.8225 153.975 98.9361 153.86 99.0276C153.746 99.1179 153.615 99.1884 153.499 99.2004C153.444 99.2061 153.394 99.1911 153.37 99.1324C153.327 99.0246 153.205 98.9719 153.097 99.0149C152.989 99.058 152.936 99.1806 152.979 99.2885Z" fill="black"/>
<path fill-rule="evenodd" clip-rule="evenodd" d="M102.011 169.963L105.318 167.375C105.437 167.282 105.61 167.303 105.703 167.422C105.797 167.542 105.776 167.714 105.656 167.807L102.187 170.523C102.088 170.601 101.949 170.601 101.849 170.523C101.849 170.523 100.777 169.689 99.4886 169.367C98.7546 169.184 97.9451 169.165 97.2375 169.605L108.622 182.445L114.464 178.377C114.589 178.291 114.76 178.321 114.847 178.445C114.933 178.57 114.903 178.741 114.778 178.828L108.735 183.034C108.621 183.114 108.465 183.096 108.373 182.991L96.6238 169.74C96.5739 169.684 96.5493 169.609 96.5557 169.535C96.562 169.46 96.5988 169.39 96.6575 169.344C97.5638 168.617 98.6465 168.591 99.6217 168.834C100.698 169.103 101.636 169.702 102.011 169.963Z" fill="#FFD274"/>
<path fill-rule="evenodd" clip-rule="evenodd" d="M167.881 190.799L163.263 182.999C163.186 182.869 163.229 182.7 163.36 182.623C163.49 182.546 163.659 182.589 163.736 182.72L168.598 190.933C168.649 191.018 168.649 191.124 168.601 191.209C168.552 191.295 168.461 191.348 168.362 191.348H145.147C145.066 191.348 144.989 191.311 144.937 191.249C144.885 191.186 144.863 191.104 144.877 191.024C145.106 189.775 146 189.01 147.004 188.552C147.946 188.123 148.979 187.968 149.581 187.912L147.297 184.782C147.208 184.66 147.235 184.488 147.357 184.399C147.48 184.309 147.651 184.337 147.741 184.458L150.32 187.993C150.381 188.076 150.39 188.186 150.343 188.279C150.298 188.37 150.203 188.429 150.101 188.43C150.101 188.43 148.568 188.442 147.232 189.052C146.475 189.397 145.777 189.936 145.499 190.799H167.881Z" fill="#FFD274"/>
<path fill-rule="evenodd" clip-rule="evenodd" d="M150.893 93.4467C150.615 93.3099 150.328 93.1691 150.3 93.1549C149.615 92.8122 148.933 92.4677 148.253 92.1182C147.573 91.7682 146.895 91.4128 146.221 91.0488C145.403 90.6069 144.588 90.1597 143.773 89.7101C142.553 89.036 141.336 88.3564 140.118 87.6806C139.954 87.5895 139.028 87.1338 138.507 86.8075C138.357 86.7138 138.239 86.6279 138.169 86.5618C138.097 86.4933 138.059 86.4273 138.043 86.3793C138.013 86.2894 138.007 86.1837 138.033 86.0665C138.061 85.9364 138.133 85.7835 138.232 85.6252C138.489 85.2201 138.943 84.7574 139.07 84.5921C139.574 83.9373 140.103 83.2884 140.66 82.6645C141.218 82.0381 141.805 81.4369 142.423 80.8803C142.605 80.7166 142.952 80.3153 143.287 80.1383C143.534 80.0074 143.781 79.9861 143.991 80.1071C144.345 80.3103 144.72 80.6711 145.089 81.1055C145.816 81.9631 146.524 83.111 147.003 83.762C147.57 84.5327 148.115 85.3181 148.65 86.1113C149.448 87.2975 150.22 88.5013 151.001 89.6992C151.502 90.4656 152.089 91.228 152.592 92.0219C152.78 92.3204 152.957 92.6233 153.113 92.9323C153.562 92.9127 154.681 92.938 155.527 93.5794C156.125 94.032 156.601 94.7832 156.607 96.0402C156.607 96.1519 156.54 96.2527 156.437 96.2953C156.437 96.2953 154.675 97.0118 153.303 96.4855C152.817 96.2992 152.375 95.9657 152.067 95.4018C151.853 95.7187 151.524 96.1336 151.091 96.4609C150.733 96.7318 150.307 96.9424 149.82 97.0012C149.747 97.0101 149.674 96.9891 149.616 96.9428C149.558 96.8965 149.522 96.8289 149.514 96.7554C149.514 96.7554 149.378 95.3159 150.057 94.2544C150.258 93.9385 150.53 93.6546 150.893 93.4467ZM156.053 95.8531C156.006 94.9353 155.655 94.3645 155.196 94.0171C154.279 93.3224 152.982 93.4915 152.982 93.4915C152.865 93.5064 152.751 93.4442 152.7 93.3372C152.534 92.9889 152.338 92.6493 152.128 92.3153C151.627 91.5236 151.04 90.7634 150.542 89.9991C149.762 88.8035 148.991 87.602 148.194 86.418C147.664 85.6311 147.123 84.852 146.561 84.0875C146.087 83.444 145.389 82.3082 144.67 81.4604C144.349 81.0815 144.027 80.7606 143.717 80.5832C143.679 80.5611 143.637 80.5818 143.592 80.6008C143.506 80.6369 143.42 80.6983 143.336 80.7669C143.115 80.9468 142.913 81.1777 142.79 81.2882C142.187 81.8316 141.615 82.4185 141.069 83.03C140.522 83.644 140.001 84.2828 139.504 84.9273C139.396 85.0675 139.045 85.4267 138.792 85.7779C138.709 85.8926 138.638 86.0055 138.595 86.1076C138.586 86.1302 138.577 86.1614 138.572 86.184C138.587 86.1977 138.608 86.2139 138.626 86.2268C138.795 86.351 139.083 86.5147 139.374 86.6728C139.818 86.9132 140.274 87.1393 140.385 87.2004C141.603 87.8761 142.82 88.5556 144.039 89.2295C144.851 89.6783 145.665 90.1247 146.482 90.5657C147.153 90.928 147.827 91.2815 148.504 91.6299C149.182 91.9786 149.863 92.3222 150.546 92.664C150.591 92.6866 151.288 93.0279 151.565 93.166C151.617 93.1918 151.655 93.2108 151.672 93.2201C151.981 93.3828 151.646 93.7294 151.628 93.7341C150.953 93.9186 150.569 94.3752 150.349 94.8689C150.098 95.4296 150.052 96.0386 150.051 96.3944C150.412 96.2867 150.723 96.0742 150.98 95.8389C151.549 95.319 151.86 94.6797 151.86 94.6797C151.908 94.5789 152.014 94.518 152.125 94.5255C152.237 94.5331 152.333 94.6077 152.368 94.7142C152.595 95.4081 153.016 95.7872 153.5 95.9728C154.451 96.3377 155.617 96.0042 156.053 95.8531Z" fill="#FFD274"/>
<path fill-rule="evenodd" clip-rule="evenodd" d="M118.179 87.0637C118.179 87.0637 114.091 83.8566 116.029 82.067C116.621 81.5212 118.284 81.9922 118.406 83.0812C118.407 83.0911 118.414 83.0991 118.424 83.1007C118.434 83.1023 118.443 83.0969 118.447 83.0879C118.618 82.7058 119.412 81.1579 120.668 82.2012C120.668 82.2012 122.687 83.7878 118.179 87.0637Z" fill="#D92B2B"/>
<path fill-rule="evenodd" clip-rule="evenodd" d="M128.577 79.147C128.577 79.147 124.888 75.4883 127.02 73.9351C127.67 73.4613 129.268 74.1217 129.263 75.2175C129.263 75.2274 129.269 75.2363 129.279 75.239C129.289 75.2417 129.299 75.2375 129.303 75.2289C129.517 74.8692 130.485 73.4236 131.612 74.6052C131.612 74.6052 133.433 76.4148 128.577 79.147Z" fill="#D92B2B"/>
<path fill-rule="evenodd" clip-rule="evenodd" d="M65.0705 85.2065C65.0705 85.2065 62.1394 88.9762 63.9607 94.0863C64.0201 94.2527 64.2034 94.3398 64.3699 94.2804C64.5364 94.2211 64.6235 94.0377 64.5641 93.8711C62.8678 89.1121 65.577 85.5987 65.577 85.5987C65.6852 85.459 65.6596 85.2577 65.5199 85.1494C65.38 85.0412 65.1787 85.0668 65.0705 85.2065Z" fill="#88C9D4"/>
<path fill-rule="evenodd" clip-rule="evenodd" d="M63.0929 95.004C63.0929 95.004 61.0675 88.4543 64.7492 84.0821C64.863 83.9468 64.8457 83.7446 64.7105 83.6308C64.5753 83.5169 64.373 83.5342 64.2592 83.6695C60.3734 88.2841 62.4805 95.1921 62.4805 95.1921C62.5324 95.3611 62.7118 95.4562 62.8807 95.4043C63.0497 95.3524 63.1448 95.1731 63.0929 95.004Z" fill="#88C9D4"/>
<path fill-rule="evenodd" clip-rule="evenodd" d="M170.277 122.951C170.277 122.951 173.147 127.716 170.934 132.925C170.866 133.087 170.942 133.275 171.105 133.345C171.267 133.413 171.455 133.337 171.524 133.175C173.865 127.663 170.827 122.621 170.827 122.621C170.735 122.47 170.538 122.421 170.386 122.512C170.235 122.603 170.186 122.8 170.277 122.951Z" fill="#88C9D4"/>
<path fill-rule="evenodd" clip-rule="evenodd" d="M171.093 121.421C171.093 121.421 175.837 126.273 171.802 134.605C171.726 134.764 171.792 134.955 171.952 135.032C172.111 135.109 172.302 135.043 172.379 134.884C176.639 126.088 171.549 120.971 171.549 120.971C171.425 120.845 171.222 120.844 171.096 120.968C170.971 121.092 170.969 121.295 171.093 121.421Z" fill="#88C9D4"/>
<path fill-rule="evenodd" clip-rule="evenodd" d="M126.672 139.31C126.672 139.31 124.033 143.46 123.749 145.7C123.727 145.876 123.851 146.036 124.027 146.059C124.202 146.081 124.362 145.956 124.385 145.781C124.657 143.63 127.212 139.655 127.212 139.655C127.307 139.506 127.264 139.307 127.115 139.212C126.966 139.117 126.768 139.161 126.672 139.31Z" fill="#88C9D4"/>
<path fill-rule="evenodd" clip-rule="evenodd" d="M126.687 136.874C125.738 138.135 123.462 140.271 121.996 147.124C121.958 147.297 122.069 147.467 122.242 147.505C122.415 147.541 122.585 147.431 122.622 147.258C124.052 140.573 126.274 138.489 127.199 137.259C127.305 137.118 127.277 136.917 127.136 136.811C126.994 136.705 126.793 136.733 126.687 136.874Z" fill="#88C9D4"/>
</svg>
