<svg width="250" height="250" viewBox="0 0 250 250" fill="none" xmlns="http://www.w3.org/2000/svg">
<path fill-rule="evenodd" clip-rule="evenodd" d="M59.4109 186.576L112.823 186.321C112.823 186.321 112.235 182.967 106.638 183.515C104.826 183.692 103.836 182.181 102.019 180.008C100.378 178.047 95.7618 172.657 88.0661 177.472C86.7355 178.303 83.5892 179.22 81.198 177.635C79.4719 176.491 73.7547 171.003 69.3917 177.773C68.5314 179.108 67.1495 181.473 64.6435 182.209C62.4391 182.857 58.9241 183.388 59.4109 186.576Z" fill="#F2BBBB"/>
<path fill-rule="evenodd" clip-rule="evenodd" d="M161.206 184.772L204.453 184.713C204.453 184.713 202.176 178.784 196.672 180.119C194.884 180.554 193.17 181.77 190.62 177.537C189.759 176.109 184.342 171.992 179.356 175.227C176.824 176.869 174.083 181.522 170.027 180.484C166.128 179.487 161.725 181.563 161.206 184.772Z" fill="#F2BBBB"/>
<path fill-rule="evenodd" clip-rule="evenodd" d="M112.607 68.1726L113.312 67.1707L115.219 68.7911L114.731 69.6246L112.607 68.1726Z" fill="#255932"/>
<path fill-rule="evenodd" clip-rule="evenodd" d="M114.731 65.7325L116.283 67.5074L117.08 67.0225L115.633 64.6089L114.731 65.7325Z" fill="#255932"/>
<path fill-rule="evenodd" clip-rule="evenodd" d="M117.08 63.952L118.204 66.3037H119.155L118.449 63.3574L117.08 63.952Z" fill="#255932"/>
<path fill-rule="evenodd" clip-rule="evenodd" d="M139.289 65.7652L140.097 66.3037L141.834 63.9749L140.837 63.1982L139.289 65.7652Z" fill="#255932"/>
<path fill-rule="evenodd" clip-rule="evenodd" d="M141.24 67.0968L141.833 67.9975L144.546 66.5019L143.662 65.0479L141.24 67.0968Z" fill="#255932"/>
<path fill-rule="evenodd" clip-rule="evenodd" d="M142.43 69.8056L142.269 68.9181L145.061 68.4248V69.8056H142.43Z" fill="#255932"/>
<path fill-rule="evenodd" clip-rule="evenodd" d="M94.6906 77.2417L95.6148 75.6891C95.6917 75.559 95.861 75.5162 95.9909 75.5937C96.1208 75.6712 96.1639 75.8398 96.0861 75.97L94.9312 77.9104C94.8818 77.9927 94.794 78.0436 94.6979 78.0445C94.6018 78.0455 94.513 77.9963 94.4618 77.9149L93.2566 75.9744C93.1761 75.8458 93.2155 75.6764 93.3445 75.5964C93.4735 75.5164 93.6428 75.556 93.7224 75.6847L94.6906 77.2417Z" fill="#F2BBBB"/>
<path fill-rule="evenodd" clip-rule="evenodd" d="M101.377 80.7185L102.315 79.2384C102.396 79.1104 102.565 79.0724 102.693 79.1535C102.821 79.2346 102.859 79.4044 102.778 79.5323L101.611 81.3744C101.56 81.4533 101.474 81.5014 101.38 81.5018C101.286 81.5023 101.199 81.4551 101.148 81.3766L99.9554 79.5346C99.8731 79.4074 99.9088 79.2373 100.036 79.1549C100.163 79.0726 100.333 79.1089 100.416 79.2361L101.377 80.7185Z" fill="#F2BBBB"/>
<path fill-rule="evenodd" clip-rule="evenodd" d="M164.416 83.3166L165.327 81.7847C165.404 81.6544 165.572 81.6115 165.703 81.6889C165.833 81.7663 165.876 81.9349 165.798 82.0651L164.661 83.98C164.612 84.0619 164.524 84.1128 164.429 84.1142C164.334 84.1158 164.244 84.0679 164.193 83.9876L162.97 82.0727C162.888 81.945 162.926 81.7751 163.054 81.6936C163.181 81.612 163.351 81.6495 163.433 81.7771L164.416 83.3166Z" fill="#F2BBBB"/>
<path fill-rule="evenodd" clip-rule="evenodd" d="M183.799 107.284L184.538 106.132C184.62 106.005 184.79 105.967 184.917 106.049C185.045 106.131 185.082 106.301 185 106.429L184.031 107.941C183.98 108.02 183.893 108.067 183.799 108.067C183.706 108.067 183.619 108.02 183.569 107.941L182.599 106.429C182.517 106.301 182.555 106.131 182.682 106.049C182.81 105.967 182.979 106.005 183.061 106.132L183.799 107.284Z" fill="#F2BBBB"/>
<path fill-rule="evenodd" clip-rule="evenodd" d="M139.213 193.841L139.939 185.697L140.675 185.744L139.736 194.142C139.722 194.283 139.603 194.39 139.462 194.39H123.972C123.898 194.39 123.826 194.359 123.774 194.306C123.722 194.251 123.695 194.178 123.699 194.103C123.699 194.103 123.73 193.253 124.37 192.518C124.754 192.075 125.36 191.668 126.323 191.528L126.24 185.633C126.24 185.633 126.605 185.392 126.757 185.396C126.909 185.399 127.028 185.525 127.025 185.677L126.866 191.78C126.862 191.919 126.755 192.034 126.616 192.046C125.698 192.131 125.13 192.48 124.784 192.878C124.486 193.219 124.353 193.592 124.294 193.841H139.213Z" fill="#255932"/>
<path fill-rule="evenodd" clip-rule="evenodd" d="M169.891 190.944C170.854 191.083 171.46 191.49 171.845 191.933C172.485 192.669 172.516 193.519 172.516 193.519C172.52 193.594 172.492 193.666 172.441 193.721C172.389 193.774 172.317 193.805 172.243 193.805H156.752C156.612 193.805 156.493 193.698 156.479 193.557L155.15 185.726L155.687 185.72L157.002 193.256H171.921C171.862 193.007 171.729 192.635 171.431 192.294C171.085 191.896 170.517 191.546 169.599 191.462C169.46 191.449 169.353 191.335 169.349 191.196L169.19 185.093C169.187 184.941 169.306 184.815 169.458 184.811C169.609 184.807 169.735 184.926 169.739 185.078L169.891 190.944Z" fill="#255932"/>
<path fill-rule="evenodd" clip-rule="evenodd" d="M137.61 105.766C137.706 103.063 138.651 101.711 139.736 101.053C141.452 100.01 143.582 100.711 143.582 100.711C143.725 100.758 143.804 100.914 143.757 101.058C143.709 101.201 143.553 101.28 143.409 101.232C143.409 101.232 141.532 100.604 140.02 101.522C138.999 102.142 138.172 103.469 138.152 106.126C138.151 106.214 138.108 106.296 138.036 106.348C137.964 106.399 137.873 106.412 137.789 106.384C136.535 105.964 134.909 106.366 133.401 107.368C129.787 109.772 126.892 115.651 131.201 122.617C131.28 122.746 131.241 122.915 131.112 122.995C130.983 123.075 130.814 123.035 130.734 122.906C126.214 115.595 129.305 109.433 133.098 106.911C134.628 105.893 136.276 105.47 137.61 105.766Z" fill="#255932"/>
<path fill-rule="evenodd" clip-rule="evenodd" d="M178.792 137.053L192.253 133.9L195.856 150.328L182.485 154.047L178.792 137.053Z" fill="#255932"/>
<path d="M166.901 147.005L185.137 142.893L185.73 145.522L167.494 149.635L166.901 147.005Z" fill="#255932"/>
<path fill-rule="evenodd" clip-rule="evenodd" d="M191.382 142.597C191.837 143.472 191.496 144.552 190.621 145.007C189.746 145.462 188.666 145.121 188.211 144.246C188.041 143.918 187.636 143.79 187.308 143.961C186.98 144.131 186.853 144.536 187.023 144.864C187.819 146.395 189.708 146.991 191.239 146.195C192.77 145.399 193.367 143.51 192.57 141.979C192.4 141.652 191.995 141.523 191.667 141.694C191.339 141.864 191.212 142.27 191.382 142.597Z" fill="white"/>
<path fill-rule="evenodd" clip-rule="evenodd" d="M188.211 144.246C187.756 143.371 188.097 142.291 188.972 141.836C189.847 141.381 190.927 141.722 191.382 142.597C191.552 142.925 191.957 143.053 192.285 142.882C192.613 142.712 192.741 142.307 192.57 141.979C191.774 140.449 189.885 139.852 188.354 140.648C186.823 141.444 186.227 143.333 187.023 144.864C187.194 145.192 187.598 145.32 187.926 145.149C188.254 144.979 188.382 144.574 188.211 144.246Z" fill="white"/>
<path fill-rule="evenodd" clip-rule="evenodd" d="M186.973 143.423L183.372 144.398C183.016 144.495 182.805 144.863 182.901 145.22C182.998 145.576 183.366 145.788 183.722 145.691L187.323 144.716C187.679 144.619 187.891 144.251 187.794 143.895C187.697 143.538 187.329 143.326 186.973 143.423Z" fill="white"/>
<path fill-rule="evenodd" clip-rule="evenodd" d="M184.455 143.369L185.091 145.834C185.183 146.192 185.549 146.407 185.907 146.315C186.265 146.223 186.48 145.857 186.388 145.499L185.751 143.035C185.659 142.677 185.293 142.461 184.936 142.554C184.578 142.646 184.362 143.011 184.455 143.369Z" fill="white"/>
<path fill-rule="evenodd" clip-rule="evenodd" d="M171.314 145.877C171.314 145.877 172.924 146.718 173.579 146.697C173.579 146.697 172.425 148.782 173.283 149.244C173.283 149.244 174.924 148.792 175.333 147.442C175.333 147.442 175.456 145.471 174.91 144.262L171.314 145.877Z" fill="white"/>
<path fill-rule="evenodd" clip-rule="evenodd" d="M174.597 148.753C174.657 148.865 174.725 149.003 174.617 149.149C174.52 149.281 174.335 149.309 174.203 149.212C174.081 149.122 173.91 149.149 173.82 149.271C173.73 149.393 173.756 149.565 173.878 149.655C174.254 149.931 174.783 149.85 175.059 149.474C175.325 149.113 175.229 148.77 175.08 148.493C175.008 148.36 174.842 148.31 174.708 148.382C174.575 148.453 174.525 148.62 174.597 148.753Z" fill="#EF7B58"/>
<path fill-rule="evenodd" clip-rule="evenodd" d="M173.046 148.293C172.908 148.191 172.817 148.013 172.909 147.867C172.974 147.765 173.028 147.713 173.084 147.734C173.226 147.787 173.384 147.715 173.438 147.574C173.49 147.431 173.418 147.273 173.276 147.22C173.047 147.134 172.709 147.154 172.444 147.575C172.2 147.963 172.351 148.463 172.721 148.735C172.843 148.825 173.015 148.799 173.105 148.677C173.195 148.554 173.169 148.383 173.046 148.293Z" fill="#EF7B58"/>
<path fill-rule="evenodd" clip-rule="evenodd" d="M173.338 149.43C173.379 149.524 173.37 149.637 173.305 149.726C173.208 149.858 173.023 149.886 172.891 149.789L171.648 148.875C171.517 148.778 171.489 148.592 171.586 148.461C171.683 148.329 171.868 148.301 171.999 148.397L172.566 148.814C172.688 148.904 172.86 148.878 172.95 148.756C173.04 148.634 173.013 148.462 172.891 148.372L172.325 147.955C171.949 147.679 171.42 147.76 171.144 148.136C170.867 148.511 170.948 149.041 171.323 149.317L172.566 150.231C172.942 150.508 173.471 150.427 173.747 150.051C173.933 149.799 173.958 149.477 173.84 149.209C173.779 149.071 173.617 149.008 173.478 149.069C173.34 149.13 173.276 149.292 173.338 149.43Z" fill="#EF7B58"/>
<path fill-rule="evenodd" clip-rule="evenodd" d="M170.273 149.038C170.37 148.906 170.555 148.878 170.687 148.974L171.93 149.889C172.061 149.985 172.09 150.171 171.993 150.303C171.903 150.425 171.929 150.597 172.051 150.686C172.173 150.776 172.345 150.75 172.435 150.628C172.711 150.252 172.631 149.723 172.255 149.446L171.012 148.532C170.637 148.256 170.108 148.337 169.831 148.712C169.741 148.834 169.767 149.006 169.889 149.096C170.011 149.186 170.183 149.16 170.273 149.038Z" fill="#EF7B58"/>
<path fill-rule="evenodd" clip-rule="evenodd" d="M171.993 150.303C171.896 150.434 171.711 150.463 171.579 150.366L170.336 149.451C170.205 149.355 170.177 149.169 170.273 149.038C170.363 148.915 170.337 148.743 170.215 148.654C170.093 148.564 169.921 148.59 169.831 148.712C169.555 149.088 169.635 149.617 170.011 149.894L171.254 150.808C171.629 151.084 172.159 151.004 172.435 150.628C172.525 150.506 172.499 150.334 172.377 150.244C172.255 150.155 172.083 150.181 171.993 150.303Z" fill="#EF7B58"/>
<path fill-rule="evenodd" clip-rule="evenodd" d="M168.995 149.78L168.996 149.781L170.307 150.746C170.404 150.817 170.541 150.797 170.613 150.699C170.703 150.577 170.875 150.551 170.996 150.641C171.119 150.731 171.145 150.903 171.056 151.025C170.804 151.366 170.323 151.439 169.982 151.188L168.67 150.223C168.509 150.105 168.442 149.992 168.419 149.893C168.385 149.749 168.435 149.579 168.629 149.362C168.729 149.249 168.903 149.24 169.016 149.341C169.129 149.442 169.138 149.615 169.038 149.729C169.024 149.744 169.009 149.763 168.995 149.78Z" fill="#EF7B58"/>
<path fill-rule="evenodd" clip-rule="evenodd" d="M169.782 149.764C169.701 149.706 169.55 149.65 169.393 149.634C169.265 149.622 169.126 149.63 169.039 149.729C168.937 149.841 168.764 149.851 168.651 149.75C168.538 149.649 168.528 149.475 168.63 149.363C168.8 149.172 169.036 149.088 169.283 149.082C169.608 149.073 169.945 149.202 170.111 149.324C170.114 149.327 170.117 149.329 170.12 149.332L170.899 149.956C171.235 150.209 171.306 150.686 171.056 151.025C170.967 151.147 170.794 151.173 170.672 151.083C170.55 150.994 170.524 150.821 170.614 150.699C170.685 150.602 170.664 150.465 170.567 150.394C170.564 150.391 170.561 150.389 170.558 150.387L169.782 149.764Z" fill="#EF7B58"/>
<path fill-rule="evenodd" clip-rule="evenodd" d="M170.862 145.762C170.659 145.519 170.532 145.232 170.524 144.899C170.517 144.639 170.644 144.397 170.838 144.239C171.037 144.077 171.302 144.006 171.552 144.077C171.754 144.133 171.958 144.283 172.097 144.586C172.217 144.849 172.203 145.141 172.04 145.433C171.972 145.554 171.876 145.677 171.751 145.797C171.805 145.828 171.859 145.857 171.915 145.887C172.671 146.273 173.607 146.392 173.607 146.392C173.757 146.411 173.864 146.548 173.844 146.698C173.825 146.848 173.688 146.956 173.537 146.936C173.537 146.936 172.501 146.804 171.664 146.375C171.532 146.308 171.406 146.233 171.288 146.149C171.129 146.246 170.949 146.339 170.746 146.424C170.607 146.482 170.446 146.416 170.387 146.277C170.329 146.137 170.395 145.975 170.535 145.917C170.652 145.868 170.761 145.816 170.862 145.762ZM171.314 145.457C171.378 145.4 171.434 145.342 171.48 145.284C171.609 145.122 171.665 144.962 171.598 144.815C171.544 144.699 171.48 144.627 171.402 144.605C171.326 144.583 171.247 144.614 171.186 144.664C171.12 144.718 171.07 144.798 171.073 144.886C171.078 145.11 171.171 145.297 171.314 145.457Z" fill="#EF7B58"/>
<path fill-rule="evenodd" clip-rule="evenodd" d="M160.322 118.986L168.827 149.184C168.867 149.328 169.019 149.412 169.165 149.372C169.311 149.331 169.396 149.181 169.355 149.033L160.87 118.826L160.322 118.986Z" fill="#EF7B58"/>
<path fill-rule="evenodd" clip-rule="evenodd" d="M173.159 148.529C173.172 148.853 173.252 149.005 173.362 149.061C173.42 149.09 173.488 149.09 173.547 149.061C174.066 148.811 174.457 148.489 174.745 148.18C175.197 147.692 175.371 147.008 175.207 146.363C173.777 140.755 167.654 117.036 167.654 117.036L168.186 116.9C168.186 116.9 174.309 140.62 175.739 146.227C175.949 147.053 175.727 147.928 175.147 148.554C174.818 148.906 174.375 149.273 173.785 149.555C173.575 149.657 173.33 149.657 173.119 149.553C172.896 149.442 172.631 149.186 172.61 148.533C172.609 148.526 172.609 148.518 172.61 148.511C172.61 148.511 172.636 147.716 173.508 146.266C173.586 146.136 173.755 146.094 173.884 146.171C174.014 146.25 174.056 146.418 173.978 146.548C173.252 147.757 173.167 148.446 173.159 148.529Z" fill="#EF7B58"/>
<path fill-rule="evenodd" clip-rule="evenodd" d="M152.076 96.2928L145.072 90.4258L138.27 98.3587L144.661 102.906C144.661 102.906 143.068 107.213 147.049 111.778L155.342 116.812C155.342 116.812 158.691 115.724 159.008 114.689L159.648 119.162L168.205 116.898C168.205 116.898 166.613 111.013 165.588 107.22C165.038 105.187 163.841 103.388 162.176 102.097C160.547 100.834 158.744 99.4356 158.744 99.4356C158.744 99.4356 155.6 102.61 152.915 100.907C152.15 100.422 150.258 98.4032 152.076 96.2928Z" fill="#F9F8DB"/>
<path fill-rule="evenodd" clip-rule="evenodd" d="M148.475 102.099C149.869 102.099 151.001 103.231 151.001 104.626C151.001 106.02 149.869 107.152 148.475 107.152C148.122 107.152 147.835 107.439 147.835 107.793C147.835 108.146 148.122 108.433 148.475 108.433C150.577 108.433 152.283 106.727 152.283 104.626C152.283 102.524 150.577 100.818 148.475 100.818C148.122 100.818 147.835 101.105 147.835 101.459C147.835 101.812 148.122 102.099 148.475 102.099Z" fill="#6451A6"/>
<path fill-rule="evenodd" clip-rule="evenodd" d="M148.476 107.152C147.081 107.152 145.949 106.02 145.949 104.626C145.949 103.231 147.081 102.099 148.476 102.099C148.829 102.099 149.117 101.812 149.117 101.459C149.117 101.105 148.829 100.818 148.476 100.818C146.375 100.818 144.668 102.524 144.668 104.626C144.668 106.727 146.375 108.433 148.476 108.433C148.829 108.433 149.117 108.146 149.117 107.793C149.117 107.439 148.829 107.152 148.476 107.152Z" fill="#6451A6"/>
<path fill-rule="evenodd" clip-rule="evenodd" d="M150.608 113.206C150.772 111.255 152.409 109.72 154.402 109.72C156.504 109.72 158.21 111.426 158.21 113.528C158.21 114.517 157.833 115.418 157.214 116.095C156.847 116.284 156.463 116.436 156.062 116.553C156.062 116.553 155.651 116.317 155.055 115.969C156.134 115.682 156.929 114.697 156.929 113.528C156.929 112.133 155.797 111.001 154.402 111.001C153.009 111.001 151.876 112.133 151.876 113.528C151.876 113.729 151.899 113.924 151.944 114.112C151.282 113.7 150.762 113.357 150.608 113.206ZM165.802 108.025L166.148 109.322C166.058 109.312 166.043 109.23 165.951 109.23C164.556 109.23 163.423 110.362 163.423 111.757C163.423 113.151 164.556 114.283 165.951 114.283C166.545 114.283 166.892 114.125 167.324 113.78L167.725 115.089C167.155 115.43 166.662 115.564 165.951 115.564C163.849 115.564 162.142 113.858 162.142 111.757C162.142 109.688 163.747 108.078 165.802 108.025ZM158.896 99.5414C159.36 99.8681 159.853 100.251 160.367 100.671C160.258 100.657 160.146 100.649 160.034 100.649C158.639 100.649 157.507 101.782 157.507 103.176C157.507 104.571 158.639 105.703 160.034 105.703C161.428 105.703 162.56 104.571 162.56 103.176C162.56 102.936 162.526 102.705 162.464 102.485C162.909 102.884 163.357 103.293 163.805 103.703C163.548 105.555 161.956 106.984 160.034 106.984C157.932 106.984 156.226 105.278 156.226 103.176C156.226 102.214 156.584 101.334 157.173 100.664C157.742 100.309 158.212 99.9393 158.485 99.6966C158.619 99.6373 158.755 99.5853 158.896 99.5414ZM141.716 94.4053C142.266 95.0659 142.599 95.9155 142.599 96.8418C142.599 98.2102 141.673 99.3377 140.589 100.009L139.458 99.2043C140.445 98.8605 141.317 97.9455 141.317 96.8418C141.317 96.3014 141.147 95.8003 140.857 95.3894L141.716 94.4053ZM146.27 91.4293L147.272 92.2686C146.638 92.7278 146.225 93.4741 146.225 94.3159C146.225 95.7103 147.358 96.8424 148.752 96.8424C149.753 96.8424 150.618 96.2593 151.027 95.4146L152.029 96.254V96.2541C151.953 96.3593 151.885 96.4635 151.823 96.5671C151.129 97.5108 150.012 98.1235 148.752 98.1235C146.651 98.1235 144.944 96.4173 144.944 94.3159C144.944 93.1623 145.458 92.128 146.27 91.4293Z" fill="#6451A6"/>
<path fill-rule="evenodd" clip-rule="evenodd" d="M144.672 102.882C144.967 102.197 145.311 101.546 145.822 100.778C145.889 100.677 145.882 100.545 145.805 100.452C145.728 100.36 145.599 100.328 145.488 100.374C144.407 100.824 142.71 101.532 142.71 101.532L144.672 102.882Z" fill="#6451A6"/>
<path fill-rule="evenodd" clip-rule="evenodd" d="M146.362 110.92L155.127 115.943C155.127 115.943 159.975 117.274 164.282 136.942C166.533 147.213 168.635 162.483 169.822 185.175L155.127 185.759L146.79 139.955L140.664 185.759L126.225 185.628C126.225 185.628 117.629 108.715 146.362 110.92Z" fill="#6451A6"/>
<path fill-rule="evenodd" clip-rule="evenodd" d="M143.904 131.037C143.883 130.873 143.992 130.722 144.154 130.691C144.316 130.66 144.473 130.76 144.513 130.92C145.536 134.98 146.79 139.954 146.79 139.954L145.836 145.81C145.836 145.81 144.681 136.977 143.904 131.037Z" fill="black"/>
<path fill-rule="evenodd" clip-rule="evenodd" d="M153.234 88.7071C153.234 88.7071 152.362 91.2581 151.941 92.4869C151.706 93.177 151.88 93.9411 152.39 94.4612C152.454 94.5255 152.521 94.586 152.594 94.6413C153.393 95.2461 154.723 95.4621 155.851 95.2246C155.965 95.2007 156.038 95.089 156.013 94.9753C155.989 94.8616 155.878 94.7887 155.764 94.8127C154.755 95.0251 153.564 94.8467 152.849 94.3057C152.792 94.2629 152.74 94.216 152.691 94.1663C152.292 93.7596 152.155 93.1625 152.34 92.6231C152.76 91.3942 153.632 88.8434 153.632 88.8434C153.67 88.7335 153.611 88.6137 153.501 88.5761C153.391 88.5385 153.272 88.5972 153.234 88.7071Z" fill="#EF7B58"/>
<path fill-rule="evenodd" clip-rule="evenodd" d="M152.942 94.6417L152.248 96.4495C152.206 96.5579 152.26 96.6798 152.368 96.7215C152.476 96.7631 152.599 96.709 152.64 96.6005L153.335 94.7927C153.377 94.6843 153.323 94.5625 153.214 94.5207C153.106 94.4791 152.984 94.5333 152.942 94.6417Z" fill="#EF7B58"/>
<path fill-rule="evenodd" clip-rule="evenodd" d="M158.399 93.1094L157.067 98.2343C157.038 98.3468 157.106 98.4618 157.218 98.491C157.33 98.5202 157.445 98.4526 157.475 98.3402L158.806 93.2153C158.835 93.1028 158.769 92.9879 158.656 92.9586C158.543 92.9294 158.428 92.9969 158.399 93.1094Z" fill="#EF7B58"/>
<path fill-rule="evenodd" clip-rule="evenodd" d="M158.301 93.315C158.301 93.315 158.753 93.3404 159.174 93.2132C159.457 93.1272 159.722 92.9702 159.861 92.7167C159.956 92.5419 159.997 92.3193 159.936 92.0342C159.882 91.7874 159.601 91.3721 159.14 91.3102C158.856 91.2723 158.494 91.3616 158.078 91.7524C157.993 91.8319 157.989 91.9652 158.069 92.0499C158.148 92.1345 158.281 92.1385 158.366 92.059C158.652 91.7905 158.889 91.7014 159.084 91.7275C159.337 91.7615 159.495 91.9875 159.524 92.1233C159.56 92.2863 159.546 92.4146 159.491 92.5145C159.404 92.673 159.228 92.7566 159.051 92.8104C158.701 92.9163 158.324 92.8947 158.324 92.8947C158.208 92.8882 158.108 92.9769 158.102 93.093C158.096 93.2089 158.184 93.3084 158.301 93.315Z" fill="#EF7B58"/>
<path fill-rule="evenodd" clip-rule="evenodd" d="M157.107 98.4574L158.417 99.738C158.557 99.6145 158.659 99.5204 158.745 99.4376L157.409 98.139C157.321 98.0555 157.219 98.0509 157.135 98.1387C157.052 98.2265 157.019 98.374 157.107 98.4574Z" fill="#EF7B58"/>
<path fill-rule="evenodd" clip-rule="evenodd" d="M156.315 89.629C154.615 90.0843 153.286 88.9037 153.286 88.9037C153.199 88.8265 153.191 88.6934 153.268 88.6065C153.345 88.5197 153.478 88.5118 153.565 88.589C153.565 88.589 154.861 89.7411 156.463 89.1398C156.531 89.1141 156.608 89.1258 156.666 89.171C156.724 89.2161 156.754 89.288 156.746 89.3607C156.746 89.3607 156.636 89.7231 156.778 90.1184C157.199 91.2924 158.459 91.4691 158.459 91.4691C158.222 91.6152 158.055 91.7535 158.028 91.8764C158.028 91.8764 157.487 91.8702 157.047 91.4906C156.637 91.1365 156.439 90.6355 156.363 90.1891C156.326 89.9774 156.316 89.7816 156.315 89.629Z" fill="#255932"/>
<path fill-rule="evenodd" clip-rule="evenodd" d="M153.175 88.6331C153.649 87.5864 154.822 87.0496 155.923 87.3751C157.289 87.7767 159.001 88.6571 159.645 90.5299C160.387 90.574 162.975 90.8715 164.383 92.8735C165.053 93.8276 165.464 95.1693 165.267 97.0615C166.632 97.0855 171.958 97.5093 174.211 102.557C174.712 103.681 175.593 107.116 173.101 111.071C174.069 111.657 177.441 113.962 177.917 117.852C178.155 119.796 177.676 122.142 175.795 124.866C174.802 126.305 173.219 127.282 171.365 127.781C171.218 127.821 171.067 127.734 171.028 127.588C170.989 127.441 171.076 127.291 171.222 127.251C172.944 126.788 174.421 125.89 175.343 124.554C177.124 121.975 177.597 119.76 177.372 117.919C176.848 113.638 172.585 111.407 172.585 111.407C172.517 111.371 172.467 111.307 172.447 111.232C172.428 111.157 172.442 111.077 172.485 111.012C175.012 107.197 174.191 103.86 173.709 102.78C171.263 97.3014 164.971 97.6118 164.971 97.6118C164.89 97.6157 164.81 97.5832 164.755 97.5231C164.7 97.463 164.675 97.3816 164.686 97.3007C164.94 95.4224 164.579 94.1072 163.933 93.1892C162.433 91.0538 159.443 91.0711 159.443 91.0711C159.321 91.0714 159.213 90.9913 159.18 90.8743C158.649 89.0793 157.033 88.2736 155.768 87.9017C154.929 87.6538 154.036 88.0626 153.675 88.8595L153.175 88.6331Z" fill="#255932"/>
<path fill-rule="evenodd" clip-rule="evenodd" d="M162.629 127.083L161.388 126.375L161.652 127.076L162.783 127.672L162.629 127.083Z" fill="#255932"/>
<path fill-rule="evenodd" clip-rule="evenodd" d="M145.31 110.874L145.591 109.72L157.215 116.095L156.065 116.553L145.31 110.874Z" fill="#EE572A"/>
<path d="M150.254 114.777C151.203 114.81 151.998 114.097 152.029 113.185C152.06 112.272 151.317 111.506 150.368 111.474C149.419 111.441 148.624 112.154 148.593 113.066C148.561 113.978 149.305 114.744 150.254 114.777Z" fill="#EE572A"/>
<path fill-rule="evenodd" clip-rule="evenodd" d="M139.582 96.8726C139.582 96.8726 136.794 93.8845 134.78 91.7288C133.626 90.4945 133.051 88.8283 133.199 87.1454C133.699 81.4162 134.806 68.7419 134.806 68.7419C134.818 68.6063 134.718 68.4866 134.582 68.4747C134.447 68.4629 134.327 68.5634 134.315 68.699C134.315 68.699 133.208 81.3733 132.707 87.1024C132.548 88.9247 133.17 90.729 134.419 92.0656C136.433 94.2212 139.222 97.2093 139.222 97.2093L139.582 96.8726Z" fill="#EF7B58"/>
<path fill-rule="evenodd" clip-rule="evenodd" d="M138.144 71.0306C138.033 70.9321 137.964 70.8436 137.922 70.7693C137.916 70.7605 137.912 70.7512 137.908 70.7418C137.806 70.4959 137.893 70.2121 138.12 70.0632C138.63 69.7395 139.278 69.7049 139.824 69.7641C140.514 69.8439 141.032 70.4319 141.024 71.1259L140.847 86.626L145.069 90.4417L144.738 90.8076L140.434 86.9175C140.382 86.8701 140.351 86.8024 140.352 86.7316C140.352 86.7316 140.491 74.5284 140.531 71.1203C140.536 70.6787 140.207 70.3048 139.769 70.2542C139.327 70.2064 138.799 70.217 138.387 70.4774C138.365 70.4917 138.355 70.5175 138.36 70.5421C138.476 70.7258 138.816 70.9689 139.697 71.2643C139.82 71.3054 139.889 71.4343 139.857 71.5596C139.825 71.6849 139.702 71.7639 139.575 71.7408L138.303 71.509C138.096 71.6339 137.499 72.0167 137.033 72.5372C137.005 72.569 136.977 72.6014 136.949 72.6344C137.164 72.9148 137.284 73.2232 137.304 73.4586C137.358 74.0608 137.161 74.3598 136.956 74.4806C136.798 74.5739 136.615 74.5826 136.448 74.5236C136.218 74.4427 136.022 74.2303 135.984 73.9718C135.916 73.516 136.062 73.0725 136.312 72.6739C136.121 72.5238 135.877 72.4137 135.585 72.3929C135.448 72.3832 135.347 72.265 135.356 72.1293C135.366 71.9935 135.484 71.8911 135.62 71.9008C136.015 71.9291 136.343 72.0777 136.602 72.2812C136.623 72.2567 136.644 72.2324 136.666 72.2084C137.292 71.5076 138.136 71.0347 138.136 71.0347L138.144 71.0306ZM136.654 73.0591C136.508 73.322 136.428 73.6051 136.472 73.8989C136.481 73.9621 136.526 74.0135 136.579 74.0433C136.618 74.0656 136.665 74.0795 136.705 74.056C136.741 74.0349 136.764 73.9923 136.784 73.9333C136.819 73.8292 136.829 73.6877 136.814 73.502C136.802 73.373 136.748 73.215 136.654 73.0591Z" fill="#EF7B58"/>
<path fill-rule="evenodd" clip-rule="evenodd" d="M135.173 67.9437C134.731 67.9207 134.325 68.3129 134.298 68.8464L134.217 70.4061C134.189 70.9397 134.552 71.3718 134.994 71.3948C135.13 71.4019 135.246 71.2973 135.253 71.1613C135.26 71.0253 135.156 70.9093 135.02 70.9022C134.821 70.8919 134.697 70.6708 134.709 70.4317L134.79 68.8721C134.803 68.633 134.949 68.426 135.148 68.4363C135.284 68.4434 135.399 68.3386 135.407 68.2028C135.414 68.0668 135.31 67.9508 135.173 67.9437Z" fill="#EF7B58"/>
<path fill-rule="evenodd" clip-rule="evenodd" d="M134.994 71.3948C135.437 71.4178 135.842 71.0255 135.869 70.4919L135.95 68.9323C135.978 68.3987 135.616 67.9667 135.174 67.9437C135.037 67.9366 134.922 68.0412 134.915 68.1772C134.908 68.313 135.012 68.4292 135.148 68.4363C135.346 68.4466 135.471 68.6677 135.458 68.9067L135.377 70.4663C135.365 70.7055 135.218 70.9125 135.02 70.9022C134.884 70.8951 134.768 70.9998 134.761 71.1357C134.754 71.2717 134.858 71.3877 134.994 71.3948Z" fill="#EF7B58"/>
<path fill-rule="evenodd" clip-rule="evenodd" d="M136.376 67.9043C135.923 67.8807 135.512 68.2767 135.484 68.813L135.402 70.388C135.374 70.9245 135.742 71.3609 136.195 71.3845C136.331 71.3915 136.447 71.2869 136.454 71.151C136.461 71.0151 136.357 70.899 136.221 70.8919C136.015 70.8812 135.882 70.6574 135.895 70.4136L135.977 68.8386C135.989 68.5949 136.145 68.3861 136.35 68.3968C136.487 68.4039 136.602 68.2992 136.609 68.1633C136.616 68.0274 136.512 67.9113 136.376 67.9043Z" fill="#EF7B58"/>
<path fill-rule="evenodd" clip-rule="evenodd" d="M136.195 71.3845C136.648 71.408 137.058 71.012 137.086 70.4755L137.168 68.9005C137.196 68.3642 136.829 67.9278 136.376 67.9043C136.24 67.8972 136.124 68.0018 136.117 68.1378C136.11 68.2737 136.214 68.3897 136.35 68.3968C136.556 68.4075 136.689 68.6313 136.676 68.875L136.594 70.45C136.582 70.6938 136.426 70.9026 136.221 70.8919C136.084 70.8848 135.969 70.9895 135.962 71.1254C135.955 71.2613 136.059 71.3774 136.195 71.3845Z" fill="#EF7B58"/>
<path fill-rule="evenodd" clip-rule="evenodd" d="M137.611 67.8579C137.151 67.834 136.73 68.2429 136.701 68.7979L136.615 70.4441C136.586 70.9991 136.963 71.4494 137.423 71.4734C137.559 71.4804 137.676 71.3759 137.683 71.2399C137.69 71.1039 137.585 70.9879 137.449 70.9809C137.232 70.9696 137.094 70.7303 137.108 70.4697L137.193 68.8234C137.207 68.563 137.369 68.3392 137.585 68.3505C137.721 68.3575 137.838 68.2529 137.845 68.117C137.852 67.9811 137.747 67.8649 137.611 67.8579Z" fill="#EF7B58"/>
<path fill-rule="evenodd" clip-rule="evenodd" d="M137.423 71.4733C137.883 71.4972 138.304 71.0883 138.333 70.5333L138.419 68.887C138.448 68.3321 138.071 67.8817 137.611 67.8578C137.475 67.8507 137.359 67.9553 137.351 68.0913C137.344 68.2272 137.449 68.3433 137.585 68.3504C137.801 68.3616 137.939 68.6009 137.925 68.8614L137.84 70.5077C137.826 70.7682 137.664 70.992 137.449 70.9808C137.313 70.9737 137.196 71.0782 137.189 71.2142C137.182 71.3502 137.287 71.4662 137.423 71.4733Z" fill="#EF7B58"/>
<path fill-rule="evenodd" clip-rule="evenodd" d="M139.648 69.9577L139.704 68.8901C139.734 68.3012 139.348 67.8272 138.882 67.803C138.746 67.7959 138.63 67.9006 138.623 68.0365C138.616 68.1724 138.721 68.2884 138.856 68.2955C139.085 68.3073 139.226 68.5748 139.211 68.8645L139.155 69.9321C139.148 70.068 139.253 70.1841 139.389 70.1912C139.525 70.1982 139.641 70.0936 139.648 69.9577Z" fill="#EF7B58"/>
<path fill-rule="evenodd" clip-rule="evenodd" d="M138.882 67.8029C138.417 67.7787 137.983 68.2102 137.953 68.7991L137.878 70.2307C137.871 70.3666 137.975 70.4827 138.112 70.4898C138.247 70.4969 138.364 70.3922 138.371 70.2563L138.445 68.8247C138.46 68.5349 138.627 68.2835 138.857 68.2954C138.992 68.3025 139.109 68.198 139.116 68.062C139.123 67.9261 139.018 67.81 138.882 67.8029Z" fill="#EF7B58"/>
<path fill-rule="evenodd" clip-rule="evenodd" d="M155.316 90.882C155.463 90.9156 155.58 91.0182 155.663 91.1574C155.812 91.4044 155.857 91.7605 155.773 92.1286C155.689 92.4966 155.492 92.7975 155.251 92.9552C155.116 93.0443 154.966 93.0857 154.819 93.0521C154.706 93.0262 154.593 93.097 154.567 93.2103C154.541 93.3234 154.612 93.4365 154.725 93.4624C154.981 93.521 155.244 93.4625 155.482 93.3076C155.801 93.099 156.072 92.7091 156.183 92.2227C156.295 91.7362 156.22 91.267 156.024 90.9408C155.878 90.6977 155.666 90.5303 155.41 90.4717C155.297 90.4458 155.184 90.5166 155.158 90.6298C155.132 90.7431 155.203 90.8561 155.316 90.882Z" fill="black"/>
<path fill-rule="evenodd" clip-rule="evenodd" d="M154.819 93.052C154.673 93.0184 154.557 92.9161 154.472 92.7766C154.324 92.5297 154.278 92.1735 154.363 91.8055C154.447 91.4374 154.643 91.1366 154.884 90.9788C155.021 90.89 155.17 90.8483 155.316 90.8819C155.429 90.9078 155.543 90.8371 155.569 90.7238C155.595 90.6106 155.523 90.4975 155.41 90.4717C155.156 90.4133 154.891 90.4715 154.653 90.6265C154.335 90.835 154.064 91.2249 153.952 91.7114C153.841 92.1978 153.915 92.667 154.111 92.9933C154.258 93.2363 154.471 93.4041 154.725 93.4624C154.838 93.4883 154.952 93.4174 154.977 93.3043C155.003 93.191 154.932 93.0779 154.819 93.052Z" fill="black"/>
<path fill-rule="evenodd" clip-rule="evenodd" d="M152.78 89.8723C152.909 89.9018 153.009 89.9993 153.081 90.1304C153.214 90.3755 153.25 90.7318 153.165 91.1024C153.08 91.473 152.893 91.7784 152.666 91.9408C152.544 92.0276 152.412 92.0719 152.283 92.0423C152.17 92.0163 152.058 92.0875 152.032 92.2008C152.006 92.3139 152.075 92.4267 152.189 92.4527C152.43 92.508 152.682 92.4457 152.911 92.2831C153.207 92.071 153.464 91.6801 153.575 91.1963C153.686 90.7124 153.625 90.2487 153.45 89.9288C153.315 89.6831 153.116 89.5173 152.874 89.462C152.761 89.436 152.649 89.5071 152.623 89.6203C152.597 89.7335 152.667 89.8462 152.78 89.8723Z" fill="black"/>
<path fill-rule="evenodd" clip-rule="evenodd" d="M152.284 92.0423C152.155 92.0128 152.056 91.9156 151.984 91.7845C151.851 91.5394 151.815 91.1831 151.9 90.8125C151.985 90.4419 152.172 90.1366 152.399 89.9741C152.521 89.8874 152.652 89.8427 152.781 89.8723C152.894 89.8983 153.007 89.8275 153.033 89.7142C153.059 89.601 152.988 89.488 152.875 89.462C152.634 89.4067 152.382 89.469 152.154 89.6318C151.858 89.8438 151.601 90.2347 151.49 90.7186C151.38 91.2024 151.441 91.6661 151.615 91.9861C151.749 92.2316 151.948 92.3974 152.19 92.4527C152.303 92.4787 152.416 92.4078 152.442 92.2947C152.468 92.1814 152.397 92.0684 152.284 92.0423Z" fill="black"/>
<path fill-rule="evenodd" clip-rule="evenodd" d="M153.295 91.422L154.016 91.6918C154.124 91.7327 154.245 91.6774 154.286 91.5687C154.327 91.4599 154.272 91.3385 154.164 91.2977L153.443 91.0279C153.334 90.987 153.213 91.0422 153.173 91.151C153.132 91.2598 153.187 91.3812 153.295 91.422Z" fill="black"/>
<path fill-rule="evenodd" clip-rule="evenodd" d="M98.7926 89.3582C98.7926 89.3582 94.3435 85.9038 89.3861 87.128C87.2624 87.6524 85.0399 89.03 83.0388 91.9152C82.5072 92.6815 80.3295 97.0339 81.8894 101.336C82.9228 104.185 85.5909 107.032 91.5076 108.766C91.6532 108.808 91.806 108.725 91.8481 108.579C91.8911 108.434 91.8069 108.281 91.6623 108.239C85.9858 106.575 83.3969 103.882 82.4055 101.148C80.9285 97.0752 82.9866 92.9538 83.4899 92.2281C85.3935 89.4836 87.4976 88.1599 89.5177 87.6611C94.2291 86.4975 98.455 89.7915 98.455 89.7915C98.5748 89.8845 98.7478 89.863 98.8402 89.7434C98.9335 89.6238 98.9116 89.4512 98.7926 89.3582Z" fill="#D92B2B"/>
<path fill-rule="evenodd" clip-rule="evenodd" d="M95.7113 102.023L95.3068 102.026C95.3068 102.026 95.0918 102.265 95.0323 102.339C93.8583 103.793 89.4668 109.045 84.0713 137.258L91.0666 139.534L98.2625 114.899C98.2625 114.899 99.4174 116.75 102.468 116.492L111.007 111.226C111.007 111.226 114.617 105.794 112.783 102.342C112.783 102.342 119.187 96.0518 122.697 92.6035C124.125 91.2012 124.906 89.2687 124.853 87.2682C124.74 83.0446 124.556 76.0519 124.556 76.0519L116.814 76.1123L116.785 86.535L106.564 95.2876C106.564 95.2876 107.436 102.116 95.7113 102.023Z" fill="#F28F38"/>
<path fill-rule="evenodd" clip-rule="evenodd" d="M98.2822 115.014C98.2822 115.014 98.5055 113.654 98.6757 112.619C98.7032 112.453 98.8368 112.325 99.0042 112.304C99.1717 112.284 99.3318 112.377 99.3977 112.532C99.9394 113.682 100.703 115.475 100.655 116.422C100.655 116.422 99.1616 116.084 98.2822 115.014Z" fill="black"/>
<path fill-rule="evenodd" clip-rule="evenodd" d="M112.787 102.34C112.787 102.34 112.221 101.513 111.725 100.787C111.62 100.634 111.63 100.43 111.749 100.288C111.869 100.146 112.067 100.1 112.237 100.176C112.807 100.425 113.474 100.758 114.008 101.157L112.787 102.34Z" fill="black"/>
<path fill-rule="evenodd" clip-rule="evenodd" d="M76.4182 146.075L74.8591 153.516L61.4873 149.797L65.4808 133.055L78.5705 135.803L76.9711 143.436L90.4434 146.474L89.8503 149.104L76.4182 146.075Z" fill="#6451A6"/>
<path fill-rule="evenodd" clip-rule="evenodd" d="M69.7244 142.754C69.6968 143.74 68.8741 144.518 67.8882 144.49C66.9024 144.463 66.1244 143.64 66.152 142.654C66.1623 142.284 65.8708 141.976 65.5014 141.966C65.132 141.956 64.8236 142.247 64.8133 142.617C64.765 144.341 66.1261 145.78 67.8508 145.829C69.5755 145.877 71.0148 144.516 71.0631 142.792C71.0734 142.422 70.7819 142.114 70.4125 142.103C70.0431 142.093 69.7348 142.384 69.7244 142.754Z" fill="#F2BBBB"/>
<path fill-rule="evenodd" clip-rule="evenodd" d="M66.1516 142.654C66.1792 141.668 67.002 140.89 67.9878 140.918C68.9737 140.945 69.7517 141.768 69.7241 142.754C69.7137 143.123 70.0053 143.432 70.3747 143.442C70.7441 143.453 71.0524 143.161 71.0627 142.792C71.111 141.066 69.75 139.627 68.0253 139.579C66.3007 139.531 64.8612 140.891 64.8129 142.617C64.8026 142.986 65.0942 143.295 65.4635 143.305C65.8329 143.315 66.1413 143.023 66.1516 142.654Z" fill="#F2BBBB"/>
<path fill-rule="evenodd" clip-rule="evenodd" d="M70.4066 144.075L74.0271 144.973C74.3857 145.061 74.7491 144.842 74.8381 144.484C74.927 144.125 74.708 143.762 74.3493 143.672L70.7288 142.775C70.3701 142.686 70.0067 142.905 69.9178 143.264C69.8288 143.623 70.0479 143.986 70.4066 144.075Z" fill="#F2BBBB"/>
<path fill-rule="evenodd" clip-rule="evenodd" d="M72.5808 145.346L73.2225 142.883C73.3157 142.525 73.101 142.159 72.7434 142.066C72.3858 141.972 72.0199 142.187 71.9266 142.545L71.2849 145.008C71.1918 145.366 71.4065 145.732 71.7641 145.825C72.1217 145.918 72.4877 145.704 72.5808 145.346Z" fill="#F2BBBB"/>
<path fill-rule="evenodd" clip-rule="evenodd" d="M84.2952 137.228H84.0967C84.0967 137.228 81.8278 145.921 82.4326 146.976C82.2282 147.422 84.2054 148.776 84.4547 148.718C84.9664 148.599 84.5673 145.889 84.0967 145.909C84.0967 145.909 86.2478 145.768 86.1344 145.53L89.0277 146.163C89.0277 146.163 90.7817 139.536 90.71 139.409" fill="white"/>
<path fill-rule="evenodd" clip-rule="evenodd" d="M82.75 147.857C82.6092 148.118 82.5157 148.442 82.7669 148.783C83.0265 149.136 83.5241 149.212 83.8766 148.953C83.976 148.879 83.9972 148.74 83.9242 148.64C83.8512 148.541 83.7115 148.52 83.612 148.593C83.4576 148.707 83.2396 148.674 83.1259 148.519C83.0037 148.353 83.075 148.195 83.1435 148.068C83.2017 147.96 83.1606 147.824 83.0527 147.766C82.9441 147.707 82.8082 147.748 82.75 147.857Z" fill="black"/>
<path fill-rule="evenodd" clip-rule="evenodd" d="M85.0345 148.033C85.382 147.777 85.5285 147.307 85.298 146.942C85.0518 146.551 84.7408 146.527 84.5275 146.607C84.4123 146.65 84.3539 146.779 84.397 146.894C84.4401 147.01 84.5691 147.068 84.6843 147.025C84.7558 146.998 84.8378 147.048 84.9206 147.179C85.0265 147.347 84.9302 147.556 84.77 147.673C84.6705 147.747 84.6493 147.886 84.7223 147.986C84.7953 148.085 84.9351 148.106 85.0345 148.033Z" fill="black"/>
<path fill-rule="evenodd" clip-rule="evenodd" d="M83.9933 148.569C83.8822 148.821 83.9056 149.123 84.08 149.36C84.153 149.459 84.2928 149.481 84.3922 149.407C84.4916 149.334 84.5121 149.195 84.4391 149.096C84.3627 148.992 84.3534 148.859 84.4016 148.749C84.4515 148.636 84.4001 148.504 84.2876 148.455C84.1742 148.405 84.0423 148.457 83.9933 148.569Z" fill="black"/>
<path fill-rule="evenodd" clip-rule="evenodd" d="M84.0795 149.36C84.3392 149.713 84.8368 149.789 85.1892 149.529L86.4323 148.615C86.7848 148.355 86.8607 147.858 86.601 147.505C86.528 147.406 86.3882 147.384 86.2888 147.458C86.1894 147.531 86.1682 147.671 86.2412 147.77C86.3548 147.924 86.3222 148.142 86.1678 148.255L84.9247 149.17C84.7702 149.283 84.5522 149.25 84.4386 149.096C84.3656 148.997 84.2266 148.975 84.1272 149.048C84.0278 149.121 84.0066 149.261 84.0795 149.36Z" fill="black"/>
<path fill-rule="evenodd" clip-rule="evenodd" d="M86.6013 147.505C86.3416 147.152 85.8441 147.076 85.4917 147.336L84.9256 147.752C84.8262 147.825 84.8049 147.965 84.8779 148.064C84.9509 148.164 85.0907 148.185 85.1901 148.112L85.7562 147.695C85.9106 147.582 86.1278 147.615 86.2415 147.77C86.3145 147.869 86.4543 147.89 86.5537 147.817C86.6531 147.744 86.6743 147.604 86.6013 147.505Z" fill="black"/>
<path fill-rule="evenodd" clip-rule="evenodd" d="M87.9129 148.082C87.6532 147.729 87.1557 147.653 86.8032 147.913L85.5601 148.827C85.2077 149.086 85.1317 149.584 85.3914 149.937C85.4644 150.036 85.6042 150.057 85.7036 149.984C85.803 149.911 85.8234 149.772 85.7504 149.673C85.6368 149.518 85.6702 149.3 85.8246 149.187L87.0677 148.272C87.2222 148.158 87.4393 148.192 87.553 148.347C87.626 148.446 87.7658 148.467 87.8652 148.394C87.9646 148.321 87.9858 148.181 87.9129 148.082Z" fill="black"/>
<path fill-rule="evenodd" clip-rule="evenodd" d="M85.392 149.937C85.6517 150.29 86.1493 150.365 86.5017 150.106L87.7448 149.192C88.0973 148.932 88.1732 148.435 87.9135 148.082C87.8405 147.983 87.7007 147.961 87.6013 148.034C87.5019 148.107 87.4807 148.247 87.5537 148.347C87.6673 148.501 87.6347 148.718 87.4803 148.832L86.2372 149.746C86.0827 149.86 85.8647 149.827 85.7511 149.673C85.6781 149.573 85.5391 149.551 85.4397 149.625C85.3403 149.698 85.3191 149.838 85.392 149.937Z" fill="black"/>
<path fill-rule="evenodd" clip-rule="evenodd" d="M87.9726 149.063L87.1954 149.686C87.1 149.763 86.9593 149.748 86.8823 149.651C86.8046 149.556 86.8205 149.415 86.9167 149.338L87.6985 148.71L87.7056 148.705C87.8649 148.588 88.1893 148.464 88.5014 148.472C88.7343 148.479 88.958 148.556 89.1184 148.736C89.2006 148.827 89.1925 148.969 89.101 149.051C89.0088 149.133 88.8682 149.125 88.7859 149.033C88.686 148.923 88.5322 148.908 88.3884 148.922C88.2206 148.939 88.0595 149 87.9726 149.063Z" fill="black"/>
<path fill-rule="evenodd" clip-rule="evenodd" d="M88.8603 149.128C88.8413 149.102 88.8133 149.064 88.7859 149.033C88.7036 148.942 88.711 148.801 88.8032 148.718C88.8947 148.636 89.0361 148.644 89.1183 148.736C89.2965 148.934 89.347 149.088 89.316 149.221C89.2949 149.311 89.2316 149.413 89.0843 149.521L87.7727 150.486C87.4542 150.72 87.0055 150.652 86.7712 150.334C86.5369 150.015 86.6052 149.566 86.9237 149.332C87.023 149.259 87.1631 149.28 87.2361 149.379C87.3091 149.479 87.2875 149.619 87.1883 149.692C87.0682 149.78 87.0423 149.949 87.1305 150.069C87.2188 150.189 87.3881 150.215 87.5082 150.126L88.8198 149.162C88.8334 149.152 88.8485 149.139 88.8603 149.128Z" fill="black"/>
<path fill-rule="evenodd" clip-rule="evenodd" d="M84.678 147.867C84.671 147.79 84.5897 147.091 83.8511 145.861C83.7877 145.756 83.8219 145.619 83.9275 145.555C84.0331 145.491 84.1704 145.526 84.2338 145.631C85.0961 147.066 85.1243 147.853 85.1243 147.853L85.1245 147.871C85.1039 148.493 84.8565 148.74 84.6418 148.847C84.4466 148.943 84.2184 148.943 84.0233 148.849C83.4159 148.557 82.9657 148.177 82.6348 147.816C82.0983 147.22 81.8852 146.401 82.0639 145.62C82.5993 143.28 84.0902 137.16 84.0902 137.16L84.444 137.276C84.444 137.276 83.0344 143.379 82.4991 145.719C82.3528 146.359 82.5271 147.03 82.9652 147.516C83.2626 147.84 83.6687 148.184 84.2171 148.447C84.2893 148.482 84.3736 148.482 84.444 148.447C84.5672 148.386 84.6643 148.223 84.678 147.867Z" fill="black"/>
<path fill-rule="evenodd" clip-rule="evenodd" d="M86.1182 145.145C85.9739 145.015 85.8647 144.88 85.7907 144.747C85.6367 144.471 85.6213 144.195 85.7354 143.947C85.8662 143.662 86.0568 143.519 86.2476 143.465C86.4816 143.399 86.7289 143.466 86.9148 143.618C87.0967 143.766 87.2163 143.993 87.2105 144.237C87.2021 144.579 87.0627 144.871 86.8442 145.116C86.9607 145.182 87.0898 145.244 87.2312 145.304C87.3448 145.351 87.3984 145.482 87.3509 145.596C87.3034 145.709 87.1725 145.763 87.0588 145.716C86.8469 145.627 86.659 145.53 86.4954 145.427C86.372 145.516 86.2379 145.597 86.0976 145.669C85.2683 146.093 84.2416 146.224 84.2416 146.224C84.1194 146.24 84.0076 146.153 83.992 146.031C83.9765 145.909 84.0631 145.797 84.1852 145.781C84.1852 145.781 85.1308 145.662 85.8942 145.271C85.971 145.232 86.0462 145.19 86.1182 145.145ZM86.4747 144.866C86.6455 144.691 86.758 144.48 86.7642 144.226C86.7668 144.122 86.7104 144.027 86.6325 143.964C86.5586 143.904 86.4622 143.868 86.3691 143.895C86.2797 143.92 86.2024 144 86.1409 144.133C86.0665 144.295 86.1224 144.476 86.2651 144.655C86.322 144.726 86.392 144.797 86.4747 144.866Z" fill="black"/>
<path fill-rule="evenodd" clip-rule="evenodd" d="M90.6699 139.392L88.4785 148.393C88.4484 148.513 88.521 148.634 88.6404 148.664C88.7598 148.694 88.8813 148.622 88.9114 148.502L91.0673 139.534L90.6699 139.392Z" fill="black"/>
<path fill-rule="evenodd" clip-rule="evenodd" d="M123.316 68.5574C123.302 68.4894 123.321 68.4161 123.372 68.3623C123.446 68.2858 123.526 68.2812 123.6 68.3055C123.631 68.316 123.71 68.3432 123.742 68.4535C123.747 68.4668 123.756 68.5568 123.762 68.7099C123.8 69.9118 123.87 76.0469 123.87 76.0469L123.431 76.0519C123.431 76.0519 123.361 69.9242 123.323 68.7238C123.32 68.6459 123.317 68.5787 123.316 68.5574ZM123.425 68.7067C123.464 68.7291 123.505 68.736 123.543 68.7334C123.503 68.7358 123.461 68.7269 123.425 68.7067ZM123.55 68.733L123.547 68.7332L123.548 68.7331L123.55 68.733ZM123.576 68.7292L123.572 68.7299L123.574 68.7296L123.576 68.7292ZM123.583 68.7274C123.619 68.7193 123.656 68.7016 123.689 68.6663C123.659 68.6975 123.623 68.7179 123.583 68.7274Z" fill="black"/>
<path fill-rule="evenodd" clip-rule="evenodd" d="M116.857 76.0907L117.296 76.0857C117.296 76.0857 117.148 72.3668 117.146 70.9061C117.145 70.4524 117.466 70.0615 117.91 69.9726C118.299 69.896 118.739 69.8381 119.051 69.9023C119.18 69.9288 119.288 69.967 119.314 70.0749C119.339 70.1771 119.312 70.2866 119.198 70.4104C119.031 70.5916 118.717 70.783 118.182 70.9983C118.07 71.0435 118.015 71.1715 118.06 71.284C118.105 71.3965 118.233 71.4511 118.346 71.4058C118.969 71.1552 119.327 70.9191 119.521 70.7081C119.769 70.4397 119.795 70.1927 119.741 69.9709C119.676 69.7033 119.459 69.5379 119.139 69.4721C118.78 69.3981 118.273 69.4534 117.825 69.5418C117.174 69.6719 116.706 70.2434 116.707 70.9066C116.709 72.3674 116.857 76.0885 116.857 76.0885V76.0907Z" fill="black"/>
<path fill-rule="evenodd" clip-rule="evenodd" d="M120.859 72.5574C120.75 72.4158 120.624 72.2829 120.492 72.1595C119.799 71.5102 118.91 71.1201 118.91 71.1201C118.799 71.0714 118.748 70.9417 118.797 70.8307C118.846 70.7197 118.975 70.6692 119.087 70.7179C119.087 70.7179 120.045 71.1388 120.793 71.8389C120.97 72.0055 121.135 72.1879 121.275 72.3838C121.503 72.311 121.74 72.2594 121.94 72.1755C122.052 72.1287 122.181 72.1813 122.227 72.2931C122.274 72.4048 122.222 72.5337 122.11 72.5806C121.927 72.6573 121.715 72.7086 121.504 72.7718C121.64 73.0544 121.714 73.3583 121.697 73.6785C121.679 74.0045 121.537 74.2124 121.357 74.3274C121.082 74.5049 120.698 74.4617 120.448 74.2322C120.195 74.0003 120.054 73.5683 120.396 72.9948C120.513 72.7986 120.675 72.6605 120.859 72.5574ZM121.095 72.9277C120.967 72.9955 120.854 73.0857 120.773 73.2201C120.583 73.5391 120.604 73.7795 120.745 73.9085C120.848 74.0034 121.006 74.0315 121.12 73.9581C121.202 73.9057 121.25 73.8034 121.258 73.6552C121.272 73.3968 121.208 73.1536 121.095 72.9277Z" fill="black"/>
<path fill-rule="evenodd" clip-rule="evenodd" d="M118.051 71.3844C118.212 71.5777 118.383 71.7829 118.745 71.7348C119.211 71.6732 119.505 71.2956 119.505 70.6518C119.505 70.5306 119.406 70.4321 119.285 70.4321C119.164 70.4321 119.065 70.5306 119.065 70.6518C119.065 71.0167 118.951 71.2645 118.687 71.2995C118.521 71.3215 118.463 71.1923 118.389 71.1033C118.311 71.0101 118.172 70.9975 118.079 71.0751C117.986 71.1525 117.973 71.2912 118.051 71.3844Z" fill="black"/>
<path fill-rule="evenodd" clip-rule="evenodd" d="M118.173 68.7469L118.208 69.7258C118.212 69.8469 118.116 69.9488 117.996 69.953C117.875 69.9573 117.772 69.8624 117.768 69.7412L117.733 68.7578V68.75C117.733 68.1088 118.151 67.6172 118.619 67.6172C119.088 67.6172 119.505 68.1088 119.505 68.7483L119.513 69.6341C119.513 69.7553 119.415 69.8544 119.294 69.8553C119.173 69.8562 119.074 69.7586 119.073 69.6374C119.073 69.6374 119.066 68.7516 119.066 68.75C119.066 68.5488 119.009 68.3658 118.913 68.2338C118.837 68.1291 118.736 68.0564 118.619 68.0564C118.503 68.0564 118.402 68.1291 118.326 68.2338C118.23 68.365 118.174 68.547 118.173 68.7469Z" fill="black"/>
<path fill-rule="evenodd" clip-rule="evenodd" d="M120.055 71.7233C120.529 71.7233 120.927 71.2887 120.927 70.641V68.7393C120.927 68.0981 120.509 67.6064 120.041 67.6064C119.573 67.6064 119.155 68.0981 119.155 68.7393C119.155 68.7363 119.141 69.7815 119.141 69.7815C119.14 69.9027 119.236 70.0024 119.357 70.0041C119.478 70.0059 119.578 69.9087 119.58 69.7875L119.594 68.7423C119.594 68.7413 119.594 68.7402 119.594 68.7393C119.594 68.5381 119.651 68.3551 119.747 68.2231C119.823 68.1183 119.925 68.0456 120.041 68.0456C120.158 68.0456 120.259 68.1183 120.335 68.2231C120.431 68.3551 120.488 68.5381 120.488 68.7393V70.641C120.488 71.0021 120.319 71.2841 120.055 71.2841C119.934 71.2841 119.836 71.3824 119.836 71.5036C119.836 71.6248 119.934 71.7233 120.055 71.7233Z" fill="black"/>
<path fill-rule="evenodd" clip-rule="evenodd" d="M122.349 68.7287C122.349 68.0875 121.931 67.5958 121.463 67.5958C120.995 67.5958 120.577 68.0875 120.577 68.7287V70.6304C120.577 71.2716 120.995 71.7633 121.463 71.7633C121.931 71.7633 122.349 71.2716 122.349 70.6304V68.7287ZM121.91 68.7287V70.6304C121.91 70.8315 121.853 71.0147 121.757 71.1466C121.681 71.2513 121.58 71.324 121.463 71.324C121.347 71.324 121.245 71.2513 121.17 71.1466C121.073 71.0147 121.017 70.8315 121.017 70.6304V68.7287C121.017 68.5274 121.073 68.3444 121.17 68.2125C121.245 68.1077 121.347 68.035 121.463 68.035C121.58 68.035 121.681 68.1077 121.757 68.2125C121.853 68.3444 121.91 68.5274 121.91 68.7287Z" fill="black"/>
<path fill-rule="evenodd" clip-rule="evenodd" d="M123.771 68.7179C123.771 68.0767 123.353 67.5851 122.885 67.5851C122.417 67.5851 121.999 68.0767 121.999 68.7179V70.6197C121.999 71.2609 122.417 71.7525 122.885 71.7525C123.353 71.7525 123.771 71.2609 123.771 70.6197V68.7179ZM123.332 68.7179V70.6197C123.332 70.8208 123.275 71.0039 123.179 71.1359C123.103 71.2405 123.002 71.3132 122.885 71.3132C122.769 71.3132 122.667 71.2405 122.591 71.1359C122.495 71.0039 122.438 70.8208 122.438 70.6197V68.7179C122.438 68.5167 122.495 68.3337 122.591 68.2017C122.667 68.097 122.769 68.0243 122.885 68.0243C123.002 68.0243 123.103 68.097 123.179 68.2017C123.275 68.3337 123.332 68.5167 123.332 68.7179Z" fill="black"/>
<path fill-rule="evenodd" clip-rule="evenodd" d="M95.3066 102.026L95.8749 102.024C95.8749 102.024 98.5579 99.2509 100.502 98.1499C100.609 98.0892 100.646 97.9529 100.586 97.8457C100.525 97.7385 100.389 97.7008 100.281 97.7616C98.0903 99.0028 96.8495 100.349 95.6452 101.648C95.5656 101.734 95.3066 102.026 95.3066 102.026Z" fill="black"/>
<path fill-rule="evenodd" clip-rule="evenodd" d="M98.8157 92.9972L100.176 98.0142C100.208 98.1331 100.331 98.2034 100.45 98.1712C100.569 98.1389 100.639 98.0163 100.607 97.8974L99.2458 92.8803C99.2138 92.7615 99.0912 92.6912 98.9722 92.7234C98.8532 92.7556 98.7828 92.8783 98.8157 92.9972Z" fill="black"/>
<path fill-rule="evenodd" clip-rule="evenodd" d="M106.587 95.2775L105.295 96.0409C105.189 96.1031 105.153 96.2399 105.215 96.3463C105.277 96.4526 105.414 96.4884 105.52 96.4262L106.588 95.8435L106.587 95.2775Z" fill="black"/>
<path fill-rule="evenodd" clip-rule="evenodd" d="M105.815 96.81L104.489 94.3352C104.432 94.2266 104.296 94.1856 104.188 94.2437C104.079 94.3019 104.037 94.4372 104.096 94.5459L105.421 97.0207C105.479 97.1293 105.614 97.1702 105.723 97.1121C105.832 97.054 105.873 96.9186 105.815 96.81Z" fill="black"/>
<path fill-rule="evenodd" clip-rule="evenodd" d="M101.339 94.9405C102.345 95.1114 103.203 94.9443 104.172 94.5839C105.014 94.2744 105.509 93.3997 105.34 92.5177C105.074 91.2015 104.681 89.9415 104.21 88.7141C104.166 88.5991 104.037 88.5415 103.922 88.5856C103.807 88.6297 103.75 88.759 103.794 88.874C104.256 90.0783 104.641 91.3146 104.902 92.604C105.03 93.269 104.656 93.9308 104.018 94.1652C103.127 94.4967 102.339 94.6576 101.414 94.5004C101.293 94.4798 101.177 94.5617 101.156 94.6831C101.136 94.8045 101.218 94.9198 101.339 94.9405Z" fill="black"/>
<path fill-rule="evenodd" clip-rule="evenodd" d="M102.17 92.4428C102.145 92.624 102.217 92.9169 102.497 93.0857C102.655 93.181 102.887 93.2404 103.22 93.1883C103.335 93.1702 103.413 93.0624 103.396 92.9477C103.378 92.8329 103.27 92.7544 103.155 92.7724C102.715 92.8415 102.568 92.635 102.587 92.4998C102.602 92.3848 102.522 92.2786 102.407 92.2628C102.292 92.2471 102.185 92.3278 102.17 92.4428Z" fill="black"/>
<path fill-rule="evenodd" clip-rule="evenodd" d="M103.22 93.1882C103.583 93.1312 103.723 92.8372 103.714 92.561C103.709 92.3725 103.626 92.2006 103.519 92.1153C103.4 92.0214 103.002 91.8935 102.682 91.9482C102.419 91.993 102.211 92.1407 102.169 92.4427C102.153 92.5579 102.234 92.6641 102.349 92.6798C102.464 92.6955 102.57 92.6149 102.586 92.4998C102.604 92.3706 102.732 92.3561 102.851 92.355C103.019 92.3535 103.198 92.398 103.257 92.4448C103.286 92.4683 103.293 92.5218 103.294 92.5738C103.297 92.6577 103.264 92.755 103.154 92.7723C103.04 92.7903 102.961 92.8981 102.979 93.0128C102.997 93.1276 103.105 93.2062 103.22 93.1882Z" fill="black"/>
<path fill-rule="evenodd" clip-rule="evenodd" d="M99.4828 91.2731C99.4828 91.2731 98.985 91.1198 98.5695 91.2104C98.2429 91.2819 97.9583 91.483 97.9217 91.9555C97.9015 92.2249 97.9912 92.5385 98.2557 92.7746C98.4936 92.9878 98.8843 93.1441 99.4901 93.109C99.6054 93.1024 99.6942 93.0027 99.6878 92.8868C99.6814 92.7708 99.5816 92.6822 99.4654 92.6888C98.608 92.7384 98.3151 92.3325 98.3417 91.9881C98.3508 91.8721 98.3847 91.7875 98.4424 91.7294C98.5357 91.6344 98.6757 91.609 98.8111 91.6028C99.0875 91.5901 99.3565 91.6747 99.3565 91.6747C99.4672 91.7095 99.5862 91.6478 99.6201 91.5369C99.6557 91.4261 99.5935 91.3079 99.4828 91.2731Z" fill="black"/>
<path fill-rule="evenodd" clip-rule="evenodd" d="M102.408 116.282L111.212 111.12C111.212 111.12 129.956 109.375 129.876 145.876L131.62 187.799L116.559 186.548L110.93 140.995L99.4403 183.407L86.8652 186.225C86.8652 186.225 90.429 122.846 102.408 116.282Z" fill="#D92B2B"/>
<path fill-rule="evenodd" clip-rule="evenodd" d="M113.334 111.275C114.623 111.464 115.687 111.836 116.382 112.155L118.957 116.414L118.962 116.422C118.988 116.465 119.008 116.512 119.022 116.561L119.03 116.586C119.042 116.636 119.049 116.686 119.05 116.736V116.745C119.05 116.86 119.02 116.967 118.967 117.06C118.914 117.153 118.838 117.234 118.74 117.294L118.732 117.298C118.689 117.324 118.643 117.344 118.594 117.359L118.568 117.366C118.519 117.379 118.469 117.385 118.418 117.386L118.409 117.386H110.775C110.544 117.386 110.331 117.261 110.217 117.06C110.104 116.859 110.108 116.612 110.227 116.414L113.334 111.275ZM117.274 116.105L114.592 111.671L111.911 116.105H117.274Z" fill="#255932"/>
<path fill-rule="evenodd" clip-rule="evenodd" d="M118.507 124.599L111.141 126.606C110.8 126.698 110.598 127.05 110.691 127.393C110.784 127.734 111.137 127.934 111.477 127.842L118.843 125.835C119.184 125.743 119.386 125.391 119.293 125.05C119.2 124.708 118.847 124.507 118.507 124.599Z" fill="#255932"/>
<path fill-rule="evenodd" clip-rule="evenodd" d="M113.657 121.325L111.924 127.4C111.827 127.739 111.472 127.936 111.132 127.84C110.793 127.742 110.596 127.388 110.692 127.048L112.716 119.955C112.778 119.739 112.947 119.571 113.164 119.512C113.38 119.453 113.611 119.512 113.774 119.666L119.116 124.753C119.372 124.998 119.382 125.403 119.138 125.659C118.893 125.915 118.487 125.925 118.233 125.682L113.657 121.325Z" fill="#255932"/>
<path fill-rule="evenodd" clip-rule="evenodd" d="M109.234 119.805L102.654 123.676C102.349 123.855 102.247 124.248 102.427 124.554C102.606 124.858 102.999 124.959 103.303 124.78L109.883 120.909C110.188 120.73 110.29 120.337 110.111 120.033C109.931 119.727 109.538 119.626 109.234 119.805Z" fill="#255932"/>
<path fill-rule="evenodd" clip-rule="evenodd" d="M103.657 117.386L103.619 124.236C103.614 124.589 103.323 124.873 102.97 124.869C102.617 124.864 102.333 124.575 102.338 124.22L102.375 116.695C102.377 116.508 102.565 116.225 102.71 116.105C102.854 115.985 103.08 115.894 103.389 115.925C103.871 115.973 104.293 116.29 104.293 116.29C104.375 116.304 104.628 116.489 104.699 116.533L109.899 119.815C110.198 120.004 110.288 120.4 110.099 120.699C109.911 120.998 109.515 121.088 109.216 120.899L104.123 117.685L103.657 117.386Z" fill="#255932"/>
<path fill-rule="evenodd" clip-rule="evenodd" d="M109.468 112.163L107.95 115.574L107.946 115.583C107.925 115.628 107.899 115.671 107.868 115.711L107.85 115.732C107.817 115.771 107.78 115.805 107.739 115.834L107.731 115.839C107.637 115.905 107.532 115.941 107.426 115.951C107.319 115.962 107.209 115.945 107.104 115.899L107.096 115.895C107.05 115.874 107.007 115.848 106.967 115.816L106.947 115.799C106.909 115.766 106.874 115.728 106.845 115.687L106.839 115.68L105.854 114.264L106.965 113.618L107.242 114.015L107.577 113.263L109.468 112.163Z" fill="#255932"/>
<path fill-rule="evenodd" clip-rule="evenodd" d="M94.6016 131.135L99.7032 135.876L99.7105 135.882C99.7462 135.916 99.7782 135.955 99.8066 135.998L99.8203 136.021C99.8459 136.065 99.8661 136.112 99.8807 136.159L99.8835 136.169C99.9146 136.278 99.9155 136.39 99.8899 136.494C99.8652 136.598 99.8139 136.697 99.7361 136.781L99.7297 136.787C99.695 136.824 99.6565 136.856 99.6135 136.883L99.5906 136.898C99.5467 136.924 99.5 136.944 99.4525 136.957L99.4433 136.96L92.7129 138.883C92.8071 138.46 92.9197 137.975 93.0414 137.456L97.9993 136.041L94.2182 132.521C94.36 131.956 94.5083 131.495 94.6016 131.135Z" fill="#255932"/>
<path fill-rule="evenodd" clip-rule="evenodd" d="M104.938 135.405L104.669 128.033C104.657 127.68 104.36 127.404 104.006 127.417C103.653 127.429 103.376 127.726 103.389 128.08L103.657 135.452C103.67 135.805 103.967 136.081 104.32 136.068C104.674 136.055 104.951 135.758 104.938 135.405Z" fill="#255932"/>
<path fill-rule="evenodd" clip-rule="evenodd" d="M103.718 128.616L110.389 132.327C110.698 132.498 111.088 132.388 111.261 132.078C111.433 131.769 111.321 131.379 111.012 131.207L104.34 127.497C104.031 127.325 103.641 127.435 103.469 127.744C103.297 128.054 103.409 128.444 103.718 128.616Z" fill="#255932"/>
<path fill-rule="evenodd" clip-rule="evenodd" d="M110.383 131.211L103.979 134.872C103.672 135.048 103.566 135.439 103.74 135.746C103.916 136.053 104.308 136.16 104.615 135.984L111.018 132.323C111.326 132.147 111.432 131.756 111.257 131.449C111.081 131.143 110.69 131.036 110.383 131.211Z" fill="#255932"/>
<path fill-rule="evenodd" clip-rule="evenodd" d="M126.515 123.798C125.553 124.721 124.419 125.826 123.312 126.901C123.276 126.938 123.234 126.971 123.188 126.998L123.179 127.003C123.128 127.032 123.073 127.053 123.017 127.067C122.908 127.095 122.799 127.092 122.698 127.064C122.596 127.038 122.5 126.985 122.419 126.908C122.377 126.868 122.341 126.822 122.31 126.771L122.306 126.762C122.279 126.716 122.259 126.667 122.245 126.617L120.226 119.527L120.223 119.518C120.21 119.469 120.203 119.419 120.201 119.368V119.342C120.202 119.291 120.208 119.24 120.221 119.192L120.224 119.183C120.254 119.072 120.311 118.977 120.386 118.901C120.461 118.825 120.556 118.767 120.666 118.735L120.675 118.733C120.724 118.72 120.774 118.712 120.825 118.711L120.843 118.711L120.852 118.711C120.903 118.712 120.952 118.718 121.001 118.731L121.01 118.733L124.551 119.716C124.803 120.137 125.12 120.682 125.393 121.257L121.769 120.268L123.185 125.239C124.176 124.275 125.153 123.326 125.978 122.541C126.2 122.981 126.383 123.448 126.515 123.798Z" fill="#255932"/>
<path fill-rule="evenodd" clip-rule="evenodd" d="M122.797 133.528L117.118 130.37C116.809 130.199 116.697 129.808 116.87 129.499C117.041 129.19 117.432 129.079 117.741 129.251L124.413 132.961C124.615 133.073 124.741 133.286 124.743 133.517C124.743 133.748 124.62 133.961 124.419 134.077L118.016 137.739C117.709 137.914 117.317 137.807 117.142 137.5C116.967 137.194 117.073 136.802 117.38 136.626L122.797 133.528Z" fill="#255932"/>
<path fill-rule="evenodd" clip-rule="evenodd" d="M118.338 137.159L118.069 129.787C118.057 129.434 117.76 129.158 117.406 129.171C117.053 129.183 116.776 129.48 116.789 129.834L117.058 137.206C117.071 137.559 117.367 137.835 117.721 137.822C118.074 137.81 118.351 137.512 118.338 137.159Z" fill="#255932"/>
<path fill-rule="evenodd" clip-rule="evenodd" d="M111.22 143.439L112.054 139.421L112.066 139.373L112.082 139.326L112.097 139.29L112.119 139.245L112.148 139.198L112.175 139.159L112.203 139.124C112.207 139.121 112.21 139.118 112.213 139.115C112.289 139.033 112.382 138.975 112.481 138.943L112.494 138.938C112.593 138.908 112.702 138.901 112.812 138.924L112.86 138.936L112.906 138.95L112.944 138.966L112.988 138.988L113.035 139.016L113.074 139.044L113.108 139.073C113.111 139.076 113.115 139.078 113.118 139.081L118.711 144.278L118.745 144.312L118.777 144.349L118.801 144.381L118.828 144.423L118.853 144.472L118.873 144.516L118.887 144.559C118.888 144.563 118.889 144.567 118.891 144.571C118.921 144.679 118.923 144.788 118.899 144.89L118.896 144.903C118.871 145.005 118.82 145.101 118.744 145.183L118.71 145.217L118.672 145.249L118.64 145.274L118.598 145.3L118.55 145.326L118.506 145.344L118.463 145.36C118.459 145.361 118.455 145.361 118.451 145.363L111.708 147.289L111.22 143.439ZM112.024 145.867L117.007 144.443L113.078 140.793L112.024 145.867Z" fill="#255932"/>
<path fill-rule="evenodd" clip-rule="evenodd" d="M129.793 141.578L125.51 145.447C125.342 145.596 125.109 145.646 124.895 145.58C124.68 145.513 124.516 145.34 124.462 145.123L122.682 137.964L122.68 137.955C122.669 137.906 122.663 137.856 122.663 137.805L122.664 137.778C122.667 137.727 122.675 137.677 122.69 137.629L122.692 137.62C122.725 137.511 122.786 137.417 122.863 137.343C122.941 137.27 123.038 137.215 123.149 137.188L123.158 137.185C123.208 137.174 123.258 137.169 123.308 137.169L123.336 137.17C123.386 137.172 123.436 137.181 123.484 137.194L123.493 137.197L129.652 139.073L129.793 141.578ZM125.45 143.786L129.322 140.342L124.2 138.757L125.45 143.786Z" fill="#255932"/>
<path fill-rule="evenodd" clip-rule="evenodd" d="M128.049 128.531C128.144 128.903 128.242 129.334 128.338 129.784L127.43 130.073L128.603 131.098C128.759 131.91 128.891 132.662 128.971 133.122L125.732 130.29L125.724 130.284C125.688 130.251 125.654 130.212 125.625 130.17L125.61 130.148C125.583 130.104 125.561 130.059 125.546 130.011L125.543 130.002C125.508 129.893 125.505 129.782 125.526 129.678C125.548 129.573 125.596 129.472 125.671 129.386L125.678 129.38C125.711 129.342 125.749 129.308 125.791 129.28L125.813 129.265C125.856 129.238 125.903 129.217 125.949 129.2L125.959 129.197L128.049 128.531Z" fill="#255932"/>
<path fill-rule="evenodd" clip-rule="evenodd" d="M112.457 153.344L113.609 151.838L113.616 151.831C113.647 151.792 113.682 151.756 113.723 151.724L113.744 151.708C113.785 151.678 113.83 151.654 113.875 151.635L113.881 151.633L113.885 151.632C113.991 151.59 114.101 151.579 114.208 151.594C114.313 151.609 114.417 151.65 114.508 151.719L114.515 151.726C114.554 151.756 114.59 151.792 114.622 151.832L114.638 151.854C114.668 151.895 114.692 151.939 114.711 151.986L114.715 151.995L117.402 158.858C117.421 158.905 117.434 158.953 117.441 159.003L117.444 159.022C117.451 159.079 117.45 159.136 117.441 159.191C117.425 159.302 117.381 159.402 117.318 159.485L117.315 159.488C117.251 159.571 117.166 159.639 117.064 159.683C117.013 159.706 116.958 159.722 116.902 159.731L116.883 159.733C116.832 159.739 116.782 159.739 116.732 159.733L113.198 159.343L113.037 158.036L115.825 158.344L113.936 153.519L112.681 155.157L112.457 153.344Z" fill="#255932"/>
<path fill-rule="evenodd" clip-rule="evenodd" d="M123.888 165.4L126.677 159.816C126.835 159.5 127.22 159.372 127.536 159.53C127.853 159.688 127.981 160.073 127.823 160.389L124.526 166.988C124.423 167.195 124.216 167.33 123.985 167.341C123.754 167.352 123.535 167.24 123.412 167.044L119.334 160.591C119.145 160.292 119.233 159.896 119.532 159.707C119.832 159.518 120.228 159.608 120.416 159.906L123.888 165.4Z" fill="#255932"/>
<path fill-rule="evenodd" clip-rule="evenodd" d="M119.887 160.889L127.262 160.743C127.616 160.736 127.897 160.443 127.89 160.091C127.883 159.737 127.591 159.455 127.237 159.462L119.862 159.608C119.508 159.615 119.228 159.908 119.234 160.261C119.241 160.614 119.534 160.896 119.887 160.889Z" fill="#255932"/>
<path fill-rule="evenodd" clip-rule="evenodd" d="M130.197 153.607L130.261 155.145L128.902 156.132L130.328 156.732L130.386 158.148L127.358 156.872L127.349 156.869C127.303 156.849 127.259 156.823 127.219 156.792L127.198 156.775C127.159 156.743 127.124 156.706 127.094 156.666L127.088 156.658C127.021 156.566 126.982 156.461 126.97 156.355C126.957 156.249 126.972 156.138 127.016 156.033L127.02 156.025C127.04 155.978 127.065 155.935 127.097 155.894L127.113 155.873C127.145 155.834 127.183 155.799 127.222 155.77L127.23 155.763L130.197 153.607Z" fill="#255932"/>
<path fill-rule="evenodd" clip-rule="evenodd" d="M131.053 174.175L125.781 175.298L125.771 175.301C125.723 175.31 125.673 175.315 125.621 175.312L125.595 175.311C125.544 175.307 125.494 175.296 125.447 175.281L125.437 175.277C125.329 175.24 125.238 175.177 125.167 175.096C125.097 175.016 125.045 174.918 125.021 174.806L125.019 174.797C125.009 174.747 125.005 174.697 125.007 174.646L125.009 174.619C125.014 174.568 125.024 174.519 125.039 174.471L125.042 174.463L127.458 167.498C127.473 167.451 127.494 167.405 127.522 167.362L127.532 167.346C127.564 167.299 127.602 167.256 127.645 167.219C127.729 167.146 127.827 167.099 127.929 167.077L127.933 167.076C128.035 167.054 128.144 167.057 128.251 167.09C128.304 167.107 128.356 167.129 128.405 167.161L128.421 167.171C128.464 167.199 128.501 167.232 128.535 167.268L130.869 169.755L130.952 171.713L128.323 168.914L126.625 173.809L130.999 172.876L131.053 174.175Z" fill="#255932"/>
<path fill-rule="evenodd" clip-rule="evenodd" d="M115.1 174.734L119.896 172.3C119.94 172.277 119.988 172.258 120.037 172.247L120.056 172.243C120.111 172.23 120.168 172.225 120.225 172.229C120.336 172.235 120.439 172.268 120.529 172.323L120.532 172.326C120.62 172.381 120.697 172.46 120.751 172.557C120.779 172.606 120.8 172.659 120.813 172.714L120.817 172.732C120.828 172.783 120.833 172.833 120.832 172.882L120.733 180.253C120.729 180.484 120.602 180.695 120.399 180.806C120.197 180.918 119.95 180.91 119.753 180.788L115.522 178.152L115.32 176.515L119.467 179.1L119.537 173.919L115.267 176.086L115.1 174.734Z" fill="#255932"/>
<path fill-rule="evenodd" clip-rule="evenodd" d="M113.741 163.715L119.473 167.543C119.514 167.57 119.553 167.603 119.589 167.64L119.6 167.654C119.639 167.697 119.671 167.744 119.696 167.795C119.745 167.894 119.766 168.001 119.762 168.106V168.109C119.756 168.215 119.726 168.319 119.667 168.414C119.638 168.462 119.602 168.507 119.56 168.546L119.546 168.559C119.509 168.593 119.467 168.621 119.423 168.644L114.697 171.219L114.524 169.854L117.885 168.023L113.955 165.399L113.741 163.715Z" fill="#255932"/>
<path fill-rule="evenodd" clip-rule="evenodd" d="M116.041 182.355C116.069 182.36 116.098 182.366 116.124 182.374L116.133 182.377L123.18 184.539C123.228 184.553 123.275 184.573 123.319 184.598L123.335 184.608C123.384 184.639 123.428 184.674 123.466 184.715C123.542 184.797 123.593 184.894 123.619 184.995L123.62 184.998C123.645 185.101 123.645 185.21 123.617 185.318C123.603 185.372 123.581 185.425 123.552 185.474L123.543 185.49C123.516 185.534 123.484 185.573 123.45 185.608L122.064 187.006L120.398 186.867L121.798 185.455L116.844 183.935L117.521 186.628L116.559 186.548L116.041 182.355Z" fill="#255932"/>
<path fill-rule="evenodd" clip-rule="evenodd" d="M131.392 182.297L127.075 185.99C127.038 186.022 126.997 186.051 126.951 186.074L126.934 186.083C126.883 186.108 126.829 186.126 126.773 186.136C126.664 186.157 126.556 186.148 126.456 186.115L126.452 186.114C126.352 186.081 126.26 186.023 126.185 185.942C126.146 185.9 126.114 185.854 126.087 185.803L126.079 185.786C126.057 185.74 126.04 185.693 126.029 185.644L124.388 178.458L124.385 178.449C124.375 178.4 124.37 178.349 124.371 178.298L124.372 178.271C124.376 178.221 124.386 178.171 124.4 178.123L124.403 178.114C124.44 178.006 124.502 177.913 124.581 177.841C124.659 177.769 124.757 177.716 124.869 177.69L124.878 177.689C124.928 177.678 124.978 177.674 125.029 177.675L125.056 177.676C125.106 177.679 125.156 177.689 125.204 177.704L125.213 177.707L131.284 179.714L131.392 182.297ZM125.889 179.28L127.043 184.331L130.981 180.963L125.889 179.28Z" fill="#255932"/>
<path fill-rule="evenodd" clip-rule="evenodd" d="M125.612 152.014L121.648 147.095C121.427 146.82 121.471 146.416 121.746 146.194C122.021 145.973 122.424 146.016 122.646 146.291L127.274 152.035C127.415 152.21 127.454 152.445 127.377 152.656C127.301 152.867 127.12 153.022 126.9 153.065L119.663 154.496C119.315 154.565 118.979 154.339 118.91 153.992C118.842 153.645 119.068 153.307 119.414 153.239L125.612 152.014Z" fill="#255932"/>
<path fill-rule="evenodd" clip-rule="evenodd" d="M120.141 154.087L122.75 146.912C122.87 146.58 122.699 146.212 122.366 146.091C122.034 145.97 121.667 146.142 121.546 146.474L118.937 153.649C118.816 153.981 118.987 154.349 119.32 154.47C119.653 154.591 120.02 154.419 120.141 154.087Z" fill="#255932"/>
<path fill-rule="evenodd" clip-rule="evenodd" d="M109.894 144.821L104.358 145.026C104.309 145.028 104.258 145.025 104.208 145.016L104.19 145.012C104.134 144.999 104.081 144.979 104.03 144.953C103.932 144.901 103.852 144.827 103.794 144.739L103.792 144.736C103.735 144.649 103.699 144.546 103.69 144.434C103.686 144.379 103.689 144.322 103.7 144.265L103.704 144.247C103.715 144.197 103.731 144.15 103.753 144.105L106.932 137.454L106.937 137.446C106.959 137.401 106.986 137.359 107.019 137.32L107.036 137.3C107.071 137.262 107.11 137.228 107.151 137.201L107.159 137.195C107.254 137.133 107.36 137.098 107.467 137.092C107.574 137.085 107.683 137.104 107.787 137.153L107.795 137.157C107.84 137.179 107.883 137.207 107.921 137.239L107.941 137.257C107.98 137.291 108.013 137.33 108.04 137.371L108.046 137.379L110.781 141.545L110.333 143.197L107.598 139.032L105.364 143.707L110.245 143.525L109.894 144.821Z" fill="#255932"/>
<path fill-rule="evenodd" clip-rule="evenodd" d="M95.2107 146.397L99.8893 140.694C100.114 140.421 100.073 140.017 99.8002 139.793C99.5268 139.568 99.1233 139.608 98.8985 139.881L94.2203 145.585C93.9962 145.858 94.0357 146.261 94.3091 146.486C94.5825 146.71 94.9866 146.671 95.2107 146.397Z" fill="#255932"/>
<path fill-rule="evenodd" clip-rule="evenodd" d="M100.957 146.627L98.7901 140.501C98.6724 140.168 98.8466 139.801 99.1809 139.683C99.514 139.565 99.88 139.741 99.9978 140.074L102.543 147.271C102.62 147.489 102.574 147.732 102.422 147.906C102.27 148.08 102.036 148.159 101.809 148.112L94.5858 146.618C94.2396 146.547 94.0166 146.207 94.0881 145.861C94.16 145.515 94.4991 145.292 94.8453 145.364L100.957 146.627Z" fill="#255932"/>
<path fill-rule="evenodd" clip-rule="evenodd" d="M91.2113 146.86L95.4448 152.427C95.5839 152.612 95.6132 152.857 95.5207 153.069C95.4283 153.281 95.2288 153.426 94.9992 153.45L90.0781 154.046L90.3053 152.605L93.7382 152.292L90.941 148.491L91.2113 146.86Z" fill="#255932"/>
<path fill-rule="evenodd" clip-rule="evenodd" d="M97.7063 158.116C97.6898 158.339 97.7912 158.555 97.9739 158.685C98.1566 158.815 98.3938 158.84 98.5996 158.751L105.368 155.818C105.58 155.725 105.726 155.527 105.751 155.297C105.774 155.067 105.673 154.842 105.484 154.708L99.2622 150.284C99.0738 150.15 98.8283 150.129 98.6193 150.227C98.4096 150.325 98.2697 150.528 98.2522 150.759L97.7063 158.116ZM99.0623 157.154L103.816 155.094L99.4459 151.987L99.0623 157.154Z" fill="#255932"/>
<path fill-rule="evenodd" clip-rule="evenodd" d="M104.177 165.922L102.154 169.081C102.128 169.123 102.096 169.163 102.06 169.198L102.046 169.211C102.004 169.251 101.957 169.283 101.907 169.309C101.808 169.36 101.702 169.383 101.597 169.381H101.593C101.489 169.378 101.384 169.349 101.288 169.293C101.239 169.264 101.194 169.23 101.154 169.188L101.141 169.175C101.106 169.138 101.077 169.097 101.052 169.053L97.4013 162.649C97.2869 162.449 97.2896 162.202 97.4086 162.003C97.5266 161.805 97.7435 161.686 97.9741 161.692L105.272 161.88L104.177 165.922ZM101.644 167.503L104.437 163.14L99.0768 163.002L101.644 167.503Z" fill="#255932"/>
<path fill-rule="evenodd" clip-rule="evenodd" d="M94.8414 167.709L99.0394 173.775C99.2395 174.065 99.639 174.138 99.93 173.937C100.221 173.736 100.294 173.337 100.093 173.046L95.8947 166.98C95.6934 166.689 95.2951 166.616 95.0041 166.818C94.7131 167.019 94.6401 167.418 94.8414 167.709Z" fill="#255932"/>
<path fill-rule="evenodd" clip-rule="evenodd" d="M93.0416 173.17L99.5274 172.771C99.88 172.749 100.185 173.018 100.206 173.371C100.228 173.724 99.9587 174.028 99.6061 174.05L91.9864 174.518C91.7556 174.532 91.5348 174.421 91.4088 174.228C91.284 174.033 91.2724 173.787 91.3797 173.582L94.8014 167.047C94.9656 166.734 95.3532 166.613 95.6666 166.777C95.9789 166.941 96.1003 167.328 95.9362 167.641L93.0416 173.17Z" fill="#255932"/>
<path fill-rule="evenodd" clip-rule="evenodd" d="M100.933 177.896L100.578 179.205L96.607 179.479L99.139 183.475L97.7481 183.776L94.9635 179.253C94.936 179.211 94.915 179.166 94.8985 179.118L94.893 179.1C94.8766 179.046 94.8674 178.989 94.8656 178.933C94.8619 178.821 94.8875 178.715 94.9351 178.622L94.937 178.618C94.9845 178.526 95.0568 178.443 95.1493 178.381C95.1959 178.35 95.2463 178.324 95.3012 178.306L95.3186 178.301C95.3671 178.285 95.4174 178.277 95.4668 178.274L100.933 177.896Z" fill="#255932"/>
<path fill-rule="evenodd" clip-rule="evenodd" d="M87.8447 175.968L91.8972 182.438C92.0847 182.737 92.4801 182.829 92.7806 182.64C93.0801 182.453 93.1703 182.057 92.9827 181.758L88.9303 175.288C88.7428 174.989 88.3474 174.897 88.0479 175.085C87.7474 175.273 87.6572 175.669 87.8447 175.968Z" fill="#255932"/>
<path fill-rule="evenodd" clip-rule="evenodd" d="M87.1688 181.54L92.4291 181.457C92.7832 181.451 93.0742 181.734 93.0797 182.087C93.0852 182.441 92.8034 182.732 92.4492 182.738L87.0771 182.822C87.1029 182.439 87.1334 182.011 87.1688 181.54ZM87.6585 175.65L87.8152 175.34C87.9745 175.024 88.36 174.897 88.6756 175.056C88.9913 175.215 89.1182 175.601 88.9589 175.916L87.3642 179.077C87.4488 178.055 87.5469 176.912 87.6585 175.65Z" fill="#255932"/>
<path fill-rule="evenodd" clip-rule="evenodd" d="M89.3199 160.009L93.0107 159.005L93.0199 159.003C93.0684 158.99 93.1187 158.983 93.1699 158.982H93.1827H93.1965C93.2477 158.984 93.298 158.992 93.3456 159.004L93.3548 159.007C93.4646 159.038 93.5598 159.097 93.6348 159.173C93.7098 159.249 93.7675 159.345 93.7968 159.456L93.7995 159.464C93.8123 159.512 93.8187 159.563 93.8196 159.614V159.64C93.8178 159.692 93.8105 159.742 93.7977 159.79L93.7949 159.8L91.6976 167.139C91.6344 167.362 91.4559 167.532 91.2311 167.586C91.0063 167.64 90.7699 167.569 90.6126 167.399L88.6904 165.33L88.8879 163.661L90.778 165.695L92.2512 160.539L89.1576 161.381L89.3199 160.009Z" fill="#255932"/>
<path fill-rule="evenodd" clip-rule="evenodd" d="M98.7778 120.311L100.279 127.654L100.28 127.663C100.29 127.712 100.293 127.763 100.291 127.814L100.289 127.84C100.284 127.891 100.274 127.94 100.257 127.988L100.255 127.997C100.216 128.105 100.151 128.196 100.071 128.266C99.9903 128.336 99.8915 128.387 99.7789 128.41L99.7698 128.411C99.7213 128.421 99.67 128.424 99.6197 128.422L99.5931 128.42C99.5419 128.415 99.4925 128.405 99.4449 128.389L99.4358 128.386L95.8486 127.107C95.9978 126.687 96.1433 126.285 96.286 125.903L98.7961 126.797L97.8444 122.145C98.2187 121.343 98.5353 120.742 98.7778 120.311Z" fill="#255932"/>
<path fill-rule="evenodd" clip-rule="evenodd" d="M110.943 141.246C110.943 141.246 112.291 136.937 113.589 132.787C113.684 132.484 113.996 132.305 114.305 132.376C114.615 132.448 114.817 132.745 114.769 133.059C113.641 140.512 112.115 150.587 112.115 150.587L110.943 141.246Z" fill="#8D1B1C"/>
<path fill-rule="evenodd" clip-rule="evenodd" d="M97.0354 193.365L99.0257 183.494L99.4585 183.381L97.5286 193.711C97.5021 193.85 97.3758 193.946 97.2349 193.933L96.1532 193.84C96.0196 193.828 95.9144 193.723 95.9034 193.589L95.6124 190.106L84.3151 193.716C84.2224 193.745 84.1209 193.724 84.0484 193.659C83.9759 193.594 83.9432 193.496 83.9624 193.4C84.3085 191.688 86.0009 190.738 86.531 190.48L86.8564 186.215L87.3806 186.105L87.0676 190.68C87.0605 190.784 86.9944 190.876 86.8975 190.915C86.8975 190.915 85.2235 191.588 84.6427 193.035L95.7735 189.478C95.8531 189.453 95.94 189.466 96.0096 189.511C96.0791 189.558 96.124 189.634 96.1304 189.717L96.4314 193.313L97.0354 193.365Z" fill="#6451A6"/>
<path fill-rule="evenodd" clip-rule="evenodd" d="M120.125 189.146L119.756 193.743C119.75 193.819 119.71 193.891 119.648 193.938C119.587 193.986 119.507 194.004 119.43 193.99L117.756 193.668C117.64 193.646 117.552 193.553 117.535 193.437L116.546 186.52L117.114 186.587L118.052 193.166L119.233 193.393L119.608 188.719C119.615 188.631 119.664 188.551 119.74 188.506C119.816 188.46 119.91 188.454 119.991 188.489L133.478 194.368C133.419 193.821 133.129 192.791 131.839 191.96C131.77 191.915 131.724 191.842 131.715 191.76L131.077 187.751L131.629 187.801L132.246 191.571C134.31 192.971 134.028 194.827 134.028 194.827C134.016 194.912 133.964 194.986 133.89 195.028C133.815 195.07 133.725 195.075 133.646 195.04L120.125 189.146Z" fill="#6451A6"/>
<path fill-rule="evenodd" clip-rule="evenodd" d="M98.2161 89.3966C98.1319 90.146 98.2627 90.7232 98.4961 91.2184C98.7075 91.1638 98.9069 91.1478 99.0918 91.1785C98.949 90.2711 98.993 89.4739 99.3224 88.8438C98.863 88.9317 98.5071 89.1293 98.2161 89.3966Z" fill="#6451A6"/>
<path fill-rule="evenodd" clip-rule="evenodd" d="M98.2345 89.4055C98.2345 89.4055 96.5242 86.2155 97.9398 85.7162C97.9398 85.7162 99.2109 85.5032 98.7991 88.5069C98.7991 88.5069 99.5165 85.5093 100.582 85.9695C100.762 86.0473 101.121 86.5153 100.543 87.4413C100.304 87.8239 99.9576 88.3581 99.2905 88.8592L98.2345 89.4055Z" fill="#6451A6"/>
<path fill-rule="evenodd" clip-rule="evenodd" d="M102.269 88.1549C102.269 88.1549 102.353 90.0477 99.5782 91.071C99.4355 91.1234 99.3632 91.2815 99.4154 91.4236C99.4675 91.5658 99.6258 91.6386 99.7677 91.5862C102.995 90.3958 102.818 88.1208 102.818 88.1208C102.808 87.9696 102.679 87.8544 102.527 87.8638C102.376 87.8732 102.26 88.0036 102.269 88.1549Z" fill="#D92B2B"/>
<path fill-rule="evenodd" clip-rule="evenodd" d="M103.575 88.3756C103.186 87.7011 102.374 87.3633 101.604 87.595C100.852 87.8231 99.3809 88.7695 99.3809 88.7695L100.474 87.5394C100.474 87.5394 100.59 87.3289 101.446 87.0695C102.592 86.7244 103.807 87.3337 104.217 88.458C104.245 88.5337 104.261 88.579 104.261 88.579C104.289 88.6578 104.281 88.7455 104.236 88.8168C104.192 88.8883 104.118 88.9357 104.035 88.9456C103.187 89.0459 102.364 88.3449 102.364 88.3449C102.25 88.2456 102.238 88.072 102.337 87.9577C102.436 87.8433 102.61 87.8312 102.725 87.9307C102.725 87.9307 103.103 88.269 103.575 88.3756Z" fill="#D92B2B"/>
<g opacity="0.21">
<g opacity="0.21">
<path opacity="0.21" fill-rule="evenodd" clip-rule="evenodd" d="M68.9778 90.9508L89.849 91.0889C90.0006 91.0899 90.1244 90.9677 90.1254 90.8162C90.1264 90.6646 90.0041 90.5408 89.8527 90.5398L68.9814 90.4017C68.8299 90.4007 68.7061 90.5229 68.7051 90.6744C68.7041 90.826 68.8263 90.9498 68.9778 90.9508Z" fill="#F2BBBB"/>
<path opacity="0.21" fill-rule="evenodd" clip-rule="evenodd" d="M75.558 87.4387C75.6866 87.1242 75.9436 86.5073 76.057 86.3162C76.6276 85.3543 77.3912 84.4985 78.3914 83.9727C79.5852 83.345 81.0547 83.0564 82.383 83.355C83.3249 83.5668 84.2948 84.3568 84.7798 85.2728C86.7691 84.7081 88.7105 86.3974 89.6194 88.2694C89.8081 88.6578 90.0865 89.2406 90.2053 89.8058C90.2945 90.2297 90.2916 90.6445 90.1343 90.9815C90.0703 91.1187 89.9068 91.1782 89.7695 91.1142C89.6322 91.0501 89.5727 90.8866 89.6368 90.7493C89.7478 90.5115 89.731 90.2178 89.668 89.9188C89.5588 89.3997 89.2989 88.866 89.1255 88.5091C88.3414 86.8944 86.7007 85.3609 84.9961 85.789C85.1372 86.2444 85.1491 86.7091 84.9903 87.1358C84.8472 87.5203 84.5656 87.8783 84.1009 88.1693C83.732 88.4004 83.2844 88.4118 82.9953 88.2178C82.7866 88.0777 82.6376 87.8341 82.6555 87.462C82.6814 86.9227 82.9749 86.4344 83.3697 86.0816C83.6643 85.8182 83.9632 85.6171 84.2629 85.4712C83.8418 84.7165 83.0436 84.0663 82.2626 83.8907C81.0589 83.6202 79.7286 83.89 78.6469 84.4587C77.737 84.937 77.0483 85.7213 76.5292 86.5963C76.3911 86.829 76.1547 87.5302 76.0012 87.8243C75.9159 87.9876 75.8096 88.0672 75.7541 88.0874C75.7106 88.1032 75.6333 88.1195 75.5345 88.0804C75.4256 88.0372 75.0686 87.7554 75.0259 87.7299C74.6448 87.5034 74.2014 87.4032 73.7609 87.3925C72.7333 87.3677 71.3193 87.8403 70.3374 88.6622C69.7101 89.1873 69.2574 89.857 69.2325 90.6423C69.2277 90.7938 69.1008 90.9128 68.9494 90.9081C68.7979 90.9032 68.6789 90.7764 68.6837 90.625C68.7136 89.6844 69.2337 88.8701 69.985 88.2412C71.0709 87.332 72.6375 86.8162 73.7741 86.8437C74.3082 86.8566 74.8444 86.9834 75.3065 87.258C75.3262 87.2697 75.4487 87.3588 75.558 87.4387ZM84.4808 85.9794C84.2312 86.1021 83.9821 86.2707 83.7355 86.4909C83.4486 86.7475 83.2227 87.0961 83.2039 87.4883C83.1976 87.6187 83.2281 87.7127 83.3012 87.7618C83.4348 87.8514 83.639 87.8108 83.8095 87.7039C84.1539 87.4883 84.3697 87.2291 84.4757 86.9441C84.5899 86.6377 84.578 86.3064 84.4808 85.9794Z" fill="#F2BBBB"/>
</g>
<g opacity="0.95">
<path opacity="0.95" fill-rule="evenodd" clip-rule="evenodd" d="M167.653 94.7665C167.736 94.5861 167.826 94.4229 167.906 94.2902C168.972 92.5381 170.935 90.9733 172.972 90.591C175.566 90.1041 178.214 91.4213 179.546 93.6715C179.891 94.2542 180.148 94.9182 180.284 95.5822C180.309 95.7005 180.329 95.8174 180.345 95.9348C180.596 95.7295 180.877 95.5653 181.18 95.4459C182.255 95.0222 183.528 95.1002 184.549 95.642C186.062 96.4462 186.791 97.8741 186.889 99.5059C186.899 99.6571 186.783 99.7873 186.632 99.7965C186.481 99.8057 186.35 99.6904 186.341 99.5392C186.254 98.1012 185.625 96.8356 184.291 96.1269C183.41 95.6589 182.309 95.5908 181.382 95.9567C181.097 96.0687 180.836 96.2285 180.608 96.4316C180.596 96.4467 180.351 96.7291 180.305 96.7784C180.179 96.9169 180.031 96.8705 180.023 96.8683C179.991 96.8596 179.834 96.8124 179.818 96.6172C179.814 96.5685 179.824 96.3034 179.824 96.2875C179.817 96.0852 179.788 95.8914 179.747 95.6927C179.623 95.0875 179.388 94.4823 179.074 93.9512C177.857 91.8963 175.442 90.6859 173.073 91.1307C171.182 91.4856 169.365 92.9482 168.376 94.5754C168.325 94.6578 168.271 94.7537 168.216 94.8589C168.885 95.0559 169.442 95.6402 169.445 96.3689C169.451 97.2785 168.384 97.4708 167.783 97.015C167.417 96.737 167.297 96.3256 167.329 95.8777C167.342 95.6924 167.384 95.5005 167.44 95.3131C167.04 95.3262 166.65 95.4488 166.281 95.6372C165.424 96.0742 164.681 96.8619 164.175 97.5528C163.86 97.9838 163.593 98.4588 163.413 98.9627C163.405 98.9861 163.357 99.1543 163.334 99.2361C163.359 99.2818 163.372 99.3352 163.366 99.391C163.354 99.5419 163.22 99.6538 163.069 99.6407C162.919 99.6277 162.81 99.541 162.78 99.3641C162.769 99.303 162.772 99.2154 162.792 99.1212C162.821 98.9791 162.883 98.8122 162.896 98.7776C163.094 98.2242 163.386 97.7018 163.732 97.2284C164.283 96.4759 165.099 95.6242 166.031 95.1482C166.544 94.8864 167.092 94.7371 167.653 94.7665ZM163.129 99.0951C163.125 99.0945 163.121 99.0941 163.117 99.0937L163.129 99.0951ZM167.997 95.3683C167.935 95.5491 167.89 95.7366 167.877 95.9173C167.859 96.1741 167.906 96.4183 168.116 96.5777C168.268 96.6929 168.481 96.7347 168.656 96.6891C168.792 96.6537 168.897 96.5505 168.896 96.3717C168.893 95.8647 168.469 95.4803 167.997 95.3683Z" fill="#F2BBBB"/>
<path opacity="0.95" fill-rule="evenodd" clip-rule="evenodd" d="M186.618 99.2479L163.095 99.0927C162.944 99.0917 162.82 99.2138 162.818 99.3654C162.817 99.5169 162.94 99.6407 163.091 99.6417L186.614 99.797C186.765 99.798 186.89 99.6758 186.89 99.5243C186.891 99.3728 186.769 99.249 186.618 99.2479Z" fill="#F2BBBB"/>
</g>
</g>
</svg>
