<svg width="250" height="250" viewBox="0 0 250 250" fill="none" xmlns="http://www.w3.org/2000/svg">
<path fill-rule="evenodd" clip-rule="evenodd" d="M58.9406 182.237H199.357C199.357 182.237 198.594 132.666 185.189 120.268C185.189 120.268 187.958 104.521 185.189 97.8027C185.189 97.8027 177.579 93.5455 173.386 97.8027C173.386 97.8027 172.029 94.3229 168.401 97.8027C168.401 97.8027 166.027 91.5825 159.219 97.8027C159.219 97.8027 154.81 94.1066 150.962 97.8027C150.962 97.8027 147.554 93.6019 143.312 96.2262C143.312 96.2262 139.101 91.4314 134.651 96.2262C134.651 96.2262 128.533 94.3471 126.587 97.8027C126.587 97.8027 122.44 92.8082 117.99 96.2262C117.99 96.2262 112.674 90.5001 107.976 96.2262C107.976 96.2262 102.399 94.3205 100.07 97.8027C100.07 97.8027 95.7366 93.5289 90.9629 96.2262C90.9629 96.2262 87.1886 91.5146 83.0547 96.2262C83.0547 96.2262 79.1285 92.1089 75.0108 97.4204C75.0108 97.4204 54.6922 122.139 58.9406 154.54V182.237Z" fill="#BAB1DB"/>
<path d="M84.948 86.4824L83.7236 86.686L86.0847 100.88L87.3091 100.677L84.948 86.4824Z" fill="#BAB1DB"/>
<path d="M160.348 90.9896L159.184 90.5594L154.197 104.057L155.361 104.487L160.348 90.9896Z" fill="#BAB1DB"/>
<path fill-rule="evenodd" clip-rule="evenodd" d="M145.86 99.6334L147.125 99.279L142.956 84.3542L141.442 84.1626L145.86 99.6334Z" fill="#BAB1DB"/>
<path fill-rule="evenodd" clip-rule="evenodd" d="M165.831 86.5744L157.897 81.5702C157.795 81.5055 157.764 81.3698 157.828 81.2672C157.893 81.1647 158.029 81.134 158.131 81.1987L166.213 86.2966C166.3 86.3514 166.338 86.459 166.303 86.5558L164.216 92.4373C164.175 92.5515 164.049 92.6114 163.935 92.5708C163.82 92.5303 163.761 92.4046 163.801 92.2904L165.831 86.5744Z" fill="#BAB1DB"/>
<path fill-rule="evenodd" clip-rule="evenodd" d="M155.639 88.5605L164.094 92.1617C164.205 92.2092 164.257 92.3383 164.21 92.4498C164.162 92.5613 164.033 92.6133 163.922 92.5658L155.275 88.8831C155.168 88.8374 155.115 88.7157 155.155 88.606L157.808 81.3093C157.849 81.1954 157.975 81.1365 158.089 81.1779C158.203 81.2194 158.262 81.3455 158.221 81.4594L155.639 88.5605Z" fill="#BAB1DB"/>
<path fill-rule="evenodd" clip-rule="evenodd" d="M133.218 73.8396L135.523 83.3344C135.552 83.4522 135.479 83.571 135.362 83.5996C135.244 83.6282 135.125 83.5559 135.097 83.438L132.717 73.6371C132.7 73.5674 132.719 73.4937 132.766 73.4399C132.814 73.3861 132.884 73.3589 132.956 73.3672L145.887 74.8608C146.007 74.8747 146.094 74.9837 146.08 75.1041C146.065 75.2245 145.956 75.311 145.836 75.2971L133.218 73.8396Z" fill="#BAB1DB"/>
<path fill-rule="evenodd" clip-rule="evenodd" d="M148.169 84.7929L145.648 75.1344C145.618 75.0171 145.688 74.897 145.805 74.8664C145.923 74.8358 146.042 74.9061 146.074 75.0235L148.676 84.9962C148.694 85.0667 148.676 85.1418 148.628 85.1966C148.58 85.2513 148.509 85.2787 148.436 85.2695L135.282 83.6041C135.161 83.5889 135.076 83.4789 135.092 83.3587C135.106 83.2384 135.217 83.1531 135.337 83.1683L148.169 84.7929Z" fill="#BAB1DB"/>
<path fill-rule="evenodd" clip-rule="evenodd" d="M88.6478 84.1313L87.5268 76.3886C87.5094 76.2686 87.398 76.1853 87.278 76.2027C87.158 76.2201 87.0748 76.3316 87.0921 76.4515L88.213 84.1942C88.2304 84.3142 88.342 84.3975 88.4619 84.3801C88.5818 84.3627 88.6652 84.2512 88.6478 84.1313Z" fill="#BAB1DB"/>
<path fill-rule="evenodd" clip-rule="evenodd" d="M80.621 88.6918L88.3151 83.9755C88.4186 83.9122 88.5539 83.9446 88.6172 84.048C88.6805 84.1513 88.6481 84.2866 88.5447 84.35L80.5959 89.2223C80.5364 89.2588 80.463 89.2649 80.3983 89.2385C80.3336 89.2122 80.2853 89.1566 80.2682 89.0889L78.3358 81.4382C78.3116 81.3423 78.3544 81.2421 78.4405 81.1933L87.2008 76.229C87.3062 76.1692 87.4403 76.2063 87.5001 76.3118C87.5598 76.4172 87.5228 76.5514 87.4173 76.6111L78.8027 81.4929L80.621 88.6918Z" fill="#BAB1DB"/>
<path d="M114.586 85.5114L112.768 85.2778L110.537 102.65L112.355 102.883L114.586 85.5114Z" fill="#BAB1DB"/>
<path fill-rule="evenodd" clip-rule="evenodd" d="M107.403 75.3246L105.706 87.7006L120.759 89.9015L122.28 78.1625L107.403 75.3246Z" fill="#BAB1DB"/>
<path fill-rule="evenodd" clip-rule="evenodd" d="M96.0504 99.8799C96.0504 99.8799 93.8509 100.117 91.311 100.391C86.7253 100.886 82.8856 104.087 81.5734 108.509C78.0692 120.317 71.546 142.297 71.546 142.297C71.4792 142.695 71.8415 143.181 72.3568 143.046C72.3782 143.496 72.905 144.025 73.4723 143.81C73.6707 144.288 74.0745 144.456 74.529 144.37C74.5785 144.899 75.2351 145.288 75.7915 145.137C76.1994 145.026 76.4502 144.217 76.5541 144.37C76.8425 144.796 77.3484 144.878 77.649 144.754C78.3729 144.457 78.5841 143.629 78.5841 143.629L89.5697 113.297L90.2218 117.323C90.2218 117.323 77.2627 143.077 77.649 182.237C77.649 182.237 75.1947 184.234 74.529 185.792H90.2218L99.3553 130.782L108.465 185.792L124.663 185.677C124.663 185.677 123.622 183.245 121.916 182.988C121.916 182.988 117.987 129.902 109.768 117.323L109.872 113.297L121.916 143.956C122.29 144.952 122.698 145.722 123.167 146.084C123.854 145.915 123.588 144.755 123.167 143.434C123.03 142.579 123.814 142.65 124.338 143.81C128.045 152.018 129.96 145.56 129.448 142.111C129.448 142.111 120.552 119.648 116.098 108.397C114.54 104.464 111.184 101.519 107.081 100.486C104.756 99.9 102.703 99.3829 102.703 99.3829L102.983 96.3177C102.983 96.3177 104.828 95.4997 104.636 94.4563C104.598 94.225 104.454 94.0248 104.246 93.9149C104.04 93.8048 103.793 93.7975 103.579 93.895C103.455 93.9432 103.34 94.0186 103.262 94.1202C103.262 94.1202 103.262 93.8708 103.262 93.4974C103.261 92.6306 102.906 91.8016 102.28 91.2024C101.653 90.6031 100.809 90.2854 99.9432 90.3229C99.7376 90.3318 99.5302 90.3408 99.3255 90.3496C97.5666 90.4257 96.096 91.7136 95.789 93.4476C95.789 93.4476 94.7545 92.4666 94.5264 93.7356C94.5264 93.7356 94.2939 95.2955 95.5323 95.1358C95.5323 95.1358 95.2132 97.0677 96.2727 97.7731L96.0504 99.8799Z" fill="#BAB1DB"/>
<path fill-rule="evenodd" clip-rule="evenodd" d="M155.658 99.8158C155.658 99.8158 157.758 100.059 160.205 100.341C164.755 100.867 168.553 104.058 169.856 108.449C173.356 120.243 179.901 142.297 179.901 142.297C179.968 142.695 179.606 143.181 179.091 143.046C179.069 143.496 178.542 144.025 177.975 143.81C177.777 144.288 177.373 144.456 176.918 144.37C176.869 144.899 176.212 145.288 175.656 145.137C175.248 145.026 174.997 144.217 174.893 144.37C174.605 144.796 174.099 144.878 173.798 144.754C173.074 144.457 172.863 143.629 172.863 143.629L161.878 113.297L161.225 117.323C161.225 117.323 174.185 143.077 173.798 182.237C173.798 182.237 176.253 184.234 176.918 185.792H161.225L152.092 130.782L142.983 185.792L126.785 185.677C126.785 185.677 127.825 183.245 129.531 182.988C129.531 182.988 133.46 129.902 141.68 117.323L141.575 113.297L129.531 143.956C129.174 144.076 128.221 145.607 127.683 146.084C127.276 146.446 126.882 147.211 126.346 147.121C125.294 146.942 125.335 146.077 125.149 146.084C124.272 146.121 124.316 145.315 124.316 145.315C124.316 145.315 124.218 145.982 123.168 144.754C122.705 144.214 123.168 143.434 123.168 143.434C123.168 143.434 122.263 143.648 122.015 141.703C122.015 141.703 130.885 119.511 135.339 108.365C136.905 104.45 140.252 101.522 144.341 100.492C146.676 99.9038 148.744 99.3829 148.744 99.3829C148.792 98.8753 148.744 97.8005 148.744 97.8005C148.744 97.8005 148.428 96.9185 148.464 96.3177C148.464 96.3177 146.62 95.4997 146.811 94.4563C146.849 94.225 146.994 94.0248 147.201 93.9149C147.408 93.8048 147.654 93.7975 147.868 93.895C147.993 93.9432 148.107 94.0186 148.185 94.1202C148.185 94.1202 148.185 93.8708 148.185 93.4974C148.186 92.6306 148.541 91.8016 149.167 91.2024C149.794 90.6031 150.638 90.2854 151.504 90.3229C151.71 90.3318 151.917 90.3408 152.122 90.3496C153.881 90.4257 155.351 91.7136 155.658 93.4476C155.658 93.4476 156.72 93.1232 156.879 94.1202C156.879 94.1202 157.043 95.2633 156.023 95.335C156.023 95.335 155.889 96.9516 155.397 97.8005L155.658 99.8158Z" fill="#BAB1DB"/>
<path fill-rule="evenodd" clip-rule="evenodd" d="M185.824 166.331C192.351 166.656 198.656 166.487 203.005 166.358L203.006 166.363L205.09 186.515C205.09 186.515 207.897 188.603 208.345 190.022L190.368 187.972L185.824 166.331ZM154.079 164.694C158.32 164.757 164.452 164.295 171.059 164.478C169.469 171.84 167.936 179.139 166.476 186.912L148.873 188.876C148.873 188.876 150.777 185.648 152.316 185.338C152.316 185.338 152.694 176.243 154.079 164.694ZM167.008 116.768C166.546 116.111 166.228 115.389 166.218 115.367L162.174 107.427C162.174 107.427 162.615 97.6048 171.088 98.1411C171.088 98.1411 172.376 93.8504 176.232 93.5287C176.232 93.5287 175.306 89.6655 179.315 89.7598C179.315 89.7598 182.614 90.0173 182.704 93.1709L182.634 94.5038C182.634 94.5038 187.175 93.4652 189.568 100.399C189.568 100.399 195.248 99.0214 194.515 107.651C194.515 107.651 195.13 115.272 188.583 118.973L169.135 118.452L167.008 116.768ZM182.854 83.2584C184.854 83.2584 186.477 84.8821 186.477 86.8821C186.477 88.882 184.854 90.5058 182.854 90.5058C180.854 90.5058 179.23 88.882 179.23 86.8821C179.23 84.8821 180.854 83.2584 182.854 83.2584Z" fill="white"/>
<path fill-rule="evenodd" clip-rule="evenodd" d="M177.257 93.0423C177.265 93.0114 177.279 92.9818 177.301 92.9556C177.438 92.7883 177.593 92.8921 177.613 92.9074C177.649 92.9337 177.732 93.0063 177.695 93.1446C177.686 93.1775 177.572 93.3798 177.513 93.4464C177.366 93.6113 177.141 93.6501 176.935 93.6706C176.436 93.7202 175.954 93.784 175.471 93.9293C174.035 94.3611 172.634 95.2255 171.801 96.4981C171.556 96.871 171.364 97.2903 171.274 97.7287C171.261 97.7969 171.302 98.1232 171.301 98.273C171.299 98.3835 171.264 98.4561 171.245 98.4813C171.238 98.491 171.161 98.5862 171.005 98.5626C170.822 98.5351 169.947 98.3501 169.895 98.3478C169.173 98.3156 168.449 98.4356 167.764 98.6601C165.293 99.4706 163.64 101.639 162.85 104.038C162.439 105.284 162.109 107.07 162.331 108.66C162.475 109.688 162.85 110.636 163.604 111.284C163.905 111.542 164.334 111.641 164.721 111.668C164.8 111.673 165.111 111.638 165.265 111.668C165.372 111.688 165.442 111.74 165.478 111.789C165.541 111.875 165.579 112.031 165.579 112.222C165.581 112.527 165.5 112.947 165.513 113.114C165.581 113.973 165.818 114.838 166.24 115.591C166.981 116.913 168.307 117.715 169.76 118.114C169.877 118.146 169.946 118.267 169.914 118.384C169.882 118.502 169.761 118.57 169.644 118.538C168.077 118.108 166.656 117.231 165.856 115.806C165.404 114.997 165.147 114.07 165.076 113.148C165.064 112.996 165.121 112.649 165.137 112.349C165.142 112.266 165.142 112.187 165.135 112.121C165.134 112.112 165.133 112.102 165.131 112.092C164.983 112.08 164.755 112.111 164.69 112.106C164.213 112.073 163.689 111.936 163.318 111.616C162.484 110.9 162.056 109.859 161.897 108.721C161.664 107.062 162.005 105.2 162.433 103.901C163.266 101.371 165.023 99.0973 167.627 98.2428C168.362 98.0017 169.14 97.8744 169.915 97.9089C169.957 97.9109 170.514 98.0244 170.851 98.0886L170.84 97.8472C170.834 97.7515 170.837 97.6746 170.843 97.6407C170.944 97.1483 171.158 96.6764 171.433 96.2575C172.322 94.8994 173.813 93.9694 175.344 93.5088C175.854 93.3551 176.364 93.2859 176.892 93.2335C176.946 93.2281 177.003 93.2234 177.058 93.2123C177.104 93.2027 177.152 93.1913 177.185 93.1544C177.202 93.1346 177.235 93.0797 177.257 93.0423ZM177.613 93.2622L177.611 93.2639V93.2636L177.613 93.2622ZM177.623 93.2525L177.619 93.2569L177.621 93.2551L177.623 93.2525ZM177.632 93.2438L177.628 93.2482L177.631 93.2453L177.632 93.2438Z" fill="black"/>
<path fill-rule="evenodd" clip-rule="evenodd" d="M189.652 99.9834C189.727 99.9619 189.832 99.9332 189.863 99.9279C190.276 99.8567 190.69 99.8877 191.097 99.9876C192.59 100.354 193.712 101.527 194.369 102.873C195.198 104.575 195.33 106.637 194.51 108.368C194.37 108.664 194.113 108.964 193.868 109.265C193.655 109.526 193.448 109.785 193.374 110.048C193.343 110.158 193.389 110.309 193.434 110.461C193.497 110.668 193.572 110.874 193.595 111.023C193.721 111.839 193.752 112.682 193.585 113.493C193.044 116.135 190.727 118.43 188.19 119.589C188.079 119.639 187.949 119.59 187.899 119.48C187.849 119.369 187.897 119.239 188.007 119.189C190.421 118.087 192.64 115.918 193.155 113.406C193.312 112.644 193.279 111.854 193.162 111.089C193.136 110.926 193.036 110.686 192.979 110.461C192.928 110.263 192.911 110.074 192.951 109.929C193.04 109.615 193.273 109.298 193.528 108.987C193.749 108.716 193.986 108.447 194.112 108.18C194.876 106.568 194.745 104.65 193.973 103.066C193.374 101.834 192.358 100.749 190.992 100.414C190.644 100.329 190.291 100.3 189.937 100.361C189.878 100.371 189.698 100.44 189.594 100.446C189.512 100.45 189.448 100.429 189.405 100.401C189.352 100.367 189.279 100.271 189.23 100.116C189.124 99.771 189.042 99.0162 188.993 98.8699C188.694 97.9623 188.23 97.1053 187.554 96.4226C186.806 95.6684 185.841 95.1189 184.864 94.7211C184.684 94.6482 184.14 94.5355 183.799 94.4561C183.617 94.4141 183.485 94.3741 183.451 94.3556C183.386 94.3195 183.361 94.2723 183.349 94.2444C183.321 94.1782 183.325 94.1164 183.354 94.0588C183.37 94.0271 183.411 93.9489 183.538 93.9339C183.597 93.927 183.653 93.944 183.697 93.9774C183.745 93.9903 183.823 94.0109 183.898 94.0284C184.261 94.1127 184.839 94.2368 185.029 94.3142C186.061 94.7341 187.077 95.3175 187.866 96.1134C188.591 96.8445 189.09 97.7605 189.411 98.7324C189.454 98.8631 189.526 99.4691 189.616 99.8542C189.626 99.8972 189.639 99.9444 189.652 99.9834ZM183.679 94.339C183.652 94.3553 183.623 94.3662 183.59 94.3701C183.628 94.3656 183.657 94.3538 183.679 94.339Z" fill="black"/>
<path fill-rule="evenodd" clip-rule="evenodd" d="M182.766 83.6059C184.678 83.6059 186.234 85.1129 186.234 86.9729C186.234 88.8329 184.678 90.3398 182.766 90.3398C182.644 90.3398 182.546 90.4382 182.546 90.5595C182.546 90.6806 182.644 90.7791 182.766 90.7791C184.923 90.7791 186.673 89.0718 186.673 86.9729C186.673 84.8739 184.923 83.1666 182.766 83.1666C182.644 83.1666 182.546 83.2651 182.546 83.3862C182.546 83.5075 182.644 83.6059 182.766 83.6059Z" fill="black"/>
<path fill-rule="evenodd" clip-rule="evenodd" d="M182.765 90.3398C180.851 90.3398 179.296 88.8329 179.296 86.9729C179.296 85.1129 180.851 83.6059 182.765 83.6059C182.886 83.6059 182.984 83.5075 182.984 83.3862C182.984 83.2651 182.886 83.1666 182.765 83.1666C180.606 83.1666 178.856 84.8739 178.856 86.9729C178.856 89.0718 180.606 90.7791 182.765 90.7791C182.886 90.7791 182.984 90.6806 182.984 90.5595C182.984 90.4382 182.886 90.3398 182.765 90.3398Z" fill="black"/>
<path fill-rule="evenodd" clip-rule="evenodd" d="M205.244 186.58C207.067 187.414 208.3 189.606 208.3 189.606C208.351 189.696 208.347 189.805 208.291 189.89C208.235 189.976 208.137 190.023 208.035 190.013L190.377 188.333C190.256 188.322 190.158 188.233 190.133 188.115L185.736 165.918C185.705 165.769 185.801 165.625 185.95 165.593C186.098 165.563 186.243 165.658 186.273 165.808L190.63 187.806L207.532 189.414C207.079 188.745 206.122 187.527 204.883 187.023C204.789 186.984 204.724 186.897 204.714 186.796L202.594 166.02C202.578 165.87 202.688 165.734 202.839 165.719C202.99 165.704 203.125 165.814 203.14 165.964L205.244 186.58Z" fill="#255932"/>
<path fill-rule="evenodd" clip-rule="evenodd" d="M166.35 186.701L171.256 163.037C171.287 162.888 171.432 162.792 171.581 162.823C171.729 162.854 171.825 162.999 171.794 163.147L166.847 187.011C166.822 187.129 166.724 187.217 166.604 187.228L148.945 188.908C148.844 188.918 148.745 188.87 148.689 188.784C148.633 188.699 148.63 188.59 148.68 188.501C148.68 188.501 149.913 186.308 151.736 185.474L153.84 164.858C153.856 164.708 153.99 164.599 154.141 164.613C154.292 164.629 154.402 164.764 154.386 164.914L152.266 185.69C152.256 185.792 152.191 185.879 152.097 185.917C150.858 186.421 149.902 187.639 149.449 188.308L166.35 186.701Z" fill="#255932"/>
<path fill-rule="evenodd" clip-rule="evenodd" d="M166.546 165.066L164.071 178.436C164.024 178.693 163.777 178.865 163.52 178.818C163.263 178.772 163.091 178.524 163.138 178.266L165.479 165.017L166.546 165.066Z" fill="#255932"/>
<path fill-rule="evenodd" clip-rule="evenodd" d="M191.359 166.776L193.834 180.146C193.881 180.403 194.128 180.575 194.385 180.528C194.642 180.482 194.814 180.234 194.768 179.976L192.426 166.727L191.359 166.776Z" fill="#255932"/>
<path fill-rule="evenodd" clip-rule="evenodd" d="M154.035 164.796C154.035 164.796 158.732 115.625 173.688 116.978L184.881 118.277C184.881 118.277 198.593 118.767 202.933 166.458H186.017C186.017 166.458 179.387 133.315 178.566 132.335C177.744 131.355 171.177 164.796 171.177 164.796H154.035Z" fill="white"/>
<path fill-rule="evenodd" clip-rule="evenodd" d="M202.632 166.184C200.458 142.609 195.991 130.673 192.049 124.633C188.18 118.706 184.87 118.551 184.87 118.551C184.863 118.55 184.855 118.55 184.848 118.549L173.656 117.251C173.506 117.233 173.398 117.097 173.415 116.946C173.432 116.796 173.569 116.688 173.719 116.705L184.903 118.003C185.14 118.016 188.58 118.313 192.508 124.333C196.491 130.435 201.029 142.515 203.206 166.433C203.213 166.51 203.187 166.586 203.136 166.643C203.084 166.7 203.01 166.733 202.933 166.733H186.016C185.886 166.733 185.773 166.64 185.747 166.512C185.747 166.512 181.505 145.306 179.388 136.323C179.02 134.76 178.716 133.568 178.511 132.928C178.44 132.705 178.394 132.558 178.355 132.511C178.257 132.394 178.272 132.221 178.388 132.124C178.505 132.027 178.678 132.042 178.775 132.158C178.834 132.228 178.929 132.431 179.034 132.76C179.241 133.409 179.55 134.614 179.922 136.197C181.914 144.648 185.786 163.91 186.242 166.184H202.632Z" fill="#F28F38"/>
<path fill-rule="evenodd" clip-rule="evenodd" d="M178.629 132.601C178.583 132.697 178.487 132.898 178.417 133.096C176.757 137.793 171.447 164.848 171.447 164.848C171.421 164.977 171.309 165.07 171.177 165.07H154.035C153.958 165.07 153.884 165.037 153.832 164.979C153.779 164.923 153.755 164.846 153.762 164.769C153.762 164.769 156.072 140.619 162.598 126.594C164.009 123.561 165.62 120.999 167.441 119.245C169.304 117.45 171.391 116.494 173.713 116.704C173.864 116.718 173.974 116.852 173.961 117.003C173.948 117.154 173.814 117.265 173.663 117.252C171.498 117.056 169.559 117.967 167.821 119.641C166.041 121.355 164.475 123.861 163.096 126.825C157.027 139.869 154.627 161.711 154.339 164.521H170.952C171.463 161.925 176.323 137.372 177.9 132.914C178.053 132.48 178.198 132.217 178.293 132.132C178.394 132.043 178.496 132.029 178.579 132.043C178.648 132.055 178.716 132.088 178.776 132.158C178.873 132.274 178.857 132.447 178.741 132.544C178.708 132.573 178.67 132.592 178.629 132.601ZM178.366 132.522V132.523L178.365 132.522H178.366Z" fill="#F28F38"/>
<path fill-rule="evenodd" clip-rule="evenodd" d="M202.78 166.449L199.83 166.43C199.739 166.039 199.806 165.615 200.05 165.263C199.287 164.994 198.874 164.166 199.129 163.395C199.383 162.626 200.212 162.194 200.991 162.417C201.013 161.711 201.544 161.125 202.239 161.002L202.78 166.449ZM185.092 162.509C185.131 162.517 185.169 162.526 185.207 162.537C185.232 161.74 185.906 161.098 186.729 161.098C187.553 161.098 188.225 161.74 188.251 162.537C189.029 162.314 189.859 162.746 190.113 163.515C190.368 164.286 189.954 165.114 189.191 165.383C189.396 165.68 189.476 166.027 189.442 166.362L185.929 166.34L185.092 162.509ZM167.541 164.849C166.916 164.364 166.774 163.483 167.219 162.841C166.456 162.571 166.043 161.743 166.297 160.973C166.552 160.203 167.381 159.772 168.16 159.995C168.184 159.198 168.858 158.556 169.681 158.556C170.504 158.556 171.177 159.198 171.203 159.995C171.517 159.904 171.839 159.921 172.129 160.023L171.005 164.883L169.962 164.873C169.859 164.796 169.764 164.705 169.681 164.6C169.601 164.702 169.508 164.792 169.408 164.868L167.541 164.849ZM192.946 154.998C192.972 154.201 193.645 153.558 194.468 153.558C195.292 153.558 195.965 154.201 195.99 154.998C196.769 154.774 197.598 155.206 197.852 155.976C198.106 156.746 197.694 157.575 196.931 157.844C197.386 158.503 197.225 159.412 196.559 159.888C195.894 160.364 194.965 160.234 194.468 159.603C193.971 160.234 193.043 160.364 192.377 159.888C191.711 159.412 191.55 158.503 192.007 157.844C191.243 157.575 190.83 156.746 191.084 155.976C191.339 155.206 192.168 154.774 192.946 154.998ZM155.498 154.536C155.56 154.546 155.621 154.559 155.682 154.577C155.708 153.779 156.382 153.137 157.204 153.137C158.028 153.137 158.701 153.779 158.726 154.577C159.505 154.354 160.334 154.785 160.588 155.555C160.843 156.325 160.43 157.153 159.667 157.423C160.122 158.082 159.961 158.991 159.295 159.467C158.63 159.943 157.701 159.812 157.204 159.181C156.707 159.812 155.779 159.943 155.113 159.467C154.951 159.352 154.819 159.211 154.72 159.054C154.94 157.715 155.2 156.188 155.498 154.536ZM181.735 147.131C182.072 146.951 182.479 146.897 182.872 147.009C182.897 146.212 183.57 145.57 184.394 145.57C185.217 145.57 185.89 146.212 185.915 147.009C186.694 146.786 187.523 147.217 187.777 147.987C188.031 148.757 187.619 149.586 186.856 149.855C187.312 150.515 187.151 151.423 186.485 151.899C185.819 152.375 184.89 152.245 184.394 151.615C184.019 152.091 183.397 152.282 182.828 152.142L181.735 147.131ZM165.046 146.541C165.07 145.744 165.744 145.101 166.567 145.101C167.39 145.101 168.063 145.744 168.089 146.541C168.867 146.318 169.697 146.749 169.951 147.519C170.206 148.289 169.792 149.117 169.029 149.387C169.485 150.046 169.324 150.955 168.658 151.432C167.992 151.907 167.063 151.777 166.567 151.146C166.07 151.777 165.142 151.907 164.475 151.432C163.809 150.955 163.649 150.046 164.105 149.387C163.342 149.117 162.929 148.289 163.183 147.519C163.438 146.749 164.267 146.318 165.046 146.541ZM199.798 145.959C199.73 146.031 199.655 146.097 199.571 146.157C198.905 146.633 197.977 146.502 197.48 145.872C196.984 146.502 196.055 146.633 195.389 146.157C194.722 145.68 194.561 144.772 195.018 144.113C194.255 143.843 193.841 143.015 194.096 142.245C194.35 141.475 195.18 141.044 195.958 141.266C195.983 140.469 196.657 139.827 197.48 139.827C197.873 139.827 198.233 139.974 198.504 140.214L199.798 145.959ZM176.018 143.212C175.987 143.18 175.958 143.147 175.929 143.111C175.433 143.741 174.505 143.871 173.839 143.395C173.172 142.92 173.011 142.011 173.468 141.351C172.705 141.082 172.291 140.254 172.545 139.483C172.8 138.714 173.63 138.282 174.409 138.505C174.433 137.708 175.107 137.066 175.929 137.066C176.502 137.066 177.003 137.376 177.262 137.834L176.018 143.212ZM160.348 133.349C160.362 133.348 160.376 133.348 160.39 133.348C161.213 133.348 161.887 133.99 161.911 134.787C162.69 134.564 163.519 134.996 163.774 135.765C164.028 136.536 163.615 137.364 162.852 137.633C163.309 138.293 163.148 139.202 162.481 139.677C161.815 140.153 160.886 140.023 160.39 139.393C159.96 139.938 159.206 140.109 158.58 139.838C159.13 137.609 159.722 135.416 160.348 133.349ZM186.933 132.772C186.958 131.975 187.62 131.333 188.429 131.333C189.239 131.333 189.902 131.975 189.926 132.772C190.692 132.549 191.507 132.98 191.758 133.75C192.007 134.52 191.601 135.348 190.851 135.618C191.299 136.277 191.142 137.187 190.487 137.662C189.831 138.138 188.918 138.007 188.429 137.377C187.941 138.007 187.028 138.138 186.373 137.662C185.718 137.187 185.56 136.277 186.008 135.618C185.258 135.348 184.851 134.52 185.102 133.75C185.352 132.98 186.167 132.549 186.933 132.772ZM166.572 126.212C166.597 125.415 167.27 124.773 168.094 124.773C168.916 124.773 169.59 125.415 169.614 126.212C170.393 125.99 171.223 126.421 171.478 127.19C171.732 127.961 171.318 128.789 170.555 129.059C171.012 129.718 170.851 130.626 170.185 131.103C169.518 131.579 168.59 131.448 168.094 130.818C167.597 131.448 166.668 131.579 166.002 131.103C165.336 130.626 165.175 129.718 165.631 129.059C164.868 128.789 164.455 127.961 164.71 127.19C164.964 126.421 165.793 125.99 166.572 126.212ZM177.739 124.278C177.765 123.481 178.438 122.838 179.261 122.838C180.085 122.838 180.758 123.481 180.783 124.278C181.562 124.054 182.391 124.486 182.645 125.256C182.9 126.025 182.487 126.854 181.724 127.123C182.179 127.783 182.019 128.692 181.353 129.168C180.687 129.644 179.758 129.514 179.261 128.883C178.765 129.514 177.836 129.644 177.17 129.168C176.504 128.692 176.343 127.783 176.8 127.123C176.037 126.854 175.623 126.025 175.877 125.256C176.132 124.486 176.962 124.054 177.739 124.278ZM188.394 119.92C189.606 120.784 190.983 122.028 192.094 123.739C191.965 123.843 191.817 123.927 191.652 123.986C192.108 124.645 191.948 125.554 191.282 126.03C190.616 126.506 189.687 126.375 189.19 125.744C188.694 126.375 187.765 126.506 187.099 126.03C186.433 125.554 186.272 124.645 186.728 123.986C185.965 123.716 185.552 122.888 185.806 122.118C186.06 121.347 186.89 120.916 187.668 121.139C187.685 120.625 187.971 120.174 188.394 119.92ZM168.595 118.686C169.677 117.933 171.938 116.721 174.845 117.129C175.023 117.864 174.614 118.622 173.89 118.878C174.345 119.537 174.185 120.446 173.519 120.922C172.853 121.398 171.924 121.268 171.427 120.637C170.931 121.268 170.002 121.398 169.336 120.922C168.67 120.446 168.509 119.537 168.966 118.878C168.83 118.83 168.706 118.765 168.595 118.686Z" fill="#F28F38"/>
<path fill-rule="evenodd" clip-rule="evenodd" d="M175.193 98.9648C174.557 99.004 169.066 98.3722 164.936 102.722C164.644 103.03 164.388 103.371 164.173 103.738C162.741 106.171 155.623 118.4 151.428 126.757L158.667 131.593L169.953 112.388C169.953 112.388 169.548 115.581 173.057 116.961L185.252 118.184C185.252 118.184 187.518 117.667 188.3 114.432C188.3 114.432 193.74 119.899 197.481 123.659C199.523 125.711 202.683 126.147 205.204 124.725C207.37 123.503 208.594 121.102 208.309 118.632C207.715 113.48 206.769 105.276 206.769 105.276L197.215 108.637L197.688 110.841C197.688 110.841 191.091 101.787 185.752 100.279C185.752 100.279 176.966 105.343 175.193 98.9648Z" fill="#D92B2B"/>
<path fill-rule="evenodd" clip-rule="evenodd" d="M196.748 109.216C196.748 109.216 198.963 118.986 198.998 119.3C199.016 119.469 199.167 119.591 199.336 119.572C199.504 119.554 199.626 119.402 199.608 119.234C199.574 118.917 197.346 109.081 197.346 109.081C197.309 108.916 197.145 108.812 196.979 108.849C196.815 108.887 196.71 109.051 196.748 109.216Z" fill="#AB494A"/>
<path fill-rule="evenodd" clip-rule="evenodd" d="M181.892 107.427L187.064 107.879L186.816 110.446C186.751 111.116 186.155 111.606 185.485 111.542C184.659 111.462 183.57 111.357 182.744 111.277C182.074 111.212 181.583 110.616 181.648 109.947L181.892 107.427ZM181.929 107.042L182.035 105.953L187.202 106.453L187.101 107.494L181.929 107.042Z" fill="#F2BBBB"/>
<path fill-rule="evenodd" clip-rule="evenodd" d="M188.348 114.558C188.348 114.558 188.487 113.519 188.571 112.425C188.572 112.298 188.669 112.194 188.795 112.183C188.921 112.172 189.035 112.259 189.057 112.383C189.315 113.61 189.585 115.046 189.614 115.793L188.348 114.558Z" fill="#AB494A"/>
<path fill-rule="evenodd" clip-rule="evenodd" d="M169.968 112.507C169.968 112.507 170.149 111.245 170.306 110.157C170.315 110.089 170.272 110.026 170.205 110.01C170.138 109.995 170.071 110.033 170.05 110.098C169.493 111.833 168.647 114.467 168.647 114.467L169.968 112.507Z" fill="#AB494A"/>
<path fill-rule="evenodd" clip-rule="evenodd" d="M151.934 127.023C149.623 132.222 148.751 133.37 147.23 137.797C146.975 138.537 147.182 139.358 147.757 139.889C147.849 139.972 147.944 140.044 148.041 140.098C148.12 140.538 148.417 141.29 149.037 141.404C149.089 141.843 149.427 142.545 150.013 142.677C150.013 142.677 150.137 142.957 150.304 143.333C150.439 143.637 150.748 143.827 151.081 143.809C151.414 143.791 151.701 143.569 151.803 143.252L151.803 143.252C152.632 143.831 152.879 143.646 153.555 142.127C156.299 134.414 154.807 138.174 158.682 131.624L151.934 127.023Z" fill="#AB494A"/>
<path fill-rule="evenodd" clip-rule="evenodd" d="M197.417 108.783L195.539 98.4581C195.539 98.4581 193.28 97.96 194.407 96.5225C194.407 96.5225 192.553 95.5477 193.692 94.4496C193.692 94.4496 192.48 93.3176 193.679 92.4444C193.679 92.4444 192.904 90.9701 195.272 90.3418L195.429 91.8424L197.807 92.1514L197.631 90.647C197.631 90.647 198.916 90.9684 200.082 91.26C201.226 91.5461 202.122 92.4355 202.417 93.5776C203.416 97.4538 205.636 106.061 205.636 106.061L197.417 108.783Z" fill="#AB494A"/>
<path fill-rule="evenodd" clip-rule="evenodd" d="M176.539 98.7884L175.078 98.9597C175.078 98.9597 176 105.509 185.703 100.297L182.277 99.2434L181.812 96.7403C181.812 96.7403 182.139 95.4805 182.186 94.4496C182.186 94.4496 182.256 93.5588 182.191 93.1758C182.191 93.1758 180.33 92.5593 180.132 91.2598C180.132 91.2598 176.828 93.6162 175.804 92.293L175.847 93.1513C175.847 93.1513 175.861 94.8814 176.68 96.6455L176.539 98.7884Z" fill="#AB494A"/>
<path fill-rule="evenodd" clip-rule="evenodd" d="M176.035 93.6565C175.982 93.6071 175.945 93.4433 175.902 93.3773C175.786 93.1992 175.627 93.0292 175.452 92.909C175.308 92.8102 175.134 92.7199 174.954 92.723C174.527 92.7305 174.281 93.2208 174.302 93.5968C174.335 94.1974 174.785 94.6174 175.374 94.6838C175.642 94.7141 175.888 94.652 176.132 94.5428" fill="#AB494A"/>
<path fill-rule="evenodd" clip-rule="evenodd" d="M181.751 93.9547C181.742 93.9515 181.817 93.8433 181.822 93.8338C181.907 93.7013 181.998 93.5729 182.099 93.4526C182.368 93.1326 183.05 92.4981 183.462 92.9865C183.639 93.1979 183.601 93.5311 183.521 93.7737C183.328 94.3644 182.73 94.861 182.102 94.6365" fill="#AB494A"/>
<path fill-rule="evenodd" clip-rule="evenodd" d="M175.903 92.5402C175.903 92.5402 178.086 93.751 180.292 91.4102C180.375 91.322 180.371 91.1828 180.283 91.0998C180.194 91.0167 180.055 91.0208 179.972 91.109C178.026 93.1741 176.114 92.1544 176.114 92.1544C176.008 92.0965 175.874 92.1358 175.816 92.2422C175.758 92.3487 175.797 92.4822 175.903 92.5402Z" fill="black"/>
<path fill-rule="evenodd" clip-rule="evenodd" d="M182.562 92.7477L182.547 92.6216C182.386 91.3675 181.404 90.3775 180.151 90.2093C179.692 90.1478 179.211 90.0832 178.755 90.0219C178.13 89.938 177.498 90.121 177.015 90.5261C176.532 90.9312 176.241 91.521 176.214 92.1512C176.212 92.2084 176.211 92.2536 176.219 92.2826C176.254 92.3984 176.19 92.5215 176.074 92.5572C175.958 92.5929 175.835 92.5279 175.8 92.4121C175.78 92.3504 175.77 92.2545 175.776 92.1326C175.807 91.3791 176.155 90.6738 176.733 90.1894C177.311 89.705 178.066 89.4863 178.814 89.5866C179.27 89.6479 179.751 89.7125 180.209 89.774C181.66 89.9688 182.797 91.1145 182.982 92.5661C183.004 92.7414 183.019 92.8519 183.019 92.8519C183.031 92.9474 182.979 93.0397 182.892 93.0795C182.518 93.2497 182.296 93.369 182.296 93.369C182.256 93.3908 182.21 93.3993 182.164 93.3936C181.574 93.3181 181.09 92.9715 180.726 92.5758C180.202 92.0064 179.929 91.3431 179.929 91.3431C179.884 91.231 179.937 91.1026 180.049 91.0565C180.161 91.0104 180.29 91.064 180.336 91.1761C180.336 91.1761 180.58 91.7689 181.049 92.2784C181.333 92.5873 181.701 92.869 182.154 92.9478C182.23 92.9084 182.37 92.8376 182.562 92.7477Z" fill="black"/>
<path fill-rule="evenodd" clip-rule="evenodd" d="M176.685 96.6329L176.633 97.2962C176.633 97.2962 176.706 97.3718 176.748 97.4149C177.297 97.9821 178.311 98.6448 179.953 98.423C179.949 98.4235 180.823 98.3333 181.726 97.4587C181.782 97.4044 181.927 97.2815 181.927 97.2815L181.81 96.7436C181.81 96.7436 181.76 96.7718 181.712 96.83C180.838 97.8707 179.899 97.9871 179.899 97.9871C179.898 97.9873 179.896 97.9874 179.894 97.9877C178.121 98.2274 177.177 97.3026 176.807 96.8051C176.766 96.7509 176.685 96.6329 176.685 96.6329Z" fill="black" fill-opacity="0.7"/>
<path fill-rule="evenodd" clip-rule="evenodd" d="M151.803 143.263C151.806 143.252 151.811 143.241 151.816 143.231C151.985 142.863 152.271 142.201 152.416 141.823C152.452 141.729 152.558 141.682 152.652 141.718C152.746 141.754 152.794 141.859 152.757 141.954C152.61 142.34 152.322 143.008 152.149 143.384C152.139 143.406 152.13 143.428 152.122 143.45L151.803 143.263Z" fill="black" fill-opacity="0.55"/>
<path fill-rule="evenodd" clip-rule="evenodd" d="M182.683 99.374L182.258 99.1962L182.253 99.9583C182.257 100.079 182.359 100.174 182.48 100.17C182.601 100.166 182.696 100.064 182.692 99.9431L182.683 99.374Z" fill="black"/>
<path fill-rule="evenodd" clip-rule="evenodd" d="M176.564 98.7729L176.106 98.8206L176.111 99.7445C176.109 99.8656 176.206 99.9655 176.327 99.9672C176.448 99.9689 176.548 99.8719 176.55 99.7508L176.564 98.7729Z" fill="black"/>
<path fill-rule="evenodd" clip-rule="evenodd" d="M175.854 94.6421L175.668 93.0917C175.732 93.1527 175.797 93.2257 175.863 93.3113L176.016 94.586C175.964 94.6131 175.905 94.6307 175.854 94.6421Z" fill="black"/>
<path fill-rule="evenodd" clip-rule="evenodd" d="M179.171 94.8963C178.972 94.8548 178.712 94.9255 178.582 95.0531C178.455 95.1782 178.361 95.4636 178.395 95.6554C178.53 96.4346 179.398 96.4439 179.717 96.0521C179.781 95.9737 179.769 95.8583 179.69 95.7946C179.613 95.7309 179.497 95.7428 179.433 95.8212C179.269 96.0242 178.826 95.9964 178.755 95.5925C178.74 95.5042 178.78 95.372 178.838 95.3143C178.895 95.259 179.01 95.2366 179.097 95.2546C179.195 95.2752 179.292 95.2117 179.313 95.1128C179.334 95.014 179.27 94.9169 179.171 94.8963Z" fill="black"/>
<path fill-rule="evenodd" clip-rule="evenodd" d="M179.717 96.0522C179.925 95.7965 179.939 95.0565 179.171 94.8964C179.073 94.8757 178.976 94.9393 178.955 95.0381C178.934 95.137 178.998 95.234 179.097 95.2547C179.383 95.3145 179.485 95.5132 179.477 95.6788C179.474 95.7358 179.46 95.7883 179.434 95.8212C179.37 95.8996 179.382 96.015 179.46 96.0786C179.539 96.1424 179.654 96.1305 179.717 96.0522Z" fill="black"/>
<path fill-rule="evenodd" clip-rule="evenodd" d="M193.952 96.027C194.022 96.0545 194.479 96.2349 194.5 96.242C195.203 96.4845 195.923 96.6739 196.655 96.8044C196.774 96.8257 196.854 96.9399 196.833 97.0592C196.811 97.1786 196.697 97.2581 196.578 97.2369C195.824 97.1024 194.312 96.6459 194.312 96.6459L194.4 96.538C194.046 96.3188 193.763 96.0915 193.619 95.8837C193.619 95.8837 193.946 96.0222 193.952 96.027Z" fill="black" fill-opacity="0.73"/>
<path fill-rule="evenodd" clip-rule="evenodd" d="M193.196 93.6598C193.267 93.9325 193.457 94.1994 193.69 94.4641C193.69 94.4641 193.748 94.4907 193.777 94.5037C194.577 94.859 195.55 95.0494 196.277 95.1753C196.396 95.1961 196.51 95.1159 196.53 94.9964C196.552 94.877 196.472 94.7633 196.352 94.7426C195.432 94.583 194.079 94.3332 193.292 93.7204C193.264 93.698 193.196 93.6598 193.196 93.6598Z" fill="black" fill-opacity="0.76"/>
<path fill-rule="evenodd" clip-rule="evenodd" d="M193.641 91.9498C193.773 92.0324 194.086 92.1611 194.11 92.1715C194.77 92.4693 195.445 92.7157 196.138 92.9266C196.254 92.962 196.319 93.0848 196.284 93.2007C196.249 93.3167 196.126 93.3822 196.01 93.3469C195.3 93.1304 194.606 92.8775 193.929 92.5719C193.917 92.5667 193.838 92.5332 193.741 92.4898C193.714 92.4773 193.677 92.4593 193.677 92.4593C193.601 92.2594 193.549 92.0682 193.558 91.8997C193.558 91.8997 193.644 91.9456 193.641 91.9498Z" fill="black"/>
<path fill-rule="evenodd" clip-rule="evenodd" d="M194.887 91.8054C196.016 91.9237 197.163 92.3277 198.308 92.4707C198.429 92.4858 198.539 92.4004 198.553 92.28C198.568 92.1598 198.483 92.05 198.363 92.0349C197.215 91.8915 196.064 91.4871 194.933 91.3685C194.812 91.3559 194.704 91.4435 194.692 91.5641C194.679 91.6846 194.767 91.7928 194.887 91.8054Z" fill="black"/>
<path fill-rule="evenodd" clip-rule="evenodd" d="M195.55 98.4453L195.633 99.0507C195.633 99.0507 197.702 99.4587 198.929 99.1972C199.078 99.1657 199.181 99.0315 199.156 98.882C199.131 98.7325 198.99 98.631 198.841 98.6554C197.74 98.8357 195.55 98.4453 195.55 98.4453Z" fill="black"/>
<path fill-rule="evenodd" clip-rule="evenodd" d="M178.483 88.5476C178.492 88.5409 178.502 88.5352 178.512 88.5304C178.603 88.4859 178.713 88.5238 178.757 88.6144C178.787 88.6785 178.782 88.7374 178.752 88.7925C178.734 88.824 178.698 88.865 178.636 88.8881C178.58 88.9086 178.466 88.9183 178.46 88.9188C178.299 88.9298 178.137 88.9203 177.977 88.9C177.876 88.8873 177.805 88.7955 177.818 88.6954C177.831 88.5952 177.923 88.5242 178.023 88.5369C178.159 88.5545 178.297 88.563 178.435 88.5538L178.483 88.5476ZM178.409 88.7061C178.41 88.7259 178.414 88.7459 178.424 88.7659C178.415 88.7469 178.411 88.7262 178.409 88.7061Z" fill="#F2BBBB"/>
<path fill-rule="evenodd" clip-rule="evenodd" d="M178.379 88.3469C178.372 88.3267 178.367 88.3098 178.364 88.2969C178.25 87.8318 177.986 87.3608 177.668 87.0042C177.616 86.9448 177.559 86.888 177.499 86.8369C177.421 86.7719 177.411 86.6564 177.476 86.5788C177.541 86.5016 177.657 86.4912 177.733 86.5566C177.808 86.6188 177.877 86.6884 177.941 86.7606C178.297 87.1604 178.592 87.6888 178.72 88.2099C178.739 88.2878 178.818 88.5174 178.828 88.6855C178.837 88.8157 178.801 88.9205 178.743 88.9793C178.685 89.0381 178.61 89.0591 178.521 89.0235C178.493 89.0119 178.459 88.9895 178.426 88.9581C178.392 88.9255 178.358 88.8793 178.348 88.8686C178.29 88.8018 178.234 88.7333 178.175 88.6668C178.182 88.6906 178.184 88.716 178.181 88.7416C178.169 88.8418 178.077 88.9128 177.977 88.9001C177.559 88.847 177.065 88.7032 176.738 88.427C176.669 88.3686 176.563 88.2674 176.503 88.1591C176.442 88.0484 176.426 87.9307 176.471 87.8227C176.519 87.7058 176.624 87.6355 176.758 87.6107C176.883 87.5874 177.038 87.6078 177.124 87.6242C177.536 87.7005 177.944 87.9371 178.25 88.2182C178.294 88.2592 178.337 88.3023 178.379 88.3469ZM178.064 88.5472C178.043 88.527 178.023 88.5069 178.002 88.488C177.745 88.2513 177.404 88.0482 177.058 87.9839C177.009 87.975 176.93 87.9614 176.857 87.9664C176.846 87.9674 176.832 87.9701 176.82 87.973C176.826 87.9846 176.833 87.9995 176.84 88.009C176.88 88.0659 176.936 88.1156 176.974 88.1472C177.25 88.3806 177.671 88.492 178.023 88.537C178.037 88.5387 178.051 88.5423 178.064 88.5472Z" fill="#F2BBBB"/>
<path fill-rule="evenodd" clip-rule="evenodd" d="M177.452 86.8015C177.452 86.8179 177.453 86.8344 177.455 86.8485C177.471 86.9675 177.51 87.1003 177.549 87.1816C177.621 87.3377 177.712 87.4836 177.809 87.6255C177.952 87.8364 178.112 88.0354 178.284 88.224C178.352 88.2986 178.347 88.4143 178.272 88.4823C178.197 88.5502 178.081 88.5448 178.013 88.4701C177.831 88.2688 177.66 88.0563 177.506 87.8318C177.398 87.6734 177.298 87.5101 177.217 87.3365C177.147 87.1864 177.074 86.9094 177.084 86.7229C177.091 86.585 177.146 86.4846 177.219 86.4337C177.276 86.3943 177.349 86.3731 177.444 86.3929C177.515 86.4076 177.612 86.4538 177.734 86.5566C177.812 86.6211 177.822 86.7367 177.757 86.8143C177.692 86.8915 177.576 86.9018 177.499 86.8369C177.484 86.8244 177.468 86.8122 177.452 86.8015Z" fill="#F2BBBB"/>
<path fill-rule="evenodd" clip-rule="evenodd" d="M193.049 64.9677C193.049 64.9677 169.327 55.324 151.435 62.8524L154.429 65.1333L148.988 69.7886C148.988 69.7886 182.542 69.2855 193.935 74.2522L193.049 64.9677Z" fill="#F2BBBB"/>
<path fill-rule="evenodd" clip-rule="evenodd" d="M196.215 99.1182C196.578 99.2299 197.582 99.2843 198.548 99.2446L199.013 102.421L196.538 102.587L196.215 99.1182ZM195.347 91.4191L192.46 64.3438L194.598 64.3486L197.815 91.9393L195.347 91.4191Z" fill="#255932"/>
<path fill-rule="evenodd" clip-rule="evenodd" d="M114.692 119.709L136.107 119.612C136.107 119.612 150.614 157.863 147.343 182.237H133.513L125.205 131.882L116.898 182.237H103.068C99.797 157.863 114.692 119.709 114.692 119.709Z" fill="#255932"/>
<path fill-rule="evenodd" clip-rule="evenodd" d="M140.339 132.217L134.917 127.716C134.726 127.56 134.699 127.279 134.856 127.089C135.013 126.898 135.294 126.871 135.484 127.028L139.88 130.56L140.339 132.217ZM111.006 130.281L116.492 126.399C116.693 126.257 116.972 126.304 117.114 126.506C117.257 126.706 117.209 126.985 117.008 127.127L110.565 131.687L111.006 130.281ZM111.944 127.29C112.235 127.088 112.5 126.9 112.672 126.768C113.986 125.763 115.623 124.453 115.623 124.453C115.815 124.3 116.096 124.331 116.25 124.523C116.404 124.716 116.373 124.997 116.18 125.151C116.18 125.151 114.536 126.466 113.215 127.478C112.838 127.766 112.102 128.276 111.511 128.672L111.944 127.29ZM139.298 128.69L135.054 125.194C134.865 125.037 134.839 124.755 134.996 124.566C135.154 124.376 135.436 124.351 135.625 124.508L138.747 127.008L139.155 128.302L139.298 128.69Z" fill="#BAB1DB"/>
<path fill-rule="evenodd" clip-rule="evenodd" d="M102.998 181.899L103.417 186.75C103.417 186.75 100.309 187.155 100.033 189.14L116.027 188.44L116.904 182.185L102.998 181.899Z" fill="#F28F38"/>
<path fill-rule="evenodd" clip-rule="evenodd" d="M116.072 188.143L100.25 188.767C100.08 188.774 99.949 188.918 99.9563 189.087C99.9638 189.256 100.107 189.387 100.276 189.38L116.018 188.754L116.072 188.143Z" fill="#255932"/>
<path fill-rule="evenodd" clip-rule="evenodd" d="M147.273 182.055L146.854 186.906C146.854 186.906 149.961 187.31 150.237 189.296L134.244 188.596L133.367 182.34L147.273 182.055Z" fill="#F28F38"/>
<path fill-rule="evenodd" clip-rule="evenodd" d="M134.298 188.88L149.983 189.557C150.152 189.564 150.295 189.432 150.303 189.263C150.31 189.094 150.179 188.951 150.01 188.943L134.199 188.291L134.298 188.88Z" fill="#255932"/>
<path fill-rule="evenodd" clip-rule="evenodd" d="M139.498 122.179C142.886 129.873 146.147 137.617 147.479 143.529C147.479 143.529 148.416 143.846 148.292 141.161C148.292 141.161 148.318 138.145 149.241 138.559C149.241 138.559 151.874 142.015 152.064 146.452C152.064 146.452 153.102 147.28 153.204 144.531C153.204 144.531 153.787 143.966 153.689 142.938C153.689 142.938 154.239 142.063 154.166 141.161C154.166 141.161 154.985 140.5 154.825 138.23C154.665 135.971 148.274 122.195 147.332 119.783L139.498 122.179Z" fill="#4B0000"/>
<path fill-rule="evenodd" clip-rule="evenodd" d="M121.64 91.4418C121.788 90.6268 122.042 89.8967 122.3 89.3039C122.719 88.3555 123.662 87.7466 124.699 87.7546C125.386 87.7599 126.012 87.8794 126.647 87.8863C127.432 87.8923 128.306 88.2642 128.589 88.9969C128.974 89.9978 129.092 91.0266 129.086 91.9207C129.168 91.8571 129.259 91.8036 129.353 91.7633C129.742 91.5957 130.152 91.7823 130.287 92.1884C130.547 92.9679 129.66 94.0839 128.826 94.1042C128.81 94.1679 128.795 94.2249 128.781 94.2749C128.604 94.9022 128.39 95.2567 128.39 95.2567L128.414 97.7257L131.379 98.2573C123.747 104.753 119.994 98.2573 119.994 98.2573H122.087L122.12 95.7694C121.543 94.7354 121.483 93.5448 121.507 92.7659C121.448 92.8275 121.384 92.8841 121.311 92.9314C120.838 93.2368 120.399 93.0264 120.144 92.5642C119.856 92.0438 119.76 91.2983 120.144 90.7994C120.554 90.2668 121.108 90.5572 121.421 91.0203C121.511 91.152 121.582 91.294 121.64 91.4418Z" fill="#4B0000"/>
<path fill-rule="evenodd" clip-rule="evenodd" d="M121.731 90.9485C121.731 90.9485 123.898 90.4249 124.155 88.818C124.155 88.818 126.023 89.9664 127.834 89.0344C127.834 89.0344 127.924 91.6827 129.142 92.0254C129.142 92.0254 129.154 90.7849 129.164 89.648C129.174 88.6202 128.36 87.7733 127.332 87.7414C126.251 87.7078 124.893 87.6656 123.827 87.6325C122.833 87.6017 121.986 88.3452 121.887 89.3339C121.803 90.1761 121.722 90.9949 121.731 90.9485Z" fill="black"/>
<path fill-rule="evenodd" clip-rule="evenodd" d="M102.806 119.784C102.806 119.784 97.125 137.494 95.9703 141.093C95.7646 141.735 96.0604 142.429 96.6649 142.726C96.665 142.726 96.6651 142.726 96.6652 142.726C96.7675 143.161 97.103 143.897 97.7288 143.978C97.8032 144.414 98.1773 145.097 98.7696 145.198C98.7696 145.198 98.9083 145.471 99.0944 145.838C99.2454 146.134 99.5641 146.308 99.8957 146.272C100.227 146.238 100.502 146.001 100.588 145.679H100.588C101.446 146.214 101.682 146.016 102.278 144.463C104.943 137.507 108.18 129.46 111.501 122.155L102.806 119.784Z" fill="#4B0000"/>
<path fill-rule="evenodd" clip-rule="evenodd" d="M100.305 146.036L101.024 143.55C101.066 143.405 101.218 143.32 101.364 143.363C101.509 143.405 101.593 143.557 101.551 143.703L100.917 145.896C100.724 145.802 100.617 145.68 100.617 145.68C100.565 145.841 100.442 145.955 100.305 146.036Z" fill="#A54C36"/>
<path fill-rule="evenodd" clip-rule="evenodd" d="M122.134 95.6897C122.266 95.8806 122.431 96.0505 122.602 96.2067C123.192 96.746 123.836 97.2614 124.655 97.3485C125.401 97.4279 126.123 97.1922 126.765 96.7874C127.395 96.3891 127.948 95.8274 128.37 95.2268L128.389 95.9216C127.992 96.3972 127.52 96.8297 126.999 97.1588C126.274 97.6171 125.454 97.8751 124.608 97.7853C123.694 97.688 122.965 97.133 122.306 96.531C122.243 96.4728 122.179 96.4127 122.118 96.3507L122.134 95.6897Z" fill="#A54C36"/>
<path fill-rule="evenodd" clip-rule="evenodd" d="M124.759 93.1522C124.405 93.0992 124.034 93.2337 123.894 93.5159C123.789 93.7252 123.807 94.0946 123.979 94.284C124.193 94.5195 124.588 94.6548 124.907 94.6055C125.152 94.5676 125.353 94.43 125.432 94.1764C125.462 94.0799 125.407 93.9773 125.311 93.9475C125.215 93.9178 125.111 93.9719 125.082 94.0684C125.048 94.1769 124.956 94.2275 124.85 94.2437C124.645 94.2757 124.388 94.1904 124.25 94.038C124.213 93.9964 124.198 93.9331 124.192 93.8705C124.187 93.8011 124.196 93.7301 124.221 93.6791C124.298 93.5256 124.512 93.4854 124.705 93.5142C124.805 93.5291 124.898 93.4601 124.913 93.3603C124.928 93.2604 124.859 93.1671 124.759 93.1522Z" fill="#A54C36"/>
<path fill-rule="evenodd" clip-rule="evenodd" d="M125.432 94.1763C125.508 93.9317 125.481 93.7303 125.399 93.5721C125.279 93.3378 125.03 93.1924 124.76 93.1522C124.66 93.1373 124.567 93.2062 124.552 93.3061C124.536 93.406 124.606 93.4993 124.706 93.5142C124.858 93.5369 125.006 93.6072 125.074 93.7394C125.118 93.8255 125.124 93.9353 125.083 94.0684C125.053 94.1649 125.107 94.2675 125.204 94.2972C125.3 94.327 125.402 94.2729 125.432 94.1763Z" fill="#A54C36"/>
<path fill-rule="evenodd" clip-rule="evenodd" d="M121.647 91.4507L121.509 91.1581C121.509 91.1581 121.507 91.1784 121.506 91.1889C121.461 91.6242 121.33 92.9218 121.33 92.9218C121.399 92.8743 121.462 92.8213 121.516 92.7538C121.516 92.7538 121.605 91.8748 121.644 91.4879C121.645 91.472 121.647 91.4507 121.647 91.4507Z" fill="#A54C36"/>
<path fill-rule="evenodd" clip-rule="evenodd" d="M129.09 91.9197C129.152 91.8628 129.22 91.8224 129.291 91.7883C129.291 91.7883 129.304 92.0685 129.304 92.1158C129.303 92.7798 129.059 94.0698 129.059 94.0698C128.982 94.0969 128.903 94.1048 128.824 94.1066C128.824 94.1066 129.08 92.8039 129.081 92.1155C129.08 92.0935 129.081 92.0704 129.081 92.0461C129.082 92.0167 129.09 91.9197 129.09 91.9197Z" fill="#A54C36"/>
<path fill-rule="evenodd" clip-rule="evenodd" d="M122.091 98.0546L122.1 99.1796C122.101 99.3311 121.98 99.455 121.828 99.4561C121.676 99.4573 121.552 99.3352 121.551 99.1837L121.544 98.2548L122.081 98.2324L122.091 98.0546Z" fill="#A54C36"/>
<path fill-rule="evenodd" clip-rule="evenodd" d="M128.408 97.7319L128.956 97.8231L128.948 98.5971C128.948 98.7486 128.823 98.8705 128.671 98.869C128.52 98.8675 128.399 98.7434 128.399 98.5919L128.408 97.7319Z" fill="#A54C36"/>
<path fill-rule="evenodd" clip-rule="evenodd" d="M153.064 145.704C153.037 145.662 153.019 145.612 153.019 145.558C153.002 144.381 152.883 143.27 152.595 142.125C152.386 141.291 151.963 140.24 151.839 139.489C151.814 139.339 151.916 139.198 152.065 139.173C152.214 139.149 152.356 139.249 152.38 139.399C152.503 140.139 152.922 141.171 153.128 141.992C153.306 142.705 153.423 143.404 153.491 144.113C153.418 144.266 153.32 144.418 153.189 144.558C153.189 144.558 153.205 145.223 153.064 145.704ZM153.654 143.61C153.579 142.593 153.436 141.617 153.2 140.604C153.103 140.184 153.004 139.763 152.898 139.345C152.863 139.206 152.826 139.067 152.784 138.93C152.772 138.889 152.725 138.813 152.711 138.768C152.688 138.696 152.692 138.636 152.701 138.597C152.72 138.513 152.766 138.455 152.829 138.416C152.878 138.385 152.955 138.353 153.068 138.386C153.192 138.423 153.271 138.54 153.264 138.664C153.283 138.702 153.303 138.748 153.31 138.771C153.354 138.916 153.393 139.063 153.431 139.211C153.537 139.633 153.637 140.055 153.736 140.479C153.866 141.037 153.967 141.584 154.047 142.133C153.981 142.384 153.869 142.662 153.686 142.941C153.686 142.941 153.726 143.234 153.654 143.61ZM154.19 141.121C154.126 140.711 154.052 140.303 153.965 139.903C153.834 139.29 153.571 138.646 153.506 138.025C153.489 137.875 153.599 137.739 153.75 137.724C153.9 137.708 154.036 137.817 154.051 137.968C154.114 138.57 154.375 139.193 154.502 139.786C154.544 139.979 154.582 140.172 154.619 140.366C154.551 140.611 154.423 140.938 154.19 141.121ZM152.936 138.919H152.937L152.932 138.918L152.936 138.919ZM152.926 138.917L152.913 138.913C152.918 138.914 152.922 138.916 152.926 138.917Z" fill="#A54C36"/>
<path fill-rule="evenodd" clip-rule="evenodd" d="M108.496 121.153C108.493 121.147 108.49 121.142 108.486 121.137C108.329 120.878 108.411 120.54 108.67 120.383L110.323 119.377C110.581 119.22 110.919 119.302 111.077 119.561C111.234 119.82 111.152 120.158 110.893 120.315L109.241 121.321C109.23 121.327 109.219 121.334 109.208 121.339L108.496 121.153ZM141.64 121.282L141.571 119.804C141.558 119.501 141.792 119.244 142.095 119.23C142.398 119.215 142.654 119.45 142.669 119.752L142.723 120.949L141.64 121.282ZM115.365 119.729C115.336 119.636 115.33 119.536 115.354 119.435L115.802 117.554C115.872 117.259 116.169 117.077 116.463 117.147C116.758 117.217 116.94 117.513 116.87 117.808L116.422 119.689C116.421 119.696 116.419 119.702 116.417 119.709L115.365 119.729ZM119.942 119.709L120.988 118.545C121.191 118.319 121.538 118.301 121.763 118.503C121.989 118.707 122.007 119.053 121.805 119.279L121.443 119.681L119.942 119.709ZM128.096 119.656L127.985 119.494C127.814 119.244 127.878 118.902 128.129 118.731C128.379 118.56 128.721 118.624 128.892 118.874L129.41 119.632L128.096 119.656ZM133.512 119.644C133.498 119.633 133.482 119.619 133.468 119.604C133.255 119.389 133.257 119.041 133.472 118.828L134.845 117.467C135.061 117.253 135.409 117.255 135.622 117.47C135.836 117.685 135.834 118.034 135.619 118.247L134.244 119.608C134.236 119.616 134.228 119.624 134.22 119.632L133.512 119.644ZM103.298 117.822L104.207 117.956C104.507 118.001 104.715 118.28 104.67 118.58C104.626 118.879 104.347 119.087 104.047 119.043L102.886 118.871L103.298 117.822ZM138.089 116.587L138.332 118.506C138.369 118.807 138.644 119.02 138.945 118.983C139.245 118.944 139.458 118.67 139.421 118.369L139.179 116.45C139.142 116.15 138.866 115.937 138.566 115.974C138.265 116.012 138.052 116.287 138.089 116.587ZM146.179 117.835L144.437 116.992C144.165 116.86 143.836 116.974 143.704 117.247C143.572 117.52 143.686 117.848 143.959 117.98L145.699 118.824C145.972 118.955 146.301 118.841 146.433 118.568C146.565 118.296 146.451 117.967 146.179 117.835ZM108.092 117.375L107.505 115.532C107.413 115.244 107.104 115.084 106.815 115.176C106.526 115.268 106.367 115.577 106.459 115.865L107.045 117.708C107.137 117.997 107.446 118.157 107.735 118.065C108.024 117.974 108.184 117.664 108.092 117.375ZM123.917 117.752L125.837 117.978C126.138 118.014 126.412 117.799 126.447 117.498C126.483 117.197 126.268 116.923 125.966 116.888L124.046 116.661C123.745 116.627 123.471 116.842 123.435 117.143C123.401 117.444 123.616 117.716 123.917 117.752ZM131.509 115.619L129.699 116.302C129.415 116.409 129.273 116.726 129.38 117.01C129.486 117.293 129.803 117.436 130.087 117.329L131.896 116.647C132.18 116.54 132.324 116.223 132.216 115.939C132.109 115.656 131.793 115.513 131.509 115.619ZM119.564 114.386L118.666 116.099C118.526 116.368 118.629 116.7 118.898 116.841C119.166 116.982 119.498 116.877 119.639 116.609L120.537 114.896C120.678 114.628 120.574 114.296 120.306 114.155C120.037 114.014 119.705 114.118 119.564 114.386ZM112.569 115.285L110.673 115.669C110.376 115.729 110.184 116.019 110.244 116.316C110.304 116.613 110.594 116.806 110.891 116.745L112.787 116.361C113.084 116.302 113.276 116.012 113.216 115.714C113.156 115.417 112.866 115.225 112.569 115.285ZM142.611 113.842L141.04 114.969C140.793 115.146 140.737 115.49 140.913 115.736C141.09 115.982 141.433 116.038 141.679 115.862L143.251 114.734C143.498 114.558 143.553 114.214 143.377 113.968C143.2 113.722 142.857 113.665 142.611 113.842ZM126.619 113.002L126.853 114.922C126.891 115.223 127.164 115.437 127.465 115.4C127.766 115.364 127.981 115.089 127.944 114.789L127.709 112.869C127.672 112.568 127.398 112.354 127.097 112.391C126.796 112.427 126.582 112.702 126.619 113.002ZM133.591 112.362L134.132 114.219C134.217 114.51 134.522 114.677 134.813 114.592C135.104 114.508 135.271 114.202 135.187 113.911L134.645 112.055C134.561 111.764 134.255 111.597 133.964 111.681C133.673 111.767 133.506 112.071 133.591 112.362ZM122.314 112.38L123.264 114.064C123.412 114.329 123.748 114.422 124.012 114.273C124.276 114.125 124.37 113.79 124.22 113.525L123.272 111.841C123.122 111.576 122.787 111.483 122.523 111.631C122.259 111.78 122.166 112.115 122.314 112.38ZM105.402 112.467L106.018 111.879C106.237 111.67 106.585 111.677 106.794 111.896C107.004 112.114 106.996 112.463 106.777 112.672L105.38 114.009C105.209 114.173 104.959 114.204 104.759 114.105L105.402 112.467ZM115.329 112.425L116.79 113.692C117.019 113.89 117.366 113.866 117.565 113.637C117.763 113.408 117.739 113.061 117.509 112.863L116.048 111.595C115.819 111.397 115.472 111.422 115.274 111.65C115.075 111.88 115.1 112.227 115.329 112.425ZM111.177 111.324L109.78 112.661C109.561 112.87 109.553 113.218 109.763 113.437C109.972 113.656 110.32 113.663 110.539 113.454L111.936 112.117C112.155 111.907 112.163 111.559 111.953 111.34C111.744 111.121 111.396 111.114 111.177 111.324ZM139.018 111.971L137.166 111.412C136.876 111.325 136.569 111.489 136.483 111.779C136.395 112.069 136.559 112.376 136.85 112.464L138.702 113.022C138.992 113.109 139.298 112.945 139.385 112.655C139.473 112.365 139.308 112.058 139.018 111.971ZM130.843 110.099L129.63 111.606C129.44 111.842 129.478 112.188 129.714 112.378C129.95 112.568 130.296 112.531 130.486 112.295L131.699 110.787C131.888 110.551 131.85 110.205 131.614 110.016C131.378 109.826 131.032 109.863 130.843 110.099ZM144.258 111.224C144.126 111.458 143.838 111.566 143.58 111.465L141.778 110.763C141.496 110.652 141.356 110.334 141.466 110.051C141.577 109.769 141.895 109.629 142.177 109.739L143.959 110.434L144.258 111.224ZM119.726 109.08L117.927 109.79C117.645 109.902 117.507 110.221 117.618 110.503C117.729 110.785 118.048 110.923 118.33 110.812L120.129 110.101C120.411 109.99 120.549 109.671 120.438 109.389C120.327 109.107 120.008 108.969 119.726 109.08ZM125.71 107.918L124.909 109.678C124.783 109.954 124.905 110.28 125.18 110.405C125.457 110.531 125.783 110.409 125.908 110.133L126.709 108.373C126.835 108.097 126.713 107.771 126.437 107.645C126.161 107.52 125.836 107.642 125.71 107.918ZM107.024 108.34L108.18 108.732C108.467 108.829 108.621 109.141 108.523 109.428C108.426 109.715 108.114 109.869 107.827 109.772L106.622 109.364L107.024 108.34ZM113.056 108.983L112.759 107.071C112.713 106.772 112.432 106.566 112.133 106.613C111.833 106.659 111.628 106.94 111.674 107.239L111.97 109.151C112.017 109.45 112.298 109.656 112.597 109.609C112.897 109.563 113.102 109.282 113.056 108.983ZM133.434 108.717L135.324 109.128C135.62 109.192 135.912 109.004 135.977 108.708C136.041 108.411 135.853 108.119 135.557 108.055L133.667 107.644C133.37 107.58 133.078 107.768 133.013 108.064C132.949 108.361 133.138 108.653 133.434 108.717ZM121.025 106.841L122.106 108.445C122.275 108.697 122.616 108.763 122.868 108.594C123.119 108.425 123.186 108.083 123.016 107.832L121.936 106.228C121.767 105.976 121.425 105.91 121.174 106.079C120.923 106.248 120.856 106.59 121.025 106.841ZM139.124 107.887L138.732 105.993C138.671 105.696 138.38 105.505 138.082 105.567C137.786 105.628 137.595 105.919 137.657 106.216L138.049 108.11C138.11 108.406 138.401 108.597 138.698 108.536C138.994 108.474 139.186 108.183 139.124 107.887ZM129.906 107.438L130.535 105.609C130.632 105.323 130.48 105.01 130.193 104.912C129.907 104.813 129.594 104.966 129.496 105.253L128.867 107.082C128.769 107.368 128.922 107.681 129.209 107.779C129.495 107.878 129.808 107.725 129.906 107.438ZM117.566 107.259L117.768 105.336C117.799 105.034 117.58 104.764 117.279 104.732C116.977 104.701 116.707 104.92 116.675 105.221L116.474 107.145C116.442 107.446 116.661 107.717 116.962 107.748C117.264 107.78 117.534 107.561 117.566 107.259ZM141.846 104.874L142.539 106.696L142.434 107.168C142.369 107.464 142.076 107.651 141.78 107.586C141.484 107.521 141.297 107.227 141.362 106.931L141.778 105.043C141.792 104.981 141.815 104.925 141.846 104.874ZM124.651 103.3L123.85 105.06C123.725 105.336 123.846 105.662 124.122 105.787C124.398 105.913 124.724 105.791 124.849 105.515L125.651 103.755C125.776 103.479 125.654 103.153 125.378 103.028C125.103 102.902 124.777 103.024 124.651 103.3ZM108.49 104.61L109.837 103.62C110.081 103.44 110.425 103.492 110.604 103.737C110.784 103.981 110.732 104.325 110.488 104.504L108.93 105.65C108.686 105.83 108.342 105.778 108.162 105.534C108.154 105.523 108.147 105.512 108.14 105.501L108.49 104.61ZM114.517 104.681L114.47 102.748C114.462 102.445 114.21 102.205 113.907 102.212C113.605 102.22 113.365 102.472 113.372 102.775L113.42 104.708C113.427 105.011 113.679 105.251 113.982 105.244C114.285 105.236 114.525 104.984 114.517 104.681ZM134.311 104.952L135.574 103.486C135.772 103.256 135.745 102.909 135.515 102.712C135.286 102.514 134.939 102.54 134.741 102.77L133.479 104.235C133.282 104.465 133.307 104.812 133.537 105.009C133.767 105.207 134.113 105.181 134.311 104.952ZM119.092 102.914L120.705 103.982C120.957 104.149 121.299 104.08 121.466 103.827C121.633 103.575 121.564 103.234 121.311 103.066L119.699 101.998C119.446 101.831 119.105 101.9 118.938 102.153C118.771 102.405 118.84 102.746 119.092 102.914ZM128.055 100.439C128.134 100.533 128.184 100.654 128.186 100.787L128.217 102.721C128.221 103.024 127.98 103.274 127.677 103.279C127.374 103.283 127.124 103.041 127.119 102.738C127.119 102.738 127.088 100.828 127.089 100.82C127.421 100.725 127.744 100.569 128.055 100.439ZM132.069 102.272L131.383 100.464C131.276 100.181 130.958 100.038 130.675 100.145C130.392 100.253 130.249 100.57 130.356 100.853L131.042 102.662C131.149 102.945 131.467 103.088 131.751 102.98C132.033 102.873 132.176 102.556 132.069 102.272ZM139.265 100.853C139.538 101.099 139.796 101.361 140.037 101.639L138.651 102.809C138.421 103.005 138.074 102.976 137.878 102.744C137.682 102.513 137.712 102.166 137.943 101.971L139.265 100.853ZM121.169 99.6256C121.853 100.22 122.293 100.422 122.984 100.758L123.263 101.092C123.46 101.322 123.434 101.668 123.204 101.866C122.974 102.063 122.627 102.037 122.43 101.807L121.17 100.339C120.988 100.126 120.983 99.8276 121.169 99.6256ZM111.819 99.8343L112.356 100.098C112.628 100.231 112.741 100.56 112.607 100.833C112.474 101.105 112.145 101.217 111.873 101.084L110.838 100.576C111.142 100.3 111.47 100.052 111.819 99.8343ZM117.161 98.7974L115.468 99.7334C115.203 99.88 115.107 100.214 115.254 100.48C115.4 100.745 115.735 100.841 116 100.694L117.692 99.7583C117.957 99.6117 118.054 99.2773 117.907 99.0121C117.76 98.747 117.426 98.6507 117.161 98.7974ZM135.472 98.8429C135.857 98.938 136.231 99.0582 136.595 99.2017C136.639 99.4894 136.45 99.7646 136.161 99.8232L134.266 100.208C133.969 100.269 133.68 100.077 133.619 99.7797C133.559 99.4828 133.751 99.1927 134.048 99.1323L135.472 98.8429Z" fill="#F28F38"/>
<path fill-rule="evenodd" clip-rule="evenodd" d="M112.647 99.2444C112.923 99.1424 116.71 97.929 119.953 98.2243C119.996 98.2282 119.984 98.2306 119.984 98.2306L120.396 98.8096C120.396 98.8096 119.915 98.7721 119.86 98.7672C116.614 98.4855 112.825 99.7638 112.825 99.7638L112.791 99.7742C112.265 99.8985 111.74 100.271 111.214 100.817C110.376 101.687 109.551 102.991 108.765 104.514C105.975 109.917 103.7 118.045 103.273 119.616L111.296 121.632L114.889 110.991C114.932 110.862 115.064 110.786 115.197 110.809C115.331 110.833 115.427 110.951 115.424 111.087L115.261 119.732L114.712 119.718L114.825 112.899L111.735 122.047C111.69 122.184 111.547 122.261 111.408 122.226L102.869 120.081C102.798 120.063 102.737 120.017 102.699 119.954C102.662 119.891 102.652 119.816 102.67 119.744C102.67 119.744 105.155 110.309 108.277 104.262C109.091 102.685 109.951 101.337 110.819 100.436C111.425 99.8073 112.041 99.3927 112.647 99.2444Z" fill="#F28F38"/>
<path fill-rule="evenodd" clip-rule="evenodd" d="M147.131 119.616C146.296 116.516 144.923 113.846 143.542 109.608C143.19 108.53 142.625 106.948 142.037 105.333C140.732 101.642 137.355 99.0825 133.45 98.8233C132.2 98.7404 130.797 98.7323 130.797 98.7323C130.984 98.5786 131.17 98.423 131.357 98.2637C131.357 98.2637 132.246 98.1996 133.486 98.2755C137.612 98.5279 141.177 101.252 142.553 105.147C143.144 106.766 143.71 108.355 144.064 109.437C145.488 113.808 146.901 116.517 147.73 119.739C147.768 119.883 147.683 120.031 147.539 120.071L139.547 122.317C139.411 122.356 139.267 122.284 139.217 122.151L135.768 113.164L136.083 119.61L135.54 119.609L135.047 111.259C135.036 111.122 135.126 110.998 135.26 110.968C135.392 110.937 135.529 111.009 135.577 111.136L139.639 121.721L147.131 119.616Z" fill="#F28F38"/>
<path fill-rule="evenodd" clip-rule="evenodd" d="M150.81 140.342C151.088 140.033 151.062 139.556 150.752 139.278C150.443 139.001 149.966 139.027 149.688 139.337L148.435 140.735C148.158 141.045 148.184 141.521 148.494 141.799C148.803 142.076 149.28 142.05 149.557 141.741L150.81 140.342Z" fill="#AB494A"/>
<path fill-rule="evenodd" clip-rule="evenodd" d="M151.784 141.215C152.061 140.906 152.036 140.429 151.726 140.151C151.416 139.874 150.94 139.9 150.662 140.21L149.409 141.608C149.131 141.918 149.158 142.394 149.467 142.672C149.777 142.949 150.253 142.923 150.531 142.614L151.784 141.215Z" fill="#AB494A"/>
<path fill-rule="evenodd" clip-rule="evenodd" d="M152.754 142.084C153.031 141.774 153.005 141.297 152.696 141.02C152.386 140.742 151.909 140.769 151.632 141.078L150.379 142.477C150.101 142.786 150.127 143.263 150.437 143.54C150.747 143.818 151.223 143.792 151.5 143.482L152.754 142.084Z" fill="#AB494A"/>
<path fill-rule="evenodd" clip-rule="evenodd" d="M153.703 142.935C153.98 142.625 153.955 142.148 153.645 141.871C153.335 141.593 152.858 141.62 152.581 141.929L151.328 143.328C151.05 143.637 151.077 144.114 151.386 144.391C151.696 144.668 152.172 144.643 152.45 144.333L153.703 142.935Z" fill="#AB494A"/>
<path fill-rule="evenodd" clip-rule="evenodd" d="M150.998 139.936C151.023 139.8 151.003 139.652 150.942 139.494L148.82 141.967C148.953 142.013 149.105 141.997 149.255 141.967L150.998 139.936Z" fill="black"/>
<path fill-rule="evenodd" clip-rule="evenodd" d="M150.021 142.854L150.234 142.851C150.191 142.961 150.168 143.064 150.217 143.144L151.965 141.091L152.198 140.84L151.946 140.878C151.983 140.778 151.993 140.682 151.969 140.592L150.021 142.854Z" fill="black"/>
<path fill-rule="evenodd" clip-rule="evenodd" d="M151.133 143.779C151.12 143.922 151.143 144.061 151.217 144.179L153.274 141.822L153.36 141.714C153.232 141.682 153.095 141.673 152.947 141.695L151.133 143.779Z" fill="black"/>
<path fill-rule="evenodd" clip-rule="evenodd" d="M61.4329 116.035C61.4329 116.035 42.1091 162.559 48.5849 184.313L48.6495 186.471L45.0675 187.636L60.9444 186.507L70.0415 130.72L79.46 187.571L95.2841 187.77C95.2841 187.77 92.2809 185.838 91.672 186.1C91.672 186.1 97.224 159.581 80.0982 116.275L79.7034 110.384L91.7263 136.241L100.113 132.608C100.113 132.608 88.9013 105.493 85.9048 101.588C85.9048 101.588 81.0919 96.8348 77.0814 98.0856L67.6839 96.8047C67.6839 96.8047 60.6926 96.5616 58.5464 99.5024L51.7261 109.705L51.9775 107.199L44.6214 105.463C44.6214 105.463 39.83 117.731 43.0371 121.909C43.0371 121.909 47.1769 126.162 50.8761 124.498C50.8761 124.498 59.5457 114.385 62.1385 111.032L61.4329 116.035Z" fill="white"/>
<path fill-rule="evenodd" clip-rule="evenodd" d="M80.056 115.648L80.098 116.275C93.2644 149.569 93.0268 172.941 92.2134 181.966L78.4765 181.636L70.0413 130.72L61.8039 181.235L47.8054 180.898C43.982 158.049 61.4327 116.035 61.4327 116.035L80.056 115.648Z" fill="#D92B2B"/>
<path fill-rule="evenodd" clip-rule="evenodd" d="M61.374 116.568C60.1575 119.56 45.0516 157.325 48.184 180.797C48.2064 180.965 48.0883 181.12 47.9203 181.142C47.7525 181.165 47.598 181.046 47.5756 180.878C44.2966 156.309 60.8843 116.145 60.8843 116.145C60.9316 116.03 61.0433 115.955 61.1674 115.955L80.2092 115.594C80.3373 115.594 80.4517 115.673 80.4966 115.793C80.4966 115.793 95.7867 156.533 92.5088 181.099C92.486 181.267 92.3313 181.385 92.1638 181.363C91.9955 181.341 91.8774 181.186 91.9003 181.018C95.0299 157.567 81.1243 119.287 79.9951 116.208L61.374 116.568Z" fill="#F2BBBB"/>
<path fill-rule="evenodd" clip-rule="evenodd" d="M70.0666 132.313L62.0384 181.132C62.011 181.299 61.8529 181.413 61.6858 181.385C61.5187 181.358 61.4054 181.2 61.4328 181.033L69.7637 130.371C69.7884 130.222 69.9165 130.113 70.0666 130.113C70.2176 130.113 70.3457 130.222 70.3695 130.371L78.6775 181.008C78.705 181.176 78.5915 181.334 78.424 181.362C78.2566 181.389 78.0992 181.276 78.0717 181.108L70.0666 132.313Z" fill="#F2BBBB"/>
<path fill-rule="evenodd" clip-rule="evenodd" d="M84.0913 182.063L84.9339 173.8C84.9647 173.498 85.2344 173.278 85.5358 173.309C85.8373 173.34 86.0571 173.61 86.0264 173.911L85.1946 182.069L84.0913 182.063ZM81.8881 182.053C81.8865 182.025 81.8872 181.996 81.8901 181.967L82.8053 172.991C82.836 172.69 83.1057 172.469 83.4072 172.501C83.7087 172.532 83.9285 172.801 83.8977 173.103L82.9846 182.058L81.8881 182.053ZM61.2681 179.86L54.6605 176.014C54.3986 175.862 54.3098 175.526 54.4621 175.263C54.6146 175.001 54.951 174.913 55.2129 175.065L61.4777 178.711L61.2681 179.86ZM61.688 177.559L56.2755 174.409C56.0136 174.257 55.9248 173.921 56.0772 173.658C56.2296 173.396 56.566 173.308 56.8279 173.46L61.8975 176.411L61.688 177.559ZM92.2548 170.842C92.2834 171.816 92.2951 172.732 92.2939 173.59L91.7688 174.843C91.6516 175.122 91.3296 175.254 91.0502 175.137C90.7707 175.02 90.6389 174.698 90.7561 174.419L92.2548 170.842ZM91.9762 165.817C92.0441 166.66 92.0993 167.475 92.1435 168.258L89.9676 173.449C89.8505 173.729 89.5285 173.861 89.249 173.744C88.9695 173.627 88.8378 173.305 88.9549 173.025L91.9762 165.817ZM76.4061 170.227L80.6883 168.789C80.9756 168.693 81.2872 168.847 81.3835 169.135C81.48 169.422 81.3251 169.734 81.0378 169.83L76.5892 171.324L76.4061 170.227ZM47.6503 169.582L51.889 166.567C52.1359 166.391 52.479 166.45 52.6547 166.697C52.8303 166.943 52.7724 167.286 52.5255 167.462L47.5889 170.974C47.6063 170.51 47.627 170.045 47.6503 169.582ZM76.0394 168.029L80.5463 166.517C80.8336 166.42 81.1451 166.575 81.2415 166.863C81.338 167.15 81.183 167.461 80.8957 167.557L76.2225 169.127L76.0394 168.029ZM47.8231 166.76L51.0934 164.434C51.3404 164.258 51.6835 164.316 51.8591 164.563C52.0348 164.81 51.977 165.153 51.73 165.329L47.7291 168.175C47.7583 167.698 47.7899 167.226 47.8231 166.76ZM86.1025 164.274L79.0431 158.655C78.806 158.467 78.4603 158.506 78.2716 158.743C78.0829 158.98 78.1222 159.326 78.3593 159.515L85.4187 165.133C85.6558 165.323 86.0015 165.283 86.1902 165.046C86.3789 164.808 86.3396 164.463 86.1025 164.274ZM87.9328 162.92L80.8734 157.301C80.6363 157.113 80.2906 157.152 80.1019 157.389C79.9132 157.626 79.9524 157.972 80.1895 158.16L87.2489 163.779C87.486 163.967 87.8317 163.928 88.0204 163.691C88.2091 163.454 88.1698 163.108 87.9328 162.92ZM64.2207 163.678L57.1785 159.92C56.9112 159.777 56.81 159.444 56.9526 159.177C57.0953 158.91 57.4281 158.808 57.6955 158.951L64.4277 162.544L64.2207 163.678ZM64.6353 161.406L58.7333 158.256C58.466 158.114 58.3647 157.781 58.5073 157.513C58.65 157.246 58.9829 157.145 59.2503 157.287L64.8423 160.271L64.6353 161.406ZM73.8095 154.669L78.5001 151.298C78.7462 151.121 79.0896 151.177 79.2664 151.423C79.4433 151.67 79.3871 152.013 79.141 152.189L74.011 155.877L73.8095 154.669ZM85.2287 145.483C85.4501 145.486 85.6567 145.625 85.7366 145.845L88.8123 154.327C88.9156 154.612 88.7682 154.927 88.4833 155.031C88.4232 155.052 88.3618 155.063 88.3013 155.063H88.2946C88.0707 155.063 87.8606 154.924 87.7799 154.701L84.7043 146.219C84.601 145.934 84.7484 145.619 85.0332 145.516C85.0956 145.494 85.1593 145.483 85.222 145.483H85.2287ZM90.3871 154.837C90.2353 154.785 90.1074 154.667 90.0485 154.505L86.9727 146.023C86.8694 145.738 87.0168 145.422 87.3017 145.319C87.364 145.297 87.4278 145.286 87.4905 145.286H87.4972C87.7185 145.29 87.9252 145.428 88.0051 145.648L88.4119 146.77C89.2443 150.16 89.9464 153.032 90.3871 154.837ZM73.4058 152.251L77.6942 149.168C77.9403 148.991 78.2836 149.047 78.4605 149.293C78.6373 149.539 78.5812 149.883 78.3351 150.06L73.6074 153.458L73.4058 152.251ZM52.6585 143.868L52.4069 152.887C52.3983 153.19 52.6375 153.443 52.9404 153.451C53.2432 153.46 53.4961 153.221 53.5045 152.918L53.7562 143.899C53.7647 143.596 53.5256 143.343 53.2227 143.334C52.9198 143.326 52.667 143.565 52.6585 143.868ZM51.5341 144.675L51.3221 152.268C51.3137 152.571 51.0609 152.81 50.758 152.802C50.4551 152.793 50.216 152.54 50.2245 152.237L50.3016 149.473C50.6771 147.897 51.092 146.29 51.5341 144.675ZM67.9566 143.203L67.7153 144.526L62.1127 147.124C61.8378 147.253 61.5111 147.133 61.3835 146.858C61.2561 146.583 61.3757 146.256 61.6505 146.129L67.9566 143.203ZM68.4401 140.554L68.1988 141.876L61.7207 144.882C61.4458 145.01 61.1192 144.89 60.9916 144.615C60.8641 144.34 60.9837 144.013 61.2586 143.886L68.4401 140.554ZM83.2523 139.272L74.2536 139.925C73.9513 139.947 73.7238 140.211 73.7458 140.513C73.7678 140.815 74.0309 141.043 74.3332 141.021L83.3319 140.367C83.6342 140.345 83.8617 140.082 83.8397 139.78C83.8177 139.477 83.5546 139.25 83.2523 139.272ZM83.6798 137.036L74.6811 137.689C74.3789 137.711 74.1514 137.975 74.1733 138.276C74.1953 138.578 74.4585 138.806 74.7607 138.784L83.7594 138.131C84.0616 138.108 84.2892 137.845 84.2672 137.544C84.2453 137.241 83.9821 137.014 83.6798 137.036ZM54.984 133.343L57.6869 135.236C57.9351 135.41 57.9956 135.752 57.8218 136.001C57.648 136.249 57.3054 136.309 57.0571 136.135L54.626 134.433C54.7453 134.068 54.8645 133.705 54.984 133.343ZM55.7129 131.168L59.4306 133.772C59.6787 133.944 59.7392 134.288 59.5654 134.536C59.3917 134.784 59.049 134.844 58.8008 134.671L55.3472 132.253C55.4696 131.887 55.5917 131.526 55.7129 131.168ZM69.5646 134.391C69.484 134.413 69.3972 134.417 69.3097 134.398C69.0129 134.337 68.8215 134.047 68.8825 133.751L70.6998 124.913C70.7608 124.616 71.0513 124.425 71.3481 124.485C71.645 124.547 71.8364 124.837 71.7754 125.134L70.1771 132.907L70.0138 131.929L69.5646 134.391ZM67.922 132.952L69.7393 124.115C69.8003 123.817 69.6089 123.527 69.3121 123.466C69.0153 123.405 68.7248 123.597 68.6637 123.893L66.8465 132.731C66.7854 133.028 66.9769 133.319 67.2736 133.379C67.5705 133.44 67.861 133.249 67.922 132.952ZM83.5164 127.028C83.6211 127.445 83.7272 127.867 83.8346 128.294L80.4662 131.885C80.259 132.105 79.9112 132.117 79.6902 131.909C79.4692 131.702 79.4581 131.354 79.6654 131.133L83.5164 127.028ZM83.0128 125.033L83.1964 125.759L79.2647 129.95C79.0573 130.172 78.7096 130.183 78.4886 129.975C78.2676 129.768 78.2565 129.42 78.4638 129.199L82.8764 124.495L83.0128 125.033ZM58.7206 122.694L64.0395 121.132C64.3302 121.046 64.6355 121.213 64.721 121.504C64.8064 121.795 64.6397 122.1 64.3489 122.186L58.2485 123.977C58.4111 123.534 58.5686 123.105 58.7206 122.694ZM69.7954 118.595L77.806 122.747C78.0751 122.886 78.4067 122.781 78.5461 122.511C78.6856 122.242 78.5804 121.911 78.3112 121.772L70.3007 117.62C70.0317 117.48 69.7001 117.586 69.5606 117.855C69.4211 118.124 69.5264 118.456 69.7954 118.595ZM59.6869 120.118L63.984 118.856C64.2747 118.77 64.5802 118.936 64.6656 119.227C64.7509 119.518 64.5843 119.824 64.2936 119.909L59.201 121.405C59.3735 120.946 59.5359 120.516 59.6869 120.118ZM71.1127 116.142L72.3621 116.211L79.8459 120.089C80.1149 120.229 80.2202 120.561 80.0807 120.83C79.9413 121.099 79.6096 121.204 79.3406 121.065L71.3301 116.913C71.0611 116.774 70.9558 116.442 71.0952 116.173C71.1007 116.163 71.1065 116.152 71.1127 116.142Z" fill="#F2BBBB"/>
<path fill-rule="evenodd" clip-rule="evenodd" d="M47.7143 180.722L48.0936 185.426C48.0936 185.426 44.884 185.916 44.3633 188.048L61.1333 187.282L61.94 180.796L47.7143 180.722Z" fill="#255932"/>
<path fill-rule="evenodd" clip-rule="evenodd" d="M92.4 181.153L92.0207 185.858C92.0207 185.858 95.2303 186.348 95.751 188.479L78.9809 187.713L78.1743 181.227L92.4 181.153Z" fill="#255932"/>
<path fill-rule="evenodd" clip-rule="evenodd" d="M68.4932 91.5596C68.6033 90.6531 68.7293 89.8428 68.8667 89.346C68.9313 89.1181 69.0357 88.9034 69.1749 88.7119C69.7018 88.0293 71.4224 86.2173 74.011 87.9141C74.011 87.9141 74.8694 88.1984 74.9704 91.7032C75.136 91.4939 75.3813 91.3614 75.6547 91.3614C76.1529 91.3614 76.5574 91.8014 76.5574 92.3435C76.5574 92.8855 76.1529 93.3255 75.6547 93.3255C75.3971 93.3255 75.1645 93.2079 74.9999 93.0192C75.0443 95.638 74.9714 96.7675 74.9714 96.7675L77.6011 97.5169C77.6011 97.5169 70.2907 102.311 66.1953 96.7675H68.0383C68.0383 96.7675 68.1411 95.0677 68.3139 93.2421C68.2025 93.2957 68.0792 93.3255 67.9495 93.3255C67.4513 93.3255 67.0468 92.8855 67.0468 92.3435C67.0468 91.8014 67.4513 91.3614 67.9495 91.3614C68.1536 91.3614 68.3419 91.4352 68.4932 91.5596Z" fill="#B74D2F"/>
<path fill-rule="evenodd" clip-rule="evenodd" d="M44.3965 105.502L52.0616 107.149L53.3176 97.7712C53.3176 97.7712 57.2519 97.2163 57.0126 95.2772C57.0126 95.2772 58.3688 94.4671 57.5012 93.3255C57.5012 93.3255 58.5728 92.6061 57.5012 91.2437C57.5012 91.2437 57.6549 91.0921 57.7686 90.8733C57.9199 90.5824 58.0003 90.1727 57.5542 89.8424C57.3279 89.6749 57.0539 89.5838 56.7721 89.5827C56.459 89.5814 55.9755 89.5794 55.9755 89.5794L55.9225 90.1187L53.6573 90.3635L53.6274 89.5035C53.6274 89.5035 53.2015 89.4969 52.6063 89.4876C50.4401 89.454 48.5224 90.8821 47.934 92.9671C46.5985 97.699 44.3965 105.502 44.3965 105.502Z" fill="#B74D2F"/>
<path fill-rule="evenodd" clip-rule="evenodd" d="M91.3428 136.287L95.5563 147.053C95.5563 147.053 96.5396 147.371 96.4098 144.686C96.4098 144.686 96.4367 141.67 97.4057 142.083C97.4057 142.083 100.01 145.342 100.344 149.591C100.358 149.785 100.492 149.948 100.679 150.001C100.866 150.052 101.066 149.98 101.177 149.821C101.367 149.548 101.526 149.023 101.564 148.055C101.564 148.055 102.175 147.49 102.073 146.462C102.073 146.462 102.649 145.587 102.573 144.686C102.573 144.686 103.86 143.952 103.264 141.755C102.668 139.557 100.368 132.474 100.368 132.474L91.3428 136.287Z" fill="#B74D2F"/>
<path fill-rule="evenodd" clip-rule="evenodd" d="M68.2899 93.4375C68.2985 93.4607 68.3033 93.4856 68.3035 93.5117C68.3043 93.6073 68.3527 93.7395 68.431 93.8946C68.5692 94.1685 68.8044 94.497 69.1148 94.8106C69.7162 95.4186 70.6017 95.9744 71.6309 95.9463C72.6597 95.9183 73.8154 95.3044 74.98 93.6348L74.9899 94.3583C73.9414 95.6851 72.8942 96.2447 71.9485 96.3623C70.3245 96.5642 68.9668 95.4604 68.3097 94.536C68.2758 94.4883 68.2439 94.441 68.2139 94.3943L68.2899 93.4375Z" fill="#591900"/>
<path fill-rule="evenodd" clip-rule="evenodd" d="M67.6223 96.7877L68.0622 96.7881L68.0259 97.4617C68.0193 97.5826 67.9158 97.6756 67.7948 97.6691C67.6737 97.6626 67.5807 97.559 67.5872 97.4381L67.6223 96.7877Z" fill="#591900"/>
<path fill-rule="evenodd" clip-rule="evenodd" d="M74.9596 96.7765L75.3906 96.887L75.355 97.5351C75.3483 97.656 75.2446 97.7489 75.1236 97.7422C75.0026 97.7355 74.9097 97.6319 74.9164 97.5109L74.9646 96.6356L74.9596 96.7765Z" fill="#591900"/>
<path fill-rule="evenodd" clip-rule="evenodd" d="M68.5062 91.5647L68.3467 91.4663L68.1897 93.287L68.3622 93.2344L68.5062 91.5647Z" fill="#591900"/>
<path fill-rule="evenodd" clip-rule="evenodd" d="M75.1316 91.5343L74.9653 91.7038L74.9865 93.0199L75.1462 93.1606L75.1316 91.5343Z" fill="#591900"/>
<path fill-rule="evenodd" clip-rule="evenodd" d="M72.8753 93.4006C73.0125 93.1795 73.0223 92.9856 72.9642 92.8298C72.9059 92.6737 72.773 92.5477 72.5886 92.4709C72.281 92.3429 71.8208 92.3538 71.4408 92.5589C71.3519 92.607 71.3187 92.7181 71.3667 92.8069C71.4146 92.8959 71.5258 92.9291 71.6147 92.8811C71.8907 92.732 72.2245 92.7158 72.4478 92.8089C72.529 92.8426 72.5956 92.8891 72.6213 92.9578C72.6471 93.0269 72.6251 93.1096 72.5642 93.2078C72.511 93.2937 72.5374 93.4066 72.6234 93.4597C72.7092 93.513 72.8221 93.4865 72.8753 93.4006Z" fill="#591900"/>
<path fill-rule="evenodd" clip-rule="evenodd" d="M71.4412 92.5589C71.2419 92.6666 71.1048 92.9061 71.0781 93.1557C71.0503 93.416 71.1419 93.676 71.3591 93.8082C71.5938 93.951 71.9175 93.9532 72.213 93.8603C72.5021 93.7694 72.7585 93.5897 72.8757 93.4006C72.9289 93.3148 72.9024 93.2019 72.8166 93.1486C72.7307 93.0955 72.6178 93.1219 72.5646 93.2078C72.4844 93.3372 72.3012 93.4489 72.1033 93.5111C71.9118 93.5712 71.7014 93.588 71.5495 93.4954C71.4517 93.436 71.4296 93.3116 71.4421 93.1946C71.4557 93.0666 71.5129 92.9362 71.6151 92.8811C71.7039 92.8331 71.7371 92.722 71.6892 92.6331C71.6411 92.5442 71.5301 92.511 71.4412 92.5589Z" fill="#591900"/>
<path fill-rule="evenodd" clip-rule="evenodd" d="M57.2537 95.1073C57.1953 95.1598 57.1315 95.2128 57.0615 95.2663C57.0615 95.2663 57.0618 95.5474 56.917 95.8718C56.0936 96.2148 54.9663 96.5062 53.888 96.3364C53.7384 96.3128 53.636 96.1721 53.6596 96.0224C53.6832 95.8728 53.8238 95.7704 53.9735 95.794C55.1987 95.987 56.4932 95.5136 57.2212 95.125C57.2321 95.1191 57.243 95.1133 57.2537 95.1073ZM57.5528 93.2965C57.5377 93.3113 57.5219 93.326 57.5055 93.3408C57.5055 93.3408 57.6872 93.5157 57.7691 93.8015C57.0601 94.0566 55.4438 94.5789 53.9265 94.4846C53.7753 94.4753 53.6601 94.3449 53.6695 94.1936C53.6789 94.0424 53.8093 93.9272 53.9605 93.9367C55.3671 94.024 56.8623 93.545 57.5528 93.2965ZM57.4727 91.266C57.5157 91.3086 57.6787 91.4783 57.8059 91.7203C56.815 92.1633 55.0459 92.4486 54.1175 92.4606C53.966 92.4626 53.8415 92.3412 53.8394 92.1898C53.8375 92.0382 53.959 91.9136 54.1104 91.9117C54.9511 91.9008 56.5265 91.6562 57.4727 91.266Z" fill="#591900"/>
<path fill-rule="evenodd" clip-rule="evenodd" d="M53.2517 98.3279C52.9555 98.3238 52.6276 98.2778 52.3318 98.2584C52.1807 98.2485 52.0659 98.1178 52.0758 97.9666C52.0857 97.8154 52.2164 97.7007 52.3676 97.7106C52.6914 97.7317 53.0129 97.7516 53.3377 97.7516H53.3431C53.3413 97.7516 53.3394 97.7516 53.3377 97.7516C53.3377 97.7516 53.3075 98.0634 53.2517 98.3279Z" fill="#591900"/>
<path fill-rule="evenodd" clip-rule="evenodd" d="M56.5981 90.0391C56.6308 90.028 56.6662 90.0231 56.7028 90.0255C56.9601 90.0421 56.9692 90.2641 56.97 90.2936C56.9717 90.3502 56.9643 90.4946 56.7902 90.5597C56.7701 90.5672 56.6236 90.5882 56.5668 90.5957C56.4514 90.6109 56.3361 90.6267 56.2205 90.6401C55.9027 90.6769 55.5845 90.7116 55.2661 90.7424C54.2816 90.8376 53.2951 90.9373 52.3047 90.9051C52.1532 90.9001 52.0343 90.7732 52.0392 90.6218C52.0442 90.4703 52.1711 90.3513 52.3225 90.3563C53.2893 90.3877 54.2522 90.2888 55.2133 90.1959C55.5282 90.1654 55.8428 90.1312 56.1572 90.0947C56.2699 90.0816 56.3824 90.0662 56.4948 90.0513C56.5153 90.0486 56.5642 90.043 56.5981 90.0391Z" fill="#591900"/>
<path fill-rule="evenodd" clip-rule="evenodd" d="M101.443 149.087C101.438 147.426 101.235 145.873 100.934 144.221C100.861 143.819 100.711 143.092 100.633 142.692C100.604 142.543 100.701 142.398 100.85 142.37C100.999 142.34 101.143 142.437 101.172 142.586C101.251 142.988 101.401 143.719 101.474 144.123C101.687 145.288 101.851 146.404 101.933 147.543C101.856 147.736 101.744 147.929 101.579 148.1C101.579 148.1 101.535 148.668 101.443 149.087ZM102.32 146.054C102.187 145.098 101.972 144.191 101.741 143.246C101.616 142.736 101.501 142.278 101.312 141.66C101.268 141.516 101.35 141.362 101.495 141.317C101.639 141.273 101.793 141.355 101.837 141.499C102.03 142.13 102.147 142.596 102.274 143.115C102.4 143.632 102.522 144.138 102.628 144.645C102.618 144.651 102.607 144.656 102.596 144.662C102.596 144.662 102.547 145.49 102.32 146.054ZM102.901 144.399C102.767 143.646 102.586 142.899 102.388 142.161C102.3 141.831 102.145 141.28 102.05 140.951C102.008 140.806 102.091 140.653 102.237 140.611C102.382 140.569 102.535 140.653 102.577 140.798C102.673 141.13 102.829 141.685 102.919 142.019C103.06 142.548 103.194 143.082 103.308 143.619C103.23 143.833 103.092 144.16 102.901 144.399Z" fill="#591900"/>
<path fill-rule="evenodd" clip-rule="evenodd" d="M52.0421 108.821L56.8188 101.002C58.5326 98.1975 61.6176 96.5258 64.9032 96.6216C65.7874 96.6474 66.2653 96.7614 66.2653 96.7614L66.6665 97.3187C66.6665 97.3187 65.7695 97.2609 64.8853 97.2351C61.8198 97.1456 58.9414 98.7054 57.3426 101.322C54.9511 105.237 51.8237 110.356 51.8237 110.356C51.7483 110.479 51.597 110.533 51.4606 110.486C51.3241 110.438 51.2394 110.301 51.2572 110.158L51.6244 107.207C51.6453 107.039 51.7987 106.92 51.9668 106.941C52.1349 106.962 52.2544 107.115 52.2335 107.283L52.0421 108.821Z" fill="black"/>
<path fill-rule="evenodd" clip-rule="evenodd" d="M61.8872 111.531L52.586 123.665C51.947 124.499 50.9929 125.033 49.9481 125.141C49.948 125.141 49.948 125.141 49.9479 125.141C47.5183 125.395 45.1174 124.451 43.5094 122.612C41.9015 120.774 41.287 118.268 41.8614 115.895C43.2633 110.099 44.3938 105.479 44.3938 105.479L44.9904 105.624C44.9904 105.624 43.86 110.244 42.4579 116.038C41.9304 118.219 42.4948 120.519 43.9715 122.209C45.4482 123.897 47.6532 124.764 49.8844 124.531C49.8845 124.531 49.8846 124.531 49.8847 124.531C50.7617 124.44 51.5625 123.992 52.0989 123.292C54.7435 119.841 62.1742 110.147 62.1742 110.147C62.2605 110.034 62.4126 109.995 62.5422 110.053C62.6718 110.11 62.7452 110.249 62.7197 110.389L61.7019 115.99L60.9941 116.011L61.8872 111.531Z" fill="black"/>
<path fill-rule="evenodd" clip-rule="evenodd" d="M77.5829 97.5072C77.5182 97.5074 76.4745 98.1299 76.4746 98.1299C76.5358 98.1285 77.5785 98.1344 77.6395 98.1342C81.6919 98.1188 85.5504 100.335 87.2145 104.043C91.7435 114.134 100.039 132.619 100.039 132.619C100.109 132.773 100.291 132.842 100.445 132.773C100.6 132.704 100.669 132.522 100.6 132.367C100.6 132.367 92.3034 113.882 87.7744 103.791C86.0109 99.8621 81.8775 97.491 77.5829 97.5072Z" fill="black"/>
<path fill-rule="evenodd" clip-rule="evenodd" d="M80.3752 115.641L79.7962 108.026C79.7813 107.857 79.6324 107.732 79.4636 107.747C79.2949 107.762 79.17 107.911 79.1848 108.08L79.7306 115.645L80.3752 115.641Z" fill="black"/>
<path fill-rule="evenodd" clip-rule="evenodd" d="M79.3169 109.507L91.4333 136.544C91.5026 136.699 91.6843 136.768 91.8389 136.699C91.9934 136.629 92.0627 136.448 91.9934 136.294L79.877 109.256C79.8078 109.101 79.626 109.032 79.4715 109.101C79.3169 109.171 79.2476 109.352 79.3169 109.507Z" fill="black"/>
<path fill-rule="evenodd" clip-rule="evenodd" d="M92.2312 115.648C92.2312 115.648 90.4771 120.773 95.3895 122.406C95.5502 122.459 95.7241 122.372 95.7775 122.211C95.831 122.051 95.7439 121.877 95.5832 121.823C91.2451 120.381 92.8116 115.848 92.8116 115.848C92.8667 115.688 92.7814 115.513 92.6211 115.458C92.461 115.403 92.2862 115.488 92.2312 115.648Z" fill="black"/>
<path fill-rule="evenodd" clip-rule="evenodd" d="M43.7754 122.518C43.7754 122.518 45.0568 121.597 46.7147 121.837C47.8409 121.999 49.127 122.703 50.3217 124.547C50.4137 124.689 50.6039 124.731 50.7461 124.638C50.8883 124.547 50.9289 124.356 50.8369 124.214C49.5082 122.162 48.055 121.41 46.8024 121.229C44.8919 120.954 43.4165 122.02 43.4165 122.02C43.2791 122.119 43.2479 122.311 43.3469 122.448C43.4459 122.586 43.6379 122.617 43.7754 122.518Z" fill="black"/>
<path fill-rule="evenodd" clip-rule="evenodd" d="M51.3443 109.549C51.3443 109.549 51.0983 111.472 50.8908 113.095C50.874 113.226 50.958 113.349 51.0859 113.381C51.2139 113.412 51.3454 113.343 51.3918 113.22C52.3126 110.769 53.7167 107.033 53.7167 107.033L51.3443 109.549Z" fill="black"/>
<path fill-rule="evenodd" clip-rule="evenodd" d="M58.3161 69.2759C58.3676 69.2354 58.4433 69.1789 58.486 69.1603C59.2746 68.8183 60.0888 68.5332 60.8943 68.2343C63.857 67.1347 66.8507 66.1226 69.8573 65.1497C77.2775 62.7486 84.9355 61.3553 92.6747 60.4588C96.2272 60.0472 100.278 59.4423 103.667 60.9207C104.335 61.2119 105.201 62.2898 105.201 62.2898L105.246 62.3714C106.64 66.4546 105.192 73.0896 105.192 73.0896C105.159 73.2362 105.015 73.3298 104.868 73.2995C104.868 73.2995 104.275 73.1762 104.132 73.1273C103.058 72.7586 101.989 72.4534 100.867 72.2658C97.6592 71.7295 94.4708 71.8532 91.2677 72.3607C86.6573 73.0911 82.1215 74.2027 77.5826 75.2787C70.622 76.9287 63.2145 78.4377 56.8788 81.8984C56.7458 81.9711 56.5789 81.922 56.5063 81.7891C56.4336 81.6561 56.4827 81.4892 56.6156 81.4165C62.9939 77.9326 70.4486 76.4056 77.4559 74.7444C82.0083 73.6653 86.5576 72.551 91.1818 71.8183C94.4438 71.3016 97.6908 71.1782 100.957 71.7243C102.109 71.9169 103.208 72.2294 104.31 72.608C104.378 72.631 104.555 72.6716 104.71 72.7052C104.958 71.4556 105.911 66.0857 104.741 62.5933C104.597 62.4147 103.96 61.6476 103.447 61.4239C100.146 59.9837 96.1986 60.6033 92.7379 61.0042C85.0347 61.8965 77.412 63.2822 70.0263 65.6721C67.0271 66.6427 64.0408 67.6522 61.0852 68.7491C60.292 69.0435 59.4898 69.3239 58.7131 69.6604C58.7037 69.6679 58.6633 69.7009 58.6413 69.7192C58.5883 69.7635 58.5341 69.7998 58.4874 69.8192C58.3998 69.8556 58.3176 69.8545 58.245 69.8289C58.1896 69.8094 58.1356 69.7747 58.0902 69.7129C58.0003 69.591 58.0265 69.4189 58.1486 69.3291C58.199 69.292 58.2579 69.2747 58.3161 69.2759Z" fill="#F28F38"/>
<path fill-rule="evenodd" clip-rule="evenodd" d="M139.267 69.6642C139.027 69.2027 138.514 68.7339 137.876 68.2707C135.974 66.8903 132.938 65.6416 131.767 65.2099C124.902 62.6802 113.138 62.2948 105.822 64.2606C105.676 64.2999 105.525 64.213 105.486 64.0667C105.446 63.9203 105.533 63.7696 105.679 63.7303C113.089 61.7394 125.004 62.1326 131.956 64.6947C133.154 65.1359 136.254 66.4156 138.198 67.8264C139.084 68.4688 139.727 69.1512 139.905 69.7866C139.951 69.9554 139.873 70.196 139.495 70.2188C139.024 70.2469 137.654 69.9789 136.645 69.9115C134.519 69.7693 132.357 69.7049 130.227 69.7173C130.168 69.7177 130.11 69.7174 130.051 69.7181C129.995 69.7188 129.94 69.7202 129.885 69.7217C129.625 69.7286 129.366 69.7408 129.108 69.761C129.472 69.8607 129.83 69.9803 130.181 70.1167C132.375 70.9695 134.415 72.6316 136.022 74.3263C136.226 74.5413 136.938 75.2502 137.253 75.8407C137.435 76.1816 137.475 76.5001 137.362 76.7195C137.322 76.7961 137.252 76.8635 137.135 76.8937C137.049 76.9155 136.901 76.9131 136.708 76.8701C135.931 76.6965 134.115 75.8867 133.543 75.687C131.259 74.8892 128.835 74.4306 126.43 74.1986C120.474 73.6238 114.821 74.884 109.04 76.1243C107.345 76.4879 105.197 77.0364 103.183 77.0331C101.797 77.0308 100.475 76.7673 99.3918 76.0286C98.3929 75.3473 97.0408 73.7187 97.7085 71.6982C97.756 71.5542 97.9114 71.4761 98.0553 71.5236C98.1991 71.5711 98.2774 71.7265 98.2298 71.8704C97.657 73.6039 98.8442 74.9905 99.7012 75.5751C100.695 76.2529 101.912 76.4819 103.184 76.484C105.158 76.4872 107.263 75.944 108.925 75.5874C114.762 74.3352 120.469 73.0717 126.483 73.6521C128.931 73.8883 131.399 74.3565 133.724 75.1686C134.218 75.3412 135.652 75.9774 136.518 76.2485C136.636 76.2856 136.771 76.3153 136.868 76.3346C136.864 76.3206 136.858 76.3063 136.854 76.2915C136.811 76.1619 136.729 76.0195 136.632 75.8743C136.303 75.3847 135.787 74.8763 135.624 74.704C134.07 73.0659 132.104 71.4528 129.983 70.6284C129.222 70.3329 128.425 70.1204 127.613 70.0263C127.589 70.0234 127.498 70.0125 127.453 69.9927C127.375 69.9584 127.329 69.9024 127.304 69.8502C127.278 69.7977 127.22 69.5505 127.482 69.4608C127.614 69.4157 128.326 69.2943 128.363 69.2892C128.863 69.2191 129.365 69.1863 129.87 69.1728C129.929 69.1713 129.986 69.1699 130.044 69.1692C130.103 69.1683 130.164 69.1686 130.223 69.1683C132.367 69.1558 134.542 69.2206 136.682 69.3636C137.469 69.4163 138.479 69.5941 139.099 69.6539C139.155 69.6592 139.213 69.6625 139.267 69.6642Z" fill="#F28F38"/>
<path fill-rule="evenodd" clip-rule="evenodd" d="M105.1 73.0031C105.1 73.0031 105.801 75.2445 98.6125 75.1843C98.6125 75.1843 96.9 73.2945 98.0191 71.6415C98.0191 71.6415 101.851 72.005 105.1 73.0031Z" fill="#F28F38"/>
<path fill-rule="evenodd" clip-rule="evenodd" d="M55.0397 97.3126L53.5747 109.097L51.1836 108.8L52.5568 97.7547C53.2571 97.6645 54.4972 97.4215 55.0397 97.3126ZM53.4731 90.3834L56.405 66.8002L58.7961 67.0975L55.9341 90.1194C55.1638 90.2015 53.952 90.3318 53.4731 90.3834Z" fill="#255932"/>
<path fill-rule="evenodd" clip-rule="evenodd" d="M99.0455 142.561C99.4026 142.269 99.4553 141.741 99.1628 141.384C98.8703 141.027 98.3425 140.974 97.9855 141.267L96.3725 142.588C96.0154 142.881 95.9633 143.408 96.2558 143.765C96.5483 144.122 97.0755 144.175 97.4325 143.882L99.0455 142.561Z" fill="#4B0000"/>
<path fill-rule="evenodd" clip-rule="evenodd" d="M99.9655 143.684C100.323 143.392 100.375 142.864 100.083 142.507C99.7902 142.15 99.2625 142.098 98.9054 142.39L97.2924 143.712C96.9354 144.004 96.8832 144.531 97.1757 144.888C97.4683 145.246 97.9954 145.298 98.3525 145.006L99.9655 143.684Z" fill="#4B0000"/>
<path fill-rule="evenodd" clip-rule="evenodd" d="M100.881 144.802C101.239 144.51 101.291 143.982 100.999 143.625C100.706 143.268 100.178 143.216 99.8214 143.508L98.2084 144.83C97.8514 145.122 97.7992 145.649 98.0917 146.006C98.3843 146.364 98.9114 146.416 99.2685 146.124L100.881 144.802Z" fill="#4B0000"/>
<path fill-rule="evenodd" clip-rule="evenodd" d="M101.779 145.897C102.136 145.605 102.189 145.077 101.896 144.72C101.604 144.363 101.076 144.311 100.719 144.603L99.1059 145.925C98.7488 146.217 98.6967 146.744 98.9892 147.101C99.2817 147.458 99.8089 147.511 100.166 147.219L101.779 145.897Z" fill="#4B0000"/>
<path fill-rule="evenodd" clip-rule="evenodd" d="M99.3198 142.147C99.3709 142.003 99.3744 141.836 99.3344 141.652L96.5852 144.005C96.723 144.078 96.8921 144.086 97.0618 144.079L99.3198 142.147Z" fill="#A54C36"/>
<path fill-rule="evenodd" clip-rule="evenodd" d="M97.7521 145.183L97.9869 145.215C97.9211 145.329 97.8782 145.438 97.918 145.534L100.186 143.579L100.484 143.343L100.201 143.341C100.258 143.238 100.285 143.135 100.274 143.033L97.7521 145.183Z" fill="#A54C36"/>
<path fill-rule="evenodd" clip-rule="evenodd" d="M98.8155 146.386C98.7766 146.541 98.7773 146.698 98.8387 146.84L101.497 144.604L101.61 144.5C101.474 144.443 101.326 144.409 101.16 144.409L98.8155 146.386Z" fill="#A54C36"/>
<path fill-rule="evenodd" clip-rule="evenodd" d="M131.434 89.5369L132.507 91.3247L133.492 90.9092L132.29 88.8764L131.434 89.5369ZM139.897 88.1254L139.028 90.2468L139.889 90.9643L141.263 89.2362L139.897 88.1254ZM134.7 86.5923L135.716 89.3478L136.817 89.2237L136.361 86.0791L134.7 86.5923Z" fill="#F2BBBB"/>
<path fill-rule="evenodd" clip-rule="evenodd" d="M153.819 75.1386L153.322 77.9963L154.203 78.461L155.019 75.8515L153.819 75.1386ZM157.82 74.4087L156.873 77.421L157.975 77.9756L159.286 74.6925L157.82 74.4087Z" fill="#F2BBBB"/>
<path fill-rule="evenodd" clip-rule="evenodd" d="M93.502 85.6617L94.6743 88.1203L95.7021 87.6805L94.6085 84.8516L93.502 85.6617ZM96.9693 82.8539L97.062 85.9196L98.2581 86.1185L98.7886 82.9226L96.9693 82.8539Z" fill="#F2BBBB"/>
<path fill-rule="evenodd" clip-rule="evenodd" d="M170.251 79.0968L170.272 78.1279C170.276 77.9764 170.401 77.8562 170.553 77.8596C170.704 77.863 170.825 77.9886 170.821 78.1401L170.796 79.2658L171.67 78.5568C171.788 78.4613 171.961 78.4794 172.056 78.5971C172.152 78.7148 172.134 78.8878 172.016 78.9833L171.195 79.6486L172.247 79.7593C172.397 79.7752 172.506 79.9104 172.49 80.0611C172.474 80.2118 172.339 80.3212 172.189 80.3053L171.138 80.1947L171.802 81.0164C171.897 81.1343 171.879 81.3072 171.762 81.4025C171.644 81.4977 171.471 81.4794 171.375 81.3616L170.766 80.6079L170.744 81.5767C170.741 81.7283 170.615 81.8485 170.464 81.8451C170.312 81.8417 170.192 81.716 170.196 81.5645L170.221 80.4389L169.346 81.1478C169.229 81.2433 169.055 81.2251 168.96 81.1075C168.864 80.9898 168.883 80.8167 169 80.7213L169.821 80.0559L168.77 79.9453C168.619 79.9295 168.51 79.7942 168.526 79.6435C168.541 79.4929 168.677 79.3834 168.828 79.3993L169.878 79.5099L169.214 78.6882C169.119 78.5703 169.137 78.3974 169.255 78.3021C169.373 78.2068 169.546 78.2252 169.641 78.343L170.251 79.0968Z" fill="#F28F38"/>
<path fill-rule="evenodd" clip-rule="evenodd" d="M190.167 87.1357L190.189 86.1668C190.193 86.0154 190.318 85.8951 190.47 85.8985C190.621 85.9019 190.742 86.0275 190.738 86.1791L190.712 87.3047L191.587 86.5957C191.705 86.5003 191.878 86.5184 191.973 86.6361C192.069 86.7538 192.051 86.9268 191.933 87.0222L191.112 87.6876L192.163 87.7982C192.314 87.8141 192.424 87.9493 192.407 88.1C192.392 88.2507 192.256 88.3602 192.106 88.3442L191.055 88.2336L191.719 89.0554C191.814 89.1732 191.796 89.3462 191.678 89.4414C191.561 89.5367 191.387 89.5184 191.292 89.4005L190.683 88.6469L190.661 89.6157C190.658 89.7672 190.532 89.8874 190.38 89.8841C190.229 89.8807 190.108 89.7549 190.112 89.6035L190.138 88.4778L189.263 89.1868C189.145 89.2822 188.972 89.2641 188.877 89.1464C188.782 89.0287 188.799 88.8557 188.917 88.7602L189.738 88.0949L188.687 87.9843C188.536 87.9684 188.427 87.8332 188.443 87.6825C188.459 87.5318 188.594 87.4224 188.745 87.4382L189.796 87.5489L189.131 86.7271C189.036 86.6092 189.054 86.4363 189.172 86.341C189.29 86.2458 189.463 86.2642 189.559 86.3819L190.167 87.1357Z" fill="#F2BBBB"/>
<path fill-rule="evenodd" clip-rule="evenodd" d="M63.0601 85.4107L63.0817 84.4418C63.0851 84.2904 63.2108 84.1701 63.3622 84.1735C63.5137 84.1769 63.6339 84.3027 63.6305 84.4541L63.6055 85.5797L64.4801 84.8707C64.5978 84.7753 64.7708 84.7934 64.8663 84.9111C64.9616 85.0289 64.9436 85.2018 64.8258 85.2973L64.005 85.9626L65.0559 86.0732C65.2065 86.0892 65.3159 86.2244 65.3001 86.375C65.2843 86.5258 65.149 86.6352 64.9983 86.6193L63.9475 86.5086L64.6118 87.3304C64.707 87.4482 64.6887 87.6212 64.5708 87.7165C64.453 87.8117 64.28 87.7934 64.1847 87.6755L63.5755 86.9219L63.554 87.8907C63.5506 88.0422 63.4248 88.1625 63.2734 88.1591C63.1219 88.1557 63.0017 88.03 63.005 87.8785L63.0302 86.7529L62.1555 87.4619C62.0378 87.5572 61.8648 87.5391 61.7694 87.4214C61.6739 87.3038 61.692 87.1307 61.8097 87.0354L62.6305 86.3699L61.5798 86.2593C61.429 86.2434 61.3196 86.1082 61.3355 85.9575C61.3514 85.8069 61.4866 85.6974 61.6372 85.7133L62.6881 85.8239L62.0238 85.0021C61.9286 84.8844 61.947 84.7113 62.0648 84.6161C62.1826 84.5208 62.3557 84.5392 62.4509 84.6571L63.0601 85.4107Z" fill="#F2BBBB"/>
<path fill-rule="evenodd" clip-rule="evenodd" d="M92.6763 77.8756L92.6979 76.9067C92.7013 76.7552 92.827 76.635 92.9784 76.6384C93.13 76.6418 93.2502 76.7674 93.2468 76.9189L93.2218 78.0446L94.0964 77.3356C94.2141 77.2401 94.3871 77.2583 94.4825 77.3759C94.5779 77.4937 94.5598 77.6667 94.4421 77.7621L93.6213 78.4275L94.6721 78.5381C94.8228 78.554 94.9322 78.6892 94.9163 78.8399C94.9005 78.9906 94.7652 79.1 94.6146 79.0841L93.5637 78.9735L94.228 79.7952C94.3232 79.9131 94.3048 80.086 94.1871 80.1813C94.0692 80.2766 93.8962 80.2583 93.801 80.1404L93.1917 79.3867L93.1702 80.3555C93.1668 80.5071 93.0411 80.6273 92.8896 80.6239C92.7381 80.6205 92.6179 80.4948 92.6213 80.3434L92.6464 79.2177L91.7717 79.9266C91.654 80.0221 91.481 80.004 91.3856 79.8863C91.2902 79.7686 91.3083 79.5956 91.426 79.5001L92.2468 78.8348L91.196 78.7241C91.0453 78.7083 90.9359 78.573 90.9517 78.4223C90.9676 78.2717 91.1028 78.1623 91.2535 78.1781L92.3043 78.2887L91.6401 77.467C91.5449 77.3491 91.5632 77.1762 91.681 77.0809C91.7989 76.9856 91.9719 77.004 92.0671 77.1218L92.6763 77.8756Z" fill="#F28F38"/>
</svg>
