<svg width="345" height="292" viewBox="0 0 345 292" fill="none" xmlns="http://www.w3.org/2000/svg">
<path d="M266.472 199.345C268.635 196.825 264.197 193.22 259.954 187.822C259.669 187.422 259.252 186.933 259.354 186.96C258.531 185.824 257.279 184.355 257.309 184.417C253.359 179.801 249.922 173.859 233.683 162.001C216.161 149.155 203.343 145.944 190.633 143.143C192.832 143.068 206.701 141.301 213.311 139.845C214.264 140.15 222.057 142.579 222.671 142.741C227.579 144.197 241.685 145.469 241.655 145.407C270.477 148.116 308.722 130.984 320.965 118.383C321.907 117.387 321.934 116.527 321.622 115.523C320.939 113.392 315.87 113.251 313.934 112.578C310.77 111.583 299.269 109.422 295.184 109.108C290.751 108.807 287.538 107.529 270.341 109.611C257.702 111.163 247.541 112.661 233.459 119.844C225.157 124.052 217.872 130.534 215.182 133.619C197.447 134.966 196.907 135.688 191.743 135.902C183.784 136.247 184.546 137.259 193.781 133.674C206.235 128.826 217.792 121.411 227.904 112.856C241.781 101.23 249.552 92.8171 257.133 78.7214C257.736 77.5795 258.052 76.5808 258.052 76.5808C258.887 74.6326 259.054 74.243 259.08 73.3827C258.974 72.4332 258.352 71.8922 258.412 72.0142C256.731 70.2184 253.563 71.2262 250.846 72.2446C244.372 74.7121 236.333 76.1751 214.609 88.5512C211.27 90.4897 202.229 97.215 193.152 106.42C186.587 113.089 187.114 112.524 178.68 123.418C173.895 129.526 175.185 128.511 172.86 132.343C170.73 135.844 170.108 136.765 169.702 137.579C169.63 137.614 135.192 140.417 138.79 139.739C154.649 132.532 163.957 123.984 176.843 110.688C185.829 101.296 192.363 90.1746 191.782 90.9973C199.061 79.2065 200.589 69.5299 200.578 69.6896C200.73 68.5371 199.545 67.5746 198.642 67.5533C197.463 67.5157 197.03 67.7269 195.039 68.7761C186.354 73.4792 173.641 81.455 167.893 85.9565C160.004 92.1163 159.655 92.1327 150.939 101.162C141.521 110.765 132.225 124.465 127.38 134.839C126.567 136.466 126.26 137.848 125.175 140.381C108.163 140.832 116.083 140.047 102.048 140.2C91.9166 140.297 93.1386 140.239 93.723 140.339C87.5269 139.901 86.3887 141.227 90.7753 139.239C95.3048 137.179 99.6193 135.226 106.252 131.066C110.84 128.21 124.083 117.664 132.321 109.485C139.92 102 148.162 93.2794 155.743 79.1836C157.429 76.0526 155.062 74.1299 150.534 75.647C149.464 76.0154 148.106 76.5246 148.136 76.5868C144.698 77.9573 145.298 77.3564 141.613 78.7703C130.59 83.0741 125.126 85.0487 111.683 94.4625C99.6044 102.822 86.5108 116.608 77.2093 132.85C76.6175 133.832 75.9499 135.391 75.9917 135.293C74.8336 137.859 73.3693 140.345 73.4414 140.31C67.5831 140.015 53.9881 140.339 54.7888 140.333C51.2785 140.275 50.5308 140.024 43.1204 140.025C35.7822 139.99 39.9519 141.032 51.4606 134.797C70.7217 124.317 92.5579 100.642 96.7252 91.9881C97.8708 89.58 96.7291 87.0589 92.4524 87.9915C73.9362 91.9508 64.5372 97.3873 55.7599 104.828C51.0209 108.837 44.0245 116.641 44.0966 116.606C43.2582 117.632 35.582 127.694 33.5323 131.542C29.3204 139.373 29.7908 138.142 29.1649 139.603C26.6829 139.274 19.7404 139.508 19.6683 139.544C17.6153 139.545 16.621 139.337 14.659 139.524C10.8388 139.929 8.64119 138.537 6.93388 140.526C5.86778 141.817 6.1099 143.775 8.63359 144.007C11.1232 144.717 25.6632 145.239 30.9588 145.654C31.2172 146.915 36.5333 166.953 39.0798 172.717C43.1085 182.065 51.8158 193.674 55.7925 197.43C59.8717 201.213 62.2921 202.879 62.2617 202.817C66.5609 205.953 75.1739 210.062 79.026 211.185C80.0811 211.518 80.6882 211.298 81.5534 210.876C84.255 209.094 82.6311 205.037 82.6501 205.259C82.0994 203.217 82.0917 202.835 81.8334 201.575C80.1226 193.865 75.1711 181.347 75.4938 182.19C71.1384 171.076 65.6331 165.835 56.4194 156.473C52.5576 152.587 47.5715 149.324 42.726 146.531C43.208 146.604 71.5786 148.381 77.6759 148.251C77.4895 157.196 83.7508 178.621 93.9299 192.513C95.8306 195.126 100.256 200.897 102.642 203.041C116.37 215.431 125.639 219.605 134.652 222.52C136.556 223.128 137.129 223.387 137.899 223.319C138.742 223.216 139.463 222.864 139.763 222.564C140.889 221.397 140.813 220.51 140.64 219.057C140.127 215.995 130.911 194.012 130.649 193.292C124.248 178.172 114.156 164.084 99.9223 154.865C93.7722 150.863 86.6687 148.018 87.5492 148.358C104.848 149.227 99.4945 148.685 127.443 147.587C128.096 151.118 132.645 165.373 132.676 165.435C133.973 169.19 138.993 180.75 140.738 183.593C145.356 191.039 152.322 201.649 158.746 207.674C169.829 218.123 176.891 221.066 176.421 220.834C177.054 221.217 187.083 225.482 187.288 225.536C189.961 226.616 191.741 226.055 192.504 222.681C195.612 209.845 184.031 189.785 184.062 189.847C180.01 182.279 175.195 175.16 175.195 175.16C173.772 173.162 169.678 168.616 169.932 168.954C159.016 156.654 149.842 151.587 139.559 146.984C139.559 146.984 167.758 145.301 175.42 144.719C177.595 149.355 180.481 153.255 180.451 153.193C200.876 183.871 220.17 199.242 262.184 200.437C264.052 200.604 265.293 200.768 266.472 199.345Z" fill="#3D734A"/>
<path d="M132.988 151.811C138.17 160.596 160.667 194.42 175.271 209.152C179.623 213.495 183.702 218.739 185.744 220.362C187.488 221.741 190.83 219.801 189.043 217.056C181.375 205.556 182.066 208.068 163.285 182.593C148.575 162.523 151.356 166.939 148.579 163.445C145.741 159.827 140.853 152.743 137.874 150.115C134.599 147.249 132.156 150.291 132.988 151.811Z" fill="#F2BBBB"/>
<path d="M82.5029 137.658C84.9153 137.478 89.4017 130.209 89.6481 128.702C90.065 126.265 87.8763 125.256 86.0929 126.358C85.8045 126.499 85.5161 126.64 85.2885 126.905C83.4358 128.962 79.4711 133.825 80.1308 136.274C80.3701 137.312 81.3834 137.742 82.5029 137.658Z" fill="#F2BBBB"/>
<path d="M102.29 120.758C100.875 120.602 99.615 121.679 98.4437 122.944C98.1022 123.342 94.5812 126.371 93.6746 128.354C92.9337 129.945 93.8296 131.049 95.1123 131.116C97.2868 131.364 100.421 127.908 101.903 126.182C103.838 123.928 104.119 123.406 103.903 122.05C103.774 121.42 103.049 120.849 102.29 120.758Z" fill="#F2BBBB"/>
<path d="M103.964 110.471C104.625 108.533 102.48 106.884 100.063 109.066C98.4583 109.618 94.725 114.597 94.1182 116.28C93.5948 117.768 94.0986 118.983 95.8102 119.379C98.868 119.966 102.989 113.412 103.964 110.471Z" fill="#F2BBBB"/>
<path d="M228.428 135.696C229.687 135.159 232.685 133.618 233.595 132.557C234.549 131.401 234.29 130.141 233.247 129.649C231.398 128.24 223.689 132.39 222.035 134.122C220.236 135.924 221.788 138.553 225.112 137.315C226.14 137.044 227.48 136.313 228.428 135.696Z" fill="#F2BBBB"/>
<path d="M240.524 136.874C237.105 137.003 231.201 137.346 231.785 140.371C230.81 144.233 243.274 142.69 244.804 139.789C245.521 138.514 244.997 137.075 242.198 136.828C241.674 136.852 241.078 136.912 240.524 136.874Z" fill="#F2BBBB"/>
<path d="M238.84 132.693C238.142 134.189 239.022 135.991 242.076 135.115C245.807 134.527 250.778 132.639 251.578 131.169C252.068 130.16 251.635 128.908 250.117 128.724C247.37 128.22 239.496 131.294 238.84 132.693Z" fill="#F2BBBB"/>
<path d="M255.471 117.565C252.568 118.751 252.268 119.052 251.718 119.936C251.323 120.591 251.479 121.825 252.523 122.317C252.818 122.555 253.186 122.76 253.535 122.744C255.137 122.732 256.112 122.718 257.778 122.29C259.69 121.819 262.812 120.525 263.723 119.465C265.286 117.546 263.07 114.471 255.471 117.565Z" fill="#F2BBBB"/>
<path d="M275.208 131.101C273.573 131.591 271.945 132.463 270.45 133.424C267.571 135.215 268.441 138.642 274.62 137.394C276.738 136.976 280.95 134.997 282.016 133.706C282.243 133.441 282.297 133.184 282.463 132.794C282.52 131.996 282.616 131.644 281.83 130.949C280.392 129.649 277.235 130.497 275.208 131.101Z" fill="#F2BBBB"/>
<path d="M282.555 121.28C281.136 121.664 279.747 122.111 277.201 123.663C274.841 125.046 275.376 127.787 278.487 127.577C281.317 127.887 290.402 124.915 287.776 121.732C286.675 120.575 284.221 120.851 282.555 121.28Z" fill="#F2BBBB"/>
<path d="M291.627 118.465C293.301 118.418 294.838 118.823 298.75 117.144C301.728 115.922 301.518 113.482 299.376 112.759C296.742 112.119 293.957 112.631 291.373 113.739C289.726 114.389 288.561 115.112 288.622 116.7C288.706 117.968 290.057 118.541 291.627 118.465Z" fill="#F2BBBB"/>
<path d="M309.758 118.469C306.482 118.527 299.255 122.75 298.453 124.217C297.57 125.881 299.035 127.784 301.615 127.218C302.331 127.404 306.077 126.115 309.183 124.059C312.876 121.565 312.587 118.779 309.758 118.469Z" fill="#F2BBBB"/>
<path d="M264.748 132.36C267.207 131.544 270.041 130.392 269.985 128.265C269.988 127.724 269.54 127.172 269.112 126.843C268.212 126.28 267.411 126.286 266.364 126.335C264.297 126.497 257.676 128.115 257.421 130.702C257.289 132.076 258.238 132.922 259.653 133.079C260.901 133.622 263.432 132.771 264.748 132.36Z" fill="#F2BBBB"/>
<path d="M276.689 113.288C275.171 113.105 271.525 113.499 269.658 114.795C268.667 115.51 267.939 116.944 268.751 118.242C268.994 118.74 269.742 118.991 269.976 119.105C271.335 120.059 275.646 118.648 277.395 118.025C280.256 116.936 280.586 113.771 276.689 113.288Z" fill="#F2BBBB"/>
<path d="M208.752 105.271C195.781 114.914 183.98 126.219 179.606 130.432C178.748 131.236 176.551 132.771 178.081 134.258C179.651 135.646 181.059 133.957 189.562 127.959C198.133 121.925 228.151 98.1844 234.488 93.2417C237.13 91.3383 250.686 81.792 253.92 77.4429C253.962 77.3455 254.003 77.2481 254.075 77.2129C255.881 75.7918 253.787 72.9655 251.393 74.8278C245.632 79.4865 220.043 96.7541 208.752 105.271Z" fill="#F2BBBB"/>
<path d="M140.796 123.361C137.958 126.516 131.139 135.774 130.961 136.323C130.46 137.492 131.772 139.082 133.791 138.097C134.656 137.674 152.209 118.941 152.821 118.183C155.242 115.46 157.78 113.528 160.664 110.656C167.642 103.554 168.769 102.388 177.898 93.4651C177.898 93.4651 180.65 90.5067 182.676 88.439C182.748 88.4038 188.925 82.7686 193.486 76.3845C194.719 74.704 193.684 73.1324 192.071 73.3036C190.53 73.4396 191.608 73.4526 182.08 82.647C170.95 93.3166 161.386 100.067 140.796 123.361Z" fill="#F2BBBB"/>
<path d="M187.805 146.677C187.232 146.418 186.864 146.213 186.124 146.343C184.201 145.513 182.056 148.252 184.018 149.528C197.526 158.176 215.195 175.339 247.153 192.15C248.226 192.701 254.661 195.642 255.91 196.188C256.749 196.626 257.381 197.007 258.265 196.806C259.718 196.483 260.614 194.661 259.123 193.618C258.193 192.993 257.157 192.883 250.472 188.526C249.144 187.634 247.631 186.912 246.302 186.02C239.988 181.864 244.074 184.565 239.772 181.97C238.475 181.142 237.955 180.626 233.724 177.995C228.461 174.713 223.042 171.661 220.041 169.355C214.141 164.769 194.881 149.459 187.805 146.677Z" fill="#F2BBBB"/>
<path d="M108.271 108.137C106.936 109.791 106.105 111.198 107.47 112.531C110.081 114.954 117.132 106.353 117.409 104.908C117.727 103.366 116.46 102.601 115.185 102.915C114.571 102.753 113.789 102.981 113.459 103.219C110.765 105.382 109.847 106.061 108.271 108.137Z" fill="#F2BBBB"/>
<path d="M119.772 111.76C119.985 113.659 121.871 114.048 123.704 113.23C126.329 112.025 128.83 109.649 130.651 107.527C131.22 106.864 131.792 106.199 131.746 105.374C131.762 104.676 131.284 104.062 130.639 103.838C129.995 103.074 128.682 102.945 127.661 103.597C124.576 105.874 120.186 108.403 119.772 111.76Z" fill="#F2BBBB"/>
<path d="M126.97 98.1597C129.03 97.6163 130.164 96.8313 132.066 95.0581C133.409 93.786 134.942 91.8051 135.409 91.115C136.353 89.5753 134.95 87.7983 132.749 88.4107C131.99 88.3191 131.341 88.6359 130.783 89.1394C129.266 90.4197 124.997 94.1187 124.432 95.7042C124.159 96.6079 124.44 97.5491 125.586 98.068C126.025 98.2358 126.446 98.1843 126.97 98.1597Z" fill="#F2BBBB"/>
<path d="M137.936 92.2691C138.429 93.6434 140.026 94.1729 142.295 92.6028C143.43 91.8178 145.331 90.0422 147.001 87.6119C149.137 84.489 145.999 82.6344 144.338 83.9851C142.056 85.7124 137.059 89.9241 137.936 92.2691Z" fill="#F2BBBB"/>
<path d="M35.031 140.28C36.8334 139.4 37.1822 137.92 41.6454 133.895C47.5226 128.56 46.4412 129.088 52.369 124.039C68.9882 111.075 71.7883 108.398 78.6789 103.493C79.0811 103.219 88.738 96.6584 89.8345 95.4297C91.5418 93.4406 88.7039 91.2855 86.7345 92.5552C72.623 102.062 84.383 93.7804 68.362 105.221C59.2733 111.658 54.2609 115.107 46.4752 122.757C38.0218 131.045 38.3746 130.487 35.122 134.614C35.0499 134.65 32.7091 137.718 32.7395 137.781C31.8062 139.161 33.2095 140.938 35.031 140.28Z" fill="#F2BBBB"/>
<path d="M131.691 215.725C133.623 216.939 136.033 214.376 134.679 212.883C130.584 208.337 110.171 177.501 99.9714 165.389C96.0932 160.737 96.0563 160.296 94.1848 157.743C93.1687 156.393 87.7571 150.796 86.7562 150.209C86.1224 149.825 86.4375 150.287 85.3861 149.414C84.069 148.362 82.6271 149.066 82.0884 149.792C80.4418 151.905 82.5244 153.428 91.6542 165.909C97.3383 173.527 124.057 209.598 131.691 215.725Z" fill="#F2BBBB"/>
<path d="M73.3685 202.706C74.549 204.21 77.6188 202.634 76.8518 200.697C77.0261 199.226 75.7369 198.78 74.5944 197.72C55.5239 172.925 57.3337 170.963 45.2567 154.457C45.196 154.332 41.4591 148.69 40.3129 148.172C39.0149 147.342 36.9658 148.265 36.7195 149.772C36.4845 151.119 37.9485 153.021 38.7192 154.416C40.4036 157.135 38.7876 154.922 45.7834 167.056C47.669 170.369 49.0545 171.927 51.0539 175.107C54.6126 181.299 58.2024 186.091 59.1286 187.256C66.7134 197.488 63.1689 192.057 66.9143 196.619C70.9671 201.263 73.3685 202.706 73.3685 202.706ZM51.107 174.85L51.1981 175.037C51.1374 174.913 51.1374 174.913 51.107 174.85Z" fill="#F2BBBB"/>
</svg>
