<svg width="420" height="328" viewBox="0 0 420 328" fill="none" xmlns="http://www.w3.org/2000/svg">
<path d="M131.722 307.399L59.8806 183.13C53.6192 172.299 53.6192 154.716 59.8806 143.891L95.8011 81.7567L131.722 19.6165C137.983 8.79134 153.234 0 165.751 0H309.433C321.951 0 337.202 8.79134 343.463 19.6165L379.384 81.7567L415.304 143.891C421.566 154.716 421.566 172.299 415.304 183.13L343.463 307.399C337.202 318.23 321.951 327.021 309.433 327.021H165.751C153.234 327.021 137.983 318.23 131.722 307.399Z" fill="#6451A6"/>
<path d="M76.537 307.399L4.69606 183.13C-1.56535 172.299 -1.56535 154.716 4.69606 143.891L40.6165 81.7567L76.537 19.6165C82.7984 8.79134 98.0496 0 110.567 0H254.249C266.772 0 282.017 8.79134 288.279 19.6165L324.199 81.7567L360.12 143.891C366.381 154.716 366.381 172.299 360.12 183.13L288.279 307.399C282.017 318.23 266.772 327.021 254.249 327.021H110.567C98.0496 327.021 82.7984 318.23 76.537 307.399Z" fill="#255932"/>
<path d="M104.571 307.399L68.6556 245.264L32.7351 183.13C26.4737 172.299 26.4737 154.716 32.7351 143.891L68.6556 81.7567L104.571 19.6165C110.837 8.79134 126.083 0 138.6 0H282.288C294.805 0 310.056 8.79134 316.318 19.6165L352.238 81.7567L388.153 143.891C394.414 154.716 394.414 172.299 388.153 183.13L352.238 245.264L316.318 307.399C310.056 318.23 294.805 327.021 282.288 327.021H138.6C126.083 327.021 110.837 318.23 104.571 307.399Z" fill="#F2BBBB"/>
<path d="M119.937 286.774L89.2805 233.684L58.6239 180.6C53.2829 171.346 53.2829 156.326 58.6239 147.072L119.937 40.9032C125.278 31.6489 138.292 24.1363 148.979 24.1363H271.606C282.288 24.1363 295.301 31.6489 300.647 40.9032L331.299 93.9874L361.955 147.072C367.302 156.326 367.302 171.346 361.955 180.6L331.299 233.684L300.647 286.774C295.301 296.023 282.288 303.535 271.606 303.535H148.979C138.292 303.535 125.278 296.023 119.937 286.774Z" fill="#F28F38"/>
<path d="M156.75 161.211C162.885 161.426 167.835 158.196 171.709 153.787C173.109 157.981 176.124 160.996 181.934 161.211C190.758 161.536 197.218 154.536 201.523 147.542L196.893 143.347C195.498 145.392 191.403 151.091 187.534 150.876C185.053 150.876 183.979 149.046 183.979 144.097V90.1749C183.979 86.8402 180.964 84.1505 177.199 84.1505C173.539 84.1505 170.524 86.8402 170.524 90.1749V144.957C168.59 147.437 165.47 150.987 162.345 150.876C159.87 150.876 158.795 149.046 158.795 144.097V90.1749C158.795 86.8402 155.78 84.1505 152.016 84.1505C148.356 84.1505 145.341 86.8402 145.341 90.1749V145.607C145.341 153.461 147.601 160.886 156.75 161.211Z" fill="#F9F8DB"/>
<path d="M203.567 161.211C207.332 161.211 210.347 158.521 210.347 155.181V123.218C210.347 119.239 212.177 116.009 216.052 115.899C220.461 115.899 221.431 119.669 221.431 123.543V145.607C221.431 153.462 223.691 160.886 232.841 161.211C241.665 161.536 248.125 154.536 252.43 147.542L247.8 143.347C246.4 145.392 242.31 151.091 238.435 150.876C235.96 150.876 234.885 149.047 234.885 144.097V123.433C234.885 117.624 233.381 112.239 229.611 109.009C227.136 106.859 223.801 105.569 219.816 105.674C216.482 105.674 212.067 107.074 210.022 109.874C208.837 107.184 206.577 105.674 203.567 105.674C199.908 105.674 196.893 108.364 196.893 111.704V155.181C196.893 158.521 199.908 161.211 203.567 161.211Z" fill="#F9F8DB"/>
<path d="M259.852 161.211C268.677 161.536 275.136 154.536 279.441 147.542L274.811 143.347C273.411 145.392 269.321 151.091 265.447 150.876C262.972 150.876 261.897 149.047 261.897 144.097V111.704C261.897 108.364 258.882 105.674 255.118 105.674C251.458 105.674 248.443 108.364 248.443 111.704V145.607C248.443 153.462 250.703 160.886 259.852 161.211ZM255.118 99.9694C259.207 99.9694 262.542 96.9545 262.542 93.3001V91.0348C262.542 87.3804 259.207 84.4702 255.118 84.4702C251.132 84.4702 247.798 87.3804 247.798 91.0348V93.3001C247.798 96.9545 251.132 99.9694 255.118 99.9694Z" fill="#F9F8DB"/>
<path d="M160.796 241.939C165.211 241.939 168.975 240.65 172.205 238.39C175.755 235.805 178.555 232.04 180.6 227.73L175.325 224.076C172.42 228.38 168.975 231.715 163.7 231.605C158.216 231.605 155.416 228.055 155.416 221.38V203.947C155.416 200.287 156.816 196.737 161.011 196.627C164.456 196.627 166.071 198.672 166.396 202.442C166.611 206.206 168.656 208.362 172.635 208.362C177.265 208.251 178.88 204.162 178.665 199.967C178.34 195.337 175.97 191.247 171.88 188.877C168.975 187.158 165.426 186.402 161.766 186.402C155.846 186.402 151.001 188.128 147.667 191.247C144.007 194.797 141.962 199.967 141.962 206.317V224.18C141.962 235.375 150.037 241.939 160.796 241.939Z" fill="#F9F8DB"/>
<path d="M196.851 241.939C202.985 242.154 207.29 238.924 211.165 234.515C212.67 238.71 215.685 241.724 221.389 241.939C230.214 242.265 236.674 235.265 240.978 228.27L236.348 224.076C234.948 226.121 230.859 231.82 226.984 231.605C224.509 231.605 223.434 229.775 223.434 224.825V204.162C223.434 193.292 216.115 186.402 205.46 186.402C199.971 186.402 195.341 187.913 192.006 190.707C187.811 194.152 185.441 199.532 185.441 206.317V226.336C185.441 234.19 187.701 241.614 196.851 241.939ZM202.445 231.605C199.971 231.605 198.896 229.775 198.896 224.825V203.947C198.896 200.287 200.4 196.737 204.49 196.627C208.795 196.627 209.98 200.287 209.98 204.057V225.685C208.15 228.165 205.571 231.715 202.445 231.605Z" fill="#F9F8DB"/>
<path d="M253.136 241.939C262.716 242.265 271.755 236.56 271.755 225.04C271.755 220.201 269.495 217.076 266.486 214.926C263.36 212.881 259.486 211.801 256.041 210.726C251.736 209.436 248.076 206.851 248.076 202.872C248.076 199.427 249.906 196.737 253.566 196.627C257.121 196.627 258.736 198.782 258.951 202.117C259.166 205.776 261.211 207.606 265.19 207.496C269.925 207.496 271.435 203.836 271.22 199.642C271.005 195.012 268.531 191.247 264.441 188.877C261.531 187.158 257.981 186.402 254.321 186.402C249.691 186.402 245.712 187.262 242.267 189.417C237.747 192.217 234.842 196.952 234.947 203.947C234.947 209.006 237.102 212.771 240.327 215.461C243.452 218.046 247.431 219.446 251.631 220.95C255.291 222.246 258.196 223.106 258.301 226.336C258.521 230.315 254.536 231.82 251.201 231.715C246.246 231.5 242.052 229.13 238.282 224.076L233.117 227.73C236.457 235.91 244.097 241.939 253.136 241.939Z" fill="#F9F8DB"/>
<path d="M182.299 281.906H177.802C177.521 281.906 177.289 281.828 177.085 281.641C176.887 281.47 176.793 281.255 176.793 280.974V272.023C176.793 271.758 176.887 271.527 177.074 271.339C177.256 271.152 177.476 271.064 177.752 271.064H182.255C182.514 271.064 182.751 271.152 182.933 271.339C183.121 271.527 183.214 271.742 183.214 272.006C183.214 272.287 183.121 272.502 182.933 272.69C182.751 272.877 182.531 272.954 182.266 272.954H179.306C179.135 272.954 178.998 273.015 178.887 273.125C178.761 273.247 178.717 273.39 178.717 273.544V274.663C178.717 274.828 178.761 274.972 178.887 275.082C178.998 275.203 179.135 275.247 179.306 275.247H181.428C181.693 275.247 181.93 275.341 182.112 275.528C182.299 275.716 182.393 275.931 182.393 276.195C182.393 276.476 182.299 276.691 182.112 276.879C181.93 277.066 181.71 277.143 181.445 277.143H179.323C179.152 277.143 179.009 277.204 178.904 277.314C178.777 277.435 178.733 277.579 178.733 277.733V279.425C178.733 279.596 178.777 279.734 178.904 279.844C179.009 279.965 179.152 280.015 179.323 280.015H182.283C182.547 280.015 182.779 280.103 182.966 280.291C183.154 280.478 183.247 280.693 183.247 280.958C183.247 281.239 183.154 281.454 182.966 281.641C182.779 281.828 182.564 281.906 182.299 281.906Z" fill="#C6441B"/>
<path d="M187.228 271.356L190.475 274.955C190.502 274.999 190.569 275.016 190.646 275.016C190.706 275.016 190.767 274.999 190.817 274.955L194.135 271.4C194.322 271.218 194.554 271.108 194.835 271.108C195.099 271.108 195.331 271.202 195.518 271.389C195.7 271.571 195.794 271.791 195.794 272.056V281.007C195.794 281.283 195.7 281.503 195.518 281.691C195.331 281.873 195.11 281.95 194.846 281.95C194.57 281.95 194.35 281.861 194.168 281.674C193.98 281.487 193.903 281.272 193.903 280.991V274.972C193.903 274.845 193.826 274.768 193.699 274.768C193.639 274.768 193.589 274.801 193.561 274.828L191.109 277.452C190.998 277.579 190.861 277.639 190.69 277.639C190.519 277.639 190.381 277.579 190.254 277.452L187.807 274.828C187.758 274.801 187.713 274.768 187.664 274.768C187.526 274.768 187.465 274.845 187.465 274.972V280.991C187.465 281.272 187.372 281.487 187.184 281.674C186.997 281.861 186.782 281.939 186.517 281.939C186.236 281.939 186.021 281.845 185.834 281.658C185.647 281.47 185.569 281.255 185.569 280.974V272.023C185.569 271.758 185.663 271.527 185.85 271.339C186.038 271.152 186.253 271.064 186.534 271.064C186.655 271.064 186.798 271.091 186.92 271.141C187.046 271.185 187.14 271.262 187.228 271.356Z" fill="#C6441B"/>
<path d="M205.627 272.954H203.781C203.5 272.954 203.268 272.877 203.081 272.706C202.894 272.535 202.8 272.32 202.8 272.039C202.8 271.775 202.894 271.543 203.081 271.356C203.268 271.169 203.483 271.075 203.764 271.075H210.527C210.792 271.075 211.023 271.169 211.211 271.356C211.398 271.543 211.492 271.758 211.492 272.023C211.492 272.304 211.398 272.519 211.211 272.706C211.023 272.894 210.808 272.971 210.544 272.971H208.697C208.527 272.971 208.389 273.032 208.279 273.142C208.157 273.263 208.108 273.406 208.108 273.561V280.974C208.108 281.255 208.014 281.47 207.827 281.657C207.645 281.845 207.424 281.922 207.16 281.922C206.884 281.922 206.664 281.828 206.482 281.641C206.294 281.454 206.217 281.239 206.217 280.957V273.544C206.217 273.39 206.151 273.246 206.046 273.125C205.919 273.015 205.782 272.954 205.627 272.954Z" fill="#C6441B"/>
<path d="M219.291 281.906H214.794C214.513 281.906 214.281 281.828 214.077 281.641C213.879 281.47 213.785 281.255 213.785 280.974V272.023C213.785 271.758 213.879 271.527 214.066 271.339C214.248 271.152 214.469 271.064 214.744 271.064H219.247C219.506 271.064 219.743 271.152 219.925 271.339C220.113 271.527 220.206 271.742 220.206 272.006C220.206 272.287 220.113 272.502 219.925 272.69C219.743 272.877 219.523 272.954 219.258 272.954H216.299C216.128 272.954 215.99 273.015 215.88 273.125C215.753 273.247 215.709 273.39 215.709 273.544V274.663C215.709 274.828 215.753 274.972 215.88 275.082C215.99 275.203 216.128 275.247 216.299 275.247H218.421C218.685 275.247 218.922 275.341 219.104 275.528C219.291 275.716 219.385 275.931 219.385 276.195C219.385 276.476 219.291 276.691 219.104 276.879C218.922 277.066 218.702 277.143 218.437 277.143H216.315C216.144 277.143 216.001 277.204 215.896 277.314C215.769 277.435 215.725 277.579 215.725 277.733V279.425C215.725 279.596 215.769 279.734 215.896 279.844C216.001 279.965 216.144 280.015 216.315 280.015H219.275C219.539 280.015 219.771 280.103 219.958 280.291C220.146 280.478 220.239 280.693 220.239 280.958C220.239 281.239 220.146 281.454 219.958 281.641C219.771 281.828 219.556 281.906 219.291 281.906Z" fill="#C6441B"/>
<path d="M228.007 279.998C228.536 279.998 229.016 279.921 229.484 279.734C229.931 279.546 230.322 279.298 230.647 278.957C230.835 278.758 231.066 278.648 231.342 278.648C231.579 278.648 231.794 278.742 231.998 278.913C232.18 279.1 232.29 279.315 232.29 279.58C232.29 279.844 232.213 280.076 232.042 280.263C231.546 280.787 230.94 281.206 230.256 281.487C229.562 281.768 228.817 281.906 228.007 281.906C227.203 281.906 226.475 281.779 225.819 281.52C225.152 281.255 224.579 280.88 224.099 280.401C223.62 279.921 223.245 279.348 222.98 278.681C222.705 278.014 222.578 277.281 222.578 276.476C222.578 275.683 222.705 274.955 222.98 274.288C223.245 273.621 223.62 273.048 224.099 272.569C224.579 272.083 225.152 271.714 225.819 271.45C226.475 271.185 227.203 271.047 228.007 271.047C228.817 271.047 229.562 271.202 230.256 271.483C230.94 271.758 231.546 272.161 232.042 272.69C232.213 272.894 232.29 273.125 232.29 273.39C232.29 273.654 232.18 273.869 231.998 274.04C231.794 274.228 231.579 274.305 231.342 274.305C231.066 274.305 230.835 274.211 230.647 273.991C230.333 273.665 229.947 273.417 229.495 273.235C229.032 273.048 228.536 272.954 228.007 272.954C227.605 272.954 227.186 273.015 226.767 273.142C226.348 273.263 225.979 273.467 225.637 273.743C225.295 274.024 225.014 274.382 224.799 274.828C224.579 275.28 224.485 275.826 224.485 276.476C224.485 277.127 224.579 277.683 224.799 278.135C225.014 278.587 225.295 278.94 225.637 279.221C225.979 279.502 226.348 279.684 226.767 279.811C227.186 279.938 227.605 279.998 228.007 279.998Z" fill="#C6441B"/>
<path d="M237.127 275.065H240.82C241.161 275.065 241.349 274.894 241.349 274.536V272.056C241.349 271.791 241.442 271.56 241.63 271.372C241.812 271.185 242.032 271.091 242.308 271.091C242.572 271.091 242.804 271.185 242.991 271.372C243.179 271.56 243.272 271.775 243.272 272.039V280.991C243.272 281.272 243.179 281.487 242.991 281.674C242.804 281.861 242.589 281.939 242.324 281.939C242.049 281.939 241.828 281.845 241.641 281.657C241.459 281.47 241.382 281.255 241.382 280.974V277.579C241.382 277.424 241.316 277.281 241.211 277.16C241.084 277.05 240.946 276.989 240.792 276.989H237.099C236.928 276.989 236.785 277.05 236.68 277.16C236.553 277.281 236.509 277.424 236.509 277.579V280.974C236.509 281.255 236.416 281.47 236.228 281.657C236.041 281.845 235.826 281.922 235.561 281.922C235.28 281.922 235.065 281.828 234.878 281.641C234.69 281.454 234.613 281.239 234.613 280.957V272.006C234.613 271.742 234.707 271.51 234.894 271.323C235.082 271.141 235.297 271.047 235.578 271.047C235.842 271.047 236.074 271.141 236.261 271.323C236.443 271.51 236.537 271.731 236.537 271.99V274.476C236.537 274.646 236.587 274.784 236.708 274.894C236.818 275.016 236.956 275.065 237.127 275.065Z" fill="#C6441B"/>
<path d="M173.152 46.0693L176.399 49.6685C176.426 49.7126 176.492 49.7291 176.57 49.7291C176.63 49.7291 176.691 49.7126 176.74 49.6685L180.059 46.1134C180.246 45.9315 180.477 45.8213 180.759 45.8213C181.023 45.8213 181.255 45.915 181.442 46.1024C181.624 46.2842 181.718 46.5047 181.718 46.7693V55.7205C181.718 55.9961 181.624 56.2165 181.442 56.4039C181.255 56.5858 181.034 56.663 180.77 56.663C180.494 56.663 180.273 56.5748 180.092 56.3874C179.904 56.2 179.827 55.985 179.827 55.7039V49.685C179.827 49.5583 179.75 49.4811 179.623 49.4811C179.562 49.4811 179.513 49.5142 179.485 49.5417L177.033 52.1653C176.922 52.2921 176.785 52.3527 176.614 52.3527C176.443 52.3527 176.305 52.2921 176.178 52.1653L173.731 49.5417C173.681 49.5142 173.637 49.4811 173.588 49.4811C173.45 49.4811 173.389 49.5583 173.389 49.685V55.7039C173.389 55.985 173.296 56.2 173.108 56.3874C172.921 56.5748 172.706 56.652 172.441 56.652C172.16 56.652 171.945 56.5583 171.758 56.3709C171.57 56.1835 171.493 55.9685 171.493 55.6874V46.7362C171.493 46.4716 171.587 46.2402 171.774 46.0528C171.962 45.8654 172.177 45.7772 172.458 45.7772C172.579 45.7772 172.722 45.8047 172.844 45.8543C172.97 45.8984 173.064 45.9756 173.152 46.0693Z" fill="#C6441B"/>
<path d="M190.713 52.6338L190.686 46.7362C190.686 46.4716 190.774 46.2401 190.961 46.0527C191.149 45.8653 191.363 45.7772 191.645 45.7772C191.909 45.7772 192.141 45.8653 192.328 46.0527C192.515 46.2401 192.609 46.4551 192.609 46.7197V52.6449C192.609 53.2071 192.499 53.7197 192.295 54.1992C192.08 54.6953 191.799 55.1142 191.441 55.4724C191.071 55.8417 190.652 56.1228 190.173 56.3268C189.677 56.5417 189.164 56.6354 188.619 56.6354H188.078C187.516 56.6354 187.004 56.5417 186.524 56.3268C186.028 56.1228 185.609 55.8417 185.251 55.4724C184.882 55.1142 184.6 54.6953 184.402 54.1992C184.182 53.7197 184.088 53.2071 184.088 52.6449V46.7197C184.088 46.4551 184.182 46.2236 184.369 46.0362C184.556 45.8543 184.771 45.7606 185.052 45.7606C185.317 45.7606 185.549 45.8543 185.736 46.0362C185.918 46.2236 186.012 46.4441 186.012 46.7031V52.6338C186.012 52.926 186.061 53.2071 186.166 53.4551C186.276 53.7031 186.43 53.9181 186.618 54.1055C186.805 54.2929 187.02 54.4472 187.268 54.5575C187.516 54.6622 187.797 54.7118 188.089 54.7118H188.635C188.916 54.7118 189.192 54.6622 189.44 54.5575C189.688 54.4472 189.925 54.2929 190.107 54.1055C190.294 53.9181 190.437 53.7031 190.542 53.4551C190.652 53.2071 190.713 52.926 190.713 52.6338Z" fill="#C6441B"/>
<path d="M195.91 45.7606C196.174 45.7606 196.389 45.8653 196.56 46.0527C196.731 46.2401 196.825 46.4716 196.825 46.7362V54.1496C196.825 54.3205 196.869 54.4638 196.996 54.5685C197.106 54.6953 197.244 54.7394 197.415 54.7394H200.545C200.81 54.7394 201.041 54.8331 201.229 55.0205C201.416 55.2079 201.51 55.4228 201.51 55.6874C201.51 55.9685 201.416 56.1834 201.229 56.3709C201.041 56.5583 200.826 56.6354 200.562 56.6354H195.893C195.612 56.6354 195.397 56.5417 195.21 56.3543C195.022 56.1669 194.945 55.952 194.945 55.6709V46.7197C194.945 46.4551 195.039 46.2236 195.226 46.0362C195.414 45.8543 195.629 45.7606 195.91 45.7606Z" fill="#C6441B"/>
<path d="M206.361 49.7787H210.054C210.396 49.7787 210.583 49.6079 210.583 49.2496V46.7693C210.583 46.5047 210.677 46.2732 210.864 46.0858C211.046 45.8984 211.267 45.8047 211.542 45.8047C211.807 45.8047 212.038 45.8984 212.226 46.0858C212.413 46.2732 212.507 46.4882 212.507 46.7527V55.7039C212.507 55.985 212.413 56.2 212.226 56.3874C212.038 56.5748 211.823 56.652 211.559 56.652C211.283 56.652 211.063 56.5583 210.875 56.3709C210.693 56.1835 210.616 55.9685 210.616 55.6874V52.2921C210.616 52.1378 210.55 51.9945 210.445 51.8732C210.319 51.763 210.181 51.7023 210.026 51.7023H206.333C206.163 51.7023 206.019 51.763 205.915 51.8732C205.788 51.9945 205.744 52.1378 205.744 52.2921V55.6874C205.744 55.9685 205.65 56.1835 205.463 56.3709C205.275 56.5583 205.06 56.6354 204.796 56.6354C204.515 56.6354 204.3 56.5417 204.112 56.3543C203.925 56.1669 203.848 55.952 203.848 55.6709V46.7197C203.848 46.4551 203.941 46.2236 204.129 46.0362C204.316 45.8543 204.531 45.7606 204.812 45.7606C205.077 45.7606 205.308 45.8543 205.496 46.0362C205.678 46.2236 205.771 46.4441 205.771 46.7031V49.189C205.771 49.3598 205.821 49.4976 205.942 49.6079C206.052 49.7291 206.19 49.7787 206.361 49.7787Z" fill="#C6441B"/>
<path d="M220.322 56.6189H215.824C215.543 56.6189 215.311 56.5417 215.108 56.3543C214.909 56.1835 214.815 55.9685 214.815 55.6874V46.7362C214.815 46.4716 214.909 46.2402 215.097 46.0528C215.278 45.8654 215.499 45.7772 215.774 45.7772H220.278C220.537 45.7772 220.774 45.8654 220.956 46.0528C221.143 46.2402 221.237 46.4551 221.237 46.7197C221.237 47.0008 221.143 47.2157 220.956 47.4031C220.774 47.5905 220.553 47.6677 220.289 47.6677H217.329C217.158 47.6677 217.02 47.7283 216.91 47.8386C216.783 47.9598 216.739 48.1031 216.739 48.2575V49.3764C216.739 49.5417 216.783 49.685 216.91 49.7953C217.02 49.9165 217.158 49.9606 217.329 49.9606H219.451C219.715 49.9606 219.952 50.0543 220.134 50.2417C220.322 50.4291 220.415 50.6441 220.415 50.9087C220.415 51.1898 220.322 51.4047 220.134 51.5921C219.952 51.7795 219.732 51.8567 219.467 51.8567H217.345C217.174 51.8567 217.031 51.9173 216.926 52.0276C216.8 52.1488 216.756 52.2921 216.756 52.4465V54.1386C216.756 54.3094 216.8 54.4472 216.926 54.5575C217.031 54.6787 217.174 54.7283 217.345 54.7283H220.305C220.57 54.7283 220.801 54.8165 220.989 55.0039C221.176 55.1913 221.27 55.4063 221.27 55.6709C221.27 55.952 221.176 56.1669 220.989 56.3543C220.801 56.5417 220.586 56.6189 220.322 56.6189Z" fill="#C6441B"/>
<path d="M225.489 48.2575V49.685C225.489 49.8559 225.533 49.9937 225.66 50.1039C225.764 50.2252 225.908 50.2748 226.079 50.2748H227.131C227.192 50.2748 227.286 50.2748 227.44 50.2417C227.594 50.2252 227.754 50.1811 227.909 50.0874C228.063 50.0102 228.217 49.8834 228.344 49.7016C228.465 49.5307 228.526 49.2827 228.526 48.9685C228.526 48.6598 228.465 48.4283 228.344 48.2409C228.217 48.0701 228.063 47.9488 227.909 47.8551C227.754 47.7779 227.594 47.7283 227.44 47.7008C227.286 47.6842 227.192 47.6677 227.131 47.6677H226.079C225.908 47.6677 225.764 47.7283 225.66 47.8386C225.533 47.9598 225.489 48.1031 225.489 48.2575ZM229.441 51.3606L229.413 51.3771C229.165 51.5921 228.917 51.7464 228.636 51.8732C228.576 51.9008 228.542 51.9338 228.526 51.9945C228.498 52.0551 228.515 52.1212 228.542 52.1653L230.389 55.1748C230.483 55.3291 230.527 55.5 230.527 55.6708C230.527 55.8417 230.483 55.996 230.405 56.1393C230.328 56.2771 230.218 56.3874 230.08 56.4811C229.926 56.5748 229.772 56.6189 229.584 56.6189C229.226 56.6189 228.961 56.4811 228.774 56.1669L226.542 52.5071C226.404 52.3086 226.216 52.1984 226.002 52.1984C225.842 52.1984 225.737 52.2425 225.643 52.3362C225.55 52.4299 225.5 52.5567 225.5 52.6945V55.6708C225.5 55.9519 225.412 56.1669 225.224 56.3543C225.037 56.5417 224.822 56.6189 224.557 56.6189C224.276 56.6189 224.061 56.5252 223.874 56.3378C223.687 56.1559 223.609 55.9354 223.609 55.6543V46.7031C223.609 46.4441 223.703 46.2071 223.89 46.0252C224.078 45.8378 224.293 45.7441 224.574 45.7441H227.164C227.627 45.7441 228.063 45.8378 228.465 45.9921C228.868 46.1464 229.209 46.3779 229.507 46.659C229.799 46.9401 230.031 47.2819 230.202 47.6677C230.372 48.0701 230.466 48.5055 230.466 48.9685C230.466 49.9496 230.124 50.7378 229.441 51.3606Z" fill="#C6441B"/>
<path d="M238.345 56.6189H233.848C233.566 56.6189 233.335 56.5417 233.131 56.3543C232.933 56.1835 232.839 55.9685 232.839 55.6874V46.7362C232.839 46.4716 232.933 46.2402 233.12 46.0528C233.302 45.8654 233.522 45.7772 233.798 45.7772H238.301C238.56 45.7772 238.797 45.8654 238.979 46.0528C239.166 46.2402 239.26 46.4551 239.26 46.7197C239.26 47.0008 239.166 47.2157 238.979 47.4031C238.797 47.5905 238.577 47.6677 238.312 47.6677H235.352C235.181 47.6677 235.044 47.7283 234.933 47.8386C234.807 47.9598 234.762 48.1031 234.762 48.2575V49.3764C234.762 49.5417 234.807 49.685 234.933 49.7953C235.044 49.9165 235.181 49.9606 235.352 49.9606H237.474C237.739 49.9606 237.976 50.0543 238.158 50.2417C238.345 50.4291 238.439 50.6441 238.439 50.9087C238.439 51.1898 238.345 51.4047 238.158 51.5921C237.976 51.7795 237.755 51.8567 237.491 51.8567H235.369C235.198 51.8567 235.055 51.9173 234.95 52.0276C234.823 52.1488 234.779 52.2921 234.779 52.4465V54.1386C234.779 54.3094 234.823 54.4472 234.95 54.5575C235.055 54.6787 235.198 54.7283 235.369 54.7283H238.329C238.593 54.7283 238.825 54.8165 239.012 55.0039C239.199 55.1913 239.293 55.4063 239.293 55.6709C239.293 55.952 239.199 56.1669 239.012 56.3543C238.825 56.5417 238.61 56.6189 238.345 56.6189Z" fill="#C6441B"/>
<path d="M248.163 51.0354L248.318 51.1291C248.659 51.3441 248.957 51.6527 249.172 52.0441C249.387 52.4299 249.514 52.8819 249.514 53.4055C249.514 53.7803 249.436 54.1661 249.299 54.5409C249.155 54.9102 248.94 55.2519 248.632 55.5661C248.318 55.8748 247.899 56.1228 247.403 56.3102C246.907 56.4921 246.289 56.5858 245.556 56.5858C244.674 56.5858 243.93 56.4921 243.34 56.2771C242.751 56.0732 242.255 55.748 241.852 55.3016C241.665 55.1142 241.588 54.8827 241.599 54.6181C241.599 54.3535 241.709 54.1386 241.913 53.9512C242.007 53.874 242.1 53.8134 242.205 53.7638C242.315 53.7307 242.425 53.7031 242.547 53.7031C242.828 53.7031 243.076 53.8134 243.263 54.0118C243.307 54.0724 243.368 54.1386 243.462 54.2157C243.539 54.2929 243.666 54.3701 243.836 54.4307C244.007 54.4913 244.222 54.5575 244.503 54.6016C244.779 54.6622 245.121 54.6787 245.556 54.6787C245.76 54.6787 245.975 54.6622 246.223 54.6346C246.471 54.6016 246.692 54.5409 246.907 54.4472C247.11 54.3535 247.281 54.2323 247.419 54.0614C247.557 53.9016 247.634 53.6866 247.634 53.4055C247.634 53.2512 247.607 53.1134 247.546 52.9866C247.48 52.8653 247.375 52.7551 247.215 52.6614C247.061 52.5677 246.829 52.474 246.548 52.3858C246.273 52.2921 245.898 52.1984 245.462 52.0882C245.033 51.9945 244.597 51.8732 244.162 51.7299C243.726 51.6086 243.34 51.4212 242.999 51.1897C242.657 50.9693 242.376 50.6771 242.161 50.3189C241.94 49.9606 241.836 49.5142 241.836 48.9575V48.9244C241.836 48.4118 241.929 47.9598 242.144 47.5575C242.359 47.1716 242.64 46.8464 242.999 46.5653C243.34 46.3008 243.743 46.1023 244.195 45.959C244.641 45.8212 245.11 45.7441 245.573 45.7441C246.179 45.7441 246.708 45.8378 247.138 45.9921C247.573 46.163 247.992 46.4275 248.367 46.7803C248.549 46.9677 248.643 47.1992 248.643 47.4638C248.643 47.7283 248.566 47.9488 248.384 48.1307C248.196 48.3181 247.965 48.4118 247.711 48.4118C247.436 48.4118 247.215 48.3181 247.033 48.1307C246.89 48.0094 246.719 47.8827 246.537 47.789C246.333 47.7008 246.025 47.6512 245.589 47.6512C245.044 47.6512 244.597 47.7779 244.255 48.026C243.914 48.274 243.743 48.5661 243.743 48.9409V48.9685C243.743 49.1394 243.759 49.2827 243.82 49.3874C243.881 49.5142 243.991 49.6244 244.145 49.7126C244.299 49.8063 244.531 49.9 244.812 49.9771C245.093 50.0708 245.451 50.1645 245.898 50.2582C246.289 50.352 246.675 50.4622 247.077 50.5669C247.463 50.6771 247.822 50.8315 248.163 51.0354Z" fill="#C6441B"/>
</svg>
