<svg width="400" height="312" viewBox="0 0 400 312" fill="none" xmlns="http://www.w3.org/2000/svg">
<path d="M125.449 292.761L57.0291 174.409C51.0658 164.094 51.0658 147.349 57.0291 137.039L91.239 77.8635L125.449 18.6824C131.412 8.3727 145.937 0 157.858 0H294.698C306.62 0 321.144 8.3727 327.108 18.6824L361.318 77.8635L395.528 137.039C401.491 147.349 401.491 164.094 395.528 174.409L327.108 292.761C321.144 303.076 306.62 311.449 294.698 311.449H157.858C145.937 311.449 131.412 303.076 125.449 292.761Z" fill="#6451A6"/>
<path d="M72.8924 292.761L4.47244 174.409C-1.49081 164.094 -1.49081 147.349 4.47244 137.039L38.6824 77.8635L72.8924 18.6824C78.8556 8.3727 93.3805 0 105.302 0H242.142C254.068 0 268.588 8.3727 274.551 18.6824L308.761 77.8635L342.971 137.039C348.934 147.349 348.934 164.094 342.971 174.409L274.551 292.761C268.588 303.076 254.068 311.449 242.142 311.449H105.302C93.3805 311.449 78.8556 303.076 72.8924 292.761Z" fill="#255932"/>
<path d="M99.5912 292.761L65.3865 233.585L31.1765 174.409C25.2133 164.094 25.2133 147.349 31.1765 137.039L65.3865 77.8635L99.5912 18.6824C105.56 8.3727 120.079 0 132.001 0H268.846C280.767 0 295.292 8.3727 301.255 18.6824L335.465 77.8635L369.67 137.039C375.633 147.349 375.633 164.094 369.67 174.409L335.465 233.585L301.255 292.761C295.292 303.076 280.767 311.449 268.846 311.449H132.001C120.079 311.449 105.56 303.076 99.5912 292.761Z" fill="#F2BBBB"/>
<path d="M114.226 273.118L85.0294 222.556L55.8325 172C50.7459 163.186 50.7459 148.882 55.8325 140.068L114.226 38.9554C119.313 30.1418 131.707 22.9869 141.885 22.9869H258.672C268.846 22.9869 281.239 30.1418 286.331 38.9554L315.523 89.5118L344.72 140.068C349.811 148.882 349.811 163.186 344.72 172L315.523 222.556L286.331 273.118C281.239 281.926 268.846 289.081 258.672 289.081H141.885C131.707 289.081 119.313 281.926 114.226 273.118Z" fill="#F28F38"/>
<path d="M149.286 150.551C155.129 150.756 159.842 147.679 163.533 143.48C164.866 147.475 167.737 150.346 173.27 150.551C181.674 150.861 187.827 144.194 191.926 137.532L187.517 133.538C186.189 135.485 182.289 140.913 178.604 140.708C176.241 140.708 175.218 138.966 175.218 134.252V82.8973C175.218 79.7215 172.346 77.1598 168.761 77.1598C165.276 77.1598 162.404 79.7215 162.404 82.8973V135.071C160.562 137.433 157.591 140.813 154.614 140.708C152.257 140.708 151.234 138.966 151.234 134.252V82.8973C151.234 79.7215 148.362 77.1598 144.777 77.1598C141.291 77.1598 138.42 79.7215 138.42 82.8973V135.69C138.42 143.17 140.572 150.241 149.286 150.551Z" fill="#F9F8DB"/>
<path d="M193.874 150.551C197.459 150.551 200.33 147.989 200.33 144.808V114.367C200.33 110.577 202.073 107.501 205.763 107.396C209.963 107.396 210.887 110.986 210.887 114.677V135.69C210.887 143.17 213.039 150.241 221.753 150.551C230.157 150.86 236.309 144.194 240.409 137.532L236 133.538C234.666 135.485 230.771 140.913 227.081 140.708C224.724 140.708 223.7 138.965 223.7 134.252V114.572C223.7 109.039 222.267 103.91 218.677 100.834C216.32 98.787 213.144 97.5586 209.349 97.6584C206.173 97.6584 201.968 98.9917 200.021 101.658C198.892 99.0967 196.74 97.6584 193.874 97.6584C190.388 97.6584 187.517 100.22 187.517 103.401V144.808C187.517 147.989 190.388 150.551 193.874 150.551Z" fill="#F9F8DB"/>
<path d="M247.478 150.551C255.883 150.86 262.035 144.194 266.135 137.532L261.725 133.538C260.392 135.485 256.497 140.913 252.806 140.708C250.449 140.708 249.426 138.965 249.426 134.251V103.401C249.426 100.22 246.554 97.6583 242.969 97.6583C239.484 97.6583 236.612 100.22 236.612 103.401V135.69C236.612 143.17 238.764 150.241 247.478 150.551ZM242.969 92.2253C246.864 92.2253 250.04 89.3539 250.04 85.8736V83.7161C250.04 80.2358 246.864 77.4641 242.969 77.4641C239.174 77.4641 235.998 80.2358 235.998 83.7161V85.8736C235.998 89.3539 239.174 92.2253 242.969 92.2253Z" fill="#F9F8DB"/>
<path d="M153.139 227.435C157.344 227.435 160.929 226.207 164.005 224.054C167.386 221.592 170.053 218.007 172 213.902L166.976 210.422C164.21 214.522 160.929 217.697 155.906 217.592C150.682 217.592 148.016 214.212 148.016 207.855V191.251C148.016 187.766 149.349 184.385 153.344 184.28C156.625 184.28 158.163 186.228 158.472 189.818C158.677 193.403 160.625 195.456 164.415 195.456C168.824 195.351 170.362 191.456 170.158 187.461C169.848 183.052 167.591 179.157 163.696 176.9C160.929 175.262 157.549 174.543 154.063 174.543C148.425 174.543 143.811 176.186 140.635 179.157C137.15 182.537 135.202 187.461 135.202 193.508V210.522C135.202 221.183 142.892 227.435 153.139 227.435Z" fill="#F9F8DB"/>
<path d="M187.477 227.435C193.32 227.64 197.42 224.564 201.11 220.364C202.543 224.359 205.414 227.23 210.848 227.435C219.252 227.745 225.404 221.078 229.504 214.417L225.094 210.422C223.761 212.369 219.866 217.797 216.176 217.592C213.819 217.592 212.795 215.85 212.795 211.136V191.456C212.795 181.104 205.824 174.543 195.677 174.543C190.449 174.543 186.039 175.981 182.863 178.642C178.869 181.923 176.611 187.047 176.611 193.508V212.574C176.611 220.054 178.764 227.125 187.477 227.435ZM192.806 217.592C190.449 217.592 189.425 215.85 189.425 211.136V191.251C189.425 187.766 190.858 184.385 194.753 184.28C198.853 184.28 199.981 187.766 199.981 191.356V211.955C198.239 214.317 195.782 217.697 192.806 217.592Z" fill="#F9F8DB"/>
<path d="M241.082 227.435C250.206 227.745 258.814 222.312 258.814 211.34C258.814 206.732 256.662 203.755 253.796 201.708C250.82 199.76 247.129 198.732 243.849 197.708C239.749 196.48 236.263 194.018 236.263 190.228C236.263 186.947 238.006 184.385 241.492 184.28C244.877 184.28 246.416 186.333 246.62 189.508C246.825 192.994 248.772 194.737 252.563 194.632C257.072 194.632 258.51 191.146 258.305 187.152C258.101 182.742 255.744 179.157 251.849 176.9C249.077 175.262 245.696 174.543 242.211 174.543C237.801 174.543 234.011 175.361 230.731 177.414C226.426 180.081 223.66 184.59 223.759 191.251C223.759 196.07 225.812 199.655 228.883 202.217C231.859 204.679 235.649 206.012 239.649 207.445C243.135 208.679 245.901 209.498 246.001 212.574C246.211 216.364 242.416 217.797 239.24 217.697C234.521 217.493 230.526 215.236 226.935 210.422L222.017 213.902C225.198 221.692 232.473 227.435 241.082 227.435Z" fill="#F9F8DB"/>
</svg>
