<svg width="219" height="197" viewBox="0 0 219 197" fill="none" xmlns="http://www.w3.org/2000/svg">
<path d="M151.9 196.612H66.086C65.0748 196.609 64.0666 196.541 63.0642 196.408C62.0589 196.275 61.0683 196.073 60.0923 195.81C59.1133 195.547 58.1579 195.222 57.22 194.831C56.285 194.441 55.3794 193.991 54.5001 193.483C53.6238 192.974 52.7826 192.412 51.9766 191.794C51.1735 191.173 50.4115 190.504 49.6934 189.786C48.9754 189.067 48.3071 188.304 47.6858 187.497C47.0673 186.692 46.5017 185.846 45.9888 184.965L3.10676 110.071C2.59971 109.184 2.15128 108.264 1.7644 107.318C1.37752 106.371 1.05219 105.401 0.788412 104.413C0.527562 103.422 0.331191 102.42 0.19637 101.402C0.0644793 100.388 0 99.3676 0 98.3414C0 97.318 0.0644793 96.2977 0.19637 95.2803C0.331191 94.2659 0.527562 93.2632 0.788412 92.2725C1.05219 91.2817 1.37752 90.3146 1.7644 89.3652C2.15128 88.4188 2.59971 87.5019 3.10676 86.6147L45.9888 11.7562C46.4958 10.866 47.0556 10.0172 47.6711 9.20388C48.2866 8.3876 48.9548 7.61864 49.67 6.89404C50.3851 6.16648 51.1472 5.49216 51.9502 4.86812C52.7533 4.24112 53.5945 3.67327 54.4737 3.15866C55.353 2.64405 56.2586 2.19154 57.1965 1.79819C58.1344 1.40483 59.0928 1.07359 60.0747 0.80741C61.0536 0.54123 62.0472 0.340117 63.0525 0.204071C64.0607 0.0680232 65.0719 0 66.086 0H151.9C152.917 0 153.928 0.068023 154.936 0.201113C155.942 0.33716 156.935 0.538274 157.917 0.804452C158.899 1.07063 159.857 1.40188 160.795 1.79523C161.733 2.18858 162.642 2.64109 163.521 3.1557C164.397 3.67031 165.241 4.23816 166.044 4.86516C166.85 5.4892 167.609 6.16353 168.325 6.89108C169.043 7.61568 169.708 8.3876 170.323 9.20092C170.942 10.0142 171.502 10.866 172.006 11.7562L214.926 86.6413C215.43 87.5315 215.876 88.4484 216.262 89.3977C216.646 90.3441 216.972 91.3113 217.233 92.302C217.493 93.2928 217.69 94.2954 217.822 95.3099C217.951 96.3273 218.018 97.3447 218.018 98.3709C218.018 99.3942 217.951 100.415 217.822 101.429C217.69 102.446 217.493 103.449 217.233 104.437C216.972 105.428 216.646 106.398 216.262 107.344C215.876 108.291 215.43 109.21 214.926 110.098L171.988 184.994C171.478 185.876 170.913 186.719 170.291 187.523C169.673 188.328 169.005 189.091 168.286 189.809C167.568 190.528 166.806 191.193 166 191.812C165.197 192.43 164.356 192.992 163.48 193.5C162.601 194.006 161.695 194.456 160.76 194.843C159.825 195.231 158.87 195.556 157.891 195.819C156.915 196.082 155.924 196.28 154.922 196.411C153.919 196.544 152.911 196.612 151.9 196.612Z" fill="#FFE6B5"/>
<path d="M51.3837 103.101C50.2347 103.383 48.4041 103.958 44.9359 104.657C35.0449 106.654 18.2678 114.129 19.0248 124.308C19.1445 125.885 20.0096 127.31 21.0138 128.782C23.4469 132.337 26.5559 133.026 30.8043 133.606C38.992 134.712 45.4553 131.92 50.2985 130.441C51.1578 130.188 52.1793 129.832 53.1159 129.35C52.0326 120.706 49.9007 111.729 51.3837 103.101Z" fill="#DFD6CB"/>
<path d="M52.9185 97.5006C56.518 88.2604 62.7129 80.4009 67.025 71.5277C63.9874 69.2973 51.924 61.1076 44.6226 58.4736C26.2292 51.8442 13.9785 64.0158 26.3721 81.0652C30.296 86.4742 36.1684 91.9005 45.0166 96.6412C48.4249 98.47 48.0812 98.3966 49.8655 99.0686C50.7132 99.393 51.4432 99.7116 52.0901 99.9801C52.3276 99.1497 52.598 98.3232 52.9185 97.5006Z" fill="#DFD6CB"/>
<path d="M193.547 126.876C193.045 124.632 193.149 123.338 189.071 119.876C183.938 115.51 169.66 109.68 164.56 108.324C164.811 111.464 164.703 114.641 163.921 117.651C162.917 121.527 160.238 124.922 159.458 128.842C163.374 131.675 171.218 134.703 172.676 135.357C175.793 136.742 186.489 137.962 191.193 133.015C192.535 131.59 194.001 128.859 193.547 126.876Z" fill="#DFD6CB"/>
<path d="M197.452 67.3063C195.576 62.9189 192.039 59.92 187.263 59.5724C179.68 59.0356 161.356 67.3527 154.873 71.3809C154.431 71.6532 153.973 71.9293 153.527 72.2113C157.055 82.1795 161.634 91.8348 163.693 102.261C163.839 103.01 163.974 103.769 164.098 104.534C164.473 104.626 164.863 104.651 165.272 104.574C165.515 104.669 165.765 104.717 166.014 104.717C167.112 104.717 172.494 101.788 173.97 100.837C183.866 94.4553 188.194 89.9134 189.905 88.2874C194.476 84.1511 197.484 81.0324 198.649 75.16C199.388 71.435 198.944 70.8267 197.452 67.3063Z" fill="#DFD6CB"/>
<path d="M167.248 106.073C167.138 102.664 165.689 95.5462 165.054 92.5975C160.545 71.8211 144.718 56.0404 130.783 49.9903C126.313 48.0496 126.35 48.1403 119.716 47.0995C114.57 46.2942 114.869 46.7944 110.99 46.7944C96.8254 46.7944 86.9692 50.3533 79.1542 55.2351C75.4639 57.5331 70.9606 60.729 67.8053 63.7299C60.9094 70.2839 57.1091 77.1006 57.5185 76.3803C60.2915 71.7882 44.3428 94.0902 48.5332 124.474C49.4929 131.435 52.2157 140.801 56.0895 148.921C59.0401 155.104 68.9987 168.346 72.7005 172.447C79.7007 180.21 95.464 194.189 104.691 196.483C107.323 197.354 108.537 196.779 109.756 196.333C118.587 193.108 120.562 190.416 123.3 188.782C125.61 187.413 129.491 184.043 128.037 185.272C139.301 175.827 132.06 182.802 144.786 170.319C149.53 165.453 158.734 151.068 161.028 145.078C161.648 143.468 164.641 134.662 164.907 133.496C166.512 126.353 167.574 116.041 167.248 106.073Z" fill="#F28F38"/>
<path d="M134.982 35.2023C137.618 29.1735 136.098 32.1686 138.962 31.1973C145.865 28.8356 146.968 17.1565 137.919 16.1543C131.394 15.4417 126.616 25.2515 132.3 29.917C130.475 34.0244 126.282 45.1281 126.259 45.1956C124.129 51.0333 123.312 51.3519 124.162 52.8002C125.186 54.5478 127.814 54.2099 128.36 52.2499C131.062 45.8445 133.588 38.5933 134.982 35.2023Z" fill="black"/>
<path d="M98.7394 50.5523C98.2296 48.0805 94.746 35.3046 92.336 28.2542C94.1357 26.804 94.7923 24.2743 94.6224 22.0381C94.0064 14.1246 83.9532 12.0467 81.4003 20.1688C79.9037 24.842 82.8853 30.1409 87.854 30.2799C89.4143 34.9125 93.1567 47.6711 94.2323 51.794C94.9738 54.6288 99.4037 53.7791 98.7394 50.5523Z" fill="black"/>
<path d="M85.4229 79.3778C81.804 78.3794 82.7483 85.3043 77.6754 89.6608C76.9513 90.1763 76.5283 90.3849 75.6632 90.5626C74.7846 90.6321 73.3459 90.6282 72.4673 90.3656C70.4706 89.3923 69.7889 88.4847 69.4394 86.9109C68.526 82.817 69.3679 78.4528 69.5552 76.599C69.8044 74.0905 65.4788 73.2582 65.1389 76.599C65.0539 77.4487 64.2622 82.7301 64.6561 85.9357C65.3764 91.6324 68.0876 94.8573 74.0353 95.0562C76.8547 95.1662 79.3226 94.4711 81.2807 92.3797C83.9108 89.5719 85.6507 85.6499 86.9117 82.0002C87.2902 80.8995 86.4927 79.6713 85.4229 79.3778Z" fill="black"/>
<path d="M156.378 85.7134C156.34 82.9481 152.219 82.8689 152.141 85.7134C152.07 88.3397 152.149 92.3447 149.654 95.9056C148.14 97.6783 144.794 97.5277 142.407 96.6182C138.701 94.8783 138.776 93.6289 138.081 91.4796C137.34 89.1932 137.494 87.3934 137.444 85.0993C137.384 82.0753 132.937 82.2703 132.999 85.0993C133.051 87.7236 132.923 92.561 135.231 96.3671C139.188 102.902 156.695 107.523 156.378 85.7134Z" fill="black"/>
<path d="M114.429 101.054C112.664 101.054 111.453 103.5 105.639 102.823C101.703 102.239 101.317 100.772 99.7566 101.195C97.476 101.82 96.2227 106.555 107.894 106.93C109.929 106.994 112.498 106.598 115.477 104.904C117.227 103.914 116.619 101.054 114.429 101.054Z" fill="black"/>
<path d="M104.032 156.898C78.0343 155.686 70.1517 151.547 62.076 148.027C59.7973 147.033 56.136 145.076 53.7627 143.555C54.483 145.376 55.2573 147.177 56.0896 148.921C58.3606 153.683 64.791 162.632 69.3175 168.367C78.0961 171.134 88.5722 173.096 97.683 173.954C112.141 175.379 125.425 174.828 146.323 168.601C150.339 163.812 156.117 154.927 159.276 148.844C143.181 155.046 120.784 157.665 104.032 156.898Z" fill="black"/>
<path d="M80.4328 179.71C80.1818 179.645 79.9635 179.587 79.7646 179.535C87.5411 186.753 97.8897 194.792 104.691 196.484C107.323 197.354 108.538 196.779 109.756 196.333C118.587 193.108 120.562 190.416 123.301 188.782C125.324 187.583 128.553 184.847 128.345 185.013C128.24 185.102 128.146 185.181 128.038 185.272C128.219 185.119 128.316 185.038 128.345 185.013C133.562 180.647 134.646 179.946 135.775 179.007C134.85 179.162 132.17 179.894 126.622 180.886C109.899 183.532 97.7854 184.163 80.4328 179.71Z" fill="black"/>
<path d="M155.165 117.618C147.744 119.903 147.449 119.945 140.841 121.285C132.062 123.045 114.787 124.555 103.546 123.52C88.2112 122.116 65.1754 115.844 51.5826 106.507C49.8118 105.217 48.9274 104.45 48.4832 104.083C47.6876 110.228 47.5196 117.112 48.5335 124.474C48.6918 125.621 48.9023 126.841 49.1553 128.104C63.9724 138.982 85.5347 145.094 102.714 145.814C121.13 146.569 146.483 142.923 164.521 134.803C164.72 134.175 164.859 133.708 164.908 133.496C166.111 128.139 167.011 121 167.244 113.559C160.095 116.57 159.587 116.257 155.165 117.618Z" fill="black"/>
</svg>
